<svg width="200" height="200" viewBox="0 0 200 200" fill="none" xmlns="http://www.w3.org/2000/svg">
<mask id="mask0_11_363" style="mask-type:luminance" maskUnits="userSpaceOnUse" x="5" y="20" width="190" height="161">
<path d="M190.206 20C189.014 20.9402 187.823 21.8803 186.631 22.8205C186.06 23.1013 185.877 23.8423 185.154 23.8503C184.486 24.1325 183.927 24.6601 183.219 24.9158C182.652 25.01 182.11 25.2621 182.053 25.8146C182.116 26.7011 180.981 26.9479 180.315 27.373C179.606 27.8873 178.714 27.9964 177.841 28.1467C176.942 28.1731 176.449 29.0557 175.516 28.9762C174.663 28.9805 173.904 29.3567 173.319 29.8814C172.803 30.592 171.796 30.1952 171.023 30.3087C170.459 30.2435 169.659 30.0619 170.001 30.8456C169.366 31.1061 169.083 30.5014 168.654 30.2462C168.206 30.0068 167.512 29.9759 167.514 29.3779C167.363 28.8115 166.562 28.4985 165.991 28.8154C165.497 28.9497 164.971 29.0703 164.482 29.12C163.885 29.0868 163.965 28.2747 163.657 27.9103C162.995 28.0113 162.702 28.7241 162.023 28.7514C160.99 28.8505 159.895 29.2308 159.209 29.9257C158.776 30.52 157.798 30.825 157.744 31.5855C157.043 32.1001 156.991 33.0165 156.339 33.5866C156.079 34.1773 155.463 34.5407 154.781 34.7105C154.568 35.2596 154.184 35.7802 153.54 35.9896C152.894 36.2552 153.111 36.7498 153.023 37.2471C152.28 37.503 152.557 38.2511 152.329 38.7626C152.117 39.1861 151.848 39.1004 151.354 39.231C151.448 39.4082 151.512 39.5575 151.526 39.6339C151.564 39.8438 150.701 39.3603 150.597 39.5412C150.492 39.7222 150.454 40.0981 150.871 40.2529C151.286 40.4075 151.538 40.6837 151.324 40.9268C151.11 41.1699 149.862 41.015 149.811 41.1034C149.785 41.1501 149.783 41.2551 149.811 41.3489C149.01 41.4067 148.475 41.4224 147.857 41.9288C147.796 42.4896 147.824 42.6665 147.191 42.9013C146.964 43.1838 146.936 43.3816 146.597 43.5685C146.207 43.2614 146.106 42.9133 145.547 42.7089C145.268 42.9576 145.134 43.0847 145.137 43.4551L144.746 43.8659C144.057 44.503 143.002 44.6696 142.221 45.2124C141.097 46.001 140.12 47.1543 138.568 47.2402C137.657 47.2746 136.888 47.9023 135.973 47.7606C134.995 47.4708 134.266 48.5072 133.312 48.1488C133.031 47.7321 133.018 47.056 132.255 47.0177C132.16 46.3998 131.834 46.2345 131.162 46.5444C130.896 46.8234 129.952 47.7508 130.907 47.639C131.594 47.4652 131.781 48.8992 131.074 48.2305C130.407 47.9844 130.692 49.0737 130.489 49.3913C130.174 50.1059 129.382 49.0991 129.052 49.5984C128.163 49.8576 128.544 50.4991 128.279 50.7038C127.643 50.9123 127.061 50.5783 127.423 49.9745C127.816 49.3454 127.272 49.0007 126.568 49.1259C125.961 48.8142 125.216 48.8855 124.697 49.3013C124.186 49.9654 123.544 49.3449 123.133 49.7346C123.199 50.4371 122.684 51.2359 121.847 51.3428C121.428 51.942 120.662 52.4925 119.826 52.1692C119.126 52.2633 118.329 52.3292 117.702 52.6377C117.364 53.0334 116.835 53.6219 117.191 54.1218C117.159 54.6322 117.896 55.0631 117.414 55.4803C116.757 55.3053 116.407 55.0951 115.855 55.6283C114.908 56.3333 113.741 56.6601 112.587 57.0097C111.861 57.2813 111.75 57.7251 111.106 57.8268C111.45 57.9834 111.752 58.4774 111.671 58.598C111.588 58.7184 111.354 58.7305 111.313 59.0798C111.272 59.4292 111.368 59.6582 111.671 59.6341C111.973 59.61 112.728 60.2606 112.619 60.4051C112.509 60.5497 112.549 61.1763 112.137 60.9835C112.045 61.0147 111.685 61.6196 111.637 61.8582C111.588 62.0967 111.491 62.7269 111.306 62.8292C111.122 62.9315 110.655 63.0765 110.577 63.3917C110.499 63.707 110.597 64.2522 110.287 64.3033C109.975 64.3544 109.538 64.2862 109.393 64.6015C109.246 64.9167 109.382 65.2063 109.091 65.3767C108.799 65.5471 108.518 65.811 108.479 65.9813C108.44 66.1518 107.906 66.6971 107.643 66.8079C107.381 66.9186 106.837 66.9357 106.633 67.1998C106.429 67.4639 106.438 67.8132 106.322 68.0262C106.205 68.2392 106.41 68.4523 106.263 68.7164C106.118 68.9805 105.301 68.7759 105.097 68.9803C104.893 69.1848 104.758 69.5426 104.456 69.7556C104.154 69.9686 103.212 70.4371 103.125 70.6671C103.024 70.6071 102.716 70.3823 102.615 70.3223C101.672 70.2961 101.193 69.7482 100.758 69.0579C100.536 68.0433 99.9799 67.0374 99.9935 65.9723C100.568 65.2481 99.7477 64.523 99.7823 63.7667C99.8417 62.9621 99.6776 62.2498 100.263 61.6929C99.0487 61.5998 98.4839 62.7607 97.6626 63.3544C96.6722 64.1242 96.4254 65.2708 95.5056 66.0872C94.4422 67.0838 92.5936 67.4702 92.1382 68.8964C91.7527 69.776 90.9117 70.2696 90.0112 70.7131C89.6823 71.7021 88.9552 72.6611 88.9609 73.6747C88.5685 74.3871 89.3101 75.1075 89.0562 75.891C89.3461 76.6322 89.1924 77.3164 88.7972 77.9685C89.5024 78.7947 87.6348 79.08 87.9483 79.6964C87.9416 80.4457 89.8085 79.3852 89.2069 80.3896C88.8234 80.9374 87.9272 81.3019 87.1264 81.2243C86.4857 80.9586 85.4439 82.1947 85.7291 81.1305C85.1444 81.0083 84.3871 81.6334 83.606 81.6427C82.6523 82.1222 85.3206 82.8873 83.3922 82.704C82.6864 82.3198 81.6652 82.3061 81.781 83.2914C81.9427 84.2835 80.6413 84.5483 80.2707 85.2877C79.7617 85.7915 78.69 85.7953 79.2144 86.8352C79.004 87.4664 78.6715 88.441 77.7874 88.0702C76.5579 88.3419 76.1102 89.3911 75.691 90.3251C75.1872 90.9432 75.4116 91.5625 75.1332 92.2913C75.4121 93.1868 74.3868 93.4325 73.8539 93.9397C73.169 94.4276 72.3312 94.7962 72.0345 95.6099C72.1382 96.3528 71.2262 96.8764 71.7124 97.5158C72.4483 97.9038 71.9461 99.119 71.1065 98.8457C69.9028 99.1525 71.9432 99.3278 71.137 100.155C69.647 100.823 72.393 100.489 71.5424 101.269C70.5358 101.459 70.8902 102.428 70.5667 103.023C69.3427 103.161 70.9356 104.376 70.3675 104.768C69.9609 105.514 68.9605 105.938 68.8061 106.77C67.9863 107.011 67.7237 107.841 67.7909 108.622C67.993 109.332 66.5907 110.004 67.2924 110.522C67.8603 111.202 67.2983 112.162 67.1572 112.933C67.338 113.605 68.6045 113.914 68.5605 114.753C68.4248 115.729 69.2589 116.431 69.7667 117.23L69.4399 117.804L68.7035 117.989L68.4248 118.522L67.5891 119.007C67.2049 119.186 66.7627 119.269 66.3579 119.412C65.6429 119.261 65.2988 119.657 65.0457 120.188C64.5328 120.418 63.8039 120.352 63.2318 120.569C62.9847 120.988 62.6222 121.444 62.1111 121.747C61.5196 121.947 61.6843 122.968 60.9018 122.581C60.7533 123.183 60.4257 123.74 59.9081 124.162C59.4377 124.166 58.8368 123.724 58.4507 123.4C57.6513 123.154 56.9199 122.599 56.03 122.766C55.2043 122.94 54.5981 123.583 54.0388 124.124C53.8109 124.914 53.8734 125.967 52.8579 126.323C52.5218 126.831 51.7101 127.388 51.0835 127.442C50.8099 127.275 50.3836 127.033 50.3424 126.925C50.3011 126.817 50.6559 126.385 50.3948 126.277C50.1336 126.169 49.8889 126.009 49.8889 126.009C49.8889 126.009 50.0401 125.54 49.7652 125.275C49.4904 125.01 49.1606 124.66 49.1331 124.491C49.1056 124.323 49.1606 124.058 49.2293 123.853C49.298 123.648 49.5042 123.528 49.7515 123.335C49.9988 123.142 49.779 122.793 49.8477 122.54C49.9164 122.286 50.3561 121.937 50.3149 121.599C50.2737 121.262 49.724 121.094 49.8889 120.768C50.0537 120.443 50.1225 120.346 50.5347 120.407C50.9469 120.467 50.9745 119.491 51.0294 119.347C51.0844 119.203 50.7133 119.057 50.6722 118.828C50.631 118.599 50.837 118.251 50.7683 117.853C50.6997 117.455 50.4798 117.286 50.5073 117.13C50.5347 116.973 50.5347 116.491 50.3836 116.178C50.2324 115.864 50.2737 115.37 50.1706 115.262C50.0675 115.154 49.8477 115.04 49.724 114.768C49.6003 114.497 49.511 114.322 49.3599 114.304C49.1155 114.126 49.0212 113.777 48.8901 113.514C48.6584 113.366 48.6408 112.998 48.3735 113.225C48.1062 113.452 47.9991 113.717 48.2219 113.866C48.4447 114.014 48.7478 114.217 48.5873 114.382C48.4269 114.546 48.186 114.858 47.9187 114.967C47.6514 115.077 47.6336 115.404 47.491 115.593C47.3484 115.78 46.8784 115.787 46.8611 116.068C46.4776 116.182 45.6037 116.443 45.2262 116.443C44.4031 116.647 45.098 117.246 44.0493 117.244C43.2553 117.421 43.2141 118.049 42.7906 118.38C42.1006 118.771 41.2203 118.294 40.9295 119.011C41.4201 120.542 41.6004 122.039 42.2946 123.503C42.2387 124.318 42.0746 124.318 42.0563 123.896C41.9312 124.133 41.2572 124.032 41.0768 124.11C40.8963 124.188 40.4329 124.047 40.3794 124.39C40.3259 124.734 39.6307 124.86 39.506 125.032C39.3813 125.204 39.5167 125.71 39.5167 125.71C39.5167 125.71 39.0761 125.277 38.6673 125.717C38.2585 126.157 37.6092 125.78 37.3993 125.929C37.1892 126.079 36.28 125.875 36.2977 126.297C36.3156 126.719 36.1816 127.076 35.7666 127.054C35.3516 127.033 35.0492 127.456 35.0765 127.767C35.1038 128.078 34.5689 127.97 34.3195 128.048C34.0699 128.126 34.0907 128.171 34.2662 128.563C34.4416 128.955 34.284 129.376 34.0167 129.313C33.7494 129.251 33.2856 129.048 33.3034 129.407C33.3212 129.767 33.4551 130.321 32.8981 130.271C32.341 130.22 31.8241 130.204 31.8241 130.47C31.8241 130.736 31.561 131.243 31.14 131.333C30.719 131.423 29.9351 131.205 29.8638 131.361C29.7925 131.517 30.0685 131.742 30.1532 131.902C30.2379 132.064 29.5094 131.89 29.1505 132.158C28.7916 132.426 28.1704 132.689 28.1169 133.158C28.0634 133.626 27.6178 133.643 27.2791 133.705C26.9404 133.767 27.0831 133.986 26.9227 134.236C26.7623 134.486 26.2453 134.736 26.1206 134.908C25.9958 135.08 26.0138 135.409 26.2455 135.627C26.4772 135.846 26.2789 136.196 25.9424 136.424C25.6058 136.652 25.2682 136.72 25.0693 137.143C24.8705 137.566 24.9356 137.682 24.6326 137.713C24.3296 137.745 23.7948 137.643 23.866 137.87C23.9374 138.096 23.8485 138.448 23.5544 138.558C23.2602 138.667 22.6987 138.854 22.7165 139.12C22.7343 139.385 22.663 139.753 22.4224 139.87C22.1818 139.988 21.87 140.308 21.6383 140.597C21.4066 140.885 21.326 140.901 20.9963 140.933C20.6665 140.964 20.3781 141.707 20.0378 141.718C19.6975 141.729 19.5338 141.442 19.307 141.596C19.0801 141.751 18.899 141.56 18.4155 141.791C17.932 142.021 17.8657 142.141 17.8323 142.447C17.799 142.753 17.7945 142.922 17.2526 142.591C16.7106 142.259 15.8562 142.152 15.9416 142.381C16.0269 142.61 16.1558 142.977 15.7651 143.21C15.3744 143.442 14.9083 143.21 14.5554 143.541C14.2025 143.872 14.1393 144.005 13.5974 143.884C13.0555 143.762 11.959 143.995 11.9338 144.093C11.9086 144.193 12.0978 144.293 12.249 144.348C12.4003 144.403 11.1847 144.519 11.5946 145.019C12.0045 145.519 12.3424 145.919 11.924 145.961C11.5055 146.004 10.7515 145.949 10.4541 146.457C10.1566 146.965 9.943 147.526 9.6038 147.924C9.2646 148.322 8.69835 147.928 8.44437 148.271C8.19038 148.614 8.20801 149.052 7.9763 149.348C7.7446 149.645 7.3346 149.817 6.92465 149.536C6.51472 149.254 5.83782 149.113 5.65959 149.411C5.48135 149.707 5.28518 150.411 5 150.489C5 150.489 5.61499 150.215 5.90908 150.458C6.20317 150.7 6.59572 150.783 6.72884 150.895C6.86196 151.008 6.84475 151.247 7.09427 151.364C7.3438 151.482 7.50427 151.794 7.45971 152.02C7.41516 152.247 7.34354 152.669 7.4683 152.943C7.59306 153.216 8.07717 153.533 8.2537 153.498C8.43024 153.462 9.02271 153.365 9.17395 153.553C9.32519 153.741 8.54374 154.216 8.74538 154.459C8.94704 154.702 9.62765 154.238 9.71588 154.448C9.80409 154.657 10.427 154.865 10.3914 155.029C10.3557 155.193 10.0527 155.232 10.2131 155.513C10.3736 155.795 10.6945 155.857 10.8371 155.873C10.9797 155.889 11.1581 156.592 11.0333 156.678C10.9086 156.764 10.3111 156.717 10.427 156.967C10.5428 157.217 10.8729 157.224 10.9264 157.475C10.9799 157.725 10.8904 157.999 11.1132 158.014C11.336 158.03 11.7105 158.053 11.96 158.232C12.2095 158.413 12.6103 158.835 12.9133 158.975C13.2163 159.116 13.5194 159.295 13.8224 159.061C14.1254 158.826 14.3749 158.663 14.6869 158.889C14.9987 159.116 15.3106 159.233 15.5156 159.21C15.7206 159.186 16.0949 159.334 16.4869 159.686C16.5843 159.747 16.8301 160.067 17.0821 160.072C17.3342 160.078 17.5235 160.36 17.6369 160.547C17.7503 160.736 18.1471 160.747 18.3803 160.575L18.5803 161.613C18.5803 161.613 19.4547 163.113 19.5908 163.283C19.7268 163.454 19.824 163.931 19.6685 164.016C19.5131 164.101 19.0467 164.016 19.0467 164.101C19.0467 164.187 19.1243 165.005 18.9106 165.243C18.6968 165.482 18.1917 166.607 18.1917 166.607C18.1261 166.89 17.9882 167.425 17.8516 167.995C17.8516 167.995 18.104 168.455 18.2012 168.719C18.2984 168.983 18.0945 169.997 18.2111 170.253C18.3276 170.508 19.298 172.416 19.298 172.416C19.298 172.416 19.2218 173.405 19.3967 173.746C19.5716 174.087 19.5519 174.7 19.4353 174.905C19.3188 175.109 19.2605 176.03 19.2605 176.03L19.3576 176.54C19.3576 176.54 20.2323 176.677 20.5432 176.694C20.8542 176.711 21.9617 176.762 22.4087 176.812C22.8556 176.864 23.3413 176.251 23.73 176.318C24.1187 176.387 24.4491 176.898 24.7018 176.694C24.9544 176.489 25.6154 175.91 26.0235 175.978C26.4316 176.046 27.7334 176.404 27.8112 176.421C27.8889 176.438 28.705 177.171 28.7438 177.426C28.7828 177.682 28.4526 178.006 28.783 178.176C29.1133 178.347 29.7738 178.551 29.8904 178.618C30.007 178.687 29.9487 179.028 30.279 179.266C30.6094 179.505 31.1733 179.642 30.9206 179.794C30.668 179.948 30.4346 180.34 30.629 180.425C30.8234 180.51 32.1492 180.395 32.1492 180.395C32.1617 180.107 32.3761 180.162 32.603 180.118C32.8299 180.074 32.5653 179.555 32.5275 179.377C32.4897 179.201 32.8426 179.289 32.9182 179.035C32.9938 178.781 33.0943 178.659 33.1952 178.549C33.296 178.438 33.6238 177.897 33.838 177.687C34.0523 177.477 33.737 177.356 33.8883 177.245C34.0395 177.134 34.3802 176.758 34.3675 176.493C34.3549 176.228 34.5314 176.04 34.8339 175.863C35.1364 175.687 35.2117 175.344 35.2495 175.101C35.2873 174.858 35.653 174.747 36.089 174.729C36.5252 174.711 36.0939 174.593 35.9804 174.295C35.867 173.997 36.0373 173.764 36.22 173.587C36.4028 173.41 36.7618 173.046 36.9509 172.869C37.1399 172.692 37.0581 172.422 37.0708 172.272C37.0833 172.123 37.4047 172.045 37.5748 171.929C37.745 171.814 37.5117 171.731 37.3352 171.604C37.1588 171.476 37.4116 171.282 37.6256 171.211C37.8394 171.141 38.2854 170.954 38.4547 170.828C38.624 170.703 38.5883 170.633 38.4101 170.57C38.2319 170.508 38.321 170.203 38.3032 169.985C38.2853 169.765 37.9911 169.664 38 169.477C38.0089 169.289 38.4368 169.578 38.6595 169.524C38.8823 169.469 38.9218 169.259 39.0872 169.344C39.2527 169.428 39.702 169.36 39.7555 169.172C39.8089 168.984 39.4707 168.742 39.6399 168.609C39.8092 168.476 39.8002 168.313 39.8091 168.164C39.8181 168.015 40.1477 167.984 40.2725 167.836C40.3972 167.688 40.0051 167.445 40.014 167.203C40.0229 166.961 40.3527 167.109 40.3527 166.937C40.3527 166.765 40.1566 166.539 40.2368 166.445C40.317 166.351 40.6201 166.554 40.8874 166.671C41.1547 166.789 41.4667 166.687 41.6934 166.585C41.9201 166.483 42.2688 166.789 42.447 166.742C42.6253 166.695 42.7141 166.257 42.8211 166.023C42.928 165.789 43.1777 165.367 43.3471 165.343C43.5164 165.319 43.6947 165.297 43.8551 165.054C44.0155 164.812 44.3543 164.929 44.586 164.827C44.8177 164.726 45.1384 164.39 45.1472 164.085C45.1561 163.78 45.0583 163.757 45.0137 163.585C44.9692 163.413 45.5573 163.163 45.5929 163.109C45.6286 163.054 45.6286 162.897 45.7355 162.756C45.8425 162.616 46.6801 162.436 46.9564 162.319C47.2326 162.201 47.5177 161.733 47.6335 161.648C47.7494 161.561 47.892 161.842 48.106 161.733C48.3198 161.624 48.3111 161.498 48.3021 161.382C48.2932 161.265 48.8545 161.335 49.0416 161.288C49.2288 161.241 48.8991 160.999 48.7209 160.834C48.5426 160.67 48.8991 160.568 49.2289 160.514C49.5586 160.459 49.5673 160.319 49.8257 160.186C50.0841 160.053 49.8438 159.92 49.6656 159.71C49.4874 159.499 49.71 159.529 49.8704 159.444C50.0309 159.358 50.0575 159.225 50.013 159.107C49.9684 158.99 50.3518 158.842 50.4944 158.576C50.637 158.311 51.4388 157.794 51.6615 157.607C51.8843 157.42 51.9914 157.506 52.0716 157.646C52.0445 157.422 52.7439 156.213 52.5496 155.889C52.3552 155.565 51.7722 154.695 51.403 154.525C51.0338 154.355 50.3731 153.946 49.7901 154.184C49.2071 154.423 48.1188 154.849 48.1188 154.849C48.1188 154.849 47.4387 154.543 47.3416 154.219C47.2444 153.896 47.4389 153.418 47.6916 153.111C47.9442 152.805 47.9443 151.833 48.1385 151.68C48.3329 151.527 49.4791 151.493 49.8094 151.288C50.1398 151.084 51.3836 150.811 51.6362 150.794C51.8889 150.777 52.9579 150.725 52.9579 150.725C52.9579 150.725 53.5602 149.942 53.7545 149.84C53.9488 149.737 54.0268 150.113 54.3183 149.686C54.6099 149.261 54.4734 149.056 54.7649 149.107C55.0564 149.158 55.5813 149.431 56.106 149.465C56.6307 149.499 57.1943 149.755 57.5441 149.737C57.8939 149.72 58.477 149.396 58.8268 149.396C59.1766 149.396 60.1872 148.698 60.2649 148.664C60.3426 148.63 61.5667 148.834 61.8388 148.834C62.1109 148.834 62.3443 148.579 62.7134 148.818C63.0827 149.056 63.6462 149.192 64.1709 149.141C64.6956 149.09 65.6476 149.243 65.9586 149.413C66.2695 149.584 66.6974 149.976 67.1249 149.976C67.5525 149.976 68.0121 149.667 68.0121 149.667C68.0965 149.673 68.6871 149.48 68.7696 149.251C68.8521 149.022 68.8245 148.793 68.9344 148.757C69.0444 148.721 70.13 148.202 70.3636 148.202C70.5972 148.202 71.5041 148.588 71.8065 148.624C71.9851 148.552 73.0156 147.733 72.9057 147.528C72.7958 147.323 71.7789 146.793 71.8201 146.733C71.8614 146.673 72.9195 146.179 72.9195 146.179C72.9195 146.179 73.4141 146.359 73.5791 146.504C73.744 146.648 73.8127 147.154 73.9913 147.263C74.17 147.371 74.7609 147.371 74.9532 147.479C75.1456 147.589 74.7471 148.384 75.1044 148.215C75.4617 148.046 75.6265 147.552 76.0388 147.769C76.451 147.986 76.3411 148.191 76.4648 148.227C76.5884 148.263 76.8083 148.251 77.0556 148.492C77.303 148.732 77.5504 148.997 77.5504 149.154C77.5504 149.311 77.5916 149.444 77.5916 149.444L78.2924 149.745C78.2924 149.745 78.526 149.455 78.7458 149.383C78.9657 149.311 79.1306 149.094 79.4741 149.372C79.8176 149.648 79.8864 149.853 80.01 150.034C80.1337 150.214 80.6009 150.432 80.5872 150.625C80.5734 150.818 80.1062 151.685 80.1062 151.685C80.1062 151.685 80.9582 151.624 81.4529 151.95C81.9476 152.275 82.3736 152.275 82.3736 152.275C82.3736 152.275 83.2118 152.383 83.5553 152.372C83.8988 152.359 84.5035 152.673 84.7783 152.745C85.0532 152.817 85.5066 152.552 85.6715 152.323C85.8363 152.094 86.07 151.083 86.3448 150.744C86.6196 150.407 87.5404 149.432 87.5404 149.432C87.5404 149.432 88.2274 149.311 88.5984 149.468C88.9694 149.624 89.4229 149.805 89.7664 149.938C90.1099 150.07 90.8366 149.78 90.8366 149.78C90.8366 149.78 90.5084 150.672 90.4948 150.877C90.481 151.083 90.0412 151.444 90.0412 151.516C90.0412 151.588 90.0961 151.806 90.1787 151.865C90.2611 151.925 90.8657 152.179 91.1818 152.203C91.4979 152.226 91.9375 153.155 92.0888 153.288C92.2399 153.42 92.6383 153.829 92.6383 153.829C92.6383 153.829 93.2018 154.143 93.2843 154.263C93.3667 154.384 94.2874 154.588 94.4797 154.624C94.6721 154.66 95.1531 154.166 95.4279 154.143C95.7028 154.119 97.8141 154.423 97.8141 154.423C98.786 154.61 99.3356 154.034 99.96 153.327C100.65 153.646 101.225 154.044 101.607 154.631C102.475 154.877 103.09 154.611 103.823 153.995C104.214 153.939 104.466 153.774 104.693 153.763C104.919 153.751 105.486 153.541 105.713 153.442C105.94 153.343 106.369 153.376 106.646 153.254C106.924 153.133 107.906 152.779 107.944 152.658C107.982 152.536 109.091 151.95 109.293 151.74C109.494 151.53 110.276 151.442 110.578 151.475C110.88 151.508 111.183 151.353 111.461 151.199C111.738 151.045 112.734 151.233 112.796 151.21C112.859 151.188 113.44 149.939 113.565 149.53C113.691 149.122 113.251 148.492 113.237 148.226C113.225 147.961 113.402 147.376 113.452 147.033C113.502 146.691 114.208 146.601 114.435 146.491C114.661 146.381 115.141 146.238 115.367 146.238C115.594 146.238 115.865 145.889 116.099 145.828C116.331 145.767 116.905 145.404 117.081 145.215C117.258 145.027 117.781 144.552 117.92 144.447C118.059 144.342 118.783 144.397 119.142 144.364C119.502 144.331 119.93 144.79 120.043 144.861C120.156 144.933 120.258 144.834 120.548 144.79C120.837 144.745 120.585 144.503 120.699 144.48C120.812 144.458 121.543 144.568 121.732 144.458C121.921 144.348 121.656 143.773 121.783 143.497C121.908 143.22 122.148 143.442 122.325 143.365C122.501 143.287 122.891 142.944 123.169 142.922C123.446 142.9 123.093 142.557 123.181 142.381C123.269 142.204 123.661 142.469 123.988 142.436C124.316 142.402 124.183 141.929 124.404 141.851C124.625 141.772 125.185 141.574 125.311 141.419C125.437 141.264 125.198 141.099 125.576 140.966C125.954 140.834 126.03 140.359 126.03 140.359C126.03 140.359 126.483 139.508 126.546 139.397C126.609 139.286 127.353 139.143 127.454 139.088C127.555 139.033 127.126 138.525 127.177 138.37C127.227 138.215 128.122 137.607 128.462 137.618C128.802 137.629 129.571 138.248 129.571 138.248C129.622 138.248 130.504 138.193 130.554 138.182C130.604 138.17 130.932 138.491 130.706 138.491C130.479 138.491 130.107 138.426 130.072 138.564C130.037 138.701 130.138 139.187 130.012 139.22C129.886 139.253 129.244 139.628 129.193 139.783C129.143 139.938 129.634 139.761 129.709 139.806C129.785 139.85 130.025 140.171 129.723 140.181C129.42 140.193 129.029 140.093 129.029 140.226C129.029 140.358 129.558 140.558 129.558 140.701C129.558 140.844 128.966 140.646 128.89 140.756C128.814 140.866 129.193 141.021 129.168 141.198C129.143 141.375 128.18 141.38 128.437 141.563C128.694 141.746 129.117 141.795 128.953 141.917C128.79 142.039 128.223 141.95 128.311 142.127C128.399 142.304 128.474 142.557 128.55 142.514C128.626 142.469 129.143 142.071 129.307 142.071C129.47 142.071 129.949 141.861 129.974 142.082C129.93 142.159 130.037 142.557 129.905 142.58C129.773 142.602 129.357 142.679 129.269 142.851C129.18 143.022 129.187 143.442 128.972 143.481C128.758 143.519 128.601 143.64 128.626 143.873C128.651 144.105 128.276 144.855 128.178 144.98C128.08 145.105 127.598 145.113 127.625 145.3C127.653 145.488 128.053 145.785 127.857 145.879C127.661 145.973 127.162 145.746 127.1 145.793C127.037 145.84 127.234 146.098 127.126 146.27C127.02 146.442 126.663 146.465 126.805 146.668C126.949 146.871 126.957 147.175 126.787 147.23C126.618 147.285 126.244 147.191 126.27 147.418C126.297 147.645 127.046 147.754 127.144 147.918C127.242 148.083 127.216 148.207 127.14 148.305C127.064 148.403 126.921 148.617 127.068 148.684C127.216 148.75 127.577 148.727 127.519 148.848C127.461 148.969 127.184 149.223 127.06 149.262C126.934 149.301 126.573 149.566 126.894 149.738C127.216 149.91 127.893 149.942 127.787 150.13C127.679 150.317 126.681 150.895 126.833 151.028C126.984 151.161 127.394 151.262 127.198 151.411C127.002 151.56 126.538 151.606 126.609 151.856C126.681 152.107 126.583 152.224 126.868 152.427C127.153 152.63 127.002 152.708 126.85 152.817C126.699 152.927 126.841 153.248 126.699 153.442C126.556 153.638 126.083 153.818 126.172 154.036C126.172 154.036 126.82 153.992 127.102 154.191C127.384 154.39 127.809 154.13 128.105 154.305C128.4 154.48 128.991 155.151 129.025 155.179C129.52 155.648 129.809 155.588 130.139 155.648C130.468 155.709 130.413 155.926 130.551 156.01C130.689 156.095 131.197 156.227 131.554 156.432C131.911 156.636 132.351 157.094 132.434 157.384C132.516 157.673 133.203 157.709 133.492 157.806C133.78 157.902 134.619 158.154 134.949 158.046C135.278 157.938 135.759 158.131 135.938 158.299C136.116 158.468 136.707 158.793 137.119 158.854C137.532 158.913 137.956 158.571 138.149 158.463C138.341 158.355 139.073 158.228 139.073 158.228L139.426 157.269C139.426 157.269 140.223 157.396 140.457 157.388C140.689 157.379 141.292 156.894 141.516 156.775C141.739 156.655 142.36 156.894 142.496 156.868C142.633 156.843 143.303 156.638 143.517 156.638C143.73 156.638 143.721 156.417 143.935 156.357C144.148 156.297 145.276 156.059 145.276 156.059C145.276 156.059 145.557 155.863 145.606 155.667C145.655 155.471 145.849 155.122 146.044 154.943C146.237 154.764 146.724 154.918 146.801 154.985C146.879 155.054 147.073 155.897 147.073 155.897C147.073 155.897 147.083 155.957 147.326 156.059C147.568 156.161 147.997 155.949 148.326 155.88C148.657 155.812 149.211 155.957 149.367 155.94C149.522 155.923 149.755 155.173 150.027 155.139C150.3 155.105 151.611 155.011 151.611 155.011C151.611 155.011 151.698 154.534 151.727 154.227C151.757 153.92 152.389 153.009 152.544 152.804C152.699 152.6 153.127 151.961 153.224 151.689C153.322 151.416 153.244 150.819 153.428 150.53C153.612 150.24 153.904 150.445 154.108 150.283C154.312 150.121 154.389 149.661 154.779 149.346C155.167 149.031 155.857 148.801 155.974 148.767C156.091 148.732 157.801 148.715 158.422 148.851C159.044 148.988 159.589 148.613 159.802 148.494C160.016 148.374 160.979 148.945 160.979 148.945C160.802 148.834 160.663 148.459 160.588 148.182C160.512 147.906 159.819 147.354 159.567 147.111C159.314 146.867 159.213 147.033 158.911 146.879C159.063 146.442 160.219 145.733 160.575 145.764C161.085 145.514 161.719 145.511 162.192 145.221C162.846 144.928 162.994 144.268 163.043 143.683C163.161 143.189 163.501 142.748 163.485 142.224C163.645 141.786 163.957 141.387 164.1 140.935C164.21 140.3 164.427 139.665 164.986 139.219C166.173 138.478 167.881 138.232 168.436 136.974C169.247 136.58 169.912 136.006 170.422 135.329C170.8 135.043 170.579 134.86 170.895 134.536C171.097 134.252 171.982 133.79 172.335 133.699C172.959 133.768 173.065 133.486 173.666 133.375C174.13 133.419 174.412 133.109 174.729 132.866C175.091 132.465 175.409 132.023 175.829 131.654C176.207 131.391 175.676 131.004 175.616 130.682C175.368 130.269 175.149 129.776 175.49 129.349C175.686 128.745 176.199 128.054 175.753 127.453C175.531 127.169 175.026 127.132 174.839 126.784C174.1 126.216 174.218 125.302 174.121 124.526C174.223 124.125 173.776 123.97 173.517 123.725C173.331 123.191 172.848 122.825 172.601 122.318C172.228 122.023 172.33 121.604 172.336 121.211C172.438 121.078 172.577 120.951 172.7 120.825C173.287 120.549 172.652 119.963 172.723 119.512C172.754 118.673 173.393 117.906 174.101 117.378C174.684 117.18 174.018 116.19 174.958 116.479C175.628 116.564 175.788 115.804 176.238 115.553C176.974 115.258 177.878 115.417 178.63 115.09C179.508 114.536 180.354 113.951 181.362 113.583C181.772 112.92 182.089 112.127 182.792 111.668C183.553 111.333 183.883 110.587 184.673 110.288C185.129 109.542 185.853 108.902 186.604 108.345C187.258 108.007 187.189 107.33 187.202 106.756C187.093 106.177 187.465 105.694 188.003 105.397C188.396 104.791 189.275 104.368 189.212 103.606C189.022 103.048 188.253 102.764 187.77 102.383C187.155 101.962 186.512 102.535 185.847 102.548C185.419 102.233 184.909 101.769 184.306 101.938C183.54 102.378 182.654 101.658 182.772 100.951C182.634 100.209 183.103 99.5966 183.449 98.9614C183.38 98.1939 182.831 97.4798 182.473 96.7704C182.2 96.0404 183.166 95.5327 183.295 94.8426C183.564 94.3178 183.307 93.8491 183.295 93.4929C183.559 92.7844 184.547 92.7573 184.944 92.1558C184.656 91.5972 184.066 91.2104 183.537 90.8278C182.975 90.6547 182.594 90.0048 183.088 89.5963C183.393 89.2224 183.725 88.7003 183.595 88.2341C183.182 87.7815 182.685 87.2 182.82 86.5691C183.113 86.1192 183.898 85.7842 183.797 85.1582C183.932 84.1486 183.667 83.143 183.523 82.1408C183.324 81.591 183.629 81.5689 184.045 80.9797C183.867 80.5186 183.396 80.0678 183.611 79.5644C183.844 78.849 184.234 78.1541 184.287 77.3937C184.424 76.8763 183.668 76.8592 183.392 76.5119C182.837 75.9594 181.939 76.0585 181.194 75.8726C181.218 75.4485 181.219 75.0054 181.341 74.5977C181.713 74.1328 181.596 73.3707 180.94 73.1722C180.543 72.6179 179.964 72.1254 179.527 71.5682C179.098 71.2187 178.334 71.3449 177.868 71.5935C177.16 71.795 177.377 71.073 177.449 70.6917C177.464 70.1862 177.958 69.9511 178.281 69.596C178.225 69.08 178.875 68.8946 179.134 68.4985C179.619 67.8857 180.25 67.4043 180.96 66.9977C181.343 66.6323 180.83 66.1208 181.401 65.9268C181.892 65.784 182.223 65.4811 182.464 65.088C182.992 64.6731 182.773 64.0305 182.462 63.5627C181.998 63.1451 182.389 62.8985 182.838 62.6639C183.3 62.4962 183.136 61.7561 183.679 61.8458C184.152 61.7544 184.558 62.1768 184.983 61.8444C185.236 61.5981 185.164 61.068 185.561 60.7818C185.91 60.4616 186.431 60.0457 186.226 59.5709C185.661 58.8794 186.053 58.0538 186.105 57.2923C186.009 56.6837 186.731 56.4351 187.24 56.2113C187.768 56.0805 188.02 55.6864 188.343 55.3393C188.666 54.8896 189.157 54.631 189.711 54.4435C190.165 54.4221 190.648 54.4429 191.104 54.3167C192.116 53.9501 192.808 53.0923 193.375 52.2966C193.777 51.9184 193.945 51.3993 194.387 51.0541C194.202 50.9347 194.207 50.7826 194.222 50.599C193.859 50.1395 194.11 49.618 194.178 49.115C194.477 48.6297 193.588 48.6289 193.556 48.225C193.576 47.7578 193.121 47.5224 192.786 47.2287C192.399 46.9809 192.12 46.699 192.324 46.2645C192.589 45.9459 192.981 45.5216 192.632 45.1379C192.346 44.6587 193.03 44.5854 193.241 44.2576C193.373 43.9054 194.008 43.7705 193.934 43.3923C193.56 43.0015 194.236 42.8122 194.551 42.6525C195.149 42.3671 195.117 42.3308 194.648 42.0964C194.216 42.148 193.831 41.9931 193.447 41.8445C192.973 41.7876 192.56 41.6271 192.211 41.3332C191.716 40.7323 191.237 40.0901 191.027 39.358C190.963 38.9495 190.894 38.549 190.679 38.1799C190.507 37.823 190.53 37.3695 191.033 37.2521C191.47 37.0774 191.669 36.5322 191.037 36.8801C190.528 36.5177 190.441 36.978 190.023 36.7314C189.648 36.3742 189.15 36.0328 189.111 35.5089C189.5 35.3058 189.89 35.1027 190.279 34.8996C190.829 34.5459 191.661 34.3652 191.9 33.7599C192.252 33.4918 192.814 33.6394 193.258 33.6624C193.687 33.8229 194.158 33.2859 193.902 32.956C193.603 32.57 193.987 32.1968 194.018 31.7986C194.154 31.473 193.508 30.9777 194.023 30.8137C194.017 30.4347 193.758 30.0905 193.549 29.7693C193.295 29.3492 192.797 29.4578 192.344 29.4688C191.842 29.0754 191.837 28.4245 191.664 27.8889C191.202 27.4335 192.421 27.3464 191.632 27.2059C191.004 27.0345 191.678 26.6223 192.007 26.5154C192.368 26.1448 191.431 26.0739 191.377 25.6942C190.722 25.1673 191.963 25.3843 191.42 25.0714C190.958 25.0638 190.53 24.9869 190.23 24.6527C190.159 24.3579 190.18 23.832 190.634 23.7758C190.789 23.2096 190.399 22.6938 190.429 22.1406C190.361 21.4289 190.158 20.7232 190.206 20Z" fill="white"/>
</mask>
<g mask="url(#mask0_11_363)">
<path d="M190.206 20C189.014 20.9402 187.823 21.8803 186.631 22.8205C186.06 23.1013 185.877 23.8423 185.154 23.8503C184.486 24.1325 183.927 24.6601 183.219 24.9158C182.652 25.01 182.11 25.2621 182.053 25.8146C182.116 26.7011 180.981 26.9479 180.315 27.373C179.606 27.8873 178.714 27.9964 177.841 28.1467C176.942 28.1731 176.449 29.0557 175.516 28.9762C174.663 28.9805 173.904 29.3567 173.319 29.8814C172.803 30.592 171.796 30.1952 171.023 30.3087C170.459 30.2435 169.659 30.0619 170.001 30.8456C169.366 31.1061 169.083 30.5014 168.654 30.2462C168.206 30.0068 167.512 29.9759 167.514 29.3779C167.363 28.8115 166.562 28.4985 165.991 28.8154C165.497 28.9497 164.971 29.0703 164.482 29.12C163.885 29.0868 163.965 28.2747 163.657 27.9103C162.995 28.0113 162.702 28.7241 162.023 28.7514C160.99 28.8505 159.895 29.2308 159.209 29.9257C158.776 30.52 157.798 30.825 157.744 31.5855C157.043 32.1001 156.991 33.0165 156.339 33.5866C156.079 34.1773 155.463 34.5407 154.781 34.7105C154.568 35.2596 154.184 35.7802 153.54 35.9896C152.894 36.2552 153.111 36.7498 153.023 37.2471C152.28 37.503 152.557 38.2511 152.329 38.7626C152.117 39.1861 151.848 39.1004 151.354 39.231C151.448 39.4082 151.512 39.5575 151.526 39.6339C151.564 39.8438 150.701 39.3603 150.597 39.5412C150.492 39.7222 150.454 40.0981 150.871 40.2529C151.286 40.4075 151.538 40.6837 151.324 40.9268C151.11 41.1699 149.862 41.015 149.811 41.1034C149.785 41.1501 149.783 41.2551 149.811 41.3489C149.01 41.4067 148.475 41.4224 147.857 41.9288C147.796 42.4896 147.824 42.6665 147.191 42.9013C146.964 43.1838 146.936 43.3816 146.597 43.5685C146.207 43.2614 146.106 42.9133 145.547 42.7089C145.268 42.9576 145.134 43.0847 145.137 43.4551L144.746 43.8659C144.057 44.503 143.002 44.6696 142.221 45.2124C141.097 46.001 140.12 47.1543 138.568 47.2402C137.657 47.2746 136.888 47.9023 135.973 47.7606C134.995 47.4708 134.266 48.5072 133.312 48.1488C133.031 47.7321 133.018 47.056 132.255 47.0177C132.16 46.3998 131.834 46.2345 131.162 46.5444C130.896 46.8234 129.952 47.7508 130.907 47.639C131.594 47.4652 131.781 48.8992 131.074 48.2305C130.407 47.9844 130.692 49.0737 130.489 49.3913C130.174 50.1059 129.382 49.0991 129.052 49.5984C128.163 49.8576 128.544 50.4991 128.279 50.7038C127.643 50.9123 127.061 50.5783 127.423 49.9745C127.816 49.3454 127.272 49.0007 126.568 49.1259C125.961 48.8142 125.216 48.8855 124.697 49.3013C124.186 49.9654 123.544 49.3449 123.133 49.7346C123.199 50.4371 122.684 51.2359 121.847 51.3428C121.428 51.942 120.662 52.4925 119.826 52.1692C119.126 52.2633 118.329 52.3292 117.702 52.6377C117.364 53.0334 116.835 53.6219 117.191 54.1218C117.159 54.6322 117.896 55.0631 117.414 55.4803C116.757 55.3053 116.407 55.0951 115.855 55.6283C114.908 56.3333 113.741 56.6601 112.587 57.0097C111.861 57.2813 111.75 57.7251 111.106 57.8268C111.45 57.9834 111.752 58.4774 111.671 58.598C111.588 58.7184 111.354 58.7305 111.313 59.0798C111.272 59.4292 111.368 59.6582 111.671 59.6341C111.973 59.61 112.728 60.2606 112.619 60.4051C112.509 60.5497 112.549 61.1763 112.137 60.9835C112.045 61.0147 111.685 61.6196 111.637 61.8582C111.588 62.0967 111.491 62.7269 111.306 62.8292C111.122 62.9315 110.655 63.0765 110.577 63.3917C110.499 63.707 110.597 64.2522 110.287 64.3033C109.975 64.3544 109.538 64.2862 109.393 64.6015C109.246 64.9167 109.382 65.2063 109.091 65.3767C108.799 65.5471 108.518 65.811 108.479 65.9813C108.44 66.1518 107.906 66.6971 107.643 66.8079C107.381 66.9186 106.837 66.9357 106.633 67.1998C106.429 67.4639 106.438 67.8132 106.322 68.0262C106.205 68.2392 106.41 68.4523 106.263 68.7164C106.118 68.9805 105.301 68.7759 105.097 68.9803C104.893 69.1848 104.758 69.5426 104.456 69.7556C104.154 69.9686 103.212 70.4371 103.125 70.6671C103.024 70.6071 102.716 70.3823 102.615 70.3223C101.672 70.2961 101.193 69.7482 100.758 69.0579C100.536 68.0433 99.9799 67.0374 99.9935 65.9723C100.568 65.2481 99.7477 64.523 99.7823 63.7667C99.8417 62.9621 99.6776 62.2498 100.263 61.6929C99.0487 61.5998 98.4839 62.7607 97.6626 63.3544C96.6722 64.1242 96.4254 65.2708 95.5056 66.0872C94.4422 67.0838 92.5936 67.4702 92.1382 68.8964C91.7527 69.776 90.9117 70.2696 90.0112 70.7131C89.6823 71.7021 88.9552 72.6611 88.9609 73.6747C88.5685 74.3871 89.3101 75.1075 89.0562 75.891C89.3461 76.6322 89.1924 77.3164 88.7972 77.9685C89.5024 78.7947 87.6348 79.08 87.9483 79.6964C87.9416 80.4457 89.8085 79.3852 89.2069 80.3896C88.8234 80.9374 87.9272 81.3019 87.1264 81.2243C86.4857 80.9586 85.4439 82.1947 85.7291 81.1305C85.1444 81.0083 84.3871 81.6334 83.606 81.6427C82.6523 82.1222 85.3206 82.8873 83.3922 82.704C82.6864 82.3198 81.6652 82.3061 81.781 83.2914C81.9427 84.2835 80.6413 84.5483 80.2707 85.2877C79.7617 85.7915 78.69 85.7953 79.2144 86.8352C79.004 87.4664 78.6715 88.441 77.7874 88.0702C76.5579 88.3419 76.1102 89.3911 75.691 90.3251C75.1872 90.9432 75.4116 91.5625 75.1332 92.2913C75.4121 93.1868 74.3868 93.4325 73.8539 93.9397C73.169 94.4276 72.3312 94.7962 72.0345 95.6099C72.1382 96.3528 71.2262 96.8764 71.7124 97.5158C72.4483 97.9038 71.9461 99.119 71.1065 98.8457C69.9028 99.1525 71.9432 99.3278 71.137 100.155C69.647 100.823 72.393 100.489 71.5424 101.269C70.5358 101.459 70.8902 102.428 70.5667 103.023C69.3427 103.161 70.9356 104.376 70.3675 104.768C69.9609 105.514 68.9605 105.938 68.8061 106.77C67.9863 107.011 67.7237 107.841 67.7909 108.622C67.993 109.332 66.5907 110.004 67.2924 110.522C67.8603 111.202 67.2983 112.162 67.1572 112.933C67.338 113.605 68.6045 113.914 68.5605 114.753C68.4248 115.729 69.2589 116.431 69.7667 117.23L69.4399 117.804L68.7035 117.989L68.4248 118.522L67.5891 119.007C67.2049 119.186 66.7627 119.269 66.3579 119.412C65.6429 119.261 65.2988 119.657 65.0457 120.188C64.5328 120.418 63.8039 120.352 63.2318 120.569C62.9847 120.988 62.6222 121.444 62.1111 121.747C61.5196 121.947 61.6843 122.968 60.9018 122.581C60.7533 123.183 60.4257 123.74 59.9081 124.162C59.4377 124.166 58.8368 123.724 58.4507 123.4C57.6513 123.154 56.9199 122.599 56.03 122.766C55.2043 122.94 54.5981 123.583 54.0388 124.124C53.8109 124.914 53.8734 125.967 52.8579 126.323C52.5218 126.831 51.7101 127.388 51.0835 127.442C50.8099 127.275 50.3836 127.033 50.3424 126.925C50.3011 126.817 50.6559 126.385 50.3948 126.277C50.1336 126.169 49.8889 126.009 49.8889 126.009C49.8889 126.009 50.0401 125.54 49.7652 125.275C49.4904 125.01 49.1606 124.66 49.1331 124.491C49.1056 124.323 49.1606 124.058 49.2293 123.853C49.298 123.648 49.5042 123.528 49.7515 123.335C49.9988 123.142 49.779 122.793 49.8477 122.54C49.9164 122.286 50.3561 121.937 50.3149 121.599C50.2737 121.262 49.724 121.094 49.8889 120.768C50.0537 120.443 50.1225 120.346 50.5347 120.407C50.9469 120.467 50.9745 119.491 51.0294 119.347C51.0844 119.203 50.7133 119.057 50.6722 118.828C50.631 118.599 50.837 118.251 50.7683 117.853C50.6997 117.455 50.4798 117.286 50.5073 117.13C50.5347 116.973 50.5347 116.491 50.3836 116.178C50.2324 115.864 50.2737 115.37 50.1706 115.262C50.0675 115.154 49.8477 115.04 49.724 114.768C49.6003 114.497 49.511 114.322 49.3599 114.304C49.1155 114.126 49.0212 113.777 48.8901 113.514C48.6584 113.366 48.6408 112.998 48.3735 113.225C48.1062 113.452 47.9991 113.717 48.2219 113.866C48.4447 114.014 48.7478 114.217 48.5873 114.382C48.4269 114.546 48.186 114.858 47.9187 114.967C47.6514 115.077 47.6336 115.404 47.491 115.593C47.3484 115.78 46.8784 115.787 46.8611 116.068C46.4776 116.182 45.6037 116.443 45.2262 116.443C44.4031 116.647 45.098 117.246 44.0493 117.244C43.2553 117.421 43.2141 118.049 42.7906 118.38C42.1006 118.771 41.2203 118.294 40.9295 119.011C41.4201 120.542 41.6004 122.039 42.2946 123.503C42.2387 124.318 42.0746 124.318 42.0563 123.896C41.9312 124.133 41.2572 124.032 41.0768 124.11C40.8963 124.188 40.4329 124.047 40.3794 124.39C40.3259 124.734 39.6307 124.86 39.506 125.032C39.3813 125.204 39.5167 125.71 39.5167 125.71C39.5167 125.71 39.0761 125.277 38.6673 125.717C38.2585 126.157 37.6092 125.78 37.3993 125.929C37.1892 126.079 36.28 125.875 36.2977 126.297C36.3156 126.719 36.1816 127.076 35.7666 127.054C35.3516 127.033 35.0492 127.456 35.0765 127.767C35.1038 128.078 34.5689 127.97 34.3195 128.048C34.0699 128.126 34.0907 128.171 34.2662 128.563C34.4416 128.955 34.284 129.376 34.0167 129.313C33.7494 129.251 33.2856 129.048 33.3034 129.407C33.3212 129.767 33.4551 130.321 32.8981 130.271C32.341 130.22 31.8241 130.204 31.8241 130.47C31.8241 130.736 31.561 131.243 31.14 131.333C30.719 131.423 29.9351 131.205 29.8638 131.361C29.7925 131.517 30.0685 131.742 30.1532 131.902C30.2379 132.064 29.5094 131.89 29.1505 132.158C28.7916 132.426 28.1704 132.689 28.1169 133.158C28.0634 133.626 27.6178 133.643 27.2791 133.705C26.9404 133.767 27.0831 133.986 26.9227 134.236C26.7623 134.486 26.2453 134.736 26.1206 134.908C25.9958 135.08 26.0138 135.409 26.2455 135.627C26.4772 135.846 26.2789 136.196 25.9424 136.424C25.6058 136.652 25.2682 136.72 25.0693 137.143C24.8705 137.566 24.9356 137.682 24.6326 137.713C24.3296 137.745 23.7948 137.643 23.866 137.87C23.9374 138.096 23.8485 138.448 23.5544 138.558C23.2602 138.667 22.6987 138.854 22.7165 139.12C22.7343 139.385 22.663 139.753 22.4224 139.87C22.1818 139.988 21.87 140.308 21.6383 140.597C21.4066 140.885 21.326 140.901 20.9963 140.933C20.6665 140.964 20.3781 141.707 20.0378 141.718C19.6975 141.729 19.5338 141.442 19.307 141.596C19.0801 141.751 18.899 141.56 18.4155 141.791C17.932 142.021 17.8657 142.141 17.8323 142.447C17.799 142.753 17.7945 142.922 17.2526 142.591C16.7106 142.259 15.8562 142.152 15.9416 142.381C16.0269 142.61 16.1558 142.977 15.7651 143.21C15.3744 143.442 14.9083 143.21 14.5554 143.541C14.2025 143.872 14.1393 144.005 13.5974 143.884C13.0555 143.762 11.959 143.995 11.9338 144.093C11.9086 144.193 12.0978 144.293 12.249 144.348C12.4003 144.403 11.1847 144.519 11.5946 145.019C12.0045 145.519 12.3424 145.919 11.924 145.961C11.5055 146.004 10.7515 145.949 10.4541 146.457C10.1566 146.965 9.943 147.526 9.6038 147.924C9.2646 148.322 8.69835 147.928 8.44437 148.271C8.19038 148.614 8.20801 149.052 7.9763 149.348C7.7446 149.645 7.3346 149.817 6.92465 149.536C6.51472 149.254 5.83782 149.113 5.65959 149.411C5.48135 149.707 5.28518 150.411 5 150.489C5 150.489 5.61499 150.215 5.90908 150.458C6.20317 150.7 6.59572 150.783 6.72884 150.895C6.86196 151.008 6.84475 151.247 7.09427 151.364C7.3438 151.482 7.50427 151.794 7.45971 152.02C7.41516 152.247 7.34354 152.669 7.4683 152.943C7.59306 153.216 8.07717 153.533 8.2537 153.498C8.43024 153.462 9.02271 153.365 9.17395 153.553C9.32519 153.741 8.54374 154.216 8.74538 154.459C8.94704 154.702 9.62765 154.238 9.71588 154.448C9.80409 154.657 10.427 154.865 10.3914 155.029C10.3557 155.193 10.0527 155.232 10.2131 155.513C10.3736 155.795 10.6945 155.857 10.8371 155.873C10.9797 155.889 11.1581 156.592 11.0333 156.678C10.9086 156.764 10.3111 156.717 10.427 156.967C10.5428 157.217 10.8729 157.224 10.9264 157.475C10.9799 157.725 10.8904 157.999 11.1132 158.014C11.336 158.03 11.7105 158.053 11.96 158.232C12.2095 158.413 12.6103 158.835 12.9133 158.975C13.2163 159.116 13.5194 159.295 13.8224 159.061C14.1254 158.826 14.3749 158.663 14.6869 158.889C14.9987 159.116 15.3106 159.233 15.5156 159.21C15.7206 159.186 16.0949 159.334 16.4869 159.686C16.5843 159.747 16.8301 160.067 17.0821 160.072C17.3342 160.078 17.5235 160.36 17.6369 160.547C17.7503 160.736 18.1471 160.747 18.3803 160.575L18.5803 161.613C18.5803 161.613 19.4547 163.113 19.5908 163.283C19.7268 163.454 19.824 163.931 19.6685 164.016C19.5131 164.101 19.0467 164.016 19.0467 164.101C19.0467 164.187 19.1243 165.005 18.9106 165.243C18.6968 165.482 18.1917 166.607 18.1917 166.607C18.1261 166.89 17.9882 167.425 17.8516 167.995C17.8516 167.995 18.104 168.455 18.2012 168.719C18.2984 168.983 18.0945 169.997 18.2111 170.253C18.3276 170.508 19.298 172.416 19.298 172.416C19.298 172.416 19.2218 173.405 19.3967 173.746C19.5716 174.087 19.5519 174.7 19.4353 174.905C19.3188 175.109 19.2605 176.03 19.2605 176.03L19.3576 176.54C19.3576 176.54 20.2323 176.677 20.5432 176.694C20.8542 176.711 21.9617 176.762 22.4087 176.812C22.8556 176.864 23.3413 176.251 23.73 176.318C24.1187 176.387 24.4491 176.898 24.7018 176.694C24.9544 176.489 25.6154 175.91 26.0235 175.978C26.4316 176.046 27.7334 176.404 27.8112 176.421C27.8889 176.438 28.705 177.171 28.7438 177.426C28.7828 177.682 28.4526 178.006 28.783 178.176C29.1133 178.347 29.7738 178.551 29.8904 178.618C30.007 178.687 29.9487 179.028 30.279 179.266C30.6094 179.505 31.1733 179.642 30.9206 179.794C30.668 179.948 30.4346 180.34 30.629 180.425C30.8234 180.51 32.1492 180.395 32.1492 180.395C32.1617 180.107 32.3761 180.162 32.603 180.118C32.8299 180.074 32.5653 179.555 32.5275 179.377C32.4897 179.201 32.8426 179.289 32.9182 179.035C32.9938 178.781 33.0943 178.659 33.1952 178.549C33.296 178.438 33.6238 177.897 33.838 177.687C34.0523 177.477 33.737 177.356 33.8883 177.245C34.0395 177.134 34.3802 176.758 34.3675 176.493C34.3549 176.228 34.5314 176.04 34.8339 175.863C35.1364 175.687 35.2117 175.344 35.2495 175.101C35.2873 174.858 35.653 174.747 36.089 174.729C36.5252 174.711 36.0939 174.593 35.9804 174.295C35.867 173.997 36.0373 173.764 36.22 173.587C36.4028 173.41 36.7618 173.046 36.9509 172.869C37.1399 172.692 37.0581 172.422 37.0708 172.272C37.0833 172.123 37.4047 172.045 37.5748 171.929C37.745 171.814 37.5117 171.731 37.3352 171.604C37.1588 171.476 37.4116 171.282 37.6256 171.211C37.8394 171.141 38.2854 170.954 38.4547 170.828C38.624 170.703 38.5883 170.633 38.4101 170.57C38.2319 170.508 38.321 170.203 38.3032 169.985C38.2853 169.765 37.9911 169.664 38 169.477C38.0089 169.289 38.4368 169.578 38.6595 169.524C38.8823 169.469 38.9218 169.259 39.0872 169.344C39.2527 169.428 39.702 169.36 39.7555 169.172C39.8089 168.984 39.4707 168.742 39.6399 168.609C39.8092 168.476 39.8002 168.313 39.8091 168.164C39.8181 168.015 40.1477 167.984 40.2725 167.836C40.3972 167.688 40.0051 167.445 40.014 167.203C40.0229 166.961 40.3527 167.109 40.3527 166.937C40.3527 166.765 40.1566 166.539 40.2368 166.445C40.317 166.351 40.6201 166.554 40.8874 166.671C41.1547 166.789 41.4667 166.687 41.6934 166.585C41.9201 166.483 42.2688 166.789 42.447 166.742C42.6253 166.695 42.7141 166.257 42.8211 166.023C42.928 165.789 43.1777 165.367 43.3471 165.343C43.5164 165.319 43.6947 165.297 43.8551 165.054C44.0155 164.812 44.3543 164.929 44.586 164.827C44.8177 164.726 45.1384 164.39 45.1472 164.085C45.1561 163.78 45.0583 163.757 45.0137 163.585C44.9692 163.413 45.5573 163.163 45.5929 163.109C45.6286 163.054 45.6286 162.897 45.7355 162.756C45.8425 162.616 46.6801 162.436 46.9564 162.319C47.2326 162.201 47.5177 161.733 47.6335 161.648C47.7494 161.561 47.892 161.842 48.106 161.733C48.3198 161.624 48.3111 161.498 48.3021 161.382C48.2932 161.265 48.8545 161.335 49.0416 161.288C49.2288 161.241 48.8991 160.999 48.7209 160.834C48.5426 160.67 48.8991 160.568 49.2289 160.514C49.5586 160.459 49.5673 160.319 49.8257 160.186C50.0841 160.053 49.8438 159.92 49.6656 159.71C49.4874 159.499 49.71 159.529 49.8704 159.444C50.0309 159.358 50.0575 159.225 50.013 159.107C49.9684 158.99 50.3518 158.842 50.4944 158.576C50.637 158.311 51.4388 157.794 51.6615 157.607C51.8843 157.42 51.9914 157.506 52.0716 157.646C52.0445 157.422 52.7439 156.213 52.5496 155.889C52.3552 155.565 51.7722 154.695 51.403 154.525C51.0338 154.355 50.3731 153.946 49.7901 154.184C49.2071 154.423 48.1188 154.849 48.1188 154.849C48.1188 154.849 47.4387 154.543 47.3416 154.219C47.2444 153.896 47.4389 153.418 47.6916 153.111C47.9442 152.805 47.9443 151.833 48.1385 151.68C48.3329 151.527 49.4791 151.493 49.8094 151.288C50.1398 151.084 51.3836 150.811 51.6362 150.794C51.8889 150.777 52.9579 150.725 52.9579 150.725C52.9579 150.725 53.5602 149.942 53.7545 149.84C53.9488 149.737 54.0268 150.113 54.3183 149.686C54.6099 149.261 54.4734 149.056 54.7649 149.107C55.0564 149.158 55.5813 149.431 56.106 149.465C56.6307 149.499 57.1943 149.755 57.5441 149.737C57.8939 149.72 58.477 149.396 58.8268 149.396C59.1766 149.396 60.1872 148.698 60.2649 148.664C60.3426 148.63 61.5667 148.834 61.8388 148.834C62.1109 148.834 62.3443 148.579 62.7134 148.818C63.0827 149.056 63.6462 149.192 64.1709 149.141C64.6956 149.09 65.6476 149.243 65.9586 149.413C66.2695 149.584 66.6974 149.976 67.1249 149.976C67.5525 149.976 68.0121 149.667 68.0121 149.667C68.0965 149.673 68.6871 149.48 68.7696 149.251C68.8521 149.022 68.8245 148.793 68.9344 148.757C69.0444 148.721 70.13 148.202 70.3636 148.202C70.5972 148.202 71.5041 148.588 71.8065 148.624C71.9851 148.552 73.0156 147.733 72.9057 147.528C72.7958 147.323 71.7789 146.793 71.8201 146.733C71.8614 146.673 72.9195 146.179 72.9195 146.179C72.9195 146.179 73.4141 146.359 73.5791 146.504C73.744 146.648 73.8127 147.154 73.9913 147.263C74.17 147.371 74.7609 147.371 74.9532 147.479C75.1456 147.589 74.7471 148.384 75.1044 148.215C75.4617 148.046 75.6265 147.552 76.0388 147.769C76.451 147.986 76.3411 148.191 76.4648 148.227C76.5884 148.263 76.8083 148.251 77.0556 148.492C77.303 148.732 77.5504 148.997 77.5504 149.154C77.5504 149.311 77.5916 149.444 77.5916 149.444L78.2924 149.745C78.2924 149.745 78.526 149.455 78.7458 149.383C78.9657 149.311 79.1306 149.094 79.4741 149.372C79.8176 149.648 79.8864 149.853 80.01 150.034C80.1337 150.214 80.6009 150.432 80.5872 150.625C80.5734 150.818 80.1062 151.685 80.1062 151.685C80.1062 151.685 80.9582 151.624 81.4529 151.95C81.9476 152.275 82.3736 152.275 82.3736 152.275C82.3736 152.275 83.2118 152.383 83.5553 152.372C83.8988 152.359 84.5035 152.673 84.7783 152.745C85.0532 152.817 85.5066 152.552 85.6715 152.323C85.8363 152.094 86.07 151.083 86.3448 150.744C86.6196 150.407 87.5404 149.432 87.5404 149.432C87.5404 149.432 88.2274 149.311 88.5984 149.468C88.9694 149.624 89.4229 149.805 89.7664 149.938C90.1099 150.07 90.8366 149.78 90.8366 149.78C90.8366 149.78 90.5084 150.672 90.4948 150.877C90.481 151.083 90.0412 151.444 90.0412 151.516C90.0412 151.588 90.0961 151.806 90.1787 151.865C90.2611 151.925 90.8657 152.179 91.1818 152.203C91.4979 152.226 91.9375 153.155 92.0888 153.288C92.2399 153.42 92.6383 153.829 92.6383 153.829C92.6383 153.829 93.2018 154.143 93.2843 154.263C93.3667 154.384 94.2874 154.588 94.4797 154.624C94.6721 154.66 95.1531 154.166 95.4279 154.143C95.7028 154.119 97.8141 154.423 97.8141 154.423C98.786 154.61 99.3356 154.034 99.96 153.327C100.65 153.646 101.225 154.044 101.607 154.631C102.475 154.877 103.09 154.611 103.823 153.995C104.214 153.939 104.466 153.774 104.693 153.763C104.919 153.751 105.486 153.541 105.713 153.442C105.94 153.343 106.369 153.376 106.646 153.254C106.924 153.133 107.906 152.779 107.944 152.658C107.982 152.536 109.091 151.95 109.293 151.74C109.494 151.53 110.276 151.442 110.578 151.475C110.88 151.508 111.183 151.353 111.461 151.199C111.738 151.045 112.734 151.233 112.796 151.21C112.859 151.188 113.44 149.939 113.565 149.53C113.691 149.122 113.251 148.492 113.237 148.226C113.225 147.961 113.402 147.376 113.452 147.033C113.502 146.691 114.208 146.601 114.435 146.491C114.661 146.381 115.141 146.238 115.367 146.238C115.594 146.238 115.865 145.889 116.099 145.828C116.331 145.767 116.905 145.404 117.081 145.215C117.258 145.027 117.781 144.552 117.92 144.447C118.059 144.342 118.783 144.397 119.142 144.364C119.502 144.331 119.93 144.79 120.043 144.861C120.156 144.933 120.258 144.834 120.548 144.79C120.837 144.745 120.585 144.503 120.699 144.48C120.812 144.458 121.543 144.568 121.732 144.458C121.921 144.348 121.656 143.773 121.783 143.497C121.908 143.22 122.148 143.442 122.325 143.365C122.501 143.287 122.891 142.944 123.169 142.922C123.446 142.9 123.093 142.557 123.181 142.381C123.269 142.204 123.661 142.469 123.988 142.436C124.316 142.402 124.183 141.929 124.404 141.851C124.625 141.772 125.185 141.574 125.311 141.419C125.437 141.264 125.198 141.099 125.576 140.966C125.954 140.834 126.03 140.359 126.03 140.359C126.03 140.359 126.483 139.508 126.546 139.397C126.609 139.286 127.353 139.143 127.454 139.088C127.555 139.033 127.126 138.525 127.177 138.37C127.227 138.215 128.122 137.607 128.462 137.618C128.802 137.629 129.571 138.248 129.571 138.248C129.622 138.248 130.504 138.193 130.554 138.182C130.604 138.17 130.932 138.491 130.706 138.491C130.479 138.491 130.107 138.426 130.072 138.564C130.037 138.701 130.138 139.187 130.012 139.22C129.886 139.253 129.244 139.628 129.193 139.783C129.143 139.938 129.634 139.761 129.709 139.806C129.785 139.85 130.025 140.171 129.723 140.181C129.42 140.193 129.029 140.093 129.029 140.226C129.029 140.358 129.558 140.558 129.558 140.701C129.558 140.844 128.966 140.646 128.89 140.756C128.814 140.866 129.193 141.021 129.168 141.198C129.143 141.375 128.18 141.38 128.437 141.563C128.694 141.746 129.117 141.795 128.953 141.917C128.79 142.039 128.223 141.95 128.311 142.127C128.399 142.304 128.474 142.557 128.55 142.514C128.626 142.469 129.143 142.071 129.307 142.071C129.47 142.071 129.949 141.861 129.974 142.082C129.93 142.159 130.037 142.557 129.905 142.58C129.773 142.602 129.357 142.679 129.269 142.851C129.18 143.022 129.187 143.442 128.972 143.481C128.758 143.519 128.601 143.64 128.626 143.873C128.651 144.105 128.276 144.855 128.178 144.98C128.08 145.105 127.598 145.113 127.625 145.3C127.653 145.488 128.053 145.785 127.857 145.879C127.661 145.973 127.162 145.746 127.1 145.793C127.037 145.84 127.234 146.098 127.126 146.27C127.02 146.442 126.663 146.465 126.805 146.668C126.949 146.871 126.957 147.175 126.787 147.23C126.618 147.285 126.244 147.191 126.27 147.418C126.297 147.645 127.046 147.754 127.144 147.918C127.242 148.083 127.216 148.207 127.14 148.305C127.064 148.403 126.921 148.617 127.068 148.684C127.216 148.75 127.577 148.727 127.519 148.848C127.461 148.969 127.184 149.223 127.06 149.262C126.934 149.301 126.573 149.566 126.894 149.738C127.216 149.91 127.893 149.942 127.787 150.13C127.679 150.317 126.681 150.895 126.833 151.028C126.984 151.161 127.394 151.262 127.198 151.411C127.002 151.56 126.538 151.606 126.609 151.856C126.681 152.107 126.583 152.224 126.868 152.427C127.153 152.63 127.002 152.708 126.85 152.817C126.699 152.927 126.841 153.248 126.699 153.442C126.556 153.638 126.083 153.818 126.172 154.036C126.172 154.036 126.82 153.992 127.102 154.191C127.384 154.39 127.809 154.13 128.105 154.305C128.4 154.48 128.991 155.151 129.025 155.179C129.52 155.648 129.809 155.588 130.139 155.648C130.468 155.709 130.413 155.926 130.551 156.01C130.689 156.095 131.197 156.227 131.554 156.432C131.911 156.636 132.351 157.094 132.434 157.384C132.516 157.673 133.203 157.709 133.492 157.806C133.78 157.902 134.619 158.154 134.949 158.046C135.278 157.938 135.759 158.131 135.938 158.299C136.116 158.468 136.707 158.793 137.119 158.854C137.532 158.913 137.956 158.571 138.149 158.463C138.341 158.355 139.073 158.228 139.073 158.228L139.426 157.269C139.426 157.269 140.223 157.396 140.457 157.388C140.689 157.379 141.292 156.894 141.516 156.775C141.739 156.655 142.36 156.894 142.496 156.868C142.633 156.843 143.303 156.638 143.517 156.638C143.73 156.638 143.721 156.417 143.935 156.357C144.148 156.297 145.276 156.059 145.276 156.059C145.276 156.059 145.557 155.863 145.606 155.667C145.655 155.471 145.849 155.122 146.044 154.943C146.237 154.764 146.724 154.918 146.801 154.985C146.879 155.054 147.073 155.897 147.073 155.897C147.073 155.897 147.083 155.957 147.326 156.059C147.568 156.161 147.997 155.949 148.326 155.88C148.657 155.812 149.211 155.957 149.367 155.94C149.522 155.923 149.755 155.173 150.027 155.139C150.3 155.105 151.611 155.011 151.611 155.011C151.611 155.011 151.698 154.534 151.727 154.227C151.757 153.92 152.389 153.009 152.544 152.804C152.699 152.6 153.127 151.961 153.224 151.689C153.322 151.416 153.244 150.819 153.428 150.53C153.612 150.24 153.904 150.445 154.108 150.283C154.312 150.121 154.389 149.661 154.779 149.346C155.167 149.031 155.857 148.801 155.974 148.767C156.091 148.732 157.801 148.715 158.422 148.851C159.044 148.988 159.589 148.613 159.802 148.494C160.016 148.374 160.979 148.945 160.979 148.945C160.802 148.834 160.663 148.459 160.588 148.182C160.512 147.906 159.819 147.354 159.567 147.111C159.314 146.867 159.213 147.033 158.911 146.879C159.063 146.442 160.219 145.733 160.575 145.764C161.085 145.514 161.719 145.511 162.192 145.221C162.846 144.928 162.994 144.268 163.043 143.683C163.161 143.189 163.501 142.748 163.485 142.224C163.645 141.786 163.957 141.387 164.1 140.935C164.21 140.3 164.427 139.665 164.986 139.219C166.173 138.478 167.881 138.232 168.436 136.974C169.247 136.58 169.912 136.006 170.422 135.329C170.8 135.043 170.579 134.86 170.895 134.536C171.097 134.252 171.982 133.79 172.335 133.699C172.959 133.768 173.065 133.486 173.666 133.375C174.13 133.419 174.412 133.109 174.729 132.866C175.091 132.465 175.409 132.023 175.829 131.654C176.207 131.391 175.676 131.004 175.616 130.682C175.368 130.269 175.149 129.776 175.49 129.349C175.686 128.745 176.199 128.054 175.753 127.453C175.531 127.169 175.026 127.132 174.839 126.784C174.1 126.216 174.218 125.302 174.121 124.526C174.223 124.125 173.776 123.97 173.517 123.725C173.331 123.191 172.848 122.825 172.601 122.318C172.228 122.023 172.33 121.604 172.336 121.211C172.438 121.078 172.577 120.951 172.7 120.825C173.287 120.549 172.652 119.963 172.723 119.512C172.754 118.673 173.393 117.906 174.101 117.378C174.684 117.18 174.018 116.19 174.958 116.479C175.628 116.564 175.788 115.804 176.238 115.553C176.974 115.258 177.878 115.417 178.63 115.09C179.508 114.536 180.354 113.951 181.362 113.583C181.772 112.92 182.089 112.127 182.792 111.668C183.553 111.333 183.883 110.587 184.673 110.288C185.129 109.542 185.853 108.902 186.604 108.345C187.258 108.007 187.189 107.33 187.202 106.756C187.093 106.177 187.465 105.694 188.003 105.397C188.396 104.791 189.275 104.368 189.212 103.606C189.022 103.048 188.253 102.764 187.77 102.383C187.155 101.962 186.512 102.535 185.847 102.548C185.419 102.233 184.909 101.769 184.306 101.938C183.54 102.378 182.654 101.658 182.772 100.951C182.634 100.209 183.103 99.5966 183.449 98.9614C183.38 98.1939 182.831 97.4798 182.473 96.7704C182.2 96.0404 183.166 95.5327 183.295 94.8426C183.564 94.3178 183.307 93.8491 183.295 93.4929C183.559 92.7844 184.547 92.7573 184.944 92.1558C184.656 91.5972 184.066 91.2104 183.537 90.8278C182.975 90.6547 182.594 90.0048 183.088 89.5963C183.393 89.2224 183.725 88.7003 183.595 88.2341C183.182 87.7815 182.685 87.2 182.82 86.5691C183.113 86.1192 183.898 85.7842 183.797 85.1582C183.932 84.1486 183.667 83.143 183.523 82.1408C183.324 81.591 183.629 81.5689 184.045 80.9797C183.867 80.5186 183.396 80.0678 183.611 79.5644C183.844 78.849 184.234 78.1541 184.287 77.3937C184.424 76.8763 183.668 76.8592 183.392 76.5119C182.837 75.9594 181.939 76.0585 181.194 75.8726C181.218 75.4485 181.219 75.0054 181.341 74.5977C181.713 74.1328 181.596 73.3707 180.94 73.1722C180.543 72.6179 179.964 72.1254 179.527 71.5682C179.098 71.2187 178.334 71.3449 177.868 71.5935C177.16 71.795 177.377 71.073 177.449 70.6917C177.464 70.1862 177.958 69.9511 178.281 69.596C178.225 69.08 178.875 68.8946 179.134 68.4985C179.619 67.8857 180.25 67.4043 180.96 66.9977C181.343 66.6323 180.83 66.1208 181.401 65.9268C181.892 65.784 182.223 65.4811 182.464 65.088C182.992 64.6731 182.773 64.0305 182.462 63.5627C181.998 63.1451 182.389 62.8985 182.838 62.6639C183.3 62.4962 183.136 61.7561 183.679 61.8458C184.152 61.7544 184.558 62.1768 184.983 61.8444C185.236 61.5981 185.164 61.068 185.561 60.7818C185.91 60.4616 186.431 60.0457 186.226 59.5709C185.661 58.8794 186.053 58.0538 186.105 57.2923C186.009 56.6837 186.731 56.4351 187.24 56.2113C187.768 56.0805 188.02 55.6864 188.343 55.3393C188.666 54.8896 189.157 54.631 189.711 54.4435C190.165 54.4221 190.648 54.4429 191.104 54.3167C192.116 53.9501 192.808 53.0923 193.375 52.2966C193.777 51.9184 193.945 51.3993 194.387 51.0541C194.202 50.9347 194.207 50.7826 194.222 50.599C193.859 50.1395 194.11 49.618 194.178 49.115C194.477 48.6297 193.588 48.6289 193.556 48.225C193.576 47.7578 193.121 47.5224 192.786 47.2287C192.399 46.9809 192.12 46.699 192.324 46.2645C192.589 45.9459 192.981 45.5216 192.632 45.1379C192.346 44.6587 193.03 44.5854 193.241 44.2576C193.373 43.9054 194.008 43.7705 193.934 43.3923C193.56 43.0015 194.236 42.8122 194.551 42.6525C195.149 42.3671 195.117 42.3308 194.648 42.0964C194.216 42.148 193.831 41.9931 193.447 41.8445C192.973 41.7876 192.56 41.6271 192.211 41.3332C191.716 40.7323 191.237 40.0901 191.027 39.358C190.963 38.9495 190.894 38.549 190.679 38.1799C190.507 37.823 190.53 37.3695 191.033 37.2521C191.47 37.0774 191.669 36.5322 191.037 36.8801C190.528 36.5177 190.441 36.978 190.023 36.7314C189.648 36.3742 189.15 36.0328 189.111 35.5089C189.5 35.3058 189.89 35.1027 190.279 34.8996C190.829 34.5459 191.661 34.3652 191.9 33.7599C192.252 33.4918 192.814 33.6394 193.258 33.6624C193.687 33.8229 194.158 33.2859 193.902 32.956C193.603 32.57 193.987 32.1968 194.018 31.7986C194.154 31.473 193.508 30.9777 194.023 30.8137C194.017 30.4347 193.758 30.0905 193.549 29.7693C193.295 29.3492 192.797 29.4578 192.344 29.4688C191.842 29.0754 191.837 28.4245 191.664 27.8889C191.202 27.4335 192.421 27.3464 191.632 27.2059C191.004 27.0345 191.678 26.6223 192.007 26.5154C192.368 26.1448 191.431 26.0739 191.377 25.6942C190.722 25.1673 191.963 25.3843 191.42 25.0714C190.958 25.0638 190.53 24.9869 190.23 24.6527C190.159 24.3579 190.18 23.832 190.634 23.7758C190.789 23.2096 190.399 22.6938 190.429 22.1406C190.361 21.4289 190.158 20.7232 190.206 20Z" fill="#D2E6FC" stroke="#6D94BC" stroke-width="3.8"/>
</g>
</svg>
