<svg width="200" height="200" viewBox="0 0 200 200" fill="none" xmlns="http://www.w3.org/2000/svg">
<mask id="mask0_11_311" style="mask-type:luminance" maskUnits="userSpaceOnUse" x="2" y="10" width="196" height="180">
<path d="M178.085 10.0002C177.743 9.9931 177.729 10.1779 177.443 10.3526C177.115 10.5522 176.475 10.5644 176.603 10.8638C176.731 11.1633 177.13 11.6999 177.13 11.6999C177.13 11.6999 176.347 11.8247 176.077 11.962C175.806 12.0992 175.778 12.4986 175.635 12.823C175.493 13.1475 175.108 13.9084 174.739 14.133C174.369 14.3576 173.685 14.8318 173.358 14.9441C173.031 15.0564 172.348 15.0939 172.235 15.331C172.12 15.568 171.978 16.4292 171.466 16.5414C170.954 16.6537 170.626 16.6164 170.712 16.8534C170.797 17.0905 170.697 17.8139 170.256 17.789C169.815 17.7641 169.379 17.7534 169.379 17.7534C169.379 17.7534 168.848 18.0635 168.364 17.814C167.88 17.5644 167.025 17.6393 166.613 17.8015C166.2 17.9637 165.19 19.0494 164.621 19.2116C164.051 19.3738 162.586 19.7856 162.287 19.8855C161.988 19.9853 161.433 20.8835 161.419 21.3077C161.405 21.732 161.675 23.0545 161.433 23.5536C161.191 24.0527 160.907 25.0261 160.907 25.0261C160.907 25.0261 159.199 25.101 158.687 25.3007C158.175 25.5003 157.107 25.3756 156.551 25.9122C155.997 26.4487 153.82 27.5465 153.478 27.559C153.136 27.5715 151.486 28.0831 150.988 28.2204C150.931 28.2329 150.69 28.413 150.362 28.8594C150.205 28.7819 148.811 28.2079 148.341 28.0457C147.871 27.8835 146.932 27.1348 146.932 27.1348C146.932 27.1348 145.651 28.1206 145.481 28.4326C145.31 28.7445 143.374 28.9068 143.018 28.8195C142.662 28.732 142.463 29.1685 142.008 29.4929C141.552 29.8173 140.899 29.755 140.585 29.6427C140.272 29.5304 139.746 28.807 139.404 28.6323C139.063 28.4575 138.585 28.1808 138.585 28.1808C138.55 28.1455 138.508 27.609 138.123 27.247C137.739 26.8852 137.041 26.9101 136.957 26.6606C136.871 26.4109 136.359 25.7998 136.287 25.5503C136.216 25.3007 136.404 24.7167 136.404 24.7167C136.404 24.7167 136.03 24.102 136.251 23.8197C136.473 23.5374 136.553 22.7256 136.553 22.7256C136.553 22.7256 135.667 22.514 135.305 22.8493C134.943 23.1846 133.997 23.4492 133.574 23.3257C133.151 23.2021 132.628 23.2549 132.306 23.449C131.984 23.6432 131.844 24.3137 131.844 24.3137C131.844 24.3137 130.133 24.1197 129.791 24.2785C129.448 24.4373 128.543 23.9785 128.02 24.2785C127.496 24.5785 127.093 25.2842 127.114 25.4959C127.134 25.7077 126.916 26.1944 126.916 26.1944C126.852 26.1667 125.906 25.8841 125.262 25.7606C124.618 25.6371 124.558 25.6548 124.558 25.6548C124.558 25.6548 125.242 25.0903 125.242 24.7021C125.242 24.3138 124.739 23.5551 124.276 23.1139C123.813 22.6727 123.27 22.7434 122.546 22.4609L122 22.6048C122 22.6048 121.004 22.4926 120.819 22.2804C120.635 22.0683 120.777 21.4817 120.321 21.4318C119.866 21.3818 119.51 21.9684 119.382 21.7937C119.254 21.619 119.282 20.9451 118.898 21.0325C118.514 21.1198 118.201 21.4816 118.058 21.1573C117.916 20.8328 118.058 20.2962 118.058 20.2962C118.058 20.2962 117.453 20.3259 117.112 20.573C116.77 20.82 116.266 21.6493 116.065 21.7375C115.864 21.8258 115.34 22.3726 114.898 22.1255C114.455 21.8785 113.932 21.5787 113.629 21.7375C113.328 21.8963 112.222 22.2668 112.141 22.2844C112.06 22.302 112.342 22.8137 112.101 23.0255C111.859 23.2372 110.882 23.6931 110.882 23.6931C110.882 23.6931 109.585 23.6079 109.082 23.1844C108.578 22.7609 106.486 22.814 106.183 22.8316C105.882 22.8494 105.137 22.1611 104.614 22.3905C104.091 22.6199 102.943 22.2494 102.681 22.3729C102.42 22.4964 101.193 23.2198 100.649 23.3609C100.105 23.5021 98.415 23.3255 97.8113 23.2196C97.2075 23.1137 96.4632 22.796 96.3223 23.0255C96.1814 23.2549 95.2959 23.6784 95.5776 23.9255C95.8593 24.1725 96.5637 24.4197 96.1009 24.4903C95.638 24.5609 94.1083 24.6492 93.565 24.6844C93.0216 24.7197 90.9688 25.3551 90.4657 25.3374C89.9625 25.3197 89.4997 25.2491 89.4192 25.3903C89.3386 25.5314 89.1172 26.3783 89.2178 26.6429C89.3184 26.9076 88.4329 27.4193 88.4329 27.7722C88.4329 28.1252 89.0169 29.2899 89.0169 29.2899C89.0169 29.2899 89.7413 29.3428 90.1036 28.9016C90.4658 28.4605 91.6529 28.249 92.1157 28.5136C92.5786 28.7784 93.726 29.2016 93.8266 29.6075C93.9273 30.0133 94.1485 30.5606 93.907 31.0194C93.6654 31.4782 94.0283 32.1117 94.0283 32.1117C93.4442 32.131 92.9812 32.5013 92.3171 33.0483C91.653 33.5954 90.9083 34.3897 91.029 34.7601C91.1498 35.1307 90.6467 35.3426 90.2241 35.6249C89.8015 35.9072 89.9625 36.5955 89.1575 36.7719C88.3525 36.9484 86.9435 37.7954 86.3801 38.0778C85.8166 38.3601 86.1792 39.2774 85.8974 39.6303C85.6157 39.9833 84.9311 40.2657 84.0455 40.7245C83.1601 41.1832 83.0396 42.4539 83.0396 42.4539C83.0396 42.4539 81.8017 42.6393 81.3991 42.3923C80.9966 42.1452 80.3827 41.9597 80.4229 42.4891C80.4632 43.0185 80.0258 43.7213 79.9805 44.2538C79.9362 44.7733 79.8904 44.8995 79.8495 45.2155C79.7906 45.6704 77.8573 45.0556 78.0884 45.5241C78.3319 46.0175 78.9341 46.689 78.3706 47.2536C77.807 47.8183 75.5929 49.9709 75.7137 50.5356C75.8345 51.1003 75.7543 51.5238 75.2712 51.6297C74.7882 51.7356 74.0633 52.7238 73.9426 53.2179C73.8218 53.712 73.2988 54.7354 73.0171 55.0882C72.7353 55.4411 72.212 55.9353 72.2523 56.4294C72.2925 56.9235 71.9015 57.5511 71.9015 57.5511C71.6085 57.3575 71.4417 57.285 71.1422 57.5015C70.885 57.2378 70.1251 57.5608 70.2443 57.0823C70.5598 56.7624 70.3227 56.5435 70.0906 56.2785C70.0718 55.6443 69.3369 55.5006 68.8449 55.2398C68.0372 55.3007 67.821 54.4802 67.5024 53.9916C67.2021 53.5359 66.8872 53.0937 66.265 52.9576C65.7191 52.7967 65.1451 53.113 64.6555 53.3148C64.0885 53.3856 63.517 53.0392 62.9233 53.0655C62.2651 52.8179 62.0151 53.486 61.4302 53.4737C60.637 53.7482 60.4078 53.2528 60.4732 52.6302C60.6798 51.9388 60.9195 51.2534 61.1661 50.5734C60.9983 50.3052 60.2247 50.5104 59.8579 50.2633C59.2883 49.9575 58.7567 50.6075 58.1672 50.3429C57.5937 50.2591 56.9889 49.8555 57.0479 49.3208C57.3632 48.6443 57.2615 47.9036 57.1495 47.2004C56.5003 47.8133 55.9703 48.8262 54.8372 48.6032C53.8661 48.6093 53.4286 49.4819 52.5391 49.6763C51.8257 49.8125 51.4448 50.2836 51.5123 50.892C51.3721 51.539 50.4463 51.6594 49.8128 51.5747C48.9506 51.6611 48.8538 52.7317 48.127 53.0755C47.3176 53.371 47.7181 54.1829 47.5845 54.7341C47.4273 55.3387 46.654 55.5407 46.5883 56.1952C46.0385 56.5945 45.5471 56.9595 45.651 57.5694C45.1761 57.9792 44.6982 58.3189 44.3914 58.8651C43.6111 59.4547 43.7143 60.4127 43.2662 61.1498C43.2948 61.7047 43.339 62.3414 43.5468 62.9082C43.3206 63.4696 43.3158 63.9069 43.121 64.4315C43.5933 65.0417 42.7912 64.9571 42.8744 65.7424C42.2917 65.9835 42.3863 66.6872 42.1411 67.2282C42.167 68.0204 41.235 67.8123 40.6964 68.1626C40.3672 68.6431 39.855 69.0957 39.3917 69.5299C39.3344 70.1039 38.3809 70.5538 38.8241 71.1341C38.9381 71.5021 38.2742 71.9845 38.3766 72.4129C38.1599 71.5513 37.9023 72.5201 37.2128 72.4985C36.3591 72.8193 36.399 71.7455 35.5159 72.1563C34.4158 72.0356 34.7509 72.5159 34.2274 72.901C33.8073 73.135 34.1108 73.9317 33.2834 74.1611C33.2746 74.5882 33.5249 75.0733 32.5634 75.1488C32.6164 75.4252 32.3178 76.0447 32.1231 76.6532C32.6296 77.0089 32.8312 76.0268 33.2303 76.5795C34.0357 76.0193 34.2978 77.4286 33.2981 77.1744C32.9889 77.3484 33.4511 77.9206 32.7091 78.1357C32.8246 78.7543 32.8851 78.9871 32.8054 79.5968C33.2019 79.6391 34.0765 79.9458 33.928 80.5834C33.2598 80.9618 34.2629 82.1786 33.2662 81.6042C32.458 81.0473 32.3099 81.6154 32.6082 82.2343C33.4406 82.9805 32.0189 82.2711 31.7012 82.5826C30.7208 83.4548 32.3552 82.6313 32.2533 83.0099C31.6822 83.6331 31.7696 83.8162 32.5438 83.9182C32.7426 84.3844 33.1031 85.35 32.1649 85.2554C31.0787 85.0524 31.4068 85.3489 31.756 86.0448C32.008 86.9852 30.5795 86.0938 30.6571 86.998C29.9978 87.2676 31.1687 87.5774 30.6442 88.1707C29.4255 88.0121 30.5308 89.0159 29.7132 89.1429C29.3145 89.5747 28.8298 89.8435 28.5549 90.3813C28.071 90.558 27.9936 90.6042 27.6675 91.0104C27.4071 91.0319 27.1453 90.7279 26.8851 90.8265C26.5236 90.8548 26.7831 91.2247 26.9408 91.3536C27.2696 91.4919 27.1175 91.823 27.1526 92.0792C27.0139 92.1837 26.5724 91.7323 26.4539 91.9805C25.9783 92.4452 27.1032 92.2321 26.2773 92.7957C26.0089 93.0857 26.4017 93.1434 26.6834 93.0908C26.5168 93.3682 26.3089 93.6288 26.1702 93.9177C25.9491 94.1603 26.1859 94.3535 26.348 94.5548C26.3717 94.8374 26.9491 94.7961 26.7884 95.0467C26.736 95.3658 26.3202 95.4574 26.2199 95.7598C25.7999 95.7186 25.4255 95.9529 25.0009 95.8846C24.7211 96.0039 24.853 96.3464 24.757 96.5573C24.6923 96.8802 24.2514 96.701 24.2805 96.4417C24.2351 96.1567 24.1813 95.8858 23.8297 96.1375C23.5119 96.187 23.3593 96.477 23.0578 96.5372C22.6746 96.561 22.5171 96.8897 22.2746 97.1035C22.0285 97.2267 21.6882 97.4952 21.8003 97.066C21.7377 96.7087 21.3332 96.4537 20.9372 96.4029C20.5489 96.2362 20.3376 95.8487 20.1686 95.5121C20.0966 95.1033 19.8312 95.4964 19.6312 95.6174C19.429 95.9221 19.1696 95.6004 18.9162 95.537C18.6447 95.5084 18.2613 95.6496 18.1802 95.3319C18.2096 95.1234 18.5841 94.9608 18.47 94.6903C18.5618 94.2465 18.2606 94.6601 18.0446 94.7457C17.7223 94.9605 17.2422 95.0387 17.073 95.3857C17.0845 95.6219 17.2761 95.8699 17.3544 96.1103C17.2409 96.712 16.9113 97.1294 16.5892 97.6045C16.5194 97.8821 16.9175 97.9958 16.5013 98.1609C15.9153 98.5642 16.3401 98.8759 16.5833 99.3556C16.4823 100.047 15.7346 100.704 16.0496 101.377C15.8558 101.598 15.7503 101.806 16.1032 101.945C16.2869 102.046 16.7581 101.362 16.6629 102.137C16.5075 102.527 16.0537 102.68 15.7089 102.92C15.5278 103.691 15.2191 103.42 15.3426 104.09C15.2837 104.494 14.9885 104.801 14.7378 105.127C14.3676 104.967 13.9973 104.807 13.6272 104.646C13.4653 104.742 13.3591 104.797 13.2245 104.956C12.8218 105.266 13.4862 105.574 13.9692 105.75C14.1715 105.812 14.7877 106.92 15.2171 107.462C15.3579 107.886 14.8348 108.15 14.8951 108.309C14.9555 108.467 16.2638 107.832 16.6261 108.026C16.7197 108.691 16.0241 109.293 15.8613 109.42C15.66 109.614 15.7244 110.759 15.7244 110.759C15.7269 110.747 14.4373 110.342 14.2442 111.134C14.1555 111.498 14.8988 112.556 14.7424 112.918C14.5858 113.28 14.3727 113.118 13.9884 113.019C13.6043 112.918 13.3338 113.293 13.348 113.567C13.3622 113.842 14.3154 114.166 14.4577 114.303C14.6001 114.441 13.0064 115.252 12.9495 115.301C12.8925 115.352 13.4762 116.387 13.8888 116.65C14.3015 116.911 14.7709 116.536 15.0981 116.499C15.4254 116.462 16.7408 117.254 16.7408 117.254C16.6036 117.604 16.0223 117.564 15.3543 117.447C15.3543 117.447 14.6996 118.546 14.5431 118.621C14.3865 118.695 13.9031 118.197 13.9031 118.197C13.9031 118.197 12.5936 118.122 12.2379 117.91C11.8821 117.697 11.4978 118.159 11.512 118.384C11.5263 118.608 12.978 119.632 12.9495 119.718C12.921 119.806 12.4371 120.929 12.0813 120.929C11.7255 120.929 11.5974 120.031 11.3697 120.106C11.142 120.18 10.715 121.116 10.5442 121.366C10.3734 121.616 10.2458 122.276 10.4165 122.638C10.5873 123 10.5446 123.699 10.3169 123.749C10.0892 123.799 9.34909 124.198 9.2637 124.348C9.17832 124.497 9.70489 124.947 9.57682 125.209C9.44874 125.471 8.62324 125.846 8.66594 126.144C8.70863 126.444 9.6338 126.993 10.0465 127.255C10.4592 127.518 10.3738 128.927 10.3169 129.039C10.26 129.152 9.29214 129.127 9.06445 129.264C8.83676 129.401 9.1214 130.225 9.10714 130.586C9.09288 130.948 8.75133 132.296 8.7798 132.521C8.80822 132.745 9.54836 132.92 9.7049 132.945C9.86143 132.97 9.74759 133.893 9.53411 134.018C9.32065 134.143 8.15353 134.33 7.98277 134.405C7.812 134.48 7.0296 134.255 6.90153 134.243C6.77346 134.23 6.77344 133.569 6.77344 133.569C6.77344 133.569 6.38914 133.607 6.20413 133.756C6.01913 133.906 6.55999 134.741 6.8446 135.029C7.12921 135.316 7.89738 135.977 7.89738 135.977C7.89738 135.977 7.5273 136.477 7.27115 136.676C7.015 136.876 7.49887 137.674 7.49887 137.674C7.49887 137.674 7.01537 138.098 6.90153 138.373C6.78768 138.647 7.04343 139.521 7.04343 139.92C7.04343 140.319 8.03972 140.394 8.21049 140.519C8.38127 140.644 9.14987 140.295 9.43448 140.369C9.7191 140.444 8.89364 142.291 8.7798 142.465C8.66594 142.64 7.58977 144.748 7.2879 144.942C6.98602 145.136 5.91933 146.177 5.75832 146.6C5.59731 147.025 6.42213 147.571 6.22088 147.818C6.01963 148.065 5.37559 148.418 5.4561 148.982C5.53662 149.547 6.80479 150.976 7.08655 151.065C7.3683 151.153 7.85384 150.763 7.85384 150.763C7.7058 150.935 6.85124 152.21 7.12673 152.3C7.39356 152.387 7.50908 153.129 7.14683 153.641C6.78457 154.154 6.40227 154.595 5.79851 154.682C5.19475 154.771 5.41607 155.688 5.83869 156.148C6.26132 156.606 5.6375 156.746 5.53687 156.977C5.43625 157.206 5.7381 157.876 5.8186 158.212C5.89911 158.547 4.49035 159.058 3.98721 159.341C3.48408 159.623 3.96688 159.941 4.10777 160.258C4.24865 160.576 3.62507 161.441 3.40369 161.617C3.18231 161.794 2.21592 161.794 2.07504 161.918C1.93417 162.041 2.03486 162.799 2.03486 162.799C2.03486 162.799 2.7594 163.065 3.06128 163.029C3.36315 162.994 4.08787 162.658 4.752 162.888C5.41614 163.117 5.89926 163.24 6.24139 163.788C6.58353 164.335 7.26751 164.141 7.97189 163.982C8.67628 163.823 9.28001 164.776 9.80327 164.952C10.3265 165.129 10.8701 164.846 11.4739 164.97C12.0777 165.094 12.339 164.511 12.7012 164.335C13.0635 164.158 13.7607 163.952 13.7607 163.952C13.7607 163.952 13.8177 164.027 13.8177 164.451C13.8177 164.875 14.842 165.374 15.0413 165.873C15.2405 166.373 15.4967 166.373 15.8667 166.697C16.2367 167.021 16.1229 167.72 15.8667 168.094C15.6106 168.469 15.8098 169.168 15.9806 169.741C15.9806 169.741 17.1489 168.905 17.3704 168.764C17.5917 168.623 19.0812 167.653 19.3227 167.335C19.5642 167.018 19.6847 166.311 20.208 165.852C20.7313 165.393 21.1642 164.555 21.4056 164.511C21.6472 164.467 22.2609 164.494 22.5426 164.3C22.8243 164.106 23.7201 164.282 23.7201 164.282C23.7201 164.282 23.7504 164.811 23.9014 165.005C24.0523 165.199 24.2837 165.57 24.173 165.843C24.0623 166.117 23.9413 166.743 23.5389 167.034C23.1364 167.326 23.0561 168.067 23.1265 168.173C23.197 168.279 23.1956 168.943 23.1956 168.943C23.1956 168.943 24.5616 168.594 24.9884 168.531C25.4154 168.469 25.7002 168.581 25.9279 168.743C26.1555 168.905 27.4934 168.993 27.835 169.055C28.1765 169.118 28.717 168.905 28.7739 168.493C28.8308 168.082 29.1582 167.982 29.3147 167.72C29.4713 167.458 29.5566 166.597 29.3005 166.373C29.0443 166.147 29.2292 165.861 29.2578 165.761C29.2862 165.662 29.9695 165.748 30.2399 165.862C30.5102 165.974 31.0085 165.823 31.3784 165.823C31.7484 165.823 32.8867 166.235 33.1001 166.41C33.3136 166.584 33.7122 167.47 33.7975 167.733C33.8829 167.995 34.0679 168.219 33.826 168.344C33.5841 168.469 33.2567 168.693 33.1997 169.017C33.1428 169.342 32.7727 170.39 32.6447 170.527C32.5166 170.665 33.0859 171.476 33.0859 171.476C33.0859 171.476 33.3848 171.214 33.7833 171.238C34.1818 171.264 34.8508 170.715 35.1068 170.316C35.363 169.916 35.9035 169.267 36.3874 169.243C36.8712 169.217 37.8676 168.743 38.2945 168.644C38.7214 168.544 40.5998 168.843 40.7706 168.918C40.9413 168.993 42.1058 168.431 42.1058 168.431C42.1058 168.431 42.1067 168.43 42.208 168.144C42.3092 167.858 42.1653 167.358 41.8095 166.934C41.4537 166.509 41.1406 166.472 41.2402 166.198C41.3398 165.923 41.9092 165.25 42.2649 165.149C42.6207 165.05 43.3604 165.287 43.3604 165.287C43.3604 165.287 43.9724 165.087 43.7589 164.888C43.5455 164.688 43.1327 164.713 42.9762 164.488C42.8196 164.264 42.3358 163.25 42.0037 162.976C41.9635 162.932 41.4704 162.826 41.4704 162.826C41.4704 162.826 41.732 162.605 41.9836 162.588C42.2352 162.57 43.2317 162.446 43.4027 162.684C43.5738 162.923 44.1172 162.967 44.4191 163.232C44.721 163.497 44.8917 164.379 44.8615 164.459C44.8313 164.538 45.4252 165.005 45.5459 165.05C45.6667 165.094 46.522 165.094 46.824 165.332C47.1258 165.57 47.7397 166.038 48.0216 165.993C48.3033 165.949 48.9319 165.744 49.1986 165.596C49.4301 165.711 50.4362 166.611 50.5771 166.735C50.718 166.859 51.6841 168.34 51.8049 168.658C51.9256 168.976 51.7447 169.823 51.9459 170.317C52.1472 170.811 52.6504 170.829 52.9522 170.776C53.2542 170.722 53.3145 170.546 53.7371 170.458C54.1598 170.369 54.361 169.964 54.8238 169.964C55.2867 169.964 55.528 170.617 55.4275 170.952C55.3268 171.287 55.5484 171.87 55.5484 171.87C55.5484 171.87 55.4578 172.081 55.5685 172.099C55.6792 172.116 56.5244 171.941 56.615 172.073C56.7056 172.205 56.5845 172.761 56.2726 173.07C55.9607 173.379 55.7294 173.696 55.9005 173.952C56.0715 174.208 56.1721 175.011 55.9507 175.346C55.7293 175.681 55.8903 176.564 56.1923 176.775C56.4941 176.987 57.3595 177.234 57.5204 177.692C57.6815 178.152 58.1243 178.54 58.4464 178.84C58.7684 179.14 59.2513 179.369 59.2513 179.369C59.2513 179.369 59.5631 179.237 59.8952 179.511C60.2272 179.784 60.7205 180.251 60.791 180.419C60.8614 180.587 61.4248 180.755 61.6964 180.772C61.9681 180.79 62.5437 180.06 62.6575 179.786C62.7713 179.512 62.4725 178.987 62.686 178.7C62.8994 178.413 63.4683 178.251 63.6249 177.864C63.7815 177.478 64.3553 177.131 64.3553 177.131L65.2758 177.852C65.5586 177.569 65.8067 177.244 66.0578 176.943L66.314 175.549C66.314 175.549 67.1257 175.543 67.4103 175.768C67.6949 175.993 67.8088 176.629 68.1503 177.016C68.492 177.403 69.3744 177.689 69.7444 177.615C70.1144 177.54 71.0676 177.191 71.0107 176.741C70.9537 176.293 71.8931 176.416 71.8931 176.416C71.8931 176.416 72.0497 175.406 72.2347 175.119C72.4666 174.365 72.7949 172.781 73.8856 172.835C74.3552 172.886 75.2658 172.923 75.5931 173.072L77.0218 172.964C77.0218 172.964 76.8609 173.493 76.9816 173.599C77.1024 173.705 77.9073 173.687 78.3501 173.669C78.7928 173.652 79.0949 173.316 79.5175 173.316C79.9401 173.316 80.413 173.29 80.6343 173.026C80.8557 172.761 80.6548 172.593 81.2383 172.522C81.822 172.452 82.1336 172.09 82.2443 172.134C82.355 172.179 82.6068 172.531 82.8583 172.629C83.1099 172.725 83.8543 173.008 84.0154 173.131C84.1764 173.255 85.2533 173.07 85.4345 173.14C85.6156 173.211 86.2092 173.281 86.491 173.299C86.7727 173.316 86.9942 173.678 86.9942 173.678C86.9942 173.678 87.6783 173.582 87.8493 173.458C88.0204 173.335 88.4029 173.626 88.584 173.749C88.7651 173.872 89.107 174.199 88.9762 174.516C88.9471 175.263 89.589 175.892 89.9323 176.546C90.0732 176.819 90.0834 177.19 89.8519 177.517C89.6205 177.843 89.8809 178.825 90.0232 179.038C90.1654 179.249 90.6209 179.411 90.6351 179.474C90.6494 179.536 90.4787 179.885 90.749 180.085C91.352 180.51 91.6195 181.095 92.3569 181.221C92.3853 181.146 92.5704 180.484 92.9262 180.435C93.282 180.385 93.467 180.884 93.7801 180.921C94.0932 180.959 95.3172 181.321 95.3172 181.321C95.3172 181.321 95.8434 181.121 96.3415 181.072C96.8396 181.021 96.7543 180.535 97.0389 180.46C97.3236 180.385 98.149 180.51 98.4052 180.298C98.958 180.034 99.1105 180.238 99.7003 180.572C99.7003 180.572 100.255 180.01 100.682 179.723C101.109 179.437 101.679 179.936 102.162 179.624C102.646 179.312 102.817 178.937 103.314 178.8C103.813 178.663 104.031 178.822 104.312 178.911C105.096 178.947 105.788 178.614 106.566 178.575C106.566 178.575 107.15 178.911 107.472 178.911C107.794 178.911 108.317 179.299 108.679 179.21C109.042 179.123 109.565 178.963 109.665 179.175C109.765 179.387 109.765 179.952 109.937 180.119C110.108 180.287 110.712 180.683 110.882 180.666C111.054 180.648 111.306 180.86 111.618 181.072C111.929 181.284 112.624 181.036 112.785 180.914C112.946 180.79 113.69 180.887 114.032 181.028C114.375 181.169 114.555 181.636 114.858 181.575C115.159 181.513 115.471 181.134 115.793 181.178C116.116 181.222 116.73 181.134 116.86 181.036C116.991 180.94 117.275 181.495 117.389 181.632C117.502 181.77 117.759 182.331 118.058 182.431C118.357 182.531 119.253 182.319 119.381 182.63C119.51 182.943 119.801 183.545 120.03 183.695C120.13 183.869 120.553 184.398 120.895 184.698C121.237 184.998 121.741 184.433 122.143 184.469C122.546 184.504 123.129 185.157 123.471 185.192C123.814 185.227 124.397 184.681 124.94 184.734C125.484 184.786 126.088 185.439 126.088 185.439C126.088 185.439 126.369 186.075 126.43 186.533C126.49 186.992 127.416 187.116 127.477 187.398C127.536 187.681 127.496 188.387 127.657 188.686C127.818 188.987 127.713 189.518 127.891 189.693C128.069 189.868 128.589 190.011 128.874 189.999C129.157 189.987 130.196 189.917 130.196 189.917L129.936 188.444C129.756 187.444 130.723 187.058 131.642 187.664C131.936 187.828 132.229 187.998 132.577 187.846L133.517 184.495C133.621 183.132 133.629 181.687 133.751 180.327C133.78 180.02 133.86 179.745 134.235 179.649C134.498 179.403 134.862 179.54 135.173 179.627C135.469 179.708 135.778 179.92 136.067 179.924C136.322 179.748 136.743 179.663 136.677 179.31C136.89 178.835 136.235 178.481 136.388 178.007C136.462 177.523 136.346 176.992 136.701 176.577C137.161 175.771 137.697 174.991 138.287 174.255C138.924 173.814 139.168 173.113 139.644 172.558C140.068 171.968 140.658 171.482 141.01 170.849C141.362 170.338 141.714 169.826 142.065 169.315C141.831 168.742 141.223 168.36 140.926 167.829C140.856 167.596 140.786 167.362 140.716 167.128L141.823 166.46C141.823 166.46 142.065 165.138 142.178 164.75C142.293 164.363 143.489 162.18 143.597 162.019C143.584 161.273 143.579 160.528 143.459 159.787C143.596 159.065 143.757 158.177 143.98 157.393C144.542 156.85 145.706 156.892 146.293 156.222L147.481 151.277C147.481 151.277 147.743 150.941 147.964 150.924C148.186 150.906 148.497 151.25 148.497 151.25L148.611 150.376L151.166 145.358L150.861 141.329L150.985 140.867L153.267 140.821L157.564 136.458C156.923 135.986 156.131 135.422 155.278 135.005L155.439 134.534C156.67 134.504 157.889 134.166 159.003 133.705C159.996 132.235 160.737 130.292 159.144 128.982C159.489 128.651 159.888 128.44 160.36 128.25C160.063 127.667 159.768 127.083 159.47 126.5L160.083 126.322L162.353 125.964L163.121 123.78L166.305 118.027C167.039 117.808 167.799 117.705 168.489 117.382L168.988 116.714C170.468 116.151 171.388 115.183 172.393 114.047L173.57 112.541C174.711 110.715 175.799 108.823 175.932 106.711C175.75 106.213 175.556 105.741 175.236 105.294C175.77 104.321 176.485 103.739 177.523 104.668C177.879 104.898 178.067 104.934 178.532 104.85C178.458 104.494 178.436 104.187 178.188 103.889C178.556 101.733 180.247 103.223 179.407 104.58L180.121 104.959C180.864 104.622 181.596 104.271 182.307 103.88C182.427 102.393 183.61 101.008 184.78 99.7436L184.747 98.986C183.574 97.7254 183.497 96.4125 184.942 94.9365C184.983 94.4586 184.808 94.0701 184.7 93.5947L184.725 92.5718C184.725 92.5718 185.057 92.0182 185.44 91.8186C185.824 91.6189 186.536 91.2574 186.508 90.9205C186.48 90.5836 187.546 89.2233 187.546 89.2233C187.546 89.2233 188.016 89.448 188.159 89.3607L188.979 89.0571C188.979 89.0571 188.939 88.563 189.2 88.3865C189.462 88.2101 190.287 87.7513 190.388 87.469C190.488 87.1866 190.952 86.7454 191.012 86.3043C191.072 85.8632 191.374 85.3337 191.635 85.0161C191.898 84.6985 192.32 83.922 192.32 83.922C192.32 83.922 193.024 84.0986 193.125 84.028C193.225 83.9574 193.509 82.8847 193.538 82.71C193.566 82.5353 193.879 81.8243 193.879 81.8243C193.808 81.7869 193.509 81.3626 193.011 81.2129C192.513 81.0632 192.157 81.375 191.758 81.113C191.36 80.851 191.161 79.94 191.546 79.6904C191.929 79.4409 192.399 78.5177 192.741 78.1559C193.082 77.794 194.903 76.9703 194.903 76.9703C194.903 76.9703 195.516 75.7353 195.587 75.4608C195.658 75.1862 195.942 74.35 196.056 74.2003C196.17 74.0506 196.54 73.202 196.369 72.9899C196.199 72.7777 195.758 71.8172 195.715 71.4678C195.672 71.1184 195.786 70.744 195.786 70.744C195.786 70.744 196.81 69.7086 196.754 69.5714C196.697 69.4341 196.227 68.4981 196.185 68.286C196.142 68.0739 195.559 67.4125 195.416 67.2003C195.373 67.113 195.216 66.7136 195.216 66.7136C195.216 66.7136 195.857 66.2397 196.085 65.9902C196.313 65.7407 197.1 64.8113 197.1 64.8113C197.1 64.8113 196.911 64.3803 196.967 64.1183C197.024 63.8563 196.74 63.5972 196.74 63.5972C196.74 63.5972 195.7 63.9187 195.516 63.9311C195.331 63.9436 194.363 63.4944 193.95 63.5693C193.538 63.6441 193.024 62.9233 192.682 62.9233H191.213C191.213 62.9233 190.408 62.5881 190.026 62.6939C189.643 62.7997 188.485 62.5838 188.386 62.5214C188.286 62.459 187.774 61.7227 187.546 61.6354C187.319 61.5481 186.721 61.3234 186.266 61.286C185.811 61.2485 185.356 60.9116 185.176 60.6998C184.994 60.4881 184.491 60.0647 184.149 60.1354C183.807 60.2059 182.801 60.2764 182.438 60.1706C182.076 60.0647 181.352 59.0412 181.09 58.7942C180.828 58.5471 179.963 58.141 179.863 58.0352C179.762 57.9293 178.514 56.2176 178.514 56.2176L179.5 53.5886C179.5 53.5886 179.52 51.8944 179.54 51.418C179.561 50.9415 180.506 49.0359 180.506 49.0359C180.506 49.0359 181.331 46.9007 181.774 46.5126C182.217 46.1243 183.183 44.395 183.304 44.0773C183.425 43.7597 183.465 43.3716 183.947 43.3363C184.43 43.3009 184.712 42.8776 184.672 42.3835C184.632 41.8894 184.451 41.3776 184.511 41.0599C184.572 40.7423 184.961 39.1815 184.961 39.1815C184.954 39.1011 184.854 38.6248 185.015 38.5718C185.176 38.5189 186.323 37.7952 186.423 37.7599C186.524 37.7247 187.57 37.5481 187.57 37.5481C187.57 37.5481 188.396 36.7541 188.496 36.6306C188.597 36.5071 189.06 35.9248 189.06 35.4484C189.06 34.9719 188.939 34.2308 189.12 34.0368C189.301 33.8427 189.663 33.0664 189.663 33.0664C189.663 33.0664 188.718 33.5779 188.355 33.6133C187.993 33.6486 186.866 33.5777 186.785 33.4719C186.705 33.3661 186.444 32.7307 185.859 32.819C185.276 32.9072 182.821 32.3251 182.459 32.0075C182.097 31.6899 181.774 31.0721 181.231 30.9309C180.687 30.7898 180.264 30.9181 180.185 30.3488C180.105 29.7796 179.379 30.1015 179.199 30.0486C179.017 29.9957 178.554 29.0605 178.171 28.8488C177.789 28.637 177.065 28.4781 176.662 28.4605C176.259 28.4428 175.764 28.0956 175.764 28.0956C175.764 28.0956 176.447 27.1596 176.376 26.8228C176.304 26.4859 175.736 26.0619 176.148 25.8124C176.561 25.5627 176.475 25.0136 176.575 24.7891C176.674 24.5644 176.901 24.2525 177.13 24.0028C177.357 23.7533 176.219 23.6784 176.276 23.4288C176.333 23.1793 177.13 22.88 176.817 22.381C176.503 21.8819 175.849 21.2328 175.991 20.9583C176.134 20.6838 176.419 19.9853 176.361 19.561C176.304 19.1368 176.618 18.6376 177.215 18.5877C177.812 18.5377 178.041 17.8139 178.069 17.4146C178.097 17.0153 178.581 16.3418 178.695 16.1671C178.808 15.9924 179.592 15.5244 179.877 15.5931C180.161 15.6617 180.445 15.4558 180.267 15.2748C180.089 15.0939 179.151 14.913 178.83 15.1251C178.51 15.3372 177.94 15.2686 178.061 15.0877C178.182 14.9067 178.603 14.0772 178.46 13.8776C178.318 13.6779 178.951 12.4362 179.179 12.2615C179.406 12.0868 180.389 11.7249 180.402 11.363C180.417 11.0012 180.346 10.415 179.99 10.5023C179.635 10.5897 179.093 10.8763 179.093 10.8763C179.093 10.8763 178.767 10.0905 178.253 10.0156C178.19 10.0063 178.134 10.0012 178.085 10.0002Z" fill="white"/>
</mask>
<g mask="url(#mask0_11_311)">
<path d="M178.085 10.0002C177.743 9.9931 177.729 10.1779 177.443 10.3526C177.115 10.5522 176.475 10.5644 176.603 10.8638C176.731 11.1633 177.13 11.6999 177.13 11.6999C177.13 11.6999 176.347 11.8247 176.077 11.962C175.806 12.0992 175.778 12.4986 175.635 12.823C175.493 13.1475 175.108 13.9084 174.739 14.133C174.369 14.3576 173.685 14.8318 173.358 14.9441C173.031 15.0564 172.348 15.0939 172.235 15.331C172.12 15.568 171.978 16.4292 171.466 16.5414C170.954 16.6537 170.626 16.6164 170.712 16.8534C170.797 17.0905 170.697 17.8139 170.256 17.789C169.815 17.7641 169.379 17.7534 169.379 17.7534C169.379 17.7534 168.848 18.0635 168.364 17.814C167.88 17.5644 167.025 17.6393 166.613 17.8015C166.2 17.9637 165.19 19.0494 164.621 19.2116C164.051 19.3738 162.586 19.7856 162.287 19.8855C161.988 19.9853 161.433 20.8835 161.419 21.3077C161.405 21.732 161.675 23.0545 161.433 23.5536C161.191 24.0527 160.907 25.0261 160.907 25.0261C160.907 25.0261 159.199 25.101 158.687 25.3007C158.175 25.5003 157.107 25.3756 156.551 25.9122C155.997 26.4487 153.82 27.5465 153.478 27.559C153.136 27.5715 151.486 28.0831 150.988 28.2204C150.931 28.2329 150.69 28.413 150.362 28.8594C150.205 28.7819 148.811 28.2079 148.341 28.0457C147.871 27.8835 146.932 27.1348 146.932 27.1348C146.932 27.1348 145.651 28.1206 145.481 28.4326C145.31 28.7445 143.374 28.9068 143.018 28.8195C142.662 28.732 142.463 29.1685 142.008 29.4929C141.552 29.8173 140.899 29.755 140.585 29.6427C140.272 29.5304 139.746 28.807 139.404 28.6323C139.063 28.4575 138.585 28.1808 138.585 28.1808C138.55 28.1455 138.508 27.609 138.123 27.247C137.739 26.8852 137.041 26.9101 136.957 26.6606C136.871 26.4109 136.359 25.7998 136.287 25.5503C136.216 25.3007 136.404 24.7167 136.404 24.7167C136.404 24.7167 136.03 24.102 136.251 23.8197C136.473 23.5374 136.553 22.7256 136.553 22.7256C136.553 22.7256 135.667 22.514 135.305 22.8493C134.943 23.1846 133.997 23.4492 133.574 23.3257C133.151 23.2021 132.628 23.2549 132.306 23.449C131.984 23.6432 131.844 24.3137 131.844 24.3137C131.844 24.3137 130.133 24.1197 129.791 24.2785C129.448 24.4373 128.543 23.9785 128.02 24.2785C127.496 24.5785 127.093 25.2842 127.114 25.4959C127.134 25.7077 126.916 26.1944 126.916 26.1944C126.852 26.1667 125.906 25.8841 125.262 25.7606C124.618 25.6371 124.558 25.6548 124.558 25.6548C124.558 25.6548 125.242 25.0903 125.242 24.7021C125.242 24.3138 124.739 23.5551 124.276 23.1139C123.813 22.6727 123.27 22.7434 122.546 22.4609L122 22.6048C122 22.6048 121.004 22.4926 120.819 22.2804C120.635 22.0683 120.777 21.4817 120.321 21.4318C119.866 21.3818 119.51 21.9684 119.382 21.7937C119.254 21.619 119.282 20.9451 118.898 21.0325C118.514 21.1198 118.201 21.4816 118.058 21.1573C117.916 20.8328 118.058 20.2962 118.058 20.2962C118.058 20.2962 117.453 20.3259 117.112 20.573C116.77 20.82 116.266 21.6493 116.065 21.7375C115.864 21.8258 115.34 22.3726 114.898 22.1255C114.455 21.8785 113.932 21.5787 113.629 21.7375C113.328 21.8963 112.222 22.2668 112.141 22.2844C112.06 22.302 112.342 22.8137 112.101 23.0255C111.859 23.2372 110.882 23.6931 110.882 23.6931C110.882 23.6931 109.585 23.6079 109.082 23.1844C108.578 22.7609 106.486 22.814 106.183 22.8316C105.882 22.8494 105.137 22.1611 104.614 22.3905C104.091 22.6199 102.943 22.2494 102.681 22.3729C102.42 22.4964 101.193 23.2198 100.649 23.3609C100.105 23.5021 98.415 23.3255 97.8113 23.2196C97.2075 23.1137 96.4632 22.796 96.3223 23.0255C96.1814 23.2549 95.2959 23.6784 95.5776 23.9255C95.8593 24.1725 96.5637 24.4197 96.1009 24.4903C95.638 24.5609 94.1083 24.6492 93.565 24.6844C93.0216 24.7197 90.9688 25.3551 90.4657 25.3374C89.9625 25.3197 89.4997 25.2491 89.4192 25.3903C89.3386 25.5314 89.1172 26.3783 89.2178 26.6429C89.3184 26.9076 88.4329 27.4193 88.4329 27.7722C88.4329 28.1252 89.0169 29.2899 89.0169 29.2899C89.0169 29.2899 89.7413 29.3428 90.1036 28.9016C90.4658 28.4605 91.6529 28.249 92.1157 28.5136C92.5786 28.7784 93.726 29.2016 93.8266 29.6075C93.9273 30.0133 94.1485 30.5606 93.907 31.0194C93.6654 31.4782 94.0283 32.1117 94.0283 32.1117C93.4442 32.131 92.9812 32.5013 92.3171 33.0483C91.653 33.5954 90.9083 34.3897 91.029 34.7601C91.1498 35.1307 90.6467 35.3426 90.2241 35.6249C89.8015 35.9072 89.9625 36.5955 89.1575 36.7719C88.3525 36.9484 86.9435 37.7954 86.3801 38.0778C85.8166 38.3601 86.1792 39.2774 85.8974 39.6303C85.6157 39.9833 84.9311 40.2657 84.0455 40.7245C83.1601 41.1832 83.0396 42.4539 83.0396 42.4539C83.0396 42.4539 81.8017 42.6393 81.3991 42.3923C80.9966 42.1452 80.3827 41.9597 80.4229 42.4891C80.4632 43.0185 80.0258 43.7213 79.9805 44.2538C79.9362 44.7733 79.8904 44.8995 79.8495 45.2155C79.7906 45.6704 77.8573 45.0556 78.0884 45.5241C78.3319 46.0175 78.9341 46.689 78.3706 47.2536C77.807 47.8183 75.5929 49.9709 75.7137 50.5356C75.8345 51.1003 75.7543 51.5238 75.2712 51.6297C74.7882 51.7356 74.0633 52.7238 73.9426 53.2179C73.8218 53.712 73.2988 54.7354 73.0171 55.0882C72.7353 55.4411 72.212 55.9353 72.2523 56.4294C72.2925 56.9235 71.9015 57.5511 71.9015 57.5511C71.6085 57.3575 71.4417 57.285 71.1422 57.5015C70.885 57.2378 70.1251 57.5608 70.2443 57.0823C70.5598 56.7624 70.3227 56.5435 70.0906 56.2785C70.0718 55.6443 69.3369 55.5006 68.8449 55.2398C68.0372 55.3007 67.821 54.4802 67.5024 53.9916C67.2021 53.5359 66.8872 53.0937 66.265 52.9576C65.7191 52.7967 65.1451 53.113 64.6555 53.3148C64.0885 53.3856 63.517 53.0392 62.9233 53.0655C62.2651 52.8179 62.0151 53.486 61.4302 53.4737C60.637 53.7482 60.4078 53.2528 60.4732 52.6302C60.6798 51.9388 60.9195 51.2534 61.1661 50.5734C60.9983 50.3052 60.2247 50.5104 59.8579 50.2633C59.2883 49.9575 58.7567 50.6075 58.1672 50.3429C57.5937 50.2591 56.9889 49.8555 57.0479 49.3208C57.3632 48.6443 57.2615 47.9036 57.1495 47.2004C56.5003 47.8133 55.9703 48.8262 54.8372 48.6032C53.8661 48.6093 53.4286 49.4819 52.5391 49.6763C51.8257 49.8125 51.4448 50.2836 51.5123 50.892C51.3721 51.539 50.4463 51.6594 49.8128 51.5747C48.9506 51.6611 48.8538 52.7317 48.127 53.0755C47.3176 53.371 47.7181 54.1829 47.5845 54.7341C47.4273 55.3387 46.654 55.5407 46.5883 56.1952C46.0385 56.5945 45.5471 56.9595 45.651 57.5694C45.1761 57.9792 44.6982 58.3189 44.3914 58.8651C43.6111 59.4547 43.7143 60.4127 43.2662 61.1498C43.2948 61.7047 43.339 62.3414 43.5468 62.9082C43.3206 63.4696 43.3158 63.9069 43.121 64.4315C43.5933 65.0417 42.7912 64.9571 42.8744 65.7424C42.2917 65.9835 42.3863 66.6872 42.1411 67.2282C42.167 68.0204 41.235 67.8123 40.6964 68.1626C40.3672 68.6431 39.855 69.0957 39.3917 69.5299C39.3344 70.1039 38.3809 70.5538 38.8241 71.1341C38.9381 71.5021 38.2742 71.9845 38.3766 72.4129C38.1599 71.5513 37.9023 72.5201 37.2128 72.4985C36.3591 72.8193 36.399 71.7455 35.5159 72.1563C34.4158 72.0356 34.7509 72.5159 34.2274 72.901C33.8073 73.135 34.1108 73.9317 33.2834 74.1611C33.2746 74.5882 33.5249 75.0733 32.5634 75.1488C32.6164 75.4252 32.3178 76.0447 32.1231 76.6532C32.6296 77.0089 32.8312 76.0268 33.2303 76.5795C34.0357 76.0193 34.2978 77.4286 33.2981 77.1744C32.9889 77.3484 33.4511 77.9206 32.7091 78.1357C32.8246 78.7543 32.8851 78.9871 32.8054 79.5968C33.2019 79.6391 34.0765 79.9458 33.928 80.5834C33.2598 80.9618 34.2629 82.1786 33.2662 81.6042C32.458 81.0473 32.3099 81.6154 32.6082 82.2343C33.4406 82.9805 32.0189 82.2711 31.7012 82.5826C30.7208 83.4548 32.3552 82.6313 32.2533 83.0099C31.6822 83.6331 31.7696 83.8162 32.5438 83.9182C32.7426 84.3844 33.1031 85.35 32.1649 85.2554C31.0787 85.0524 31.4068 85.3489 31.756 86.0448C32.008 86.9852 30.5795 86.0938 30.6571 86.998C29.9978 87.2676 31.1687 87.5774 30.6442 88.1707C29.4255 88.0121 30.5308 89.0159 29.7132 89.1429C29.3145 89.5747 28.8298 89.8435 28.5549 90.3813C28.071 90.558 27.9936 90.6042 27.6675 91.0104C27.4071 91.0319 27.1453 90.7279 26.8851 90.8265C26.5236 90.8548 26.7831 91.2247 26.9408 91.3536C27.2696 91.4919 27.1175 91.823 27.1526 92.0792C27.0139 92.1837 26.5724 91.7323 26.4539 91.9805C25.9783 92.4452 27.1032 92.2321 26.2773 92.7957C26.0089 93.0857 26.4017 93.1434 26.6834 93.0908C26.5168 93.3682 26.3089 93.6288 26.1702 93.9177C25.9491 94.1603 26.1859 94.3535 26.348 94.5548C26.3717 94.8374 26.9491 94.7961 26.7884 95.0467C26.736 95.3658 26.3202 95.4574 26.2199 95.7598C25.7999 95.7186 25.4255 95.9529 25.0009 95.8846C24.7211 96.0039 24.853 96.3464 24.757 96.5573C24.6923 96.8802 24.2514 96.701 24.2805 96.4417C24.2351 96.1567 24.1813 95.8858 23.8297 96.1375C23.5119 96.187 23.3593 96.477 23.0578 96.5372C22.6746 96.561 22.5171 96.8897 22.2746 97.1035C22.0285 97.2267 21.6882 97.4952 21.8003 97.066C21.7377 96.7087 21.3332 96.4537 20.9372 96.4029C20.5489 96.2362 20.3376 95.8487 20.1686 95.5121C20.0966 95.1033 19.8312 95.4964 19.6312 95.6174C19.429 95.9221 19.1696 95.6004 18.9162 95.537C18.6447 95.5084 18.2613 95.6496 18.1802 95.3319C18.2096 95.1234 18.5841 94.9608 18.47 94.6903C18.5618 94.2465 18.2606 94.6601 18.0446 94.7457C17.7223 94.9605 17.2422 95.0387 17.073 95.3857C17.0845 95.6219 17.2761 95.8699 17.3544 96.1103C17.2409 96.712 16.9113 97.1294 16.5892 97.6045C16.5194 97.8821 16.9175 97.9958 16.5013 98.1609C15.9153 98.5642 16.3401 98.8759 16.5833 99.3556C16.4823 100.047 15.7346 100.704 16.0496 101.377C15.8558 101.598 15.7503 101.806 16.1032 101.945C16.2869 102.046 16.7581 101.362 16.6629 102.137C16.5075 102.527 16.0537 102.68 15.7089 102.92C15.5278 103.691 15.2191 103.42 15.3426 104.09C15.2837 104.494 14.9885 104.801 14.7378 105.127C14.3676 104.967 13.9973 104.807 13.6272 104.646C13.4653 104.742 13.3591 104.797 13.2245 104.956C12.8218 105.266 13.4862 105.574 13.9692 105.75C14.1715 105.812 14.7877 106.92 15.2171 107.462C15.3579 107.886 14.8348 108.15 14.8951 108.309C14.9555 108.467 16.2638 107.832 16.6261 108.026C16.7197 108.691 16.0241 109.293 15.8613 109.42C15.66 109.614 15.7244 110.759 15.7244 110.759C15.7269 110.747 14.4373 110.342 14.2442 111.134C14.1555 111.498 14.8988 112.556 14.7424 112.918C14.5858 113.28 14.3727 113.118 13.9884 113.019C13.6043 112.918 13.3338 113.293 13.348 113.567C13.3622 113.842 14.3154 114.166 14.4577 114.303C14.6001 114.441 13.0064 115.252 12.9495 115.301C12.8925 115.352 13.4762 116.387 13.8888 116.65C14.3015 116.911 14.7709 116.536 15.0981 116.499C15.4254 116.462 16.7408 117.254 16.7408 117.254C16.6036 117.604 16.0223 117.564 15.3543 117.447C15.3543 117.447 14.6996 118.546 14.5431 118.621C14.3865 118.695 13.9031 118.197 13.9031 118.197C13.9031 118.197 12.5936 118.122 12.2379 117.91C11.8821 117.697 11.4978 118.159 11.512 118.384C11.5263 118.608 12.978 119.632 12.9495 119.718C12.921 119.806 12.4371 120.929 12.0813 120.929C11.7255 120.929 11.5974 120.031 11.3697 120.106C11.142 120.18 10.715 121.116 10.5442 121.366C10.3734 121.616 10.2458 122.276 10.4165 122.638C10.5873 123 10.5446 123.699 10.3169 123.749C10.0892 123.799 9.34909 124.198 9.2637 124.348C9.17832 124.497 9.70489 124.947 9.57682 125.209C9.44874 125.471 8.62324 125.846 8.66594 126.144C8.70863 126.444 9.6338 126.993 10.0465 127.255C10.4592 127.518 10.3738 128.927 10.3169 129.039C10.26 129.152 9.29214 129.127 9.06445 129.264C8.83676 129.401 9.1214 130.225 9.10714 130.586C9.09288 130.948 8.75133 132.296 8.7798 132.521C8.80822 132.745 9.54836 132.92 9.7049 132.945C9.86143 132.97 9.74759 133.893 9.53411 134.018C9.32065 134.143 8.15353 134.33 7.98277 134.405C7.812 134.48 7.0296 134.255 6.90153 134.243C6.77346 134.23 6.77344 133.569 6.77344 133.569C6.77344 133.569 6.38914 133.607 6.20413 133.756C6.01913 133.906 6.55999 134.741 6.8446 135.029C7.12921 135.316 7.89738 135.977 7.89738 135.977C7.89738 135.977 7.5273 136.477 7.27115 136.676C7.015 136.876 7.49887 137.674 7.49887 137.674C7.49887 137.674 7.01537 138.098 6.90153 138.373C6.78768 138.647 7.04343 139.521 7.04343 139.92C7.04343 140.319 8.03972 140.394 8.21049 140.519C8.38127 140.644 9.14987 140.295 9.43448 140.369C9.7191 140.444 8.89364 142.291 8.7798 142.465C8.66594 142.64 7.58977 144.748 7.2879 144.942C6.98602 145.136 5.91933 146.177 5.75832 146.6C5.59731 147.025 6.42213 147.571 6.22088 147.818C6.01963 148.065 5.37559 148.418 5.4561 148.982C5.53662 149.547 6.80479 150.976 7.08655 151.065C7.3683 151.153 7.85384 150.763 7.85384 150.763C7.7058 150.935 6.85124 152.21 7.12673 152.3C7.39356 152.387 7.50908 153.129 7.14683 153.641C6.78457 154.154 6.40227 154.595 5.79851 154.682C5.19475 154.771 5.41607 155.688 5.83869 156.148C6.26132 156.606 5.6375 156.746 5.53687 156.977C5.43625 157.206 5.7381 157.876 5.8186 158.212C5.89911 158.547 4.49035 159.058 3.98721 159.341C3.48408 159.623 3.96688 159.941 4.10777 160.258C4.24865 160.576 3.62507 161.441 3.40369 161.617C3.18231 161.794 2.21592 161.794 2.07504 161.918C1.93417 162.041 2.03486 162.799 2.03486 162.799C2.03486 162.799 2.7594 163.065 3.06128 163.029C3.36315 162.994 4.08787 162.658 4.752 162.888C5.41614 163.117 5.89926 163.24 6.24139 163.788C6.58353 164.335 7.26751 164.141 7.97189 163.982C8.67628 163.823 9.28001 164.776 9.80327 164.952C10.3265 165.129 10.8701 164.846 11.4739 164.97C12.0777 165.094 12.339 164.511 12.7012 164.335C13.0635 164.158 13.7607 163.952 13.7607 163.952C13.7607 163.952 13.8177 164.027 13.8177 164.451C13.8177 164.875 14.842 165.374 15.0413 165.873C15.2405 166.373 15.4967 166.373 15.8667 166.697C16.2367 167.021 16.1229 167.72 15.8667 168.094C15.6106 168.469 15.8098 169.168 15.9806 169.741C15.9806 169.741 17.1489 168.905 17.3704 168.764C17.5917 168.623 19.0812 167.653 19.3227 167.335C19.5642 167.018 19.6847 166.311 20.208 165.852C20.7313 165.393 21.1642 164.555 21.4056 164.511C21.6472 164.467 22.2609 164.494 22.5426 164.3C22.8243 164.106 23.7201 164.282 23.7201 164.282C23.7201 164.282 23.7504 164.811 23.9014 165.005C24.0523 165.199 24.2837 165.57 24.173 165.843C24.0623 166.117 23.9413 166.743 23.5389 167.034C23.1364 167.326 23.0561 168.067 23.1265 168.173C23.197 168.279 23.1956 168.943 23.1956 168.943C23.1956 168.943 24.5616 168.594 24.9884 168.531C25.4154 168.469 25.7002 168.581 25.9279 168.743C26.1555 168.905 27.4934 168.993 27.835 169.055C28.1765 169.118 28.717 168.905 28.7739 168.493C28.8308 168.082 29.1582 167.982 29.3147 167.72C29.4713 167.458 29.5566 166.597 29.3005 166.373C29.0443 166.147 29.2292 165.861 29.2578 165.761C29.2862 165.662 29.9695 165.748 30.2399 165.862C30.5102 165.974 31.0085 165.823 31.3784 165.823C31.7484 165.823 32.8867 166.235 33.1001 166.41C33.3136 166.584 33.7122 167.47 33.7975 167.733C33.8829 167.995 34.0679 168.219 33.826 168.344C33.5841 168.469 33.2567 168.693 33.1997 169.017C33.1428 169.342 32.7727 170.39 32.6447 170.527C32.5166 170.665 33.0859 171.476 33.0859 171.476C33.0859 171.476 33.3848 171.214 33.7833 171.238C34.1818 171.264 34.8508 170.715 35.1068 170.316C35.363 169.916 35.9035 169.267 36.3874 169.243C36.8712 169.217 37.8676 168.743 38.2945 168.644C38.7214 168.544 40.5998 168.843 40.7706 168.918C40.9413 168.993 42.1058 168.431 42.1058 168.431C42.1058 168.431 42.1067 168.43 42.208 168.144C42.3092 167.858 42.1653 167.358 41.8095 166.934C41.4537 166.509 41.1406 166.472 41.2402 166.198C41.3398 165.923 41.9092 165.25 42.2649 165.149C42.6207 165.05 43.3604 165.287 43.3604 165.287C43.3604 165.287 43.9724 165.087 43.7589 164.888C43.5455 164.688 43.1327 164.713 42.9762 164.488C42.8196 164.264 42.3358 163.25 42.0037 162.976C41.9635 162.932 41.4704 162.826 41.4704 162.826C41.4704 162.826 41.732 162.605 41.9836 162.588C42.2352 162.57 43.2317 162.446 43.4027 162.684C43.5738 162.923 44.1172 162.967 44.4191 163.232C44.721 163.497 44.8917 164.379 44.8615 164.459C44.8313 164.538 45.4252 165.005 45.5459 165.05C45.6667 165.094 46.522 165.094 46.824 165.332C47.1258 165.57 47.7397 166.038 48.0216 165.993C48.3033 165.949 48.9319 165.744 49.1986 165.596C49.4301 165.711 50.4362 166.611 50.5771 166.735C50.718 166.859 51.6841 168.34 51.8049 168.658C51.9256 168.976 51.7447 169.823 51.9459 170.317C52.1472 170.811 52.6504 170.829 52.9522 170.776C53.2542 170.722 53.3145 170.546 53.7371 170.458C54.1598 170.369 54.361 169.964 54.8238 169.964C55.2867 169.964 55.528 170.617 55.4275 170.952C55.3268 171.287 55.5484 171.87 55.5484 171.87C55.5484 171.87 55.4578 172.081 55.5685 172.099C55.6792 172.116 56.5244 171.941 56.615 172.073C56.7056 172.205 56.5845 172.761 56.2726 173.07C55.9607 173.379 55.7294 173.696 55.9005 173.952C56.0715 174.208 56.1721 175.011 55.9507 175.346C55.7293 175.681 55.8903 176.564 56.1923 176.775C56.4941 176.987 57.3595 177.234 57.5204 177.692C57.6815 178.152 58.1243 178.54 58.4464 178.84C58.7684 179.14 59.2513 179.369 59.2513 179.369C59.2513 179.369 59.5631 179.237 59.8952 179.511C60.2272 179.784 60.7205 180.251 60.791 180.419C60.8614 180.587 61.4248 180.755 61.6964 180.772C61.9681 180.79 62.5437 180.06 62.6575 179.786C62.7713 179.512 62.4725 178.987 62.686 178.7C62.8994 178.413 63.4683 178.251 63.6249 177.864C63.7815 177.478 64.3553 177.131 64.3553 177.131L65.2758 177.852C65.5586 177.569 65.8067 177.244 66.0578 176.943L66.314 175.549C66.314 175.549 67.1257 175.543 67.4103 175.768C67.6949 175.993 67.8088 176.629 68.1503 177.016C68.492 177.403 69.3744 177.689 69.7444 177.615C70.1144 177.54 71.0676 177.191 71.0107 176.741C70.9537 176.293 71.8931 176.416 71.8931 176.416C71.8931 176.416 72.0497 175.406 72.2347 175.119C72.4666 174.365 72.7949 172.781 73.8856 172.835C74.3552 172.886 75.2658 172.923 75.5931 173.072L77.0218 172.964C77.0218 172.964 76.8609 173.493 76.9816 173.599C77.1024 173.705 77.9073 173.687 78.3501 173.669C78.7928 173.652 79.0949 173.316 79.5175 173.316C79.9401 173.316 80.413 173.29 80.6343 173.026C80.8557 172.761 80.6548 172.593 81.2383 172.522C81.822 172.452 82.1336 172.09 82.2443 172.134C82.355 172.179 82.6068 172.531 82.8583 172.629C83.1099 172.725 83.8543 173.008 84.0154 173.131C84.1764 173.255 85.2533 173.07 85.4345 173.14C85.6156 173.211 86.2092 173.281 86.491 173.299C86.7727 173.316 86.9942 173.678 86.9942 173.678C86.9942 173.678 87.6783 173.582 87.8493 173.458C88.0204 173.335 88.4029 173.626 88.584 173.749C88.7651 173.872 89.107 174.199 88.9762 174.516C88.9471 175.263 89.589 175.892 89.9323 176.546C90.0732 176.819 90.0834 177.19 89.8519 177.517C89.6205 177.843 89.8809 178.825 90.0232 179.038C90.1654 179.249 90.6209 179.411 90.6351 179.474C90.6494 179.536 90.4787 179.885 90.749 180.085C91.352 180.51 91.6195 181.095 92.3569 181.221C92.3853 181.146 92.5704 180.484 92.9262 180.435C93.282 180.385 93.467 180.884 93.7801 180.921C94.0932 180.959 95.3172 181.321 95.3172 181.321C95.3172 181.321 95.8434 181.121 96.3415 181.072C96.8396 181.021 96.7543 180.535 97.0389 180.46C97.3236 180.385 98.149 180.51 98.4052 180.298C98.958 180.034 99.1105 180.238 99.7003 180.572C99.7003 180.572 100.255 180.01 100.682 179.723C101.109 179.437 101.679 179.936 102.162 179.624C102.646 179.312 102.817 178.937 103.314 178.8C103.813 178.663 104.031 178.822 104.312 178.911C105.096 178.947 105.788 178.614 106.566 178.575C106.566 178.575 107.15 178.911 107.472 178.911C107.794 178.911 108.317 179.299 108.679 179.21C109.042 179.123 109.565 178.963 109.665 179.175C109.765 179.387 109.765 179.952 109.937 180.119C110.108 180.287 110.712 180.683 110.882 180.666C111.054 180.648 111.306 180.86 111.618 181.072C111.929 181.284 112.624 181.036 112.785 180.914C112.946 180.79 113.69 180.887 114.032 181.028C114.375 181.169 114.555 181.636 114.858 181.575C115.159 181.513 115.471 181.134 115.793 181.178C116.116 181.222 116.73 181.134 116.86 181.036C116.991 180.94 117.275 181.495 117.389 181.632C117.502 181.77 117.759 182.331 118.058 182.431C118.357 182.531 119.253 182.319 119.381 182.63C119.51 182.943 119.801 183.545 120.03 183.695C120.13 183.869 120.553 184.398 120.895 184.698C121.237 184.998 121.741 184.433 122.143 184.469C122.546 184.504 123.129 185.157 123.471 185.192C123.814 185.227 124.397 184.681 124.94 184.734C125.484 184.786 126.088 185.439 126.088 185.439C126.088 185.439 126.369 186.075 126.43 186.533C126.49 186.992 127.416 187.116 127.477 187.398C127.536 187.681 127.496 188.387 127.657 188.686C127.818 188.987 127.713 189.518 127.891 189.693C128.069 189.868 128.589 190.011 128.874 189.999C129.157 189.987 130.196 189.917 130.196 189.917L129.936 188.444C129.756 187.444 130.723 187.058 131.642 187.664C131.936 187.828 132.229 187.998 132.577 187.846L133.517 184.495C133.621 183.132 133.629 181.687 133.751 180.327C133.78 180.02 133.86 179.745 134.235 179.649C134.498 179.403 134.862 179.54 135.173 179.627C135.469 179.708 135.778 179.92 136.067 179.924C136.322 179.748 136.743 179.663 136.677 179.31C136.89 178.835 136.235 178.481 136.388 178.007C136.462 177.523 136.346 176.992 136.701 176.577C137.161 175.771 137.697 174.991 138.287 174.255C138.924 173.814 139.168 173.113 139.644 172.558C140.068 171.968 140.658 171.482 141.01 170.849C141.362 170.338 141.714 169.826 142.065 169.315C141.831 168.742 141.223 168.36 140.926 167.829C140.856 167.596 140.786 167.362 140.716 167.128L141.823 166.46C141.823 166.46 142.065 165.138 142.178 164.75C142.293 164.363 143.489 162.18 143.597 162.019C143.584 161.273 143.579 160.528 143.459 159.787C143.596 159.065 143.757 158.177 143.98 157.393C144.542 156.85 145.706 156.892 146.293 156.222L147.481 151.277C147.481 151.277 147.743 150.941 147.964 150.924C148.186 150.906 148.497 151.25 148.497 151.25L148.611 150.376L151.166 145.358L150.861 141.329L150.985 140.867L153.267 140.821L157.564 136.458C156.923 135.986 156.131 135.422 155.278 135.005L155.439 134.534C156.67 134.504 157.889 134.166 159.003 133.705C159.996 132.235 160.737 130.292 159.144 128.982C159.489 128.651 159.888 128.44 160.36 128.25C160.063 127.667 159.768 127.083 159.47 126.5L160.083 126.322L162.353 125.964L163.121 123.78L166.305 118.027C167.039 117.808 167.799 117.705 168.489 117.382L168.988 116.714C170.468 116.151 171.388 115.183 172.393 114.047L173.57 112.541C174.711 110.715 175.799 108.823 175.932 106.711C175.75 106.213 175.556 105.741 175.236 105.294C175.77 104.321 176.485 103.739 177.523 104.668C177.879 104.898 178.067 104.934 178.532 104.85C178.458 104.494 178.436 104.187 178.188 103.889C178.556 101.733 180.247 103.223 179.407 104.58L180.121 104.959C180.864 104.622 181.596 104.271 182.307 103.88C182.427 102.393 183.61 101.008 184.78 99.7436L184.747 98.986C183.574 97.7254 183.497 96.4125 184.942 94.9365C184.983 94.4586 184.808 94.0701 184.7 93.5947L184.725 92.5718C184.725 92.5718 185.057 92.0182 185.44 91.8186C185.824 91.6189 186.536 91.2574 186.508 90.9205C186.48 90.5836 187.546 89.2233 187.546 89.2233C187.546 89.2233 188.016 89.448 188.159 89.3607L188.979 89.0571C188.979 89.0571 188.939 88.563 189.2 88.3865C189.462 88.2101 190.287 87.7513 190.388 87.469C190.488 87.1866 190.952 86.7454 191.012 86.3043C191.072 85.8632 191.374 85.3337 191.635 85.0161C191.898 84.6985 192.32 83.922 192.32 83.922C192.32 83.922 193.024 84.0986 193.125 84.028C193.225 83.9574 193.509 82.8847 193.538 82.71C193.566 82.5353 193.879 81.8243 193.879 81.8243C193.808 81.7869 193.509 81.3626 193.011 81.2129C192.513 81.0632 192.157 81.375 191.758 81.113C191.36 80.851 191.161 79.94 191.546 79.6904C191.929 79.4409 192.399 78.5177 192.741 78.1559C193.082 77.794 194.903 76.9703 194.903 76.9703C194.903 76.9703 195.516 75.7353 195.587 75.4608C195.658 75.1862 195.942 74.35 196.056 74.2003C196.17 74.0506 196.54 73.202 196.369 72.9899C196.199 72.7777 195.758 71.8172 195.715 71.4678C195.672 71.1184 195.786 70.744 195.786 70.744C195.786 70.744 196.81 69.7086 196.754 69.5714C196.697 69.4341 196.227 68.4981 196.185 68.286C196.142 68.0739 195.559 67.4125 195.416 67.2003C195.373 67.113 195.216 66.7136 195.216 66.7136C195.216 66.7136 195.857 66.2397 196.085 65.9902C196.313 65.7407 197.1 64.8113 197.1 64.8113C197.1 64.8113 196.911 64.3803 196.967 64.1183C197.024 63.8563 196.74 63.5972 196.74 63.5972C196.74 63.5972 195.7 63.9187 195.516 63.9311C195.331 63.9436 194.363 63.4944 193.95 63.5693C193.538 63.6441 193.024 62.9233 192.682 62.9233H191.213C191.213 62.9233 190.408 62.5881 190.026 62.6939C189.643 62.7997 188.485 62.5838 188.386 62.5214C188.286 62.459 187.774 61.7227 187.546 61.6354C187.319 61.5481 186.721 61.3234 186.266 61.286C185.811 61.2485 185.356 60.9116 185.176 60.6998C184.994 60.4881 184.491 60.0647 184.149 60.1354C183.807 60.2059 182.801 60.2764 182.438 60.1706C182.076 60.0647 181.352 59.0412 181.09 58.7942C180.828 58.5471 179.963 58.141 179.863 58.0352C179.762 57.9293 178.514 56.2176 178.514 56.2176L179.5 53.5886C179.5 53.5886 179.52 51.8944 179.54 51.418C179.561 50.9415 180.506 49.0359 180.506 49.0359C180.506 49.0359 181.331 46.9007 181.774 46.5126C182.217 46.1243 183.183 44.395 183.304 44.0773C183.425 43.7597 183.465 43.3716 183.947 43.3363C184.43 43.3009 184.712 42.8776 184.672 42.3835C184.632 41.8894 184.451 41.3776 184.511 41.0599C184.572 40.7423 184.961 39.1815 184.961 39.1815C184.954 39.1011 184.854 38.6248 185.015 38.5718C185.176 38.5189 186.323 37.7952 186.423 37.7599C186.524 37.7247 187.57 37.5481 187.57 37.5481C187.57 37.5481 188.396 36.7541 188.496 36.6306C188.597 36.5071 189.06 35.9248 189.06 35.4484C189.06 34.9719 188.939 34.2308 189.12 34.0368C189.301 33.8427 189.663 33.0664 189.663 33.0664C189.663 33.0664 188.718 33.5779 188.355 33.6133C187.993 33.6486 186.866 33.5777 186.785 33.4719C186.705 33.3661 186.444 32.7307 185.859 32.819C185.276 32.9072 182.821 32.3251 182.459 32.0075C182.097 31.6899 181.774 31.0721 181.231 30.9309C180.687 30.7898 180.264 30.9181 180.185 30.3488C180.105 29.7796 179.379 30.1015 179.199 30.0486C179.017 29.9957 178.554 29.0605 178.171 28.8488C177.789 28.637 177.065 28.4781 176.662 28.4605C176.259 28.4428 175.764 28.0956 175.764 28.0956C175.764 28.0956 176.447 27.1596 176.376 26.8228C176.304 26.4859 175.736 26.0619 176.148 25.8124C176.561 25.5627 176.475 25.0136 176.575 24.7891C176.674 24.5644 176.901 24.2525 177.13 24.0028C177.357 23.7533 176.219 23.6784 176.276 23.4288C176.333 23.1793 177.13 22.88 176.817 22.381C176.503 21.8819 175.849 21.2328 175.991 20.9583C176.134 20.6838 176.419 19.9853 176.361 19.561C176.304 19.1368 176.618 18.6376 177.215 18.5877C177.812 18.5377 178.041 17.8139 178.069 17.4146C178.097 17.0153 178.581 16.3418 178.695 16.1671C178.808 15.9924 179.592 15.5244 179.877 15.5931C180.161 15.6617 180.445 15.4558 180.267 15.2748C180.089 15.0939 179.151 14.913 178.83 15.1251C178.51 15.3372 177.94 15.2686 178.061 15.0877C178.182 14.9067 178.603 14.0772 178.46 13.8776C178.318 13.6779 178.951 12.4362 179.179 12.2615C179.406 12.0868 180.389 11.7249 180.402 11.363C180.417 11.0012 180.346 10.415 179.99 10.5023C179.635 10.5897 179.093 10.8763 179.093 10.8763C179.093 10.8763 178.767 10.0905 178.253 10.0156C178.19 10.0063 178.134 10.0012 178.085 10.0002Z" fill="#D2E6FC" stroke="#6D94BC" stroke-width="3.902"/>
</g>
</svg>
