<svg width="200" height="200" viewBox="0 0 200 200" fill="none" xmlns="http://www.w3.org/2000/svg">
<mask id="mask0_11_344" style="mask-type:luminance" maskUnits="userSpaceOnUse" x="57" y="10" width="87" height="180">
<path d="M143.523 68.8811L143.457 69.298L143.304 69.6929L143.051 70.0768L142.744 70.4278L142.536 70.8117L142.316 71.2175L142.086 71.6015L142.13 72.0183L142.141 72.446L142.601 72.6106L142.547 73.0384L142.349 73.4113L142.492 73.8062L142.393 74.223L142.623 74.6069L142.656 75.0128L142.876 75.3857L142.952 75.8135L142.536 76.1645L142.514 76.5814L142.492 77.0091L142.009 77.053L141.867 77.4369L141.768 77.8647L141.834 78.3473L141.965 78.8519L142.207 79.2139L141.954 79.6526L141.768 80.0695L141.505 80.4533L141.165 80.8043L141.077 81.276L140.616 81.4296L140.495 81.8574L140.473 82.34L140.419 82.7788L140.528 83.1737L140.309 83.5905L140.726 83.7989L140.671 84.2705L140.419 84.6435L140.287 85.0604L140.331 85.4881L139.958 85.8391L140.09 86.2669L140.057 86.7386L140.155 87.1773L139.991 87.6271L140.155 88.0439L140.232 88.5375L140.353 88.9323L140.671 89.2505L140.978 89.744L140.967 90.1718L140.561 90.3693L140.331 90.819L139.87 90.9945L140.035 91.3784L139.98 91.8172L139.53 91.9707L139.004 91.9488L138.422 92.0914L137.94 92.1462L137.622 92.4534L137.808 92.8812L138.071 93.4735L138.499 93.7148L138.839 94.0439L138.488 94.4497L138.675 94.8336L138.247 95.1188L138.697 95.3601L138.28 95.6563L138.543 96.0731L138.378 96.468L138.631 96.9726L138.433 97.3894L138.576 97.8062L138.302 98.234L138.598 98.6288L138.642 99.1663L138.598 99.5832L139.091 99.671L139.179 100.121L139.3 100.658L139.453 101.097L139.782 101.59L140.024 101.952L139.541 101.897L139.311 102.303L139.058 102.764L139.431 103.083L139.267 103.488L139.399 103.949L139.256 104.377L138.773 104.717L138.85 105.144L138.839 105.737L138.642 106.176L138.609 106.713L138.686 107.163L139.157 107.217L139.706 106.988L139.815 107.393L139.684 107.798L139.135 107.832L138.894 108.238L138.444 108.555L138.214 108.961L137.676 108.918L137.819 109.324L137.567 109.828L137.501 110.267L137.238 110.673L136.887 110.969L136.711 111.43L136.415 111.824L137.018 111.945L136.722 112.274L136.7 112.9L136.141 112.866L135.921 113.338L135.614 113.733L135.559 114.183L135.252 114.566L134.967 114.896L134.55 115.214L134.539 115.63H133.969L133.629 115.938L133.256 116.311L132.982 116.683L132.28 116.53L131.885 116.805L131.501 116.42L130.93 116.53L130.119 116.585L129.658 116.651L129.099 116.574L128.528 116.3L128.43 115.795L128.002 115.598L127.475 115.466L127.366 114.928L127.091 114.522L126.938 113.777L126.4 113.612L126.038 113.272L125.808 113.251L125.457 113.448L125.238 113.075L124.722 113.086L123.998 113.722L123.373 113.733L123.011 114.029L122.715 113.678L122.452 113.294L121.947 113.415L121.793 112.976L121.278 113.02L121.431 113.612L121.048 113.909L120.74 114.26L120.806 114.742L120.686 115.357L120.653 115.938L120.532 116.585L120.499 116.454L120.422 116.859L120.817 117.353L121.113 117.715L121.585 117.693L121.695 118.362L122.079 118.768L121.739 119.097L121.64 119.832L121.881 120.227L121.804 120.687L122.243 121.104L122.155 121.762L122.528 122.442L122.77 122.87L123.362 122.958L123.603 123.462L123.121 123.506L122.517 123.529L121.706 123.178L121.004 123.88L121.388 124.669L121.037 125.294L120.751 125.788L120.675 126.337L120.291 127.039L120.049 127.927L119.918 128.399L119.578 128.805L119.731 129.232L119.161 129.298L119.622 129.693L119.073 130.296L118.481 130.614L118.525 130.746L118.591 130.921L118.645 131.558L118.558 131.974L118.656 131.634L118.558 132.117L118.843 132.731L119.029 133.346L118.952 133.806L119.303 134.19L119.38 134.881L119.139 135.265L118.887 135.879L118.722 136.373L118.689 136.801L118.261 137.426L118.349 137.843L118.788 138.424L118.623 138.918L119.018 139.313L118.481 139.411L118.536 140.047L118.821 140.398L119.336 141.035L119.534 141.474L119.611 141.967L119.38 142.34L119.72 142.658L120.225 143.151L120.697 143.229L120.993 143.635L121.366 144.106L121.574 144.731L121.859 145.521L121.793 145.993L121.486 146.42L120.971 146.563L120.762 147.122L120.466 147.452L119.984 147.649L119.753 148.109L119.611 148.647L119.622 149.306L119.83 149.711L119.391 150.051L120.005 150.281L120.697 150.249L120.861 150.71L120.664 151.203L120.686 151.697L121.058 152.3L121.453 152.738L121.431 153.298L121.278 153.682L121.19 154.318L121.64 154.899L121.848 155.273L122.748 155.283L123.318 155.459L123.888 156.051L124.426 156.216L124.558 156.742L125.15 157.038L125.007 157.488L125.029 158.366L125.304 158.848L125.007 159.265L125.15 159.671L125.501 160.187L125.018 160.757L125.304 161.327L125.227 161.843L125.304 162.676L125.216 163.115L125.655 163.554L126.016 164.092L125.633 164.333L125.852 164.849L125.644 165.287L125.907 165.758L125.446 165.923L126.082 166.263L125.808 166.724L125.973 167.196L126.049 167.963L126.367 168.457L126.181 169.016L125.731 169.159L125.304 169.422L124.799 169.576L124.064 169.697L123.57 169.466L123 169.685L122.539 169.532L121.969 169.763L122.024 170.256L122.221 170.837L122.583 171.463L122.704 171.879L122.781 172.329L123 172.735L123.373 173.25L123.121 173.668L122.375 174.019L121.848 174.073L120.949 173.975L120.356 173.546L119.907 172.966L119.293 172.56L118.415 172.438L117.581 172.285L116.748 172.131H116.254L115.761 172.23L114.993 172.537L114.85 173.239L115.069 174.073V174.501L114.664 175.082L114.488 175.806L114.543 176.278L114.609 176.76L114.971 177.43L115.278 178.164L115.388 178.592L114.488 178.823L113.611 178.713H113.117L112.47 179.119L112.163 179.766L111.976 180.501L111.625 181.126L111.263 181.718L110.846 182.3L110.726 183.067L110.824 183.473L111.197 184.175L111.505 184.91L111.768 185.678L111.888 186.106L111.954 186.589L111.526 187.148L110.814 187.499L110.079 187.247L109.563 186.72L109.157 186.084L108.751 185.459L108.236 184.943L107.314 184.889L106.601 185.251L106.174 185.81L105.943 186.512L105.768 187.247L105.581 187.97L105.296 188.629L104.989 189.265L104.452 189.803L103.881 190L103.475 189.385L103.409 188.892L103.355 188.431V188.004L103.289 187.521L103.234 187.061L103.168 186.577L103.102 186.117L103.004 185.689L102.675 184.955L102.269 184.34L101.819 183.758L101.347 183.177L101.029 182.914L100.931 182.289L100.799 182.716L100.064 182.443L99.4058 182.08L98.8574 181.62L98.4076 181.039L97.947 180.457L97.4973 179.897L96.9379 179.415L96.3236 179.009L95.6984 178.637L94.9854 178.274L94.2505 178.022L93.5485 177.715L92.8793 177.287L92.287 176.882L91.7386 176.366L91.1682 175.894L90.3236 175.74L89.8629 175.839L89.2706 176.267L89.2048 177.089L89.2706 177.561V178L89.3364 178.461L89.3913 178.943L89.4571 179.415L89.5119 179.876L89.1499 180.303L88.4918 179.931L87.8446 179.908L87.9104 180.38L87.9652 180.863L88.0749 181.28L88.1956 181.697L88.2504 182.179L88.3163 182.64V183.934L88.1517 184.669L87.6801 185.185L86.8903 185.415L85.9909 185.261L85.2779 185.634L84.8062 186.15L84.3784 186.731L83.8519 187.214L83.2596 187.664L82.5466 188.004L82.4588 188.179L82.1298 188.103L82.0969 187.905V187.488L81.9653 187.061L81.8665 186.655L81.7459 186.226L81.4826 185.437L81.3729 185.02L81.2523 184.614L81.1865 184.12L81.1316 183.66L81.0658 183.177L81.011 182.716L80.9451 182.245L80.8464 181.828L80.7258 181.401L80.6599 180.94L80.5613 180.512L80.4735 180.029L80.3748 179.623L80.1115 178.834L79.7056 178.208L79.2669 177.572L79.5959 177.013L80.1225 176.98L81 177.079L81.702 177.386L82.1518 176.99L82.3711 176.3L82.4918 175.532L82.1846 174.797L81.5704 174.37L81.4716 173.964L81.351 173.535L81.2413 173.108L81.1865 172.647V172.197L81.1096 171.736L81.1645 170.925V170.475L81.1096 170.015V169.576L80.8355 168.797L80.4076 168.161L80.3089 167.755L80.3638 166.921L80.4735 166.154V164.849L80.4516 164.42L80.3967 163.938L80.3309 163.477L80.2321 163.049L79.9579 162.259L79.5959 161.58L79.2669 160.844L78.9598 160.11L78.8391 159.682L78.7404 159.276L78.6088 158.848L78.5101 158.421L78.4442 157.949L78.4332 157.521L78.3674 157.038L78.3126 156.578L78.2468 156.095L78.181 155.634L78.1261 155.141V154.296L78.0384 153.803V153.385L77.9836 152.892V152.465L77.9177 151.981V151.554L77.8629 151.093L77.7751 150.611L77.4132 149.93L76.9195 149.404L76.5466 148.724L76.4699 148.241L76.5905 147.462L76.8976 146.805L77.128 146.113V145.257L77.0622 144.775L76.9854 144.303L76.8867 143.876L76.8209 143.393L76.755 142.933L76.7002 142.449L76.6344 141.989L76.5137 141.561L76.4479 141.089L76.3272 140.662L76.2724 140.179L76.2065 139.719L76.1407 139.235L76.0201 138.819L75.9652 138.336L75.8995 137.876V137.064L75.7788 136.537L75.5045 136.099L75.5923 135.528H75.3072L75.011 135.66L74.8903 135.583L74.0018 135.21L73.256 134.958L72.7513 134.442L72.3784 133.763L72.2578 133.334L72.1591 132.907L72.0384 132.479L71.9287 132.073L71.8081 131.645L71.5009 130.91L71.1718 130.164L71.117 129.682L70.9963 129.276L71.1718 128.541L71.7093 128.037L71.7203 127.356L71.2596 126.786L70.8538 126.149L70.7879 125.678L70.7221 125.195L70.2614 124.614L69.4059 124.461L68.8135 124.055L68.298 123.529L67.5412 123.254L66.9269 122.848L66.872 122.366L66.2139 121.992L65.6106 121.586L65.479 121.159L65.6106 120.38V119.503L65.5887 119.086L65.6435 118.241V117.814L65.7532 117.023L65.808 116.201L65.9177 115.422L65.9726 115.016L66.159 114.281V113.854L66.1371 113.404L66.0823 112.943L66.0165 112.45L65.7313 111.671L65.3583 110.969L64.8538 110.453L64.4808 109.762L64.426 109.301L64.3601 108.808V108.369L64.2834 107.897V107.47L64.2175 106.988L64.1627 106.515L64.042 106.088L63.9762 105.605L63.9104 105.134L63.8556 104.651L63.8336 104.223V103.345L63.7788 102.874L63.7678 102.38L63.6801 101.92L63.6252 101.426L63.8117 100.691L64.3382 100.197L65.0731 99.3857L65.3583 98.7386L65.83 98.2011L66.4333 98.0695L66.0274 97.9378L66.2578 97.6307L66.192 97.1481L66.0713 96.7203L66.0055 96.2486L65.9506 95.7659L65.6216 95.0201L65.2925 94.2852L65.1938 93.8574L65.2925 93.0786V92.6289L65.2377 92.1572L64.9525 91.3565L64.5027 90.7751L64.075 90.1499L63.9653 89.7221L63.6362 88.9763L63.5155 88.5484L63.4168 88.1206L62.9452 87.5283L62.3748 87.0676L61.8702 86.5411L61.8483 85.6636V85.2249L61.7824 84.7422L61.7276 84.2705L61.6399 83.7879L61.585 83.3162L61.5192 82.8337L61.4644 82.362L61.3985 81.8793L61.2779 81.4515L61.1572 81.0128L61.0475 80.607L60.9269 80.1791L60.872 79.6856L60.6856 78.7971L60.6197 78.3034L60.3565 77.5247L60.192 77.1298L59.8629 76.3949L59.4351 75.7697L58.9305 75.2432L58.4589 74.6508L58.5247 73.9159L58.5795 73.17L58.075 72.6435L58.1737 71.8647L58.3601 71.1188L58.6673 70.4498L59.0183 69.8245L59.2596 69.1225L59.3254 68.7166L59.2377 68.2449L58.8318 67.5978L58.3053 67.0712L57.7678 66.6545L57 59.8647L59.0292 59.7441L58.1517 57.4845L59.3912 55.883L59.6216 56.3217L61.4863 56.2889L61.2011 55.0603L62.2761 53.053L62.1773 52.2633L60.9707 51.4516L60.8391 49.6197L62.1115 47.5466L61.0366 44.3656L61.585 42.6984L61.223 42.1279L61.6508 41.3711L62.1444 41.0311L62.309 39.8684L62.0786 37.0274L62.7038 36.457L62.0786 35.1078L62.1444 33.3419L61.7824 32.2998L60.6965 31.6746L60.9927 31.0712L59.819 30.7971L59.7532 29.064L60.3565 28.9324L69 28.9762L68.7367 33.1006L69.8446 34.0439L70.0749 36.1608L70.5686 36.0402L72.181 37.3236L73.2888 36.8519L73.6508 35.404L74.7038 35.5028L75.0658 35.0201L75.6582 35.3711L75.329 34.8995L75.8227 34.4498L76.5795 34.6471L77.0073 34.6033L76.766 34.4388L77.095 34.0768L78.4114 29.4698L79.4314 29.1847L81.1645 29.5357L82.8976 28.9324L83.819 23.3272L84.8282 23.1408L85.0585 23.6124H85.6508L86.276 22.5704L88.2066 22.2852L88.7002 21.7806L89.1609 20.4205L89.6874 20.2669L93.3181 10.9872L94.1737 10L96.9598 16.6362L96.7952 17.2395L97.4534 17.2066L99.0548 18.5338L98.5941 19.2578L99.1536 20.234L100.009 20.0147L101.347 18.6216L103.42 18.4022L103.815 18.9726L103.486 19.3126L103.19 19.7623L103.815 18.9726L104.528 18.9068L104.923 17.6453L106.733 18.8739L107.841 18.2377L108.532 18.8739L109.651 18.0183L110.857 18.1828L111.483 18.3364L111.625 18.3803L113.216 19.2578L112.689 19.9817L113.051 20.3875L113.018 22.351L114.631 22.5704L114.038 24.3364L112.031 27.0128L112.459 27.649L111.932 28.9104L113.38 30.4132L112.854 30.6654L113.084 31.9927L112.656 32.7166L111.68 32.8811L112.228 33.9781L111.68 34.5484L111.845 35.4918L110.923 36.0293L110.66 37.543L109.519 38.0804L109.069 40.4387L109.629 38.6179L110.331 38.6837L111.197 38.6069L115.388 40.4387L117.296 39.5502L118.963 41.6014L118.865 43.6526L120.96 42.3254L121.388 41.2614L122.309 40.6362L123.943 41.5466V42.9616L127.388 43.3016L128.101 40.7239L128.824 40.9104L129.68 40.8227L130.821 41.7002L131.051 42.5777L129.998 44.4315L130.196 45.1553L131.578 44.4315L132.631 43.2139L135.307 43.4003L135.351 43.6416L135.461 43.8281L136.119 43.872L136.053 44.2888L135.812 44.6398L136.25 44.8921L136.514 45.2651L135.976 45.3748L136.097 45.8135L136.152 46.8665L136.141 47.2943L135.812 47.8977L136.349 48.3912L136.777 48.9397L137.018 49.532L137.271 49.8939L137.446 50.3108L137.523 50.8044L137.962 51.2431L138.324 51.5393L139.015 51.5174L139.618 51.5393L140.243 51.7806L140.408 52.2852L140.32 52.9763L140.254 53.5795L140.144 54.2157L139.958 54.808L139.87 55.3675L139.848 55.7843L140.013 56.2889L139.892 56.7276L139.859 57.6051L140.035 58.1864L140.09 58.9652L140.276 59.3821L140.638 59.9634L141.011 60.3803L141.165 60.9506L140.934 61.4333L140.506 61.8611V62.6947L140.462 63.4625L140.452 64.1535L140.846 64.5923L141.219 65.4369L141.603 65.9415L141.592 66.7751L141.516 67.4442L141.921 67.7404L142.558 68.3546L142.854 68.7496L143.523 68.8811Z" fill="white"/>
</mask>
<g mask="url(#mask0_11_344)">
<path d="M143.523 68.8811L143.457 69.298L143.304 69.6929L143.051 70.0768L142.744 70.4278L142.536 70.8117L142.316 71.2175L142.086 71.6015L142.13 72.0183L142.141 72.446L142.601 72.6106L142.547 73.0384L142.349 73.4113L142.492 73.8062L142.393 74.223L142.623 74.6069L142.656 75.0128L142.876 75.3857L142.952 75.8135L142.536 76.1645L142.514 76.5814L142.492 77.0091L142.009 77.053L141.867 77.4369L141.768 77.8647L141.834 78.3473L141.965 78.8519L142.207 79.2139L141.954 79.6526L141.768 80.0695L141.505 80.4533L141.165 80.8043L141.077 81.276L140.616 81.4296L140.495 81.8574L140.473 82.34L140.419 82.7788L140.528 83.1737L140.309 83.5905L140.726 83.7989L140.671 84.2705L140.419 84.6435L140.287 85.0604L140.331 85.4881L139.958 85.8391L140.09 86.2669L140.057 86.7386L140.155 87.1773L139.991 87.6271L140.155 88.0439L140.232 88.5375L140.353 88.9323L140.671 89.2505L140.978 89.744L140.967 90.1718L140.561 90.3693L140.331 90.819L139.87 90.9945L140.035 91.3784L139.98 91.8172L139.53 91.9707L139.004 91.9488L138.422 92.0914L137.94 92.1462L137.622 92.4534L137.808 92.8812L138.071 93.4735L138.499 93.7148L138.839 94.0439L138.488 94.4497L138.675 94.8336L138.247 95.1188L138.697 95.3601L138.28 95.6563L138.543 96.0731L138.378 96.468L138.631 96.9726L138.433 97.3894L138.576 97.8062L138.302 98.234L138.598 98.6288L138.642 99.1663L138.598 99.5832L139.091 99.671L139.179 100.121L139.3 100.658L139.453 101.097L139.782 101.59L140.024 101.952L139.541 101.897L139.311 102.303L139.058 102.764L139.431 103.083L139.267 103.488L139.399 103.949L139.256 104.377L138.773 104.717L138.85 105.144L138.839 105.737L138.642 106.176L138.609 106.713L138.686 107.163L139.157 107.217L139.706 106.988L139.815 107.393L139.684 107.798L139.135 107.832L138.894 108.238L138.444 108.555L138.214 108.961L137.676 108.918L137.819 109.324L137.567 109.828L137.501 110.267L137.238 110.673L136.887 110.969L136.711 111.43L136.415 111.824L137.018 111.945L136.722 112.274L136.7 112.9L136.141 112.866L135.921 113.338L135.614 113.733L135.559 114.183L135.252 114.566L134.967 114.896L134.55 115.214L134.539 115.63H133.969L133.629 115.938L133.256 116.311L132.982 116.683L132.28 116.53L131.885 116.805L131.501 116.42L130.93 116.53L130.119 116.585L129.658 116.651L129.099 116.574L128.528 116.3L128.43 115.795L128.002 115.598L127.475 115.466L127.366 114.928L127.091 114.522L126.938 113.777L126.4 113.612L126.038 113.272L125.808 113.251L125.457 113.448L125.238 113.075L124.722 113.086L123.998 113.722L123.373 113.733L123.011 114.029L122.715 113.678L122.452 113.294L121.947 113.415L121.793 112.976L121.278 113.02L121.431 113.612L121.048 113.909L120.74 114.26L120.806 114.742L120.686 115.357L120.653 115.938L120.532 116.585L120.499 116.454L120.422 116.859L120.817 117.353L121.113 117.715L121.585 117.693L121.695 118.362L122.079 118.768L121.739 119.097L121.64 119.832L121.881 120.227L121.804 120.687L122.243 121.104L122.155 121.762L122.528 122.442L122.77 122.87L123.362 122.958L123.603 123.462L123.121 123.506L122.517 123.529L121.706 123.178L121.004 123.88L121.388 124.669L121.037 125.294L120.751 125.788L120.675 126.337L120.291 127.039L120.049 127.927L119.918 128.399L119.578 128.805L119.731 129.232L119.161 129.298L119.622 129.693L119.073 130.296L118.481 130.614L118.525 130.746L118.591 130.921L118.645 131.558L118.558 131.974L118.656 131.634L118.558 132.117L118.843 132.731L119.029 133.346L118.952 133.806L119.303 134.19L119.38 134.881L119.139 135.265L118.887 135.879L118.722 136.373L118.689 136.801L118.261 137.426L118.349 137.843L118.788 138.424L118.623 138.918L119.018 139.313L118.481 139.411L118.536 140.047L118.821 140.398L119.336 141.035L119.534 141.474L119.611 141.967L119.38 142.34L119.72 142.658L120.225 143.151L120.697 143.229L120.993 143.635L121.366 144.106L121.574 144.731L121.859 145.521L121.793 145.993L121.486 146.42L120.971 146.563L120.762 147.122L120.466 147.452L119.984 147.649L119.753 148.109L119.611 148.647L119.622 149.306L119.83 149.711L119.391 150.051L120.005 150.281L120.697 150.249L120.861 150.71L120.664 151.203L120.686 151.697L121.058 152.3L121.453 152.738L121.431 153.298L121.278 153.682L121.19 154.318L121.64 154.899L121.848 155.273L122.748 155.283L123.318 155.459L123.888 156.051L124.426 156.216L124.558 156.742L125.15 157.038L125.007 157.488L125.029 158.366L125.304 158.848L125.007 159.265L125.15 159.671L125.501 160.187L125.018 160.757L125.304 161.327L125.227 161.843L125.304 162.676L125.216 163.115L125.655 163.554L126.016 164.092L125.633 164.333L125.852 164.849L125.644 165.287L125.907 165.758L125.446 165.923L126.082 166.263L125.808 166.724L125.973 167.196L126.049 167.963L126.367 168.457L126.181 169.016L125.731 169.159L125.304 169.422L124.799 169.576L124.064 169.697L123.57 169.466L123 169.685L122.539 169.532L121.969 169.763L122.024 170.256L122.221 170.837L122.583 171.463L122.704 171.879L122.781 172.329L123 172.735L123.373 173.25L123.121 173.668L122.375 174.019L121.848 174.073L120.949 173.975L120.356 173.546L119.907 172.966L119.293 172.56L118.415 172.438L117.581 172.285L116.748 172.131H116.254L115.761 172.23L114.993 172.537L114.85 173.239L115.069 174.073V174.501L114.664 175.082L114.488 175.806L114.543 176.278L114.609 176.76L114.971 177.43L115.278 178.164L115.388 178.592L114.488 178.823L113.611 178.713H113.117L112.47 179.119L112.163 179.766L111.976 180.501L111.625 181.126L111.263 181.718L110.846 182.3L110.726 183.067L110.824 183.473L111.197 184.175L111.505 184.91L111.768 185.678L111.888 186.106L111.954 186.589L111.526 187.148L110.814 187.499L110.079 187.247L109.563 186.72L109.157 186.084L108.751 185.459L108.236 184.943L107.314 184.889L106.601 185.251L106.174 185.81L105.943 186.512L105.768 187.247L105.581 187.97L105.296 188.629L104.989 189.265L104.452 189.803L103.881 190L103.475 189.385L103.409 188.892L103.355 188.431V188.004L103.289 187.521L103.234 187.061L103.168 186.577L103.102 186.117L103.004 185.689L102.675 184.955L102.269 184.34L101.819 183.758L101.347 183.177L101.029 182.914L100.931 182.289L100.799 182.716L100.064 182.443L99.4058 182.08L98.8574 181.62L98.4076 181.039L97.947 180.457L97.4973 179.897L96.9379 179.415L96.3236 179.009L95.6984 178.637L94.9854 178.274L94.2505 178.022L93.5485 177.715L92.8793 177.287L92.287 176.882L91.7386 176.366L91.1682 175.894L90.3236 175.74L89.8629 175.839L89.2706 176.267L89.2048 177.089L89.2706 177.561V178L89.3364 178.461L89.3913 178.943L89.4571 179.415L89.5119 179.876L89.1499 180.303L88.4918 179.931L87.8446 179.908L87.9104 180.38L87.9652 180.863L88.0749 181.28L88.1956 181.697L88.2504 182.179L88.3163 182.64V183.934L88.1517 184.669L87.6801 185.185L86.8903 185.415L85.9909 185.261L85.2779 185.634L84.8062 186.15L84.3784 186.731L83.8519 187.214L83.2596 187.664L82.5466 188.004L82.4588 188.179L82.1298 188.103L82.0969 187.905V187.488L81.9653 187.061L81.8665 186.655L81.7459 186.226L81.4826 185.437L81.3729 185.02L81.2523 184.614L81.1865 184.12L81.1316 183.66L81.0658 183.177L81.011 182.716L80.9451 182.245L80.8464 181.828L80.7258 181.401L80.6599 180.94L80.5613 180.512L80.4735 180.029L80.3748 179.623L80.1115 178.834L79.7056 178.208L79.2669 177.572L79.5959 177.013L80.1225 176.98L81 177.079L81.702 177.386L82.1518 176.99L82.3711 176.3L82.4918 175.532L82.1846 174.797L81.5704 174.37L81.4716 173.964L81.351 173.535L81.2413 173.108L81.1865 172.647V172.197L81.1096 171.736L81.1645 170.925V170.475L81.1096 170.015V169.576L80.8355 168.797L80.4076 168.161L80.3089 167.755L80.3638 166.921L80.4735 166.154V164.849L80.4516 164.42L80.3967 163.938L80.3309 163.477L80.2321 163.049L79.9579 162.259L79.5959 161.58L79.2669 160.844L78.9598 160.11L78.8391 159.682L78.7404 159.276L78.6088 158.848L78.5101 158.421L78.4442 157.949L78.4332 157.521L78.3674 157.038L78.3126 156.578L78.2468 156.095L78.181 155.634L78.1261 155.141V154.296L78.0384 153.803V153.385L77.9836 152.892V152.465L77.9177 151.981V151.554L77.8629 151.093L77.7751 150.611L77.4132 149.93L76.9195 149.404L76.5466 148.724L76.4699 148.241L76.5905 147.462L76.8976 146.805L77.128 146.113V145.257L77.0622 144.775L76.9854 144.303L76.8867 143.876L76.8209 143.393L76.755 142.933L76.7002 142.449L76.6344 141.989L76.5137 141.561L76.4479 141.089L76.3272 140.662L76.2724 140.179L76.2065 139.719L76.1407 139.235L76.0201 138.819L75.9652 138.336L75.8995 137.876V137.064L75.7788 136.537L75.5045 136.099L75.5923 135.528H75.3072L75.011 135.66L74.8903 135.583L74.0018 135.21L73.256 134.958L72.7513 134.442L72.3784 133.763L72.2578 133.334L72.1591 132.907L72.0384 132.479L71.9287 132.073L71.8081 131.645L71.5009 130.91L71.1718 130.164L71.117 129.682L70.9963 129.276L71.1718 128.541L71.7093 128.037L71.7203 127.356L71.2596 126.786L70.8538 126.149L70.7879 125.678L70.7221 125.195L70.2614 124.614L69.4059 124.461L68.8135 124.055L68.298 123.529L67.5412 123.254L66.9269 122.848L66.872 122.366L66.2139 121.992L65.6106 121.586L65.479 121.159L65.6106 120.38V119.503L65.5887 119.086L65.6435 118.241V117.814L65.7532 117.023L65.808 116.201L65.9177 115.422L65.9726 115.016L66.159 114.281V113.854L66.1371 113.404L66.0823 112.943L66.0165 112.45L65.7313 111.671L65.3583 110.969L64.8538 110.453L64.4808 109.762L64.426 109.301L64.3601 108.808V108.369L64.2834 107.897V107.47L64.2175 106.988L64.1627 106.515L64.042 106.088L63.9762 105.605L63.9104 105.134L63.8556 104.651L63.8336 104.223V103.345L63.7788 102.874L63.7678 102.38L63.6801 101.92L63.6252 101.426L63.8117 100.691L64.3382 100.197L65.0731 99.3857L65.3583 98.7386L65.83 98.2011L66.4333 98.0695L66.0274 97.9378L66.2578 97.6307L66.192 97.1481L66.0713 96.7203L66.0055 96.2486L65.9506 95.7659L65.6216 95.0201L65.2925 94.2852L65.1938 93.8574L65.2925 93.0786V92.6289L65.2377 92.1572L64.9525 91.3565L64.5027 90.7751L64.075 90.1499L63.9653 89.7221L63.6362 88.9763L63.5155 88.5484L63.4168 88.1206L62.9452 87.5283L62.3748 87.0676L61.8702 86.5411L61.8483 85.6636V85.2249L61.7824 84.7422L61.7276 84.2705L61.6399 83.7879L61.585 83.3162L61.5192 82.8337L61.4644 82.362L61.3985 81.8793L61.2779 81.4515L61.1572 81.0128L61.0475 80.607L60.9269 80.1791L60.872 79.6856L60.6856 78.7971L60.6197 78.3034L60.3565 77.5247L60.192 77.1298L59.8629 76.3949L59.4351 75.7697L58.9305 75.2432L58.4589 74.6508L58.5247 73.9159L58.5795 73.17L58.075 72.6435L58.1737 71.8647L58.3601 71.1188L58.6673 70.4498L59.0183 69.8245L59.2596 69.1225L59.3254 68.7166L59.2377 68.2449L58.8318 67.5978L58.3053 67.0712L57.7678 66.6545L57 59.8647L59.0292 59.7441L58.1517 57.4845L59.3912 55.883L59.6216 56.3217L61.4863 56.2889L61.2011 55.0603L62.2761 53.053L62.1773 52.2633L60.9707 51.4516L60.8391 49.6197L62.1115 47.5466L61.0366 44.3656L61.585 42.6984L61.223 42.1279L61.6508 41.3711L62.1444 41.0311L62.309 39.8684L62.0786 37.0274L62.7038 36.457L62.0786 35.1078L62.1444 33.3419L61.7824 32.2998L60.6965 31.6746L60.9927 31.0712L59.819 30.7971L59.7532 29.064L60.3565 28.9324L69 28.9762L68.7367 33.1006L69.8446 34.0439L70.0749 36.1608L70.5686 36.0402L72.181 37.3236L73.2888 36.8519L73.6508 35.404L74.7038 35.5028L75.0658 35.0201L75.6582 35.3711L75.329 34.8995L75.8227 34.4498L76.5795 34.6471L77.0073 34.6033L76.766 34.4388L77.095 34.0768L78.4114 29.4698L79.4314 29.1847L81.1645 29.5357L82.8976 28.9324L83.819 23.3272L84.8282 23.1408L85.0585 23.6124H85.6508L86.276 22.5704L88.2066 22.2852L88.7002 21.7806L89.1609 20.4205L89.6874 20.2669L93.3181 10.9872L94.1737 10L96.9598 16.6362L96.7952 17.2395L97.4534 17.2066L99.0548 18.5338L98.5941 19.2578L99.1536 20.234L100.009 20.0147L101.347 18.6216L103.42 18.4022L103.815 18.9726L103.486 19.3126L103.19 19.7623L103.815 18.9726L104.528 18.9068L104.923 17.6453L106.733 18.8739L107.841 18.2377L108.532 18.8739L109.651 18.0183L110.857 18.1828L111.483 18.3364L111.625 18.3803L113.216 19.2578L112.689 19.9817L113.051 20.3875L113.018 22.351L114.631 22.5704L114.038 24.3364L112.031 27.0128L112.459 27.649L111.932 28.9104L113.38 30.4132L112.854 30.6654L113.084 31.9927L112.656 32.7166L111.68 32.8811L112.228 33.9781L111.68 34.5484L111.845 35.4918L110.923 36.0293L110.66 37.543L109.519 38.0804L109.069 40.4387L109.629 38.6179L110.331 38.6837L111.197 38.6069L115.388 40.4387L117.296 39.5502L118.963 41.6014L118.865 43.6526L120.96 42.3254L121.388 41.2614L122.309 40.6362L123.943 41.5466V42.9616L127.388 43.3016L128.101 40.7239L128.824 40.9104L129.68 40.8227L130.821 41.7002L131.051 42.5777L129.998 44.4315L130.196 45.1553L131.578 44.4315L132.631 43.2139L135.307 43.4003L135.351 43.6416L135.461 43.8281L136.119 43.872L136.053 44.2888L135.812 44.6398L136.25 44.8921L136.514 45.2651L135.976 45.3748L136.097 45.8135L136.152 46.8665L136.141 47.2943L135.812 47.8977L136.349 48.3912L136.777 48.9397L137.018 49.532L137.271 49.8939L137.446 50.3108L137.523 50.8044L137.962 51.2431L138.324 51.5393L139.015 51.5174L139.618 51.5393L140.243 51.7806L140.408 52.2852L140.32 52.9763L140.254 53.5795L140.144 54.2157L139.958 54.808L139.87 55.3675L139.848 55.7843L140.013 56.2889L139.892 56.7276L139.859 57.6051L140.035 58.1864L140.09 58.9652L140.276 59.3821L140.638 59.9634L141.011 60.3803L141.165 60.9506L140.934 61.4333L140.506 61.8611V62.6947L140.462 63.4625L140.452 64.1535L140.846 64.5923L141.219 65.4369L141.603 65.9415L141.592 66.7751L141.516 67.4442L141.921 67.7404L142.558 68.3546L142.854 68.7496L143.523 68.8811Z" fill="#D2E6FC"/>
<path d="M103.815 18.9726L103.42 18.4022L101.347 18.6216L100.009 20.0147L99.1536 20.234L98.5941 19.2578L99.0548 18.5338L97.4534 17.2066L96.7952 17.2395L96.9598 16.6362L94.1737 10L93.3181 10.9872L89.6874 20.2669L89.1609 20.4205L88.7002 21.7806L88.2066 22.2852L86.276 22.5704L85.6508 23.6124H85.0585L84.8282 23.1408L83.819 23.3272L82.8976 28.9324L81.1645 29.5357L79.4314 29.1847L78.4114 29.4698L77.095 34.0768L76.766 34.4388L77.0073 34.6033L76.5795 34.6471L75.8227 34.4498L75.329 34.8995L75.6582 35.3711L75.0658 35.0201L74.7038 35.5028L73.6508 35.404L73.2888 36.8519L72.181 37.3236L70.5686 36.0402L70.0749 36.1608L69.8446 34.0439L68.7367 33.1006L69 28.9762L60.3565 28.9324L59.7532 29.064L59.819 30.7971L60.9927 31.0712L60.6965 31.6746L61.7824 32.2998L62.1444 33.3419L62.0786 35.1078L62.7038 36.457L62.0786 37.0274L62.309 39.8684L62.1444 41.0311L61.6508 41.3711L61.223 42.1279L61.585 42.6984L61.0366 44.3656L62.1115 47.5466L60.8391 49.6197L60.9707 51.4516L62.1773 52.2633L62.2761 53.053L61.2011 55.0603L61.4863 56.2889L59.6216 56.3217L59.3912 55.883L58.1517 57.4845L59.0292 59.7441L57 59.8647L57.7678 66.6545L58.3053 67.0712L58.8318 67.5978L59.2377 68.2449L59.3254 68.7166L59.2596 69.1225L59.0183 69.8245L58.6673 70.4498L58.3601 71.1188L58.1737 71.8647L58.075 72.6435L58.5795 73.17L58.5247 73.9159L58.4589 74.6508L58.9305 75.2432L59.4351 75.7697L59.8629 76.3949L60.192 77.1298L60.3565 77.5247L60.6197 78.3034L60.6856 78.7971L60.872 79.6856L60.9269 80.1791L61.0475 80.607L61.1572 81.0128L61.2779 81.4515L61.3985 81.8793L61.4644 82.362L61.5192 82.8337L61.585 83.3162L61.6399 83.7879L61.7276 84.2705L61.7824 84.7422L61.8483 85.2249V85.6636L61.8702 86.5411L62.3748 87.0676L62.9452 87.5283L63.4168 88.1206L63.5155 88.5484L63.6362 88.9763L63.9653 89.7221L64.075 90.1499L64.5027 90.7751L64.9525 91.3565L65.2377 92.1572L65.2925 92.6289V93.0786L65.1938 93.8574L65.2925 94.2852L65.6216 95.0201L65.9506 95.7659L66.0055 96.2486L66.0713 96.7203L66.192 97.1481L66.2578 97.6307L66.0274 97.9378L66.4333 98.0695L65.83 98.2011L65.3583 98.7386L65.0731 99.3857L64.3382 100.197L63.8117 100.691L63.6252 101.426L63.6801 101.92L63.7678 102.38L63.7788 102.874L63.8336 103.345V104.223L63.8556 104.651L63.9104 105.134L63.9762 105.605L64.042 106.088L64.1627 106.515L64.2175 106.988L64.2834 107.47V107.897L64.3601 108.369V108.808L64.426 109.301L64.4808 109.762L64.8538 110.453L65.3583 110.969L65.7313 111.671L66.0165 112.45L66.0823 112.943L66.1371 113.404L66.159 113.854V114.281L65.9726 115.016L65.9177 115.422L65.808 116.201L65.7532 117.023L65.6435 117.814V118.241L65.5887 119.086L65.6106 119.503V120.38L65.479 121.159L65.6106 121.586L66.2139 121.992L66.872 122.366L66.9269 122.848L67.5412 123.254L68.298 123.529L68.8135 124.055L69.4059 124.461L70.2614 124.614L70.7221 125.195L70.7879 125.678L70.8538 126.149L71.2596 126.786L71.7203 127.356L71.7093 128.037L71.1718 128.541L70.9963 129.276L71.117 129.682L71.1718 130.164L71.5009 130.91L71.8081 131.645L71.9287 132.073L72.0384 132.479L72.1591 132.907L72.2578 133.334L72.3784 133.763L72.7513 134.442L73.256 134.958L74.0018 135.21L74.8903 135.583L75.011 135.66L75.3072 135.528H75.5923L75.5045 136.099L75.7788 136.537L75.8995 137.064V137.876L75.9652 138.336L76.0201 138.819L76.1407 139.235L76.2065 139.719L76.2724 140.179L76.3272 140.662L76.4479 141.089L76.5137 141.561L76.6344 141.989L76.7002 142.449L76.755 142.933L76.8209 143.393L76.8867 143.876L76.9854 144.303L77.0622 144.775L77.128 145.257V146.113L76.8976 146.805L76.5905 147.462L76.4699 148.241L76.5466 148.724L76.9195 149.404L77.4132 149.93L77.7751 150.611L77.8629 151.093L77.9177 151.554V151.981L77.9836 152.465V152.892L78.0384 153.385V153.803L78.1261 154.296V155.141L78.181 155.634L78.2468 156.095L78.3126 156.578L78.3674 157.038L78.4332 157.521L78.4442 157.949L78.5101 158.421L78.6088 158.848L78.7404 159.276L78.8391 159.682L78.9598 160.11L79.2669 160.844L79.5959 161.58L79.9579 162.259L80.2321 163.049L80.3309 163.477L80.3967 163.938L80.4516 164.42L80.4735 164.849V166.154L80.3638 166.921L80.3089 167.755L80.4076 168.161L80.8355 168.797L81.1096 169.576V170.015L81.1645 170.475V170.925L81.1096 171.736L81.1865 172.197V172.647L81.2413 173.108L81.351 173.535L81.4716 173.964L81.5704 174.37L82.1846 174.797L82.4918 175.532L82.3711 176.3L82.1518 176.99L81.702 177.386L81 177.079L80.1225 176.98L79.5959 177.013L79.2669 177.572L79.7056 178.208L80.1115 178.834L80.3748 179.623L80.4735 180.029L80.5613 180.512L80.6599 180.94L80.7258 181.401L80.8464 181.828L80.9451 182.245L81.011 182.716L81.0658 183.177L81.1316 183.66L81.1865 184.12L81.2523 184.614L81.3729 185.02L81.4826 185.437L81.7459 186.226L81.8665 186.655L81.9653 187.061L82.0969 187.488V187.905L82.1298 188.103L82.4588 188.179L82.5466 188.004L83.2596 187.664L83.8519 187.214L84.3784 186.731L84.8062 186.15L85.2779 185.634L85.9909 185.261L86.8903 185.415L87.6801 185.185L88.1517 184.669L88.3163 183.934V182.64L88.2504 182.179L88.1956 181.697L88.0749 181.28L87.9652 180.863L87.9104 180.38L87.8446 179.908L88.4918 179.931L89.1499 180.303L89.5119 179.876L89.4571 179.415L89.3913 178.943L89.3364 178.461L89.2706 178V177.561L89.2048 177.089L89.2706 176.267L89.8629 175.839L90.3236 175.74L91.1682 175.894L91.7386 176.366L92.287 176.882L92.8793 177.287L93.5485 177.715L94.2505 178.022L94.9854 178.274L95.6984 178.637L96.3236 179.009L96.9379 179.415L97.4973 179.897L97.947 180.457L98.4076 181.039L98.8574 181.62L99.4058 182.08L100.064 182.443L100.799 182.716L100.931 182.289L101.029 182.914L101.347 183.177L101.819 183.758L102.269 184.34L102.675 184.955L103.004 185.689L103.102 186.117L103.168 186.577L103.234 187.061L103.289 187.521L103.355 188.004V188.431L103.409 188.892L103.475 189.385L103.881 190L104.452 189.803L104.989 189.265L105.296 188.629L105.581 187.97L105.768 187.247L105.943 186.512L106.174 185.81L106.601 185.251L107.314 184.889L108.236 184.943L108.751 185.459L109.157 186.084L109.563 186.72L110.079 187.247L110.814 187.499L111.526 187.148L111.954 186.589L111.888 186.106L111.768 185.678L111.505 184.91L111.197 184.175L110.824 183.473L110.726 183.067L110.846 182.3L111.263 181.718L111.625 181.126L111.976 180.501L112.163 179.766L112.47 179.119L113.117 178.713H113.611L114.488 178.823L115.388 178.592L115.278 178.164L114.971 177.43L114.609 176.76L114.543 176.278L114.488 175.806L114.664 175.082L115.069 174.501V174.073L114.85 173.239L114.993 172.537L115.761 172.23L116.254 172.131H116.748L117.581 172.285L118.415 172.438L119.293 172.56L119.907 172.966L120.356 173.546L120.949 173.975L121.848 174.073L122.375 174.019L123.121 173.668L123.373 173.25L123 172.735L122.781 172.329L122.704 171.879L122.583 171.463L122.221 170.837L122.024 170.256L121.969 169.763L122.539 169.532L123 169.685L123.57 169.466L124.064 169.697L124.799 169.576L125.304 169.422L125.731 169.159L126.181 169.016L126.367 168.457L126.049 167.963L125.973 167.196L125.808 166.724L126.082 166.263L125.446 165.923L125.907 165.758L125.644 165.287L125.852 164.849L125.633 164.333L126.016 164.092L125.655 163.554L125.216 163.115L125.304 162.676L125.227 161.843L125.304 161.327L125.018 160.757L125.501 160.187L125.15 159.671L125.007 159.265L125.304 158.848L125.029 158.366L125.007 157.488L125.15 157.038L124.558 156.742L124.426 156.216L123.888 156.051L123.318 155.459L122.748 155.283L121.848 155.273L121.64 154.899L121.19 154.318L121.278 153.682L121.431 153.298L121.453 152.738L121.058 152.3L120.686 151.697L120.664 151.203L120.861 150.71L120.697 150.249L120.005 150.281L119.391 150.051L119.83 149.711L119.622 149.306L119.611 148.647L119.753 148.109L119.984 147.649L120.466 147.452L120.762 147.122L120.971 146.563L121.486 146.42L121.793 145.993L121.859 145.521L121.574 144.731L121.366 144.106L120.993 143.635L120.697 143.229L120.225 143.151L119.72 142.658L119.38 142.34L119.611 141.967L119.534 141.474L119.336 141.035L118.821 140.398L118.536 140.047L118.481 139.411L119.018 139.313L118.623 138.918L118.788 138.424L118.349 137.843L118.261 137.426L118.689 136.801L118.722 136.373L118.887 135.879L119.139 135.265L119.38 134.881L119.303 134.19L118.952 133.806L119.029 133.346L118.843 132.731L118.558 132.117L118.656 131.634L118.558 131.974L118.645 131.558L118.591 130.921L118.525 130.746L118.481 130.614L119.073 130.296L119.622 129.693L119.161 129.298L119.731 129.232L119.578 128.805L119.918 128.399L120.049 127.927L120.291 127.039L120.675 126.337L120.751 125.788L121.037 125.294L121.388 124.669L121.004 123.88L121.706 123.178L122.517 123.529L123.121 123.506L123.603 123.462L123.362 122.958L122.77 122.87L122.528 122.442L122.155 121.762L122.243 121.104L121.804 120.687L121.881 120.227L121.64 119.832L121.739 119.097L122.079 118.768L121.695 118.362L121.585 117.693L121.113 117.715L120.817 117.353L120.422 116.859L120.499 116.454L120.532 116.585L120.653 115.938L120.686 115.357L120.806 114.742L120.74 114.26L121.048 113.909L121.431 113.612L121.278 113.02L121.793 112.976L121.947 113.415L122.452 113.294L122.715 113.678L123.011 114.029L123.373 113.733L123.998 113.722L124.722 113.086L125.238 113.075L125.457 113.448L125.808 113.251L126.038 113.272L126.4 113.612L126.938 113.777L127.091 114.522L127.366 114.928L127.475 115.466L128.002 115.598L128.43 115.795L128.528 116.3L129.099 116.574L129.658 116.651L130.119 116.585L130.93 116.53L131.501 116.42L131.885 116.805L132.28 116.53L132.982 116.683L133.256 116.311L133.629 115.938L133.969 115.63H134.539L134.55 115.214L134.967 114.896L135.252 114.566L135.559 114.183L135.614 113.733L135.921 113.338L136.141 112.866L136.7 112.9L136.722 112.274L137.018 111.945L136.415 111.824L136.711 111.43L136.887 110.969L137.238 110.673L137.501 110.267L137.567 109.828L137.819 109.324L137.676 108.918L138.214 108.961L138.444 108.555L138.894 108.238L139.135 107.832L139.684 107.798L139.815 107.393L139.706 106.988L139.157 107.217L138.686 107.163L138.609 106.713L138.642 106.176L138.839 105.737L138.85 105.144L138.773 104.717L139.256 104.377L139.399 103.949L139.267 103.488L139.431 103.083L139.058 102.764L139.311 102.303L139.541 101.897L140.024 101.952L139.782 101.59L139.453 101.097L139.3 100.658L139.179 100.121L139.091 99.671L138.598 99.5832L138.642 99.1663L138.598 98.6288L138.302 98.234L138.576 97.8062L138.433 97.3894L138.631 96.9726L138.378 96.468L138.543 96.0731L138.28 95.6563L138.697 95.3601L138.247 95.1188L138.675 94.8336L138.488 94.4497L138.839 94.0439L138.499 93.7148L138.071 93.4735L137.808 92.8812L137.622 92.4534L137.94 92.1462L138.422 92.0914L139.004 91.9488L139.53 91.9707L139.98 91.8172L140.035 91.3784L139.87 90.9945L140.331 90.819L140.561 90.3693L140.967 90.1718L140.978 89.744L140.671 89.2505L140.353 88.9323L140.232 88.5375L140.155 88.0439L139.991 87.6271L140.155 87.1773L140.057 86.7386L140.09 86.2669L139.958 85.8391L140.331 85.4881L140.287 85.0604L140.419 84.6435L140.671 84.2705L140.726 83.7989L140.309 83.5905L140.528 83.1737L140.419 82.7788L140.473 82.34L140.495 81.8574L140.616 81.4296L141.077 81.276L141.165 80.8043L141.505 80.4533L141.768 80.0695L141.954 79.6526L142.207 79.2139L141.965 78.8519L141.834 78.3473L141.768 77.8647L141.867 77.4369L142.009 77.053L142.492 77.0091L142.514 76.5814L142.536 76.1645L142.952 75.8135L142.876 75.3857L142.656 75.0128L142.623 74.6069L142.393 74.223L142.492 73.8062L142.349 73.4113L142.547 73.0384L142.601 72.6106L142.141 72.446L142.13 72.0183L142.086 71.6015L142.316 71.2175L142.536 70.8117L142.744 70.4278L143.051 70.0768L143.304 69.6929L143.457 69.298L143.523 68.8811L142.854 68.7496L142.558 68.3546L141.921 67.7404L141.516 67.4442L141.592 66.7751L141.603 65.9415L141.219 65.4369L140.846 64.5923L140.452 64.1535L140.462 63.4625L140.506 62.6947V61.8611L140.934 61.4333L141.165 60.9506L141.011 60.3803L140.638 59.9634L140.276 59.3821L140.09 58.9652L140.035 58.1864L139.859 57.6051L139.892 56.7276L140.013 56.2889L139.848 55.7843L139.87 55.3675L139.958 54.808L140.144 54.2157L140.254 53.5795L140.32 52.9763L140.408 52.2852L140.243 51.7806L139.618 51.5393L139.015 51.5174L138.324 51.5393L137.962 51.2431L137.523 50.8044L137.446 50.3108L137.271 49.8939L137.018 49.532L136.777 48.9397L136.349 48.3912L135.812 47.8977L136.141 47.2943L136.152 46.8665L136.097 45.8135L135.976 45.3748L136.514 45.2651L136.25 44.8921L135.812 44.6398L136.053 44.2888L136.119 43.872L135.461 43.8281L135.351 43.6416L135.307 43.4003L132.631 43.2139L131.578 44.4315L130.196 45.1553L129.998 44.4315L131.051 42.5777L130.821 41.7002L129.68 40.8227L128.824 40.9104L128.101 40.7239L127.388 43.3016L123.943 42.9616V41.5466L122.309 40.6362L121.388 41.2614L120.96 42.3254L118.865 43.6526L118.963 41.6014L117.296 39.5502L115.388 40.4387L111.197 38.6069L110.331 38.6837L109.629 38.6179L109.069 40.4387L109.519 38.0804L110.66 37.543L110.923 36.0293L111.845 35.4918L111.68 34.5484L112.228 33.9781L111.68 32.8811L112.656 32.7166L113.084 31.9927L112.854 30.6654L113.38 30.4132L111.932 28.9104L112.459 27.649L112.031 27.0128L114.038 24.3364L114.631 22.5704L113.018 22.351L113.051 20.3875L112.689 19.9817L113.216 19.2578L111.625 18.3803L111.483 18.3364L110.857 18.1828L109.651 18.0183L108.532 18.8739L107.841 18.2377L106.733 18.8739L104.923 17.6453L104.528 18.9068L103.815 18.9726ZM103.815 18.9726L103.486 19.3126L103.19 19.7623L103.815 18.9726Z" stroke="#6D94BC" stroke-width="3.6"/>
</g>
</svg>
