<svg width="200" height="200" viewBox="0 0 200 200" fill="none" xmlns="http://www.w3.org/2000/svg">
<mask id="mask0_11_448" style="mask-type:luminance" maskUnits="userSpaceOnUse" x="60" y="10" width="80" height="180">
<path d="M139.193 10H60V190H139.193V10Z" fill="white"/>
</mask>
<g mask="url(#mask0_11_448)">
<path d="M103.378 180.019L103.374 180.02H103.371L103.369 180.019L103.362 180.013L103.362 180.007L103.366 180.002L103.372 179.999L103.376 180.001L103.381 180.005L103.38 180.011V180.015L103.378 180.019Z" fill="#D2E6FC" stroke="#6D94BC" stroke-width="1.63636"/>
</g>
<mask id="mask1_11_448" style="mask-type:luminance" maskUnits="userSpaceOnUse" x="60" y="10" width="80" height="180">
<path d="M139.193 10H60V190H139.193V10Z" fill="white"/>
</mask>
<g mask="url(#mask1_11_448)">
<path d="M105.23 181.425L105.16 181.499L105.114 181.556L105.086 181.61L105.001 181.712L104.947 181.76L104.897 181.786L104.809 181.806L104.727 181.817L104.509 181.803L104.411 181.798L104.213 181.767L104.021 181.703L103.877 181.667L103.805 181.637L103.73 181.605L103.699 181.59L103.661 181.565L103.642 181.549L103.643 181.55L103.613 181.524L103.608 181.51L103.609 181.459L103.593 181.399L103.569 181.324L103.559 181.292L103.555 181.277L103.556 181.266L103.563 181.255L103.572 181.247L103.583 181.245L103.595 181.248L103.606 181.254L103.62 181.265L103.636 181.282L103.648 181.29L103.666 181.298L103.683 181.304L103.698 181.309L103.713 181.323L103.727 181.337L103.738 181.371L103.745 181.386L103.751 181.398L103.762 181.41L103.767 181.421V181.43L103.763 181.434H103.755L103.745 181.427L103.734 181.412L103.717 181.394L103.702 181.376L103.691 181.367L103.67 181.352L103.661 181.34L103.647 181.324L103.635 181.313L103.628 181.307L103.616 181.304L103.607 181.308L103.605 181.317L103.606 181.326L103.615 181.341L103.635 181.358L103.646 181.375L103.655 181.398L103.665 181.416L103.686 181.435L103.74 181.467L103.778 181.48L103.822 181.485L103.909 181.49L104.046 181.494L104.091 181.49L104.277 181.44L104.303 181.434L104.332 181.43L104.456 181.423L104.496 181.427L104.57 181.439L104.611 181.43L104.725 181.4L104.814 181.366L104.912 181.31L104.961 181.275L104.985 181.244L105.006 181.224L105.058 181.187L105.178 181.091L105.268 181.02L105.337 180.964L105.402 180.853L105.45 180.767L105.504 180.683L105.54 180.607L105.626 180.496L105.704 180.404L105.745 180.337L105.764 180.286L105.772 180.21L105.783 180.136L105.808 180.019L105.822 179.981L105.873 179.864L105.906 179.779L105.927 179.73L105.939 179.681L105.996 179.578L106.066 179.458L106.155 179.297L106.207 179.184L106.234 179.136L106.292 179.059L106.344 179.005L106.378 178.973L106.389 178.964H106.397L106.399 178.973L106.399 178.982L106.381 178.999L106.357 179.017L106.301 179.081L106.264 179.139L106.227 179.226L106.167 179.337L106.003 179.628L105.959 179.716L105.858 179.981L105.843 180.055L105.823 180.116L105.819 180.155L105.816 180.192L105.819 180.227L105.823 180.259L105.812 180.32L105.797 180.409L105.796 180.466L105.795 180.525L105.809 180.617L105.823 180.654L105.831 180.682L105.836 180.751L105.829 180.791L105.814 180.826L105.776 180.879L105.6 181.041L105.549 181.085L105.393 181.237L105.3 181.322L105.279 181.345L105.26 181.376L105.23 181.425Z" fill="#D2E6FC" stroke="#6D94BC" stroke-width="1.63636"/>
</g>
<mask id="mask2_11_448" style="mask-type:luminance" maskUnits="userSpaceOnUse" x="60" y="10" width="80" height="180">
<path d="M139.193 10H60V190H139.193V10Z" fill="white"/>
</mask>
<g mask="url(#mask2_11_448)">
<path d="M69.1835 97.4997L69.17 97.5021L69.1585 97.4964L69.1538 97.4874L69.1542 97.4784L69.1606 97.4645L69.179 97.4358L69.1914 97.4146L69.1984 97.3917L69.204 97.372L69.218 97.3246L69.2256 97.3123L69.2431 97.2779L69.2565 97.2501L69.2687 97.2346L69.2911 97.2035L69.3246 97.1765L69.3451 97.1552L69.3562 97.1348L69.3626 97.1249L69.3863 97.1012L69.4047 97.0865L69.4092 97.084L69.4096 97.0832L69.4596 96.94L69.4779 96.9294L69.4918 96.9253L69.4884 96.9523L69.4528 97.03L69.4353 97.0898L69.44 97.165L69.4389 97.174L69.4331 97.1847L69.4308 97.1961L69.4274 97.2125L69.425 97.2305L69.4169 97.2567L69.4054 97.2861L69.3892 97.3025L69.3696 97.3287L69.3477 97.363L69.3269 97.4056L69.2972 97.435L69.2724 97.4514L69.2297 97.4882L69.2271 97.489H69.226L69.2017 97.4923L69.1835 97.4997Z" fill="#D2E6FC" stroke="#6D94BC" stroke-width="1.63636"/>
</g>
<mask id="mask3_11_448" style="mask-type:luminance" maskUnits="userSpaceOnUse" x="60" y="10" width="80" height="180">
<path d="M139.193 10H60V190H139.193V10Z" fill="white"/>
</mask>
<g mask="url(#mask3_11_448)">
<path d="M132.273 96.2086L132.258 96.2102L132.251 96.2004L132.252 96.1906L132.26 96.1857L132.265 96.1824L132.274 96.1799L132.286 96.1783L132.304 96.1775L132.314 96.1873L132.311 96.1947L132.294 96.2061L132.273 96.2086Z" fill="#D2E6FC" stroke="#6D94BC" stroke-width="1.63636"/>
</g>
<mask id="mask4_11_448" style="mask-type:luminance" maskUnits="userSpaceOnUse" x="60" y="10" width="80" height="180">
<path d="M139.193 10H60V190H139.193V10Z" fill="white"/>
</mask>
<g mask="url(#mask4_11_448)">
<path d="M132.385 96.1594L132.37 96.1815H132.349L132.344 96.1717L132.347 96.152L132.363 96.1324L132.367 96.1299L132.374 96.1259L132.38 96.1299L132.383 96.143L132.385 96.1594Z" fill="#D2E6FC" stroke="#6D94BC" stroke-width="1.63636"/>
</g>
<mask id="mask5_11_448" style="mask-type:luminance" maskUnits="userSpaceOnUse" x="60" y="10" width="80" height="180">
<path d="M139.193 10H60V190H139.193V10Z" fill="white"/>
</mask>
<g mask="url(#mask5_11_448)">
<path d="M132.443 96.0515L132.415 96.058L132.405 96.0433L132.403 96.0212L132.415 96.013L132.432 96.0122H132.44L132.452 96.0147L132.456 96.0196L132.458 96.0368L132.443 96.0515Z" fill="#D2E6FC" stroke="#6D94BC" stroke-width="1.63636"/>
</g>
<mask id="mask6_11_448" style="mask-type:luminance" maskUnits="userSpaceOnUse" x="60" y="10" width="80" height="180">
<path d="M139.193 10H60V190H139.193V10Z" fill="white"/>
</mask>
<g mask="url(#mask6_11_448)">
<path d="M132.279 95.9729L132.27 95.9803L132.265 95.9795L132.261 95.9786L132.259 95.9721L132.259 95.9696L132.259 95.9647L132.263 95.9565L132.273 95.9467L132.28 95.9426L132.286 95.9402L132.291 95.941L132.293 95.9467L132.29 95.9565L132.287 95.9647L132.279 95.9729Z" fill="#D2E6FC" stroke="#6D94BC" stroke-width="1.63636"/>
</g>
<mask id="mask7_11_448" style="mask-type:luminance" maskUnits="userSpaceOnUse" x="60" y="10" width="80" height="180">
<path d="M139.193 10H60V190H139.193V10Z" fill="white"/>
</mask>
<g mask="url(#mask7_11_448)">
<path d="M132.142 95.9467L132.147 95.9508L132.166 95.9426L132.177 95.9508L132.161 95.9729L132.147 95.9851L132.136 96.004L132.101 96.0203L132.075 96.0236L132.058 96.0056L132.053 95.9892L132.067 95.9745L132.093 95.9508L132.108 95.9361L132.125 95.9213L132.143 95.9172L132.155 95.9197L132.165 95.9262L132.161 95.9336L132.143 95.941L132.142 95.9467Z" fill="#D2E6FC" stroke="#6D94BC" stroke-width="1.63636"/>
</g>
<mask id="mask8_11_448" style="mask-type:luminance" maskUnits="userSpaceOnUse" x="60" y="10" width="80" height="180">
<path d="M139.193 10H60V190H139.193V10Z" fill="white"/>
</mask>
<g mask="url(#mask8_11_448)">
<path d="M133.064 96.0089L133.073 96.1071V96.2331L133.07 96.2715L133.075 96.3354L133.073 96.4025L133.069 96.4475L133.063 96.5047V96.5751L133.053 96.6315L133.041 96.6626L133.022 96.6888L132.99 96.7183L132.962 96.7363L132.92 96.742L132.861 96.7453L132.8 96.742L132.757 96.7322L132.715 96.6978L132.687 96.67L132.678 96.6405L132.68 96.6062L132.703 96.571V96.5505L132.69 96.5121L132.665 96.4483L132.647 96.3951L132.625 96.3468L132.606 96.301L132.582 96.2462L132.543 96.1963L132.507 96.139L132.485 96.0989L132.477 96.0825L132.468 96.0637L132.477 96.049H132.497L132.542 96.0654L132.572 96.0817L132.605 96.0981L132.648 96.0989L132.689 96.0875L132.724 96.0695L132.749 96.0392L132.773 96.0015L132.802 95.9737L132.831 95.9402L132.849 95.9034L132.872 95.8649L132.894 95.8248L132.902 95.7913L132.91 95.7495L132.925 95.7037L132.943 95.6612L132.963 95.5916L132.976 95.5237L133.004 95.4444L133.044 95.3552L133.062 95.3028L133.084 95.2472L133.093 95.1981L133.099 95.122L133.111 95.0713L133.133 95.023L133.15 94.9788L133.168 94.9387L133.178 94.9117L133.194 94.8487L133.212 94.7571L133.218 94.6965L133.22 94.6393L133.226 94.6033L133.237 94.6082L133.238 94.6229L133.25 94.6761L133.248 94.7064L133.243 94.7759L133.228 94.8545L133.181 94.9952L133.174 95.0394L133.159 95.104L133.153 95.1645L133.14 95.2325L133.135 95.3028L133.133 95.3274L133.123 95.3707L133.119 95.41L133.095 95.4779L133.079 95.5327L133.068 95.5859L133.062 95.6726L133.057 95.7381L133.05 95.7782L133.045 95.8134L133.057 95.8813L133.06 95.9615L133.064 96.0089Z" fill="#D2E6FC" stroke="#6D94BC" stroke-width="1.63636"/>
</g>
<mask id="mask9_11_448" style="mask-type:luminance" maskUnits="userSpaceOnUse" x="60" y="10" width="80" height="180">
<path d="M139.193 10H60V190H139.193V10Z" fill="white"/>
</mask>
<g mask="url(#mask9_11_448)">
<path d="M71.7167 94.4969L71.6854 94.5435L71.6844 94.5427L71.6682 94.5828L71.6359 94.6466L71.6015 94.6883L71.5823 94.708L71.5703 94.7047L71.5788 94.6785L71.6199 94.627L71.6391 94.5762L71.6606 94.5231L71.6777 94.4633L71.6543 94.4093L71.6521 94.3922L71.6735 94.3881L71.6886 94.402L71.7089 94.4249L71.7284 94.4429V94.4625L71.7167 94.4969Z" fill="#D2E6FC" stroke="#6D94BC" stroke-width="1.63636"/>
</g>
<mask id="mask10_11_448" style="mask-type:luminance" maskUnits="userSpaceOnUse" x="60" y="10" width="80" height="180">
<path d="M139.193 10H60V190H139.193V10Z" fill="white"/>
</mask>
<g mask="url(#mask10_11_448)">
<path d="M133.288 94.2875L133.278 94.29L133.267 94.2818L133.261 94.2662L133.263 94.2531L133.269 94.2441L133.28 94.245L133.287 94.2523L133.293 94.2597L133.294 94.2736L133.288 94.2875Z" fill="#D2E6FC" stroke="#6D94BC" stroke-width="1.63636"/>
</g>
<mask id="mask11_11_448" style="mask-type:luminance" maskUnits="userSpaceOnUse" x="60" y="10" width="80" height="180">
<path d="M139.193 10H60V190H139.193V10Z" fill="white"/>
</mask>
<g mask="url(#mask11_11_448)">
<path d="M71.4489 93.2623L71.4602 93.277L71.4651 93.286L71.4683 93.3056L71.4749 93.322L71.4895 93.3359L71.4949 93.3457L71.4961 93.349L71.495 93.3572L71.4901 93.3629L71.4824 93.367L71.4722 93.3678L71.4604 93.3645L71.4518 93.3457L71.4482 93.3383L71.4386 93.322L71.429 93.3138L71.4116 93.2983L71.3895 93.2835L71.3576 93.277L71.339 93.2794L71.3245 93.2843L71.3054 93.2909L71.2905 93.295L71.2681 93.2966L71.2384 93.2933L71.2239 93.2852L71.2162 93.277L71.2117 93.2663L71.2113 93.2598L71.2111 93.2582L71.21 93.2402L71.2118 93.2312L71.2194 93.2205L71.2304 93.2107L71.2394 93.2025L71.2474 93.1886L71.2586 93.16L71.261 93.1493L71.2625 93.1395V93.1199L71.2595 93.0626L71.2591 93.0577L71.2573 93.0397L71.2535 93.0258L71.2531 93.0233L71.2499 93.0127L71.2454 92.989L71.2437 92.9767L71.2343 92.9473L71.2327 92.9399L71.2295 92.926L71.2291 92.917L71.228 92.8924L71.2347 92.8744L71.2388 92.8671L71.2409 92.863L71.2424 92.8613L71.2507 92.8548L71.2595 92.8515L71.2654 92.8507L71.271 92.8523L71.2725 92.854L71.2738 92.8581L71.2739 92.863L71.2738 92.8671L71.2731 92.8785L71.2729 92.8875L71.277 92.8965L71.2888 92.9121L71.3016 92.9252L71.3135 92.935L71.3255 92.9571L71.3336 92.9734L71.3407 92.9923L71.345 93.0143L71.3541 93.0413L71.3732 93.0806L71.3941 93.1035L71.4138 93.1174L71.4219 93.1273L71.4262 93.142L71.4277 93.1633L71.4332 93.1952L71.4371 93.2271L71.4424 93.2467L71.4489 93.2623Z" fill="#D2E6FC" stroke="#6D94BC" stroke-width="1.63636"/>
</g>
<mask id="mask12_11_448" style="mask-type:luminance" maskUnits="userSpaceOnUse" x="60" y="10" width="80" height="180">
<path d="M139.193 10H60V190H139.193V10Z" fill="white"/>
</mask>
<g mask="url(#mask12_11_448)">
<path d="M133.655 92.1176L133.661 92.1634L133.678 92.2321L133.686 92.2853L133.694 92.3459L133.712 92.4138L133.729 92.4637L133.766 92.5259L133.778 92.5521L133.803 92.6265L133.825 92.6969L133.835 92.7386L133.833 92.8065L133.817 92.8638L133.8 92.9611L133.788 92.998L133.772 93.0593L133.754 93.1043L133.732 93.1641L133.715 93.2393L133.703 93.2745L133.68 93.2933L133.661 93.304L133.639 93.3056L133.636 93.2991V93.2917L133.661 93.2729L133.677 93.2434L133.68 93.1943L133.684 93.1428L133.696 93.0912L133.713 93.0323L133.728 92.9849L133.737 92.9219L133.743 92.8523L133.75 92.7615L133.743 92.6911L133.732 92.6347L133.713 92.5717L133.683 92.5021L133.655 92.4269L133.636 92.3868L133.615 92.323L133.607 92.2788L133.608 92.2305L133.593 92.1921L133.574 92.1577L133.568 92.1331H133.563L133.56 92.152L133.566 92.1683L133.564 92.1904L133.551 92.1994L133.539 92.1904L133.535 92.1708L133.533 92.1691L133.532 92.1331L133.542 92.0939L133.56 92.0775L133.595 92.0595L133.621 92.0554L133.645 92.0644L133.652 92.0832L133.655 92.1176Z" fill="#D2E6FC" stroke="#6D94BC" stroke-width="1.63636"/>
</g>
<mask id="mask13_11_448" style="mask-type:luminance" maskUnits="userSpaceOnUse" x="60" y="10" width="80" height="180">
<path d="M139.193 10H60V190H139.193V10Z" fill="white"/>
</mask>
<g mask="url(#mask13_11_448)">
<path d="M86.0546 71.9199L86.08 71.9261L86.0894 71.9233L86.1033 71.9183L86.1127 71.9192L86.1226 71.9197L86.1324 71.9214L86.1384 71.9223L86.1584 71.9158L86.1731 71.9175L86.1919 71.9324L86.2179 71.9653L86.2341 71.988L86.2553 72.0093L86.2885 72.052L86.3195 72.1008L86.3453 72.1583L86.3687 72.2158L86.3777 72.2591L86.389 72.3156L86.3941 72.3517L86.3898 72.3787L86.3762 72.4203L86.3606 72.4653L86.3574 72.4763L86.3475 72.5094L86.3435 72.5334L86.3404 72.554L86.3355 72.5814L86.3272 72.6061L86.3143 72.6244L86.2942 72.6428L86.2754 72.6561L86.2354 72.6856L86.2035 72.7098L86.1718 72.73L86.1387 72.7429L86.0873 72.7627L86.0539 72.7651L86.031 72.7679L86.0122 72.7713L85.9726 72.7841L85.929 72.8069L85.8898 72.8284L85.8645 72.8448L85.8271 72.8594L85.8084 72.8624L85.7854 72.8674L85.756 72.8773L85.7186 72.8986L85.685 72.9154L85.6433 72.9452L85.6002 72.9809L85.4885 73.0701L85.4241 73.1213L85.3636 73.1644L85.3069 73.2112L85.2081 73.2854L85.1817 73.3044L85.156 73.324L85.1253 73.3505L85.1058 73.3774L85.0972 73.3988L85.0874 73.4155L85.0686 73.4373L85.0474 73.4604L85.0268 73.4823L85.0079 73.5002L84.9966 73.5167L84.9817 73.5357L84.9662 73.553L84.9502 73.5691L84.9378 73.5812L84.9279 73.5894L84.9132 73.598L84.8913 73.6158L84.8634 73.6348L84.8468 73.6427L84.8336 73.6475L84.8189 73.6497L84.8039 73.648L84.7925 73.6427L84.7806 73.6331L84.7696 73.618L84.7611 73.6042L84.7583 73.5864L84.7566 73.5708L84.7583 73.5538L84.7627 73.5424L84.7794 73.5239L84.7914 73.5101L84.8062 73.487L84.8199 73.4699L84.8394 73.4468L84.8503 73.4365L84.8725 73.4289L84.8856 73.4213L84.9039 73.4179L84.9177 73.4145L84.9273 73.4089L84.9382 73.3972L84.9519 73.3886L84.9662 73.3835L84.9806 73.3794L84.9936 73.3766L85.0005 73.3714L85.0165 73.3634L85.0257 73.3604L85.0388 73.3655L85.0506 73.3669L85.0608 73.3662L85.0768 73.3643L85.0813 73.3606L85.0972 73.3436L85.1222 73.3139L85.1445 73.2857L85.1518 73.2764L85.1653 73.2572L85.1841 73.2258L85.1907 73.2116L85.2147 73.1621L85.2239 73.1435L85.2378 73.1153L85.2498 73.0974L85.2714 73.0668L85.3048 73.0195L85.3494 72.951L85.3854 72.8921L85.422 72.8422L85.4494 72.8047L85.4813 72.7582L85.501 72.7201L85.5243 72.6802L85.5341 72.6643L85.5634 72.6223L85.6257 72.5221L85.679 72.4219L85.7014 72.3841L85.7203 72.3552L85.7333 72.3386L85.758 72.2891L85.7706 72.2527L85.7841 72.2167L85.7894 72.2096L85.8071 72.1752L85.825 72.1474L85.8294 72.1446L85.8299 72.14L85.8444 72.1105L85.8463 72.1012L85.8575 72.0588L85.8545 72.0543L85.8575 72.0364L85.8761 71.9845L85.8885 71.9492L85.8949 71.9201L85.889 71.8873L85.8894 71.8761L85.8945 71.8716L85.9114 71.871H85.9223L85.9385 71.8757L85.9677 71.886L86.0128 71.9048L86.0546 71.9199Z" fill="#D2E6FC" stroke="#6D94BC" stroke-width="1.63636"/>
</g>
<mask id="mask14_11_448" style="mask-type:luminance" maskUnits="userSpaceOnUse" x="60" y="10" width="80" height="180">
<path d="M139.193 10H60V190H139.193V10Z" fill="white"/>
</mask>
<g mask="url(#mask14_11_448)">
<path d="M63.7857 60.6405L63.781 60.6491L63.7735 60.6666L63.7697 60.6864L63.7735 60.6987L63.7771 60.7045L63.7842 60.7114L63.7928 60.7186L63.7979 60.7244L63.8007 60.7319L63.7968 60.7375L63.7921 60.7414L63.7827 60.7442L63.78 60.7445L63.7748 60.7451L63.7622 60.7461L63.7495 60.7465H63.7382L63.7221 60.7469L63.7052 60.7446H63.6799L63.6602 60.7442L63.6287 60.7474L63.6169 60.7465L63.6084 60.7418L63.6037 60.7362L63.5996 60.7271L63.6047 60.7133L63.6159 60.703L63.632 60.6892L63.6508 60.6741L63.6748 60.661L63.6883 60.6524L63.7142 60.6463L63.7245 60.6448L63.735 60.6452L63.7485 60.6443L63.7594 60.6396L63.7677 60.6334L63.7776 60.6277L63.7851 60.6259L63.7889 60.6286V60.6317L63.7857 60.6405Z" fill="#D2E6FC" stroke="#6D94BC" stroke-width="1.63636"/>
</g>
<mask id="mask15_11_448" style="mask-type:luminance" maskUnits="userSpaceOnUse" x="60" y="10" width="80" height="180">
<path d="M139.193 10H60V190H139.193V10Z" fill="white"/>
</mask>
<g mask="url(#mask15_11_448)">
<path d="M134.065 60.5248L134.096 60.536L134.129 60.5522L134.134 60.5532L134.167 60.5429L134.198 60.544L134.239 60.547L134.295 60.5481L134.339 60.5522L134.364 60.5612L134.391 60.5736L134.413 60.5765L134.442 60.5634L134.476 60.5378L134.512 60.5369L134.546 60.54L134.567 60.541L134.594 60.549L134.629 60.5643L134.656 60.5654L134.724 60.5624L134.782 60.5634L134.837 60.5674L134.87 60.5725L134.89 60.5736L134.907 60.5725L134.913 60.5674L134.938 60.5635L134.952 60.5584L134.968 60.5542L134.988 60.5523L135.003 60.5482L135.073 60.545L135.104 60.5502L135.127 60.5543L135.169 60.5584L135.239 60.5562L135.298 60.5584L135.347 60.5614L135.426 60.5707L135.485 60.5727L135.526 60.5768L135.559 60.5951L135.581 60.6145L135.592 60.6419L135.593 60.6467L135.594 60.6714L135.58 60.6971L135.577 60.7016L135.579 60.7089L135.58 60.7242L135.571 60.738L135.555 60.7527L135.527 60.7781L135.504 60.7949L135.472 60.8068L135.457 60.8019L135.423 60.8119L135.348 60.8303L135.309 60.8415L135.259 60.8589L135.219 60.8721L135.181 60.8798L135.166 60.8858L135.131 60.8981L135.057 60.9246L134.95 60.9784L134.85 61.0202L134.773 61.058L134.733 61.0711L134.629 61.0987L134.572 61.1129L134.491 61.1383L134.45 61.1536L134.377 61.1637L134.328 61.1678L134.25 61.1669L134.188 61.1637L134.129 61.1577L134.092 61.1525L134.048 61.1445L133.983 61.1322L133.912 61.1169L133.812 61.0833L133.754 61.0426L133.697 60.9888L133.683 60.9604L133.65 60.8962L133.629 60.83L133.618 60.7754L133.616 60.7205L133.617 60.6896L133.621 60.6631L133.633 60.6306L133.648 60.6011L133.67 60.5726L133.704 60.5472L133.727 60.5409L133.776 60.5308L133.808 60.5258H133.867L133.891 60.5185L133.938 60.5155L134.016 60.5166L134.065 60.5248Z" fill="#D2E6FC" stroke="#6D94BC" stroke-width="1.63636"/>
</g>
<mask id="mask16_11_448" style="mask-type:luminance" maskUnits="userSpaceOnUse" x="60" y="10" width="80" height="180">
<path d="M139.193 10H60V190H139.193V10Z" fill="white"/>
</mask>
<g mask="url(#mask16_11_448)">
<path d="M65.3883 57.6076L65.4037 57.6097H65.4172H65.43L65.4508 57.6087H65.4615L65.4804 57.606L65.5078 57.6039L65.5243 57.6046L65.5378 57.6091L65.5496 57.6212L65.5536 57.6341L65.5547 57.654L65.5495 57.685L65.5433 57.7107L65.529 57.7434L65.5 57.8008L65.4664 57.8672L65.4392 57.9263L65.4145 57.9834L65.3824 58.0456L65.3612 58.0789L65.3335 58.1229L65.3112 58.1608L65.2761 58.2306L65.2504 58.2793L65.2157 58.3348L65.1739 58.3998L65.1235 58.4805L65.0873 58.533L65.0578 58.5826L65.0215 58.6383L65.0014 58.667L64.9783 58.7044L64.9442 58.7512L64.9189 58.7892L64.8872 58.8399L64.8566 58.8862L64.8315 58.9232L64.8052 58.9659L64.7824 58.9991L64.7443 59.0621L64.7036 59.1382L64.6751 59.1888L64.6509 59.2341L64.6323 59.2677L64.613 59.3065L64.58 59.3632L64.5598 59.3943L64.529 59.463L64.5026 59.5167L64.4919 59.5333L64.4673 59.574L64.4461 59.6202L64.4279 59.6555L64.4043 59.7077L64.3893 59.7493L64.3805 59.7805L64.3655 59.8265L64.352 59.8618L64.3372 59.8873L64.322 59.928L64.3002 59.9788L64.2655 60.0243L64.2323 60.0685L64.2066 60.1015L64.1802 60.1367L64.1582 60.1657L64.144 60.183L64.1239 60.2084L64.0999 60.2407L64.0853 60.2595L64.0579 60.2961L64.0279 60.3347L64.0065 60.3589L63.9879 60.383L63.9782 60.396L63.9587 60.4164L63.9157 60.4567L63.8936 60.474L63.878 60.4806L63.8593 60.4867L63.8499 60.4863L63.8469 60.4705L63.8756 60.427L63.8861 60.4119L63.8951 60.3977L63.9131 60.3681L63.9877 60.2718L64.0333 60.2043L64.0733 60.152L64.1072 60.1095L64.1547 60.0418L64.1933 59.9894L64.2254 59.9506L64.2702 59.8823L64.3011 59.8178L64.3385 59.7469L64.3535 59.7142L64.3953 59.6199L64.4228 59.5591L64.4532 59.4688L64.4855 59.4016L64.5108 59.3548L64.5474 59.2936L64.5609 59.2714L64.5899 59.2128L64.6184 59.1576L64.6436 59.1071L64.6683 59.0571L64.6951 59.003L64.7094 58.962L64.7223 58.9198L64.7336 58.8637L64.7527 58.7833L64.7718 58.7266L64.796 58.6576L64.8119 58.5996L64.8258 58.5466L64.8367 58.4916L64.8414 58.4727L64.8487 58.4263L64.8492 58.4245L64.8499 58.4218L64.8601 58.3821L64.8672 58.3588L64.8877 58.3071L64.8993 58.2713L64.9064 58.2396L64.9261 58.1529L64.9317 58.1301L64.9422 58.0947L64.9683 58.0312L64.9885 57.9749L64.9998 57.9518L65.0178 57.9279L65.0474 57.8914L65.0675 57.8701L65.0819 57.8563L65.1205 57.8121L65.1412 57.7847L65.165 57.7515L65.2175 57.6965L65.237 57.675L65.2824 57.6153L65.2959 57.5985L65.3 57.5935L65.3077 57.592H65.3231L65.3439 57.5976L65.366 57.6028L65.3883 57.6076Z" fill="#D2E6FC" stroke="#6D94BC" stroke-width="1.63636"/>
</g>
<mask id="mask17_11_448" style="mask-type:luminance" maskUnits="userSpaceOnUse" x="60" y="10" width="80" height="180">
<path d="M139.193 10H60V190H139.193V10Z" fill="white"/>
</mask>
<g mask="url(#mask17_11_448)">
<path d="M69.4123 54.3638L69.4282 54.372L69.4483 54.3699H69.4743L69.4953 54.3679L69.5062 54.3699H69.5591L69.5769 54.3713L69.5962 54.3728L69.6183 54.372L69.6273 54.378L69.6292 54.3849L69.6202 54.3901L69.6062 54.3879L69.5792 54.387L69.5757 54.3866L69.5493 54.383L69.5279 54.3856L69.5169 54.3848L69.5063 54.3845L69.4942 54.3936L69.4793 54.4106L69.4574 54.4408L69.4454 54.4721L69.4443 54.5042L69.4604 54.5517L69.4713 54.5969L69.4815 54.6342L69.4913 54.6724L69.5054 54.7045L69.5344 54.7306L69.5644 54.7597L69.5813 54.78L69.5933 54.8031L69.5944 54.8201L69.5843 54.8303L69.5653 54.8322L69.5503 54.8393L69.5315 54.8533L69.4965 54.8665L69.4703 54.8756L69.4444 54.8807L69.4186 54.8816L69.3894 54.8797L69.3506 54.8717L69.3185 54.8616L69.2836 54.8564L69.2636 54.8545L69.2445 54.8455L69.2306 54.8344L69.2224 54.8153L69.2183 54.7961L69.2175 54.7922L69.2255 54.765L69.2396 54.7357L69.2485 54.7027L69.2584 54.6554L69.2734 54.6211L69.2824 54.5892L69.2944 54.5481L69.3003 54.5159L69.3064 54.4586L69.3183 54.4163L69.3314 54.3729L69.3444 54.3457L69.3573 54.3337L69.3682 54.3336L69.3914 54.3468L69.4123 54.3638Z" fill="#D2E6FC" stroke="#6D94BC" stroke-width="1.63636"/>
</g>
<mask id="mask18_11_448" style="mask-type:luminance" maskUnits="userSpaceOnUse" x="60" y="10" width="80" height="180">
<path d="M139.193 10H60V190H139.193V10Z" fill="white"/>
</mask>
<g mask="url(#mask18_11_448)">
<path d="M70.6967 54.506L70.6697 54.507L70.6556 54.504L70.6526 54.4917L70.6537 54.4788L70.6525 54.4596L70.6487 54.4344L70.6496 54.4092L70.6547 54.3848V54.3697L70.6547 54.3455L70.6566 54.3203L70.6686 54.2849L70.6866 54.2556L70.7056 54.2356L70.7329 54.2153L70.7451 54.21L70.7641 54.2082L70.7907 54.2064L70.8147 54.2045L70.8445 54.2028L70.8887 54.2008L70.9272 54.1992L70.9544 54.1961L70.9889 54.1928L71.038 54.1837L71.1061 54.1695L71.1402 54.1494L71.1701 54.1362L71.1888 54.1259H71.1997L71.2037 54.1339L71.2019 54.1357L71.1918 54.1451L71.1678 54.161L71.1297 54.1833L71.0997 54.2055L71.0664 54.2389L71.0324 54.2721L70.9754 54.3217L70.9354 54.3569L70.8963 54.3884L70.8681 54.405L70.8149 54.4374L70.7629 54.4635L70.7237 54.4887L70.6967 54.506Z" fill="#D2E6FC" stroke="#6D94BC" stroke-width="1.63636"/>
</g>
<mask id="mask19_11_448" style="mask-type:luminance" maskUnits="userSpaceOnUse" x="60" y="10" width="80" height="180">
<path d="M139.193 10H60V190H139.193V10Z" fill="white"/>
</mask>
<g mask="url(#mask19_11_448)">
<path d="M71.4189 54.168L71.408 54.1715L71.3969 54.1703L71.3839 54.1658L71.3754 54.1583L71.3738 54.1578L71.3638 54.1417L71.3555 54.1272L71.3559 54.1197L71.363 54.1176L71.3839 54.1167L71.3949 54.1156L71.405 54.113L71.4159 54.1095L71.426 54.1001L71.4469 54.0839L71.4714 54.0679L71.4849 54.0627L71.5023 54.0649L71.5078 54.0703L71.5082 54.077L71.5003 54.0914L71.4958 54.1005L71.4947 54.1026L71.4888 54.1065L71.4694 54.1136L71.4549 54.1266L71.4373 54.1408L71.4268 54.1574L71.4189 54.168Z" fill="#D2E6FC" stroke="#6D94BC" stroke-width="1.63636"/>
</g>
<mask id="mask20_11_448" style="mask-type:luminance" maskUnits="userSpaceOnUse" x="60" y="10" width="80" height="180">
<path d="M139.193 10H60V190H139.193V10Z" fill="white"/>
</mask>
<g mask="url(#mask20_11_448)">
<path d="M71.5667 53.9521L71.5646 53.9672L71.5593 53.9838L71.5572 54.0019L71.5537 54.0189L71.5466 54.0347L71.5368 54.0457L71.5286 54.0522H71.5212L71.5167 54.0461L71.5177 54.0362L71.5233 54.0234L71.5226 54.0129L71.5167 54.0045L71.5102 54.0005L71.5053 53.9985H71.5037L71.4911 53.9959L71.4798 53.9898L71.4731 53.9838L71.4762 53.9713L71.4798 53.9627L71.4857 53.9582L71.4937 53.9547L71.5053 53.9582L71.5192 53.9612L71.5327 53.9627L71.5402 53.9622L71.5474 53.9557L71.5518 53.9516L71.5552 53.9467L71.5631 53.946L71.5667 53.9521Z" fill="#D2E6FC" stroke="#6D94BC" stroke-width="1.63636"/>
</g>
<mask id="mask21_11_448" style="mask-type:luminance" maskUnits="userSpaceOnUse" x="60" y="10" width="80" height="180">
<path d="M139.193 10H60V190H139.193V10Z" fill="white"/>
</mask>
<g mask="url(#mask21_11_448)">
<path d="M71.5727 53.9016L71.5541 53.902L71.5435 53.893L71.5401 53.8759L71.5417 53.8582L71.5435 53.833L71.5427 53.813L71.5386 53.7978L71.5345 53.7894L71.5294 53.7782L71.5286 53.7657L71.5336 53.7567L71.5405 53.7551L71.5476 53.7586L71.5556 53.7703L71.5675 53.7864L71.5826 53.8L71.5926 53.8246L71.5982 53.8405L71.5975 53.8632L71.5957 53.8828L71.5947 53.8841L71.5871 53.8941L71.5727 53.9016Z" fill="#D2E6FC" stroke="#6D94BC" stroke-width="1.63636"/>
</g>
<mask id="mask22_11_448" style="mask-type:luminance" maskUnits="userSpaceOnUse" x="60" y="10" width="80" height="180">
<path d="M139.193 10H60V190H139.193V10Z" fill="white"/>
</mask>
<g mask="url(#mask22_11_448)">
<path d="M89.6203 46.3736L89.6126 46.3807L89.5974 46.3763L89.5835 46.3637L89.5659 46.3364L89.5479 46.3097L89.52 46.2822L89.4928 46.2542L89.4866 46.2309L89.4656 46.1791L89.4489 46.1087L89.4482 46.0872L89.4502 46.064L89.4483 46.0058L89.4518 45.97L89.465 45.904L89.488 45.8498L89.5264 45.767L89.5404 45.7374L89.58 45.6729L89.6227 45.6181L89.6544 45.5873L89.7038 45.5478L89.7576 45.5078L89.8056 45.4776L89.8403 45.4587L89.8744 45.4399L89.9212 45.4076L89.9735 45.362L90.0026 45.3341L90.0411 45.3066L90.0788 45.289L90.103 45.2842L90.1262 45.2833L90.1652 45.2849L90.2105 45.2927L90.225 45.2961L90.2486 45.303L90.2653 45.3157L90.2821 45.3473L90.2904 45.3741L90.287 45.3993L90.2744 45.4513L90.2494 45.5294L90.2277 45.5814L90.2092 45.6269L90.1854 45.7048L90.134 45.814L90.094 45.875L90.0327 45.9672L89.9525 46.0653L89.9257 46.0892L89.8281 46.1777L89.7027 46.2795L89.6523 46.3209L89.6293 46.3461L89.6203 46.3736Z" fill="#D2E6FC" stroke="#6D94BC" stroke-width="1.63636"/>
</g>
<mask id="mask23_11_448" style="mask-type:luminance" maskUnits="userSpaceOnUse" x="60" y="10" width="80" height="180">
<path d="M139.193 10H60V190H139.193V10Z" fill="white"/>
</mask>
<g mask="url(#mask23_11_448)">
<path d="M91.5682 43.0878H91.5623L91.5629 43.0831L91.5665 43.0732L91.5828 43.0537L91.5939 43.0384L91.6014 43.025L91.6074 43.0097L91.6139 42.9789L91.6171 42.9555L91.6192 42.9434L91.6363 42.8545L91.6372 42.8193L91.6361 42.7939L91.6339 42.7727L91.6311 42.7252L91.6361 42.6823L91.6401 42.6434L91.6489 42.5942L91.6574 42.5616L91.6714 42.5109L91.6887 42.4446L91.6999 42.4053L91.7138 42.3615L91.7322 42.3235L91.7476 42.29L91.7669 42.2413L91.7853 42.1964L91.8039 42.1554L91.8239 42.1145L91.8348 42.0888L91.8444 42.0567L91.852 42.0276L91.859 42.0036L91.8691 41.9714L91.8822 41.9399L91.8912 41.9144L91.9036 41.8792L91.9182 41.841L91.9314 41.7977L91.946 41.7523L91.9695 41.6945L91.9826 41.6489L91.9922 41.6181L92.0122 41.5608L92.0357 41.4962L92.0499 41.4592L92.0541 41.4412L92.0573 41.4222L92.0588 41.3881L92.0642 41.3544L92.0777 41.3197L92.0933 41.2871L92.1077 41.2501L92.118 41.2234L92.1244 41.2023L92.1308 41.1577L92.1411 41.1191L92.1634 41.0578L92.1839 40.9937L92.1972 40.9408L92.215 40.892L92.2215 40.8618L92.23 40.8216L92.2445 40.7616L92.2649 40.6973L92.2788 40.6398L92.2955 40.5841L92.3099 40.5194L92.3245 40.4807L92.3315 40.4602L92.3377 40.4318L92.3465 40.3937L92.354 40.3646L92.3647 40.3305L92.3765 40.2925L92.3842 40.2649L92.3936 40.231L92.4153 40.1893L92.4275 40.1642L92.45 40.1115L92.4706 40.0697L92.5077 39.9932L92.522 39.9598L92.5424 39.9183L92.5634 39.8581L92.5838 39.8175L92.5945 39.7942L92.6084 39.7592L92.6283 39.7091L92.6514 39.6627L92.6724 39.6003L92.6945 39.5458L92.7198 39.5068L92.7455 39.4698L92.7664 39.4474L92.7766 39.4398L92.7858 39.4362L92.8062 39.4312L92.8287 39.4133L92.8579 39.3911L92.8729 39.3824L92.8843 39.3802L92.8971 39.3807L92.9068 39.3871L92.9139 39.397L92.915 39.4078L92.9069 39.4513L92.9079 39.4865L92.9058 39.5104L92.9 39.5314L92.8979 39.5562L92.8968 39.5747L92.8914 39.5948L92.8875 39.6153L92.874 39.6343L92.8655 39.6527L92.8542 39.6863L92.837 39.7343L92.8194 39.7701L92.7945 39.8226L92.7774 39.8681L92.7515 39.9219L92.7283 39.9671L92.7069 40.0217L92.6955 40.0601L92.6756 40.1083L92.6621 40.1434L92.6476 40.17L92.6289 40.2088L92.6171 40.2442L92.6122 40.2632L92.5998 40.3189L92.594 40.3362L92.5874 40.3567L92.5794 40.3807L92.5605 40.4155L92.5417 40.4666L92.5289 40.5079L92.5194 40.5345L92.5102 40.5709L92.4974 40.611L92.4898 40.6432L92.4803 40.6722L92.4645 40.7101L92.4513 40.7406L92.442 40.7749L92.4339 40.814L92.4325 40.8455L92.4245 40.8738L92.4072 40.9258L92.3956 40.9741L92.3817 41.0176L92.3725 41.0578L92.3639 41.1002L92.3521 41.1415L92.343 41.1762L92.3403 41.2009L92.3333 41.23L92.3329 41.2518L92.3301 41.2751L92.3174 41.3263L92.2969 41.3855L92.2823 41.4342L92.2624 41.4854L92.2431 41.5255L92.2157 41.5767L92.1865 41.6201L92.1362 41.6985L92.0978 41.749L92.0706 41.7831L92.0415 41.825L92.0078 41.8736L91.9825 41.9115L91.9576 41.9496L91.9326 41.9943L91.9191 42.0316L91.903 42.0875L91.8803 42.1497L91.866 42.1877L91.8387 42.2701L91.8235 42.3129L91.8111 42.3487L91.8075 42.3736L91.8026 42.3984L91.7886 42.4321L91.7762 42.4601L91.7676 42.4933L91.752 42.5307L91.7417 42.5533L91.7192 42.6239L91.6986 42.6859L91.6815 42.7449L91.6671 42.7957L91.652 42.8929L91.6462 42.9238L91.6417 42.9585L91.6263 43.0212L91.6181 43.0429L91.6059 43.0635L91.5935 43.0749L91.5796 43.0846L91.5682 43.0878Z" fill="#D2E6FC" stroke="#6D94BC" stroke-width="1.63636"/>
</g>
<mask id="mask24_11_448" style="mask-type:luminance" maskUnits="userSpaceOnUse" x="60" y="10" width="80" height="180">
<path d="M139.193 10H60V190H139.193V10Z" fill="white"/>
</mask>
<g mask="url(#mask24_11_448)">
<path d="M103.117 29.3769L103.103 29.3804L103.09 29.3795L103.076 29.3748L103.062 29.3673L103.058 29.3625L103.055 29.3545L103.055 29.3381L103.058 29.3214L103.061 29.3097L103.067 29.3005L103.076 29.288L103.09 29.2754L103.104 29.264L103.108 29.2562V29.2472L103.107 29.2344L103.1 29.2162L103.084 29.1788L103.072 29.141L103.062 29.1188L103.039 29.0762L103.021 29.0374L103.001 28.9836L102.99 28.9369L102.986 28.9119L102.977 28.8425L102.974 28.8269L102.96 28.7816L102.947 28.7416L102.937 28.7006L102.93 28.649L102.924 28.6083L102.919 28.5563L102.91 28.5223L102.899 28.4662L102.888 28.4208L102.876 28.3744L102.858 28.313L102.852 28.2927L102.846 28.2679L102.84 28.2573L102.831 28.2478L102.818 28.2378L102.803 28.2323L102.783 28.2269L102.756 28.226L102.741 28.2199L102.724 28.2079L102.709 28.1878L102.702 28.1726L102.697 28.1523L102.684 28.1314L102.662 28.0966L102.645 28.0761L102.638 28.0649L102.637 28.0538L102.64 28.0439L102.652 28.0335L102.677 28.0191L102.703 28.0065L102.717 28.0026L102.757 28L102.788 28.002L102.823 28.0119L102.861 28.0289L102.883 28.0427L102.912 28.0676L102.948 28.0987L102.972 28.1252L103.002 28.1615L103.023 28.1898L103.052 28.2408L103.083 28.3106L103.116 28.3799L103.156 28.4497L103.165 28.4669L103.189 28.5246L103.189 28.5897L103.188 28.6547L103.187 28.7197L103.19 28.786L103.193 28.8528L103.202 28.9204L103.212 28.988L103.216 29.0099L103.221 29.0276L103.232 29.0595L103.257 29.1349L103.278 29.2125L103.275 29.2306L103.268 29.2468L103.255 29.2656L103.233 29.2875L103.164 29.3465L103.139 29.3646L103.117 29.3769Z" fill="#D2E6FC" stroke="#6D94BC" stroke-width="1.63636"/>
</g>
<mask id="mask25_11_448" style="mask-type:luminance" maskUnits="userSpaceOnUse" x="60" y="10" width="80" height="180">
<path d="M139.193 10H60V190H139.193V10Z" fill="white"/>
</mask>
<g mask="url(#mask25_11_448)">
<path d="M64.8013 23.2072L64.7939 23.2114L64.7714 23.2126L64.7549 23.2113L64.7276 23.2092L64.7072 23.2101L64.6827 23.2126L64.6469 23.2159L64.6271 23.214L64.6164 23.2072L64.6151 23.2005L64.6144 23.1893L64.6125 23.1699L64.6104 23.1586L64.6059 23.1388L64.5925 23.1167L64.5734 23.0934L64.5621 23.0806L64.5588 23.0726L64.5621 23.0665L64.5681 23.062L64.5734 23.0578L64.5827 23.056L64.596 23.0547L64.6078 23.0533L64.6211 23.056L64.6501 23.07L64.6532 23.0714L64.659 23.074L64.6748 23.0812L64.7038 23.094L64.7289 23.1087L64.7448 23.1199L64.7568 23.134L64.7826 23.168L64.7912 23.1813L64.7998 23.196L64.8013 23.2072Z" fill="#D2E6FC" stroke="#6D94BC" stroke-width="1.63636"/>
</g>
</svg>
