<svg width="200" height="200" viewBox="0 0 200 200" fill="none" xmlns="http://www.w3.org/2000/svg">
<mask id="mask0_11_376" style="mask-type:luminance" maskUnits="userSpaceOnUse" x="4" y="68" width="192" height="64">
<path d="M5 69H195V130.948H5V69Z" fill="white" stroke="white" stroke-width="0.916399"/>
</mask>
<g mask="url(#mask0_11_376)">
<path d="M33.8463 71.3988L33.8399 71.4177L33.8264 71.49L33.8066 71.7167L33.7996 71.7996L33.7774 71.8162L33.808 72.0429L33.8331 72.0893L33.839 72.1182L33.8431 72.1528L33.8294 72.1793L33.8174 72.2005L33.7685 72.2351L33.7498 72.2459L33.7424 72.2674L33.7409 72.3045L33.7499 72.3309L33.7496 72.3406L33.7498 72.3888L33.7482 72.4131L33.727 72.4382L33.7217 72.4415L33.7174 72.4412L33.711 72.4401L33.7064 72.4394L33.7042 72.4337L33.6665 72.4232L33.6508 72.4015L33.581 72.3829L33.5737 72.3841L33.5702 72.3487L33.5645 72.2794L33.5623 72.2508L33.5627 72.2108L33.572 72.1248L33.5793 72.0556L33.5803 72.0475L33.5926 71.9405L33.5978 71.8945L33.6011 71.8652L33.6037 71.8427L33.6103 71.7908L33.6172 71.7412L33.618 71.7361L33.6238 71.6984L33.6253 71.6891L33.6109 71.6513L33.6015 71.6213L33.6018 71.6138L33.6025 71.6074L33.6088 71.5984L33.6117 71.5927L33.6172 71.579L33.618 71.5772L33.6183 71.5669L33.6172 71.5572L33.614 71.5519L33.6021 71.5309L33.6003 71.5287L33.5995 71.5145L33.5994 71.5059L33.609 71.4944L33.6164 71.4836L33.623 71.4675L33.6234 71.4568L33.6212 71.4497L33.6162 71.4379L33.6098 71.4293L33.5972 71.4062L33.6672 71.4051L33.7098 71.4059L33.7556 71.4025L33.8369 71.3992L33.8463 71.3988Z" fill="#D2E6FC" stroke="#6D94BC" stroke-width="0.916399"/>
</g>
<mask id="mask1_11_376" style="mask-type:luminance" maskUnits="userSpaceOnUse" x="4" y="68" width="192" height="64">
<path d="M5 69H195V130.948H5V69Z" fill="white" stroke="white" stroke-width="0.916399"/>
</mask>
<g mask="url(#mask1_11_376)">
<path d="M34.2517 72.3108L34.2415 72.322L34.2206 72.3357L34.2071 72.3414L34.1912 72.3423L34.1651 72.3349L34.1359 72.3161L34.1256 72.3129L34.1167 72.3134L34.0979 72.3159L34.0526 72.3401L33.9763 72.3731L33.944 72.3775L33.9163 72.3777L33.879 72.3679L33.8576 72.349L33.8561 72.3265L33.8546 72.3233L33.8633 72.2979L33.8788 72.2767L33.9011 72.2534L33.9369 72.2285L33.9598 72.2009L33.9715 72.1812L33.9749 72.1637L33.973 72.1344L33.9624 72.0787L33.9609 72.074L33.9555 72.0594L33.9522 72.0423L33.9504 72.0226L33.9507 72.0119L33.956 72.004L33.9616 71.9972L33.969 71.9947L33.9818 71.9932L33.9946 71.9945L34.0025 72.0013L34.0128 72.0094L34.0183 72.0373L34.018 72.0623L34.0182 72.0848L34.034 72.1151L34.0537 72.1518L34.0787 72.1753L34.114 72.1904L34.1548 72.1967L34.1726 72.198L34.2121 72.2046L34.2391 72.2119L34.253 72.2204L34.2602 72.235L34.2659 72.2522L34.2661 72.2729L34.2601 72.2961L34.2517 72.3108Z" fill="#D2E6FC" stroke="#6D94BC" stroke-width="0.916399"/>
</g>
<mask id="mask2_11_376" style="mask-type:luminance" maskUnits="userSpaceOnUse" x="4" y="68" width="192" height="64">
<path d="M5 69H195V130.948H5V69Z" fill="white" stroke="white" stroke-width="0.916399"/>
</mask>
<g mask="url(#mask2_11_376)">
<path d="M17.4252 74.1305L17.4753 74.133L17.5278 74.1262L17.6142 74.1243L17.6725 74.1213L17.7245 74.1305L17.759 74.148L17.8061 74.1856L17.839 74.2169L17.844 74.2217L17.9132 74.291L17.9753 74.336L18.0643 74.3899L18.1311 74.4292L18.169 74.4585L18.2269 74.4832L18.3004 74.4854L18.3472 74.4718L18.4072 74.4561L18.454 74.4336L18.4942 74.4158L18.5389 74.398L18.5989 74.3823L18.6812 74.3566L18.737 74.3431L18.7927 74.3274L18.8506 74.3117L18.9084 74.3117L19.0178 74.3164L19.1289 74.3118L19.2357 74.3087L19.2982 74.2973L19.3827 74.2863L19.4562 74.2549L19.5655 74.2282L19.6301 74.1943L19.7125 74.1697L19.7614 74.1529L19.8062 74.1394L19.8463 74.144L19.8861 74.1641L19.9197 74.1955L19.9797 74.2694L20.0286 74.3344L20.0599 74.393L20.0641 74.4309L20.0708 74.4805V74.5119L20.0754 74.588L20.0977 74.6451L20.1201 74.6812L20.1378 74.7058L20.1644 74.719L20.1956 74.7305L20.2467 74.7327L20.3202 74.7306L20.3915 74.7306L20.4717 74.7396L20.5409 74.7553L20.6432 74.7754L20.7567 74.8126L20.8145 74.8347L20.8526 74.8441L20.9125 74.8709L20.9437 74.9044L21.0016 74.9605L21.0639 75.0323L21.115 75.0774L21.1618 75.1199L21.2374 75.1817L21.2843 75.2085L21.3044 75.2264L21.3354 75.251L21.369 75.2535L21.3889 75.2536L21.4134 75.2332L21.4291 75.1861L21.4515 75.0719L21.4647 74.9823L21.5007 74.8184L21.5095 74.7738L21.5273 74.7156L21.5519 74.6382L21.5629 74.5935L21.59 74.5443L21.6255 74.4972L21.6656 74.4658L21.7103 74.4433L21.7725 74.4298L21.8328 74.4209L21.9105 74.412L21.9375 74.4053L21.9663 74.3785L21.9887 74.3518L22.0022 74.3182L22.0334 74.2722L22.0715 74.2476L22.107 74.2365L22.1606 74.2319L22.2184 74.232L22.2606 74.2188L22.3118 74.1806L22.3363 74.1514L22.3676 74.1067L22.3988 74.0664L22.4301 74.0193L22.4344 73.9922L22.444 73.9809L22.4479 73.9765L22.4859 73.9565L22.5324 73.943L22.5649 73.9301L22.6008 73.9088L22.6325 73.8813L22.6773 73.8499L22.7061 73.8142L22.7174 73.7582L22.7197 73.7335L22.7218 73.7205L22.7353 73.7086L22.7733 73.7045L22.775 73.7047L22.8038 73.7082L22.8146 73.71L22.8681 73.7192L22.9206 73.7316L22.9329 73.7345L22.9357 73.7362L22.9379 73.7374L22.9439 73.7409L22.9766 73.7737L22.9843 73.7814L23.1465 73.9243L23.1758 73.9504L23.1882 73.9616L23.3191 74.0806L23.296 74.0928L23.2417 74.1017L23.1665 74.1107L23.0696 74.1342L22.9294 74.194L22.8324 74.2482L22.7733 74.2639V74.3642L22.7277 74.3887L22.6605 74.4215L22.5934 74.4672L22.5543 74.5171L22.5348 74.5478L22.5046 74.5871L22.4438 74.6416L22.3831 74.7223L22.3092 74.8354L22.2615 74.9468L22.238 75.0585L22.2359 75.1021L22.2486 75.1631L22.279 75.2592L22.3677 75.366L22.4241 75.4292L22.4414 75.4621L22.4436 75.4924V75.5078L22.4499 75.5142L22.4719 75.5146L22.4943 75.5157L22.5085 75.5189L22.5092 75.5282L22.5085 75.536L22.507 75.5392L22.5471 75.5682L22.6065 75.5982L22.6411 75.6443L22.6589 75.6912L22.6545 75.7158L22.6361 75.7421L22.6482 75.7525L22.6563 75.7625L22.6556 75.7821L22.6513 75.801L22.6378 75.8164L22.6296 75.8171L22.6261 75.8132L22.6165 75.8106L22.6115 75.8113L22.6052 75.8188L22.5946 75.8317L22.5817 75.8445L22.5717 75.8602L22.5746 75.8699L22.5764 75.8895L22.5707 75.9131L22.5638 75.928L22.5746 75.936L22.5796 75.9459L22.5736 75.9525L22.5584 75.9531L22.5486 75.9473L22.5387 75.968L22.5283 75.9813L22.5167 75.9858L22.5042 75.9994L22.5035 76.0016L22.479 76.014L22.4644 76.0154L22.4506 76.0247L22.4368 76.0351L22.4237 76.0522L22.4052 76.0868L22.3863 76.1235L22.3607 76.1557L22.3355 76.1671L22.3142 76.176L22.3028 76.1824H22.272L22.2567 76.1892L22.2386 76.1963L22.2209 76.2044L22.2127 76.2112L22.2014 76.2209L22.1893 76.2298L22.1736 76.233L22.163 76.2322L22.1566 76.2283L22.1527 76.2209L22.1484 76.2144L22.1428 76.203L22.1364 76.198L22.1283 76.1986L22.1197 76.2008L22.1076 76.2058L22.0945 76.2186L22.0814 76.2268L22.0629 76.2458L22.0472 76.259L22.0278 76.2743L22.0139 76.2818L21.9936 76.2989L21.983 76.3078L21.9727 76.3096L21.9596 76.3078L21.9507 76.3028L21.9383 76.2932L21.9244 76.2849L21.911 76.2735L21.8869 76.2599L21.8705 76.2499L21.856 76.2403L21.8397 76.2313L21.8269 76.2277H21.8188L21.8123 76.2313L21.8067 76.237L21.7992 76.2442L21.7929 76.2548L21.791 76.2727L21.7885 76.2877L21.779 76.3037L21.769 76.3162L21.7594 76.3269L21.747 76.3366H21.7356L21.7275 76.3269L21.7228 76.3208L21.7129 76.3176L21.7002 76.3112L21.6909 76.3119L21.6789 76.3144L21.6661 76.3226L21.6476 76.3394L21.6352 76.354L21.6207 76.3718L21.6117 76.3761L21.6096 76.3789L21.6036 76.3868L21.5897 76.3925L21.5751 76.4028L21.5564 76.4121L21.5393 76.421L21.5255 76.4317L21.4963 76.4477L21.4719 76.4642L21.4523 76.4755L21.4381 76.4891L21.4104 76.5095L21.3966 76.5191L21.3813 76.5291L21.3607 76.5372L21.3462 76.5462L21.3292 76.5583L21.3195 76.5641L21.3064 76.5658L21.2926 76.5722L21.2869 76.5765L21.283 76.5829L21.2756 76.5968L21.2674 76.6107L21.2592 76.6196L21.251 76.6271L21.245 76.6293L21.2336 76.6357L21.2173 76.6407L21.2009 76.6521L21.1964 76.6575L21.1832 76.6736L21.1637 76.7014L21.1473 76.7224L21.1441 76.7406L21.1253 76.7781L21.1224 76.7827L21.098 76.795L21.0962 76.7959L21.0896 76.8157L21.0696 76.8252L21.0589 76.8228L21.0433 76.7927L21.0067 76.7405L20.9805 76.686L20.9431 76.6639L20.9077 76.6665L20.8644 76.6877L20.8563 76.7169L20.861 76.7688L20.85 76.7958L20.8283 76.8087L20.8176 76.8054L20.8124 76.7899L20.8046 76.7379L20.8052 76.6839L20.7948 76.6567L20.7796 76.6403L20.7519 76.6429L20.7256 76.6558L20.6845 76.6878L20.6481 76.703L20.6453 76.7008L20.6428 76.695L20.6371 76.6864L20.6459 76.6553L20.6481 76.6203L20.6329 76.5982L20.6229 76.5818L20.6197 76.576L20.6024 76.5364L20.6006 76.5282L20.5935 76.4922L20.5691 76.4778L20.5673 76.4768L20.545 76.4345L20.5059 76.4183L20.4749 76.4127L20.4413 76.4205L20.382 76.4624L20.3644 76.4707L20.3447 76.4799L20.2624 76.4745L20.234 76.4941L20.2166 76.5295L20.1971 76.5444L20.1879 76.5515L20.1584 76.5637L20.1211 76.5747L20.0817 76.5836L20.0611 76.5854H20.0441L20.0416 76.5836L20.0296 76.5751L20.0204 76.5696L20.0157 76.5668L19.9994 76.5636L19.9607 76.5668L19.9494 76.5625L19.9394 76.556L19.932 76.55L19.9267 76.5414L19.9181 76.5307L19.9136 76.5068L19.9065 76.4829L19.8894 76.4714L19.8692 76.4757L19.8554 76.4839L19.8408 76.4828L19.8196 76.4796L19.7922 76.4821L19.7776 76.4896L19.7549 76.517L19.7436 76.5385L19.7304 76.5513L19.7013 76.5637L19.6566 76.5716L19.5952 76.6054L19.5629 76.6258L19.5274 76.6479L19.4876 76.669L19.45 76.6904L19.3956 76.71L19.3591 76.7253L19.3219 76.7353L19.2764 76.7302L19.2473 76.7289L19.2196 76.7156L19.1711 76.6877L19.1466 76.6552L19.1413 76.6413L19.137 76.6292L19.1388 76.5949L19.1355 76.5794L19.1321 76.5638L19.1193 76.5606L19.082 76.5817L19.0625 76.5881L19.0334 76.5734L19.0221 76.557L19.0185 76.5392L19.0139 76.5181L19.0058 76.5066L18.9976 76.5034L18.9927 76.5081L18.983 76.5277L18.9521 76.5684L18.9471 76.5798L18.9376 76.598L18.918 76.6012L18.906 76.5987L18.8915 76.5791L18.8719 76.5726L18.8588 76.5791L18.8379 76.579L18.8102 76.5776L18.7747 76.5612L18.7439 76.5466L18.7307 76.5401L18.6998 76.5515L18.6803 76.5693L18.6725 76.5776L18.6576 76.5822L18.6317 76.5693L18.6157 76.5611L18.6043 76.5433L18.5913 76.5365L18.5685 76.535L18.5249 76.5136L18.5054 76.4975L18.4841 76.4875L18.4631 76.4829L18.4259 76.4761L18.3766 76.4571L18.3553 76.4425L18.3358 76.441H18.3053L18.2612 76.4392L18.2353 76.4328L18.2045 76.4181L18.1849 76.3953L18.1754 76.3771V76.3592L18.1881 76.346L18.2063 76.3268L18.2223 76.2957L18.2208 76.2711L18.1996 76.2468L18.1655 76.2271L18.1009 76.2075L18.0374 76.1846L17.9501 76.1567L17.8372 76.1231L17.7709 76.1053L17.7141 76.0938L17.6591 76.0856L17.607 76.0759L17.5196 76.0741L17.453 76.0773L17.3741 76.0894L17.2932 76.1076L17.2233 76.1304L17.157 76.145L17.1374 76.145L17.1292 76.1515L17.0725 76.1629L17.0189 76.1792L16.9802 76.1839L16.934 76.1878L16.8886 76.201L16.8414 76.2156L16.7946 76.2371L16.7264 76.2827L16.6874 76.3184L16.6597 76.3512L16.6192 76.3919L16.5933 76.4148L16.577 76.4294L16.5301 76.5029L16.4921 76.6278L16.4952 76.706L16.5194 76.7599L16.5293 76.7828L16.5357 76.8074L16.5282 76.831L16.5009 76.8456L16.4782 76.8606L16.4651 76.872V76.8834L16.4782 76.8898L16.491 76.8834L16.5009 76.8785L16.5218 76.8752L16.5772 76.8735L16.6095 76.8652L16.6241 76.862L16.6304 76.8671L16.6371 76.8835L16.6209 76.916L16.5818 76.952L16.5122 76.9795L16.4878 76.9926L16.4636 77.0237L16.4409 77.0515L16.4036 77.0694L16.3646 77.0858L16.3256 77.0822L16.2752 77.0662L16.2446 77.0562L16.2202 77.0465L16.2187 77.0287L16.2234 77.0058L16.2333 76.9908L16.2447 76.978L16.2542 76.9551V76.9373L16.2365 76.9108L16.222 76.8912L16.1911 76.872L16.1585 76.8684L16.1326 76.8733L16.113 76.8783L16.0939 76.8866L16.0857 76.8962L16.0939 76.9108L16.123 76.929L16.1343 76.9419L16.1262 76.9533L16.123 76.9697L16.1002 76.9812L16.079 76.9844L16.0353 76.9812L15.9728 76.9722L15.921 76.9754L15.8965 76.9772H15.8706L15.8465 76.99L15.817 77.0014L15.7798 77.0114L15.7475 77.0161L15.7052 77.0228L15.6194 77.0389L15.5981 77.0535L15.5899 77.052L15.5672 77.0503L15.5029 77.0656L15.4625 77.0692L15.4107 77.0724L15.3766 77.0756H15.3603L15.323 77.0738L15.3035 77.0656L15.2712 77.0495L15.2535 77.0427H15.2226L15.2063 77.0413L15.1577 77.0052L15.1513 76.9856V76.9664L15.1609 76.9481L15.1804 76.9303L15.1917 76.9156L15.1999 76.8928L15.2127 76.8782L15.2308 76.8632L15.2503 76.8568L15.2681 76.8517L15.2841 76.8471L15.2954 76.8403L15.3022 76.8211V76.8061L15.2876 76.7754L15.2763 76.7444L15.2592 76.7157L15.2315 76.6865L15.2082 76.6707L15.1975 76.6636L15.1733 76.6358L15.1442 76.6079L15.1166 76.5769L15.0825 76.5573L15.0257 76.523L14.9594 76.4872L14.8731 76.4429L14.6889 76.3687L14.6258 76.3508L14.5949 76.344L14.5335 76.3262L14.4732 76.313H14.4523L14.4068 76.3148L14.333 76.3073L14.2358 76.2976L14.1464 76.2959L14.1167 76.2979L14.0509 76.3027L13.9292 76.2926L13.8813 76.2869L13.7872 76.2755L13.7564 76.2737L13.7109 76.2787L13.6623 76.2819L13.646 76.2933L13.6218 76.3033L13.6023 76.3147L13.5846 76.3211L13.5519 76.3326L13.531 76.3358L13.5114 76.3422L13.509 76.3426L13.5065 76.3437L13.518 76.3697L13.5211 76.4527L13.4857 76.5261L13.4734 76.5398L13.4593 76.5368L13.449 76.5347L13.4177 76.53L13.3227 76.5061L13.2791 76.4903L13.2645 76.485L13.2464 76.4682L13.23 76.4447L13.2216 76.3629L13.2209 76.3613L13.2213 76.3605L13.2197 76.3454L13.224 76.2354L13.2332 76.1816L13.251 76.1209L13.2701 76.0306L13.273 75.9542L13.2985 75.7778L13.3042 75.7118L13.3191 75.5961L13.3432 75.5208L13.3638 75.4836L13.3986 75.4322L13.4717 75.3601L13.5047 75.3326L13.5246 75.2998L13.5526 75.2671L13.5538 75.2352L13.5859 75.216L13.5916 75.1397L13.5917 75.1388V75.0895L13.6027 75.011L13.6382 74.9324L13.662 74.8978L13.6886 74.8628L13.7223 74.8282L13.7578 74.791L13.7933 74.7603L13.8437 74.7232L13.8892 74.6954L13.936 74.6672L14.0027 74.6404L14.0818 74.6L14.112 74.5915L14.2 74.5615L14.2622 74.5447L14.3247 74.5369L14.3492 74.5349L14.4361 74.528L14.4563 74.5251L14.4794 74.5219L14.5461 74.5176L14.5841 74.5151L14.6821 74.513L14.7502 74.5051L14.846 74.4955L14.9263 74.4866L14.983 74.4698L15.0118 74.463L15.0764 74.4434L15.1843 74.4099L15.2603 74.3795L15.3483 74.347L15.425 74.3296L15.458 74.318L15.4822 74.3096L15.5244 74.2917L15.5776 74.2568L15.6202 74.2332L15.6458 74.2146L15.7083 74.1832L15.7427 74.1686L15.775 74.1565L15.8677 74.1508L15.9475 74.1486L16.0231 74.1437L16.0845 74.1369L16.0939 74.1364L16.1268 74.1348L16.1456 74.1223L16.1768 74.1155L16.2028 74.1055L16.2241 74.0937L16.2506 74.0602L16.2762 74.023L16.2951 73.9927L16.3132 73.9627L16.3227 73.9456L16.3288 73.9345L16.3498 73.9067L16.3696 73.8735L16.4066 73.8399L16.4445 73.8074L16.4811 73.7771L16.5091 73.7571L16.5524 73.7246L16.5858 73.7146L16.6036 73.7032L16.6458 73.6893L16.6849 73.6779L16.7406 73.6636L16.785 73.6511L16.8209 73.6401L16.8542 73.6376L16.8642 73.6429L16.8748 73.6485L16.9053 73.6647L16.9564 73.7101L16.9844 73.7404L17.0011 73.7619L17.0323 73.7851L17.0558 73.7976L17.0835 73.8022L17.1257 73.8076L17.1413 73.8076L17.1757 73.8323L17.1867 73.8665L17.197 73.9237L17.2126 73.9672L17.2293 74.0044L17.2549 74.0437L17.2917 74.0822L17.3205 74.1005L17.346 74.1172L17.3819 74.1251L17.4252 74.1305Z" fill="#D2E6FC" stroke="#6D94BC" stroke-width="0.916399"/>
</g>
<mask id="mask3_11_376" style="mask-type:luminance" maskUnits="userSpaceOnUse" x="4" y="68" width="192" height="64">
<path d="M5 69H195V130.948H5V69Z" fill="white" stroke="white" stroke-width="0.916399"/>
</mask>
<g mask="url(#mask3_11_376)">
<path d="M160.784 95.7333L160.884 95.7358L160.993 95.7308L161.071 95.7258L161.159 95.7462L161.239 95.7661L161.402 95.8192L161.466 95.8367L161.572 95.862L161.68 95.867L161.707 95.864L161.711 95.8636L161.792 95.8546L161.923 95.8268L162.046 95.804L162.089 95.8015L162.131 95.799L162.166 95.794L162.214 95.804L162.259 95.8168L162.302 95.8596L162.336 95.902L162.367 95.9452V96.0538L162.346 96.175L162.311 96.3386L162.302 96.4017L162.305 96.4776L162.311 96.5346L162.319 96.5963L162.342 96.6647L162.364 96.7424L162.391 96.7955L162.419 96.8333L162.472 96.8789L162.527 96.9242L162.623 96.9748L162.737 97.0725L162.81 97.1405L162.908 97.2393L162.881 97.2628L162.833 97.3227L162.804 97.3485L162.775 97.3744L162.734 97.421L162.684 97.4659L162.621 97.5079L162.614 97.545L162.607 97.5657L162.555 97.608L162.546 97.6302L162.535 97.6476L162.533 97.6636L162.526 97.6854L162.465 97.6801L162.406 97.7053L162.375 97.7146L162.345 97.7175L162.292 97.7131L162.244 97.6971L162.19 97.6722L162.002 97.5959L161.972 97.5919L161.936 97.582L161.922 97.5745L161.889 97.5239L161.875 97.5064L161.815 97.4815L161.731 97.4633L161.712 97.4558L161.694 97.4484L161.686 97.4251V97.3941L161.679 97.3763L161.637 97.3218L161.593 97.2879L161.566 97.2726L161.542 97.2128L161.508 97.1857L161.408 97.1411L161.402 97.1404L161.394 97.1393L161.386 97.1468L161.349 97.2181L161.319 97.2894L161.243 97.382L161.224 97.4126L161.187 97.4575L161.045 97.5809L161.021 97.6172L160.991 97.6908L160.961 97.8133L160.954 97.8388L160.925 97.9732L160.914 98.006L160.888 98.0673L160.671 98.4407L160.662 98.4493L160.414 98.5355L160.377 98.5576L160.363 98.5872L160.352 98.6495L160.351 98.6912L160.328 98.7347L160.313 98.7714L160.296 98.791L160.256 98.8117L160.245 98.8213L160.24 98.8352L160.235 98.8808L160.231 98.8968L160.219 98.9025L160.182 98.9008L160.176 98.9096V98.9264L160.168 98.9716L160.154 98.9891L160.138 99.0208L160.126 99.0579L160.105 99.0818L160.093 99.1744L160.093 99.2421L160.099 99.2482L160.124 99.2734L160.153 99.2873L160.171 99.2913L160.328 99.3615L160.375 99.3629L160.426 99.37L160.484 99.4099L160.499 99.4135L160.535 99.4046L160.585 99.4135L160.61 99.4L160.636 99.3754L160.658 99.3697L160.694 99.3829L160.715 99.3964L160.775 99.4139L160.833 99.4178L160.873 99.442L160.919 99.4413L160.934 99.4491L160.95 99.4719V99.494L160.957 99.509L161.011 99.5806L161.033 99.6219L161.049 99.6422L161.051 99.6433L161.055 99.6451L161.072 99.6458L161.14 99.6387L161.165 99.6394L161.188 99.633L161.225 99.5963L161.247 99.582L161.316 99.5782L161.353 99.5617L161.369 99.5475L161.382 99.5265L161.384 99.5194L161.392 99.4954L161.405 99.4295L161.414 99.4192L161.43 99.4085L161.482 99.4036L161.497 99.4082L161.534 99.4092L161.583 99.4182L161.664 99.4192L161.718 99.4132L161.737 99.4057L161.772 99.3993L161.789 99.3925L161.819 99.3387L161.847 99.2689L161.883 99.2072L161.899 99.198L161.942 99.1898L161.977 99.1691L162.014 99.1634L162.07 99.1691L162.091 99.1763L162.111 99.2062L162.144 99.2237L162.248 99.2251L162.341 99.2369H162.419L162.455 99.2334L162.547 99.2095L162.596 99.1881L162.606 99.1656V99.15L162.627 99.068L162.641 99.0492L162.674 99.0338L162.693 99.0314L162.712 99.025L162.738 99.022L162.751 99.0207L162.782 99.0299L162.804 99.0474L162.898 99.072L162.965 99.0649L162.987 99.0685L163.003 99.0784L163.012 99.0916L163.045 99.0983L163.098 99.1091L163.179 99.215L163.276 99.3264L163.271 99.345L163.272 99.3646L163.285 99.4041L163.355 99.4673L163.47 99.5122L163.53 99.5457L163.553 99.5535L163.558 99.5646L163.534 99.625L163.509 99.6853L163.435 99.8164L163.397 99.8923L163.385 99.9294V99.9418L163.443 99.9451L163.492 99.9511L163.497 99.9633L163.488 100.053L163.464 100.194L163.445 100.278L163.424 100.291L163.395 100.291L163.344 100.309L163.284 100.32L163.267 100.336L163.24 100.378L163.214 100.435L163.183 100.479L163.101 100.55L163.029 100.599L162.95 100.643L162.94 100.643L162.933 100.628L162.907 100.605L162.894 100.604L162.873 100.61L162.862 100.623L162.846 100.651L162.813 100.689L162.802 100.705L162.751 100.745L162.72 100.76L162.685 100.782L162.664 100.79L162.653 100.801L162.629 100.808L162.589 100.798L162.55 100.796L162.541 100.8L162.526 100.815L162.514 100.815L162.471 100.788L162.419 100.746L162.411 100.747L162.397 100.759H162.39L162.372 100.752L162.345 100.733L162.304 100.746L162.273 100.768L162.245 100.783L162.219 100.806L162.212 100.826L162.206 100.86L162.167 100.892L162.151 100.902L162.098 100.902L162.08 100.899L162.063 100.903L162.045 100.912L162.029 100.902H162.027L161.986 100.897L161.979 100.905L161.98 100.921L161.983 100.939L161.986 100.992L161.997 101.061L162.003 101.147L162.004 101.158L162.021 101.303L162.043 101.427L162.053 101.449L162.074 101.478L162.18 101.543L162.23 101.598L162.291 101.655L162.3 101.667L162.297 101.799L162.288 101.857L162.283 101.867L162.285 101.883L162.357 101.935L162.503 102.05L162.571 102.069L162.609 102.085L162.67 102.129L162.865 102.227L162.972 102.285L162.994 102.303L163.003 102.313L163.001 102.323L162.991 102.335L162.985 102.354L162.969 102.386L162.919 102.46L162.902 102.475L162.876 102.491L162.836 102.502L162.761 102.531L162.696 102.577L162.625 102.656L162.598 102.716L162.584 102.765L162.564 102.893L162.534 102.893L162.46 102.886L162.336 102.88L162.289 102.883L162.242 102.885L162.181 102.896L162.102 102.902L161.994 102.919L161.876 102.961L161.82 102.987L161.818 102.988L161.763 103.014L161.69 103.06L161.627 103.091L161.55 103.116L161.529 103.119L161.483 103.105L161.466 103.103L161.443 103.093L161.292 103.059L161.135 103L161.001 102.989L160.857 102.969L160.794 102.948L160.716 102.923L160.713 102.918L160.676 102.855L160.665 102.804L160.662 102.773L160.668 102.75L160.663 102.736L160.662 102.735L160.618 102.697L160.607 102.692L160.587 102.69L160.538 102.697L160.519 102.704L160.422 102.707L160.398 102.714L160.386 102.721L160.366 102.753L160.349 102.758L160.256 102.76L160.214 102.768L160.158 102.783L160.134 102.798L160.086 102.834L160.035 102.892L160.015 102.936L160.011 102.941L159.955 102.927L159.924 102.915L159.915 102.911L159.875 102.896L159.621 102.817L159.397 102.759L159.365 102.75L159.353 102.746L159.244 102.716L159.136 102.712L159.13 102.712L159.102 102.719L159.008 102.782L158.923 102.817L158.881 102.829L158.804 102.838L158.78 102.837L158.776 102.837L158.587 102.825L158.518 102.84L158.439 102.907L158.254 103.098L158.212 103.136L158.107 103.264L158.023 103.316L157.965 103.341L157.954 103.346L157.902 103.369L157.857 103.379L157.794 103.384L157.726 103.365L157.718 103.363L157.676 103.342L157.619 103.32L157.562 103.299L157.532 103.281L157.383 103.232L157.367 103.226L157.185 103.138L157.139 103.109L157.013 103.054L156.843 103.001L156.745 102.976L156.593 102.924L156.522 102.911L156.48 102.899L156.338 102.897L156.255 102.908L156.201 102.922L156.203 102.915L156.206 102.91L156.239 102.831L156.26 102.783L156.251 102.721L156.248 102.623L156.318 102.506L156.414 102.366L156.522 102.205L156.574 102.128L156.667 101.936L156.744 101.78L156.845 101.516L156.882 101.343L156.883 101.325L156.888 101.233L156.894 101.146L156.91 101.016L156.925 100.907L156.939 100.761L156.942 100.734L156.981 100.489L157.046 100.344L157.089 100.209L157.079 100.035V99.8855L157.107 99.7466L157.117 99.6269L157.088 99.5274L157.119 99.371L157.123 99.3536L157.206 99.2537L157.232 99.2439V99.2204L157.23 99.1477L157.24 99.0821L157.266 99.0171L157.404 98.8914L157.378 98.7347L157.373 98.6382L157.386 98.5077L157.379 98.4961L157.357 98.4566L157.345 98.295V98.2375L157.344 98.1381L157.349 98.0599L157.427 97.8299L157.433 97.8187L157.438 97.809L157.585 97.5115L157.682 97.304L157.757 97.0741L157.933 96.7995L158.063 96.6508L158.241 96.4439L158.293 96.3985L158.293 96.3974L158.306 96.3861L158.363 96.2166L158.48 96.0078L158.604 95.8506L158.76 95.7331L158.96 95.5817L158.968 95.5759L158.977 95.5701L159.128 95.4621L159.195 95.2927L159.232 95.1802L159.296 95.1018V95.0365L159.271 94.9318L159.273 94.9186L159.291 94.8393L159.312 94.7922L159.299 94.7136V94.6433L159.281 94.5781L159.438 94.579L159.492 94.7229L159.537 94.8159L159.573 94.8523L159.628 94.8786L159.689 94.9222L159.762 94.9656L159.789 94.9881L159.815 95.0262L159.853 95.0451L159.921 95.064L159.988 95.1206L160.022 95.1702L160.064 95.2835L160.09 95.3933L160.128 95.4881L160.157 95.5562L160.161 95.5592L160.222 95.6072L160.28 95.635L160.311 95.6441L160.323 95.6476L160.393 95.6677L160.511 95.6955L160.656 95.708L160.784 95.7333Z" fill="#D2E6FC"/>
<path d="M156.201 102.922L156.255 102.908L156.339 102.897L156.48 102.899L156.522 102.911L156.593 102.924L156.746 102.976L156.843 103.001L157.014 103.054L157.14 103.109L157.186 103.138L157.367 103.226L157.383 103.232L157.532 103.281L157.562 103.299L157.619 103.32L157.677 103.342L157.719 103.363L157.726 103.365L157.794 103.384L157.857 103.379L157.902 103.369L157.955 103.346L157.965 103.341L158.023 103.316L158.107 103.264L158.212 103.136L158.255 103.098L158.44 102.907L158.518 102.84L158.588 102.825L158.776 102.837L158.78 102.837L158.804 102.838L158.882 102.829L158.924 102.817L159.008 102.782L159.102 102.719L159.131 102.712L159.137 102.712L159.244 102.716L159.353 102.746L159.365 102.75L159.397 102.759L159.622 102.817L159.875 102.896L159.915 102.911L159.924 102.915L159.955 102.927L160.011 102.941L160.016 102.936L160.035 102.892L160.087 102.834L160.134 102.798L160.159 102.783L160.214 102.768L160.256 102.76L160.349 102.758L160.366 102.753L160.386 102.721L160.398 102.714L160.423 102.707L160.52 102.704L160.538 102.697L160.588 102.69L160.607 102.692L160.618 102.697L160.663 102.735L160.663 102.736L160.669 102.75L160.663 102.773L160.666 102.804L160.676 102.855L160.713 102.918L160.717 102.923L160.794 102.948L160.857 102.969L161.001 102.989L161.135 103L161.292 103.059L161.444 103.093L161.466 103.103L161.483 103.105L161.529 103.119L161.551 103.116L161.627 103.091L161.69 103.06L161.764 103.014L161.818 102.988L161.82 102.987L161.877 102.961L161.994 102.919L162.102 102.902L162.181 102.896L162.243 102.885L162.289 102.883L162.336 102.88L162.46 102.886L162.534 102.893L162.564 102.893L162.585 102.765L162.598 102.716L162.625 102.656L162.696 102.577L162.761 102.531L162.836 102.502L162.876 102.491L162.902 102.475L162.919 102.46L162.97 102.386L162.986 102.354L162.992 102.335L163.002 102.323L163.003 102.313L162.994 102.303L162.973 102.285L162.866 102.227L162.67 102.129L162.609 102.085L162.572 102.069L162.503 102.05L162.357 101.935L162.285 101.883L162.283 101.867L162.288 101.857L162.298 101.799L162.301 101.667L162.291 101.655L162.23 101.598L162.181 101.543L162.074 101.478L162.053 101.449L162.043 101.427L162.021 101.303L162.004 101.158L162.004 101.147L161.997 101.061L161.987 100.992L161.984 100.939L161.98 100.921L161.979 100.905L161.986 100.897L162.027 100.902H162.029L162.046 100.912L162.063 100.903L162.08 100.899L162.098 100.902L162.151 100.902L162.168 100.892L162.206 100.86L162.212 100.826L162.22 100.806L162.245 100.783L162.273 100.768L162.304 100.746L162.345 100.733L162.372 100.752L162.39 100.759H162.397L162.411 100.747L162.42 100.746L162.472 100.788L162.514 100.815L162.526 100.815L162.541 100.8L162.55 100.796L162.589 100.798L162.63 100.808L162.653 100.801L162.664 100.79L162.685 100.782L162.721 100.76L162.751 100.745L162.802 100.705L162.813 100.689L162.846 100.651L162.862 100.623L162.873 100.61L162.895 100.604L162.908 100.605L162.934 100.628L162.941 100.643L162.95 100.643L163.029 100.599L163.102 100.55L163.183 100.479L163.215 100.435L163.241 100.378L163.267 100.336L163.284 100.32L163.344 100.309L163.396 100.291L163.425 100.291L163.445 100.278L163.464 100.194L163.488 100.053L163.497 99.9633L163.493 99.9511L163.443 99.9451L163.385 99.9418V99.9294L163.397 99.8923L163.435 99.8164L163.509 99.6853L163.534 99.625L163.558 99.5646L163.553 99.5535L163.53 99.5457L163.471 99.5122L163.355 99.4673L163.285 99.4041L163.272 99.3646L163.271 99.345L163.277 99.3264L163.179 99.215L163.099 99.1091L163.045 99.0983L163.012 99.0916L163.003 99.0784L162.987 99.0685L162.965 99.0649L162.899 99.072L162.805 99.0474L162.782 99.0299L162.751 99.0207L162.738 99.022L162.712 99.025L162.693 99.0314L162.674 99.0338L162.641 99.0492L162.627 99.068L162.606 99.15V99.1656L162.596 99.1881L162.547 99.2095L162.455 99.2334L162.419 99.2369H162.341L162.249 99.2251L162.144 99.2237L162.111 99.2062L162.091 99.1763L162.071 99.1691L162.014 99.1634L161.977 99.1691L161.942 99.1898L161.899 99.198L161.884 99.2072L161.848 99.2689L161.819 99.3387L161.79 99.3925L161.772 99.3993L161.737 99.4057L161.719 99.4132L161.664 99.4192L161.584 99.4182L161.535 99.4092L161.497 99.4082L161.482 99.4036L161.43 99.4085L161.414 99.4192L161.406 99.4295L161.393 99.4954L161.384 99.5194L161.382 99.5265L161.369 99.5475L161.354 99.5617L161.316 99.5782L161.248 99.582L161.225 99.5963L161.189 99.633L161.165 99.6394L161.14 99.6387L161.072 99.6458L161.055 99.6451L161.051 99.6433L161.049 99.6422L161.033 99.6219L161.012 99.5806L160.957 99.509L160.95 99.494V99.4719L160.934 99.4491L160.919 99.4413L160.873 99.442L160.834 99.4178L160.775 99.4139L160.715 99.3964L160.694 99.3829L160.659 99.3697L160.637 99.3754L160.611 99.4L160.585 99.4135L160.535 99.4046L160.499 99.4135L160.484 99.4099L160.426 99.37L160.375 99.3629L160.328 99.3615L160.171 99.2913L160.153 99.2873L160.124 99.2734L160.1 99.2482L160.094 99.2421L160.093 99.1744L160.105 99.0818L160.126 99.0579L160.138 99.0208L160.155 98.9891L160.168 98.9716L160.176 98.9264V98.9096L160.182 98.9008L160.22 98.9025L160.231 98.8968L160.236 98.8808L160.24 98.8352L160.245 98.8213L160.256 98.8117L160.296 98.791L160.314 98.7714L160.328 98.7347L160.352 98.6912L160.352 98.6495L160.363 98.5872L160.377 98.5576L160.414 98.5355L160.662 98.4493L160.672 98.4407L160.888 98.0673L160.915 98.006L160.925 97.9732L160.954 97.8388L160.961 97.8133L160.992 97.6914L161.021 97.6172L161.045 97.5809L161.187 97.4575L161.224 97.4126L161.243 97.382L161.319 97.2894L161.349 97.2181L161.386 97.1468L161.394 97.1393L161.403 97.1404L161.409 97.1411L161.509 97.1857L161.542 97.2128L161.567 97.2726L161.593 97.2879L161.637 97.3218L161.68 97.3763L161.687 97.3941V97.4251L161.694 97.4484L161.713 97.4558L161.731 97.4633L161.815 97.4815L161.875 97.5064L161.889 97.5239L161.922 97.5745L161.936 97.582L161.972 97.5919L162.002 97.5959L162.19 97.6722L162.244 97.6971L162.292 97.7131L162.345 97.7175L162.375 97.7146L162.407 97.7053L162.465 97.6801L162.527 97.6854L162.534 97.6636L162.535 97.6476L162.546 97.6302L162.555 97.608L162.607 97.5657L162.614 97.545L162.621 97.5079L162.684 97.4659L162.734 97.421L162.775 97.3744L162.804 97.3485L162.834 97.3227L162.882 97.2628L162.908 97.2393L162.81 97.1405L162.737 97.0725L162.623 96.9748L162.527 96.9242L162.472 96.8789L162.42 96.8333L162.391 96.7955L162.365 96.7424L162.342 96.6647L162.319 96.5963L162.311 96.5346L162.305 96.4776L162.302 96.4017L162.311 96.3386L162.346 96.175L162.367 96.0538V95.9452L162.336 95.902L162.302 95.8596L162.259 95.8168L162.214 95.804L162.166 95.794L162.131 95.799L162.089 95.8015L162.046 95.804L161.923 95.8268L161.792 95.8546L161.711 95.8636L161.707 95.864L161.681 95.867L161.572 95.862L161.467 95.8367L161.402 95.8192L161.239 95.7661L161.159 95.7462L161.071 95.7258L160.993 95.7308L160.885 95.7358L160.785 95.7333L160.656 95.708L160.511 95.6955L160.393 95.6677L160.323 95.6476L160.311 95.6441L160.28 95.635L160.223 95.6072L160.162 95.5592L160.158 95.5562L160.128 95.4881L160.091 95.3933L160.064 95.2835L160.022 95.1702L159.988 95.1206L159.921 95.064L159.853 95.0451L159.815 95.0262L159.789 94.9881L159.762 94.9656L159.689 94.9222L159.629 94.8786L159.574 94.8523L159.537 94.8159L159.493 94.7229L159.438 94.579L159.281 94.5781L159.299 94.6433V94.7136L159.312 94.7922L159.292 94.8393L159.273 94.9186L159.271 94.9318L159.296 95.0365V95.1018L159.232 95.1802L159.196 95.2927L159.128 95.4621L158.977 95.5701L158.969 95.5759L158.96 95.5817L158.76 95.7331L158.604 95.8506L158.481 96.0078L158.363 96.2166L158.307 96.3861L158.294 96.3974L158.293 96.3985L158.242 96.4439L158.063 96.6508L157.933 96.7995L157.757 97.0741L157.682 97.304L157.586 97.5115L157.438 97.809L157.433 97.8187L157.428 97.8299L157.35 98.0599L157.344 98.1381L157.345 98.2375V98.295L157.357 98.4566L157.38 98.4961L157.386 98.5077L157.373 98.6382L157.378 98.7347L157.405 98.8914L157.267 99.0171L157.241 99.0821L157.231 99.1477L157.232 99.2204V99.2439L157.206 99.2537L157.123 99.3536L157.119 99.371L157.088 99.5274L157.118 99.6269L157.107 99.7466L157.079 99.8855V100.035L157.089 100.209L157.046 100.344L156.982 100.489L156.942 100.734L156.94 100.761L156.925 100.907L156.911 101.016L156.894 101.146L156.889 101.233L156.883 101.325L156.882 101.343L156.845 101.516L156.744 101.78L156.667 101.936L156.574 102.128L156.522 102.205L156.414 102.366L156.318 102.506L156.248 102.623L156.251 102.721L156.26 102.783L156.239 102.831L156.206 102.91L156.203 102.915L156.201 102.922Z" stroke="#6D94BC" stroke-width="0.916399"/>
</g>
<mask id="mask4_11_376" style="mask-type:luminance" maskUnits="userSpaceOnUse" x="4" y="68" width="192" height="64">
<path d="M5 69H195V130.948H5V69Z" fill="white" stroke="white" stroke-width="0.916399"/>
</mask>
<g mask="url(#mask4_11_376)">
<path d="M177.818 103.895L177.882 103.975L177.915 104.017L177.924 104.083L177.938 104.223L177.94 104.308H177.987H177.993L178.101 104.296L178.167 104.305L178.181 104.355L178.188 104.379L178.196 104.408L178.244 104.49L178.318 104.607L178.395 104.683L178.414 104.753L178.406 104.803L178.385 104.837L178.338 104.856L178.335 104.872L178.383 104.966L178.386 104.972L178.475 105.063L178.562 105.11L178.587 105.159L178.583 105.188L178.577 105.237L178.593 105.29L178.639 105.421L178.635 105.544L178.653 105.546L178.7 105.549L178.755 105.552L178.815 105.599L178.874 105.643L178.865 105.67L178.832 105.782L178.737 105.922L178.668 106.018L178.635 106.175L178.596 106.369L178.618 106.436L178.659 106.586L178.665 106.684L178.612 106.802L178.56 106.921L178.438 107.139L178.349 107.29L178.298 107.413L178.257 107.507L178.26 107.679L178.228 107.779L178.147 107.968L178.134 108.097L178.069 108.241L178.083 108.26L178.11 108.298L178.249 108.481L178.302 108.463L178.613 108.233L178.671 108.206L178.76 108.204L178.748 108.241L178.894 108.302L178.981 108.279L179.152 108.194L179.269 108.135L179.389 108.18L179.508 108.235L179.569 108.237L179.606 108.233L179.66 108.29L179.674 108.278L179.722 108.259L179.796 108.279L179.875 108.261L179.931 108.2L179.989 108.193L180.034 108.186L180.046 108.049L180.033 108.003L179.997 107.927L180.044 107.827L180.072 107.754L180.103 107.673L180.097 107.576L180.157 107.405L180.199 107.248L180.218 107.177L180.273 107.179L180.309 107.181L180.452 107.165L180.604 107.23L180.697 107.228L180.916 107.232L181.007 107.214L181.048 107.175L181.269 107.185L181.513 107.191L181.796 107.175L181.81 107.194L181.824 107.212L181.843 107.289L181.853 107.328L181.913 107.419L181.963 107.449L182.018 107.46L182.064 107.52L182.164 107.628L182.302 107.809L182.38 107.88L182.434 107.923L182.471 107.939L182.616 107.855L182.707 107.804L182.837 107.802L182.901 107.798L182.925 107.899L182.947 108.028L182.938 108.205L182.897 108.333L182.871 108.413L182.748 108.707L182.736 108.763L182.748 108.782L182.788 108.861L182.878 109.002L182.906 109.088L182.949 109.283L182.955 109.345L182.944 109.577L182.917 109.694L182.843 109.883L182.798 109.909L182.733 109.947L182.602 110.001L182.49 110.045L182.484 110.047L182.483 110.048L182.398 110.057L182.347 110.094L182.304 110.085L182.26 110.043L182.204 110.012L182.148 109.989L182.115 109.958L182.096 109.912L182.066 109.843L182.009 109.785L181.983 109.711L181.962 109.623L181.947 109.506L181.93 109.413L181.912 109.315L181.866 109.249L181.838 109.252L181.76 109.285L181.756 109.29L181.737 109.309L181.555 109.427L181.431 109.521L181.336 109.632L181.303 109.707L181.293 109.799L181.249 109.989L181.163 110.11L181.159 110.191L181.167 110.479L181.121 110.549L180.997 110.687L180.945 110.734L180.892 110.741L180.816 110.739L180.806 110.739L180.798 110.739L180.716 110.71L180.695 110.704L180.578 110.657L180.566 110.652L180.416 110.603L180.351 110.589L180.351 110.595L180.356 110.643L180.328 110.763L180.3 110.824L180.299 110.863L180.304 110.946L180.299 111.026L180.267 111.106L180.198 111.175L180.193 111.213L180.19 111.264L180.165 111.31L180.089 111.521L180.078 111.55L180.039 111.633L179.964 111.714L179.904 111.732L179.84 111.738L179.741 111.75L179.674 111.785L179.559 111.857L179.493 111.884L179.413 111.886L179.299 111.893L179.107 111.894L179.076 111.907L179.052 111.93L178.952 112.091L178.892 112.187L178.793 112.306L178.713 112.371L178.663 112.394L178.657 112.43L178.64 112.456L178.595 112.489L178.586 112.496L178.559 112.502L178.562 112.508L178.58 112.562L178.583 112.576L178.594 112.671L178.555 112.792L178.505 112.862L178.449 112.931L178.357 112.961L178.288 112.999L178.239 113.054L178.179 113.16L178.137 113.241L178.089 113.314L178.066 113.338L178.03 113.354L177.949 113.374L177.933 113.382L177.932 113.382L177.921 113.387L177.882 113.401L177.842 113.455L177.831 113.507L177.825 113.657L177.843 113.702L177.877 113.735L177.91 113.749L177.914 113.781L177.91 113.79L177.887 113.807L177.869 113.824L177.867 113.862L177.937 113.938L177.969 113.985L177.962 114.034L177.902 114.096L177.878 114.117L177.872 114.15L177.873 114.189L177.875 114.193L177.873 114.194L177.797 114.205L177.604 114.215L177.423 114.263L177.254 114.389L177.248 114.393L177.233 114.381L177.204 114.375L177.174 114.373L177.171 114.373L177.139 114.375L177.126 114.375L177.094 114.372L177.091 114.369L177.068 114.361L177.057 114.349L177.037 114.339L177.005 114.332L176.968 114.324L176.922 114.256L176.877 114.137L176.743 114.068L176.661 114.052L176.477 114.036L176.235 114.001L176.001 114.001L175.879 113.976L175.872 113.974L175.861 113.972L175.614 114.193L175.54 114.241L175.391 114.28L175.354 114.315L175.312 114.401L175.291 114.541L175.275 114.608L175.189 114.631L175.081 114.663L175.001 114.864L174.974 114.978L174.96 115.04L174.958 115.045L174.952 115.071L174.945 115.103L174.884 115.228L174.761 115.451L174.741 115.492L174.719 115.537L174.709 115.722L174.712 115.783L174.686 115.877L174.675 115.917L174.596 116.077L174.516 116.192L174.421 116.303L174.335 116.415L174.329 116.415L174.301 116.383L174.281 116.406L174.276 116.411L174.257 116.434V116.445L174.258 116.46L174.26 116.485L174.271 116.503L174.386 116.67L174.51 116.801L174.583 116.862L174.716 116.928L174.909 116.989L175.049 116.98L175.052 117.034L175.119 117.261L175.173 117.503L175.195 117.608L175.237 117.742L175.246 117.822L175.247 118.007L175.291 118.265L175.256 118.491L175.238 118.634L175.237 118.639L175.244 118.709L175.274 118.858L175.279 118.885L175.2 118.987L175.134 119.081L175.114 119.111L175.113 119.117L175.109 119.185L175.105 119.248L175.111 119.382L175.101 119.503L175.171 119.583L175.26 119.65L175.337 119.71L175.359 119.727L175.373 119.737L175.403 119.759L175.469 119.79L175.514 119.803L175.647 119.873L175.872 120.001L176.005 120.049L176.009 120.047L176.071 120.008L176.088 119.998L176.13 119.931L176.131 119.902L176.138 119.784L176.161 119.608L176.178 119.589L176.228 119.532L176.265 119.452L176.27 119.429L176.284 119.347L176.3 119.2L176.318 119.178L176.383 119.101V119.066V119.025L176.389 118.894L176.412 118.839L176.418 118.824L176.428 118.792L176.468 118.664L176.473 118.658L176.509 118.61L176.817 118.686L177.046 118.801L177.084 118.839L177.125 118.948L177.185 119.072L177.284 119.321L177.309 119.379L177.28 119.481L177.287 119.551L177.322 119.621L177.324 119.628L177.389 119.652L177.443 119.671L177.446 119.672L177.486 119.69L177.507 119.69L177.524 119.697L177.526 119.698L177.535 119.702L177.582 119.724L177.674 119.74L177.801 119.854L177.868 119.877L177.944 119.931L177.998 119.95L178.112 119.95L178.151 119.941L178.201 119.931L178.328 119.896L178.474 119.845L178.537 119.813L178.642 119.823L178.819 119.941L178.854 120.011L178.965 120.18L179.05 120.275L179.155 120.291L179.199 120.269L179.217 120.209L179.253 120.09L179.263 119.982L179.189 119.852L179.187 119.848L179.158 119.784L179.136 119.736L179.168 119.628L179.2 119.478L179.21 119.472L179.285 119.43L179.323 119.379L179.349 119.35H179.453L179.482 119.334V119.285V119.28L179.45 119.245L179.437 119.185L179.434 119.06L179.458 119.01L179.459 119.006L179.589 118.878L179.695 118.811L179.767 118.856L179.792 118.856L179.859 118.818L180.044 118.661L180.141 118.594L180.341 118.846L180.443 118.91L180.503 118.916L180.516 118.917L180.542 118.911L180.598 118.898L180.706 118.862L180.716 118.85L180.74 118.824L180.776 118.783L180.793 118.727L180.813 118.658L180.824 118.637L180.893 118.496L180.982 118.409L181.137 118.285L181.124 118.251L181.087 118.157L181.01 118.004L180.96 117.899L180.941 117.787L180.922 117.725L180.906 117.724L180.784 117.714L180.763 117.713L180.624 117.684L180.548 117.46L180.452 117.135V116.991L180.439 116.711L180.433 116.519L180.455 116.305L180.48 116.047L180.498 116.04L180.728 115.942L180.816 115.904L180.849 116.06L180.89 116.147L181.143 116.277L181.235 116.306L181.366 116.322L181.524 116.415L181.559 116.444L181.825 116.239L181.827 116.238L181.857 116.221L181.905 116.194L181.943 116.23L182.237 116.622L182.269 116.632L182.526 116.389L182.884 116.035L183.091 115.853L183.104 115.866L183.116 115.879L183.123 115.922L183.136 116.063L183.123 116.264L183.146 116.33L183.163 116.349L183.166 116.354L183.18 116.378L183.203 116.405L183.22 116.441L183.223 116.451L183.234 116.501L183.236 116.51L183.305 116.598L183.326 116.625L183.386 116.599L183.529 116.567L183.716 116.555L183.757 116.583L183.868 116.679L183.906 116.756L183.903 116.847V116.848L183.849 116.992L183.834 117.022L183.805 117.081L183.821 117.089L183.887 117.119H183.941L183.986 117.107L184.055 116.992L184.087 116.944L184.144 116.944L184.216 116.982L184.279 116.943L184.28 116.942L184.342 116.926L184.422 116.913L184.519 116.903L184.595 116.907L184.698 116.888L184.729 116.867L184.765 116.828L184.785 116.793L184.823 116.704L184.884 116.743L184.946 116.782L185.018 116.826L185.08 116.822L185.1 116.817L185.23 116.882L185.293 116.915L185.347 116.938L185.356 116.947L185.389 116.98L185.411 116.996L185.419 117.001L185.453 117.032L185.489 117.073L185.508 117.094L185.536 117.118L185.668 117.294L185.757 117.338L185.909 117.425L185.931 117.437L185.973 117.412L186.045 117.329L186.292 117.454L186.441 117.473L186.555 117.492L186.746 117.61L186.762 117.783L186.777 117.928L186.78 117.958L186.755 117.989L186.739 118.009L186.733 118.05L186.723 118.115L186.717 118.174L186.717 118.178L186.593 118.494L186.517 118.648L186.482 118.73L186.203 118.976L186.105 119.085L186.006 119.168L185.844 119.324L185.692 119.279L185.512 119.234L185.293 119.237L184.929 119.298L184.68 119.316L184.674 119.317L184.671 119.317L184.608 119.514L184.574 119.739L184.57 119.764L184.535 119.831L184.421 119.901L184.375 119.956L184.355 119.981L184.348 120.079L184.329 120.294V120.376L184.29 120.657L184.294 120.732L184.297 120.801L184.3 120.859L184.319 121.094L184.332 121.205L184.361 121.433L184.411 121.592L184.452 121.653L184.475 121.731L184.479 121.771L184.481 121.781L184.468 121.807L184.445 121.857L184.442 121.911L184.45 121.94L184.455 121.956L184.461 121.981L184.47 122.008L184.476 122.027L184.474 122.059L184.53 122.126L184.6 122.199L184.669 122.227L184.717 122.231L184.784 122.202L184.885 122.189L184.955 122.221L185.04 122.225L185.17 122.28L185.246 122.305L185.316 122.42L185.347 122.468L185.398 122.474L185.433 122.493L185.465 122.532L185.534 122.713L185.558 122.746L185.579 122.776L185.605 122.812L185.658 122.835L185.741 122.863L185.817 122.838L186.013 122.816L186.058 122.798L186.187 122.831L186.463 122.882L186.462 122.995L186.465 123.048L186.463 123.053L186.46 123.058L186.431 123.256L186.412 123.45L186.368 123.593L186.366 123.595L186.364 123.598L186.348 123.854L186.355 123.895L186.371 123.996L186.307 124.353L186.277 124.548V124.555L186.276 124.562L186.264 124.642L186.236 124.839L186.209 125.093V125.096V125.099L186.182 125.322L186.17 125.386L186.154 125.519L186.153 125.531V125.532L186.139 125.558L185.941 125.794L185.935 125.802L185.786 125.955L185.683 126.034L185.572 126.06L185.443 126.089L185.429 126.092L185.362 126.107L185.299 126.121L185.248 126.205L185.231 126.232L185.208 126.27L185.207 126.272L185.202 126.27L184.984 126.194L184.7 126.104L184.649 126.103L184.607 126.102L184.587 126.101L184.59 126.211L184.622 126.374L184.638 126.471L184.639 126.477L184.64 126.483L184.626 126.513L184.575 126.548L184.587 126.627L184.555 126.716L184.537 126.763L184.548 126.914L184.511 127.08L184.527 127.256L184.526 127.256L184.526 127.256L184.429 127.54L184.411 127.592L184.524 127.758L184.525 127.761L184.526 127.764L184.643 127.847L184.691 127.827L184.851 127.943L184.797 128.204L184.782 128.271L184.772 128.312L184.764 128.346L184.753 128.33L184.742 128.315L184.632 128.319L184.594 128.268L184.532 128.256L184.5 128.296L184.49 128.302L184.481 128.308L184.421 128.298L184.407 128.293L184.393 128.289L184.351 128.303L184.34 128.348L184.331 128.357L184.321 128.366L184.235 128.324L184.202 128.291L184.153 128.31L184.133 128.34L184.123 128.342L184.112 128.345L184.099 128.351L184.034 128.38L184.019 128.38L184.006 128.381L183.934 128.392L183.91 128.407L183.901 128.453L183.896 128.455L183.857 128.472L183.835 128.543L183.825 128.548L183.821 128.548L183.817 128.548L183.807 128.547L183.805 128.543L183.782 128.479L183.751 128.388L183.724 128.308L183.722 128.304L183.72 128.299L183.713 128.214L183.708 128.16L183.7 128.159L183.693 128.159L183.611 128.193L183.538 128.22L183.49 128.204L183.441 128.185L183.38 128.176L183.379 128.176L183.374 128.176L183.369 128.175L183.284 128.156L183.273 128.154L183.269 128.153L183.259 128.137L183.227 128.096L183.227 128.095L183.222 128.088L183.217 128.081L183.191 128.047L183.184 128.04L183.178 128.032L183.136 127.984L183.079 127.895L183.067 127.877L183.051 127.859L182.992 127.872L182.981 127.875L182.978 127.875L182.972 127.876L182.963 127.878L182.962 127.878L182.951 127.88L182.934 127.885L182.894 127.894L182.877 127.899L182.868 127.902L182.857 127.901L182.853 127.896L182.852 127.896L182.835 127.876L182.831 127.871L182.829 127.864L182.828 127.861L182.826 127.856L182.826 127.855L182.793 127.768L182.769 127.694L182.741 127.515L182.738 127.496L182.736 127.491V127.489V127.483L182.727 127.48L182.686 127.464L182.681 127.462L182.68 127.461L182.677 127.458L182.674 127.454L182.611 127.383L182.604 127.375L182.598 127.368L182.564 127.357L182.535 127.346L182.397 127.299L182.267 127.285L182.225 127.256L182.216 127.25L182.215 127.249L182.207 127.224L182.206 127.222L182.206 127.219L182.215 127.197L182.268 127.064L182.261 127.059L182.252 127.054L182.167 127.064L182.094 126.877L182.078 126.769L182.069 126.706L182.031 126.722L182.01 126.669L181.936 126.597L181.876 126.538L181.875 126.521V126.505L181.978 126.428L182.076 126.335L182.087 126.311L182.085 126.298L182.082 126.286L182.054 126.265L181.959 126.238L181.912 126.182L181.872 126.134L181.816 126.13L181.705 126.05L181.679 126.031L181.636 126.071L181.641 126.353V126.358L181.557 126.419L181.494 126.436L181.288 126.276L181.285 126.29L181.283 126.295L181.278 126.291L181.275 126.289L181.271 126.286L181.251 126.262L181.227 126.233L181.206 126.118L181.201 125.953L181.191 125.941L181.181 125.928L181.121 125.911L181.117 125.91L181.106 125.907L181.042 125.923L181.009 126.019L181.005 126.03L180.962 126.048L180.889 126.027L180.81 126.034L180.797 126.027L180.782 126.021L180.723 125.891L180.719 125.83L180.758 125.776L180.777 125.727L180.809 125.578L180.806 125.535L180.781 125.493L180.735 125.453L180.732 125.451L180.635 125.426L180.575 125.445L180.558 125.45L180.508 125.466L180.403 125.649L180.343 125.741L180.325 125.783L180.312 125.814L180.267 125.816L180.147 125.768L180.073 125.682L180.061 125.669L179.989 125.649L179.927 125.677L179.894 125.729L179.848 125.917L179.867 126.001L179.854 126.042L179.843 126.078L179.824 126.112L179.583 126.041L179.506 126.037L179.504 126.036L179.5 126.036L179.449 126.057L179.462 126.311L179.451 126.325L179.441 126.338L179.293 126.334L179.142 126.279L179.102 126.248L179.096 126.253L179.09 126.258L179.087 126.26L179.08 126.266L179.051 126.291L178.966 126.359L178.93 126.407L178.926 126.405L178.923 126.403L178.913 126.453L178.929 126.509L178.923 126.58L178.913 126.625L178.915 126.627L178.927 126.647L178.891 126.629L178.876 126.607L178.865 126.556L178.866 126.524V126.515V126.491L178.852 126.473L178.849 126.47L178.845 126.458L178.84 126.446L178.667 126.322L178.597 126.375L178.521 126.433L178.49 126.411L178.49 126.411L178.516 126.389L178.557 126.315L178.477 126.119L178.46 126.067L178.479 126.012L178.488 125.87L178.497 125.717L178.519 125.517V125.512V125.508L178.488 125.358L178.379 125.262L178.31 125.196L178.267 125.153L178.266 125.152L178.264 125.151L178.209 125.067L178.102 125.078L178.099 125.078L178.096 125.077L178.002 125.093L177.824 125.104L177.768 125.108L177.558 125.089L177.501 125.083L177.492 125.082L177.482 125.075L177.447 125.052L177.324 125.009L177.181 125.047L177.11 125.065L177.013 125.06L176.855 125.055L176.84 125.064L176.825 125.072L176.758 125.029L176.7 124.993L176.697 124.991L176.695 124.989L176.684 124.988L176.66 124.985L176.633 124.981V124.958L176.606 124.775L176.576 124.788L176.564 124.79L176.552 124.793L176.526 124.798L176.523 124.795L176.52 124.791L176.513 124.796L176.512 124.797L176.456 124.798L176.396 124.754L176.36 124.727L176.343 124.722L176.325 124.718L176.225 124.687L176.086 124.681L175.957 124.666L175.946 124.665L175.935 124.663L175.838 124.65L175.688 124.631L175.649 124.605L175.611 124.579L175.603 124.574L175.594 124.568L175.581 124.559L175.575 124.555L175.439 124.464L175.436 124.463L175.381 124.426L175.379 124.425L175.357 124.41L174.775 124.389L174.758 124.389H174.757L174.737 124.388L174.733 124.388L174.728 124.388L174.708 124.486L174.684 124.601L174.677 124.632L174.655 124.73L174.568 125.165L174.558 125.217L174.537 125.326L174.497 125.536L174.492 125.582L174.483 125.717L174.479 125.775V125.785L174.443 126.555L174.427 126.965L174.424 127.109L174.423 127.16L174.391 127.232L174.312 127.182L174.211 127.116L174.15 127.078L174.095 127.085L174.014 127.096L173.916 127.108L173.84 127.118L173.784 127.093L173.734 127.07L173.675 127.044L173.62 127.02L173.533 126.941L173.48 126.896L173.428 126.815L173.426 126.813L173.423 126.81L173.369 126.72L173.237 126.484L173.142 126.322L173.097 126.277L173.092 126.274L173.088 126.271L173.03 126.222L172.993 126.171L172.958 126.097L172.935 126.052L172.923 126.027V126.025V126.024L172.901 125.979L172.795 125.878L172.793 125.876L172.792 125.874L172.769 125.86L172.754 125.852L172.751 125.849L172.748 125.847L172.677 125.804L172.676 125.804H172.673L172.545 125.734L172.496 125.699L172.495 125.698L172.492 125.695L172.375 125.581L172.354 125.463L172.309 125.311L172.262 125.165L172.26 125.163L172.258 125.162L172.222 125.124L172.185 125.086L172.179 125.08L172.168 125.065L172.129 125.017L172.105 124.987L172.097 124.978L172.09 124.969L172.02 124.944L172.011 124.941L172.006 124.941L171.993 124.941L171.991 124.942L171.983 124.931L171.966 124.91L171.959 124.901L171.951 124.891L171.933 124.869L171.931 124.867L171.93 124.865L171.929 124.865L171.927 124.863L171.889 124.829L171.887 124.827L171.846 124.793L171.796 124.75L171.79 124.745L171.784 124.741L171.742 124.713L171.699 124.683L171.691 124.677L171.661 124.655L171.662 124.65L171.663 124.646L171.655 124.593L171.654 124.586L171.652 124.578L171.649 124.546L171.648 124.544L171.646 124.541L171.644 124.536L171.643 124.531L171.633 124.49L171.637 124.464L171.639 124.458L171.644 124.402V124.394L171.643 124.391L171.642 124.39L171.637 124.35L171.601 124.263L171.596 124.25L171.591 124.237L171.575 124.207L171.574 124.203L171.572 124.2L171.55 124.166L171.529 124.135L171.525 124.128L171.521 124.121L171.52 124.119L171.499 124.074L171.497 124.07L171.495 124.065L171.459 123.995L171.419 123.923L171.404 123.921L171.397 123.915L171.397 123.915L171.389 123.909L171.387 123.902V123.898L171.378 123.89L171.358 123.872L171.354 123.869L171.345 123.861L171.336 123.852L171.324 123.837L171.303 123.808L171.3 123.804L171.298 123.803L171.288 123.79L171.287 123.789L171.285 123.788L171.274 123.773L171.271 123.768L171.261 123.754L171.251 123.744L171.249 123.743L171.218 123.713L171.216 123.709L171.207 123.705L171.181 123.692L171.174 123.689L171.174 123.689L171.162 123.679L171.159 123.68L171.158 123.68L171.151 123.678L171.145 123.676L171.128 123.658L171.124 123.655L171.121 123.652L171.117 123.649L171.074 123.611L171.067 123.606L171.06 123.596L171.037 123.562L171.034 123.558L171.032 123.553L171.016 123.544L171 123.534L170.983 123.528L170.977 123.526L170.966 123.528L170.945 123.53L170.943 123.527L170.938 123.524L170.936 123.522L170.925 123.513L170.919 123.509L170.912 123.518L170.909 123.523L170.899 123.537L170.896 123.543L170.896 123.524L170.895 123.521L170.878 123.516L170.848 123.501L170.84 123.497L170.835 123.496L170.837 123.495L170.838 123.494L170.833 123.489L170.829 123.487L170.823 123.486L170.816 123.486L170.797 123.468L170.791 123.463L170.786 123.459L170.77 123.46L170.751 123.461L170.745 123.463L170.742 123.461L170.735 123.449L170.712 123.42L170.702 123.409L170.705 123.397V123.396L170.704 123.396L170.703 123.392L170.704 123.391L170.706 123.388L170.706 123.383L170.703 123.381L170.699 123.377L170.701 123.33V123.327V123.323L170.7 123.316L170.699 123.284V123.274V123.263L170.696 123.214L170.693 123.172L170.692 123.149V123.146L170.686 123.138L170.68 123.132L170.67 123.119L170.669 123.102V123.093L170.668 123.078L170.667 123.036L170.667 123.032L170.66 123.01L170.65 122.978L170.639 122.946L170.635 122.936L170.632 122.926L170.623 122.9L170.61 122.857L170.602 122.845L170.596 122.834L170.592 122.81L170.589 122.78L170.583 122.774L170.583 122.774L170.605 122.647L170.619 122.565L170.683 122.504L170.694 122.495L170.706 122.485L170.711 122.481L170.751 122.443L170.759 122.439L170.768 122.436L170.791 122.431L170.815 122.426L170.823 122.423L170.833 122.419L170.838 122.417H170.842H170.87L170.887 122.417L170.893 122.415L170.899 122.412L170.923 122.413L170.96 122.415L170.967 122.412L170.974 122.408L171.012 122.385L171.088 122.351L171.132 122.321L171.168 122.315L171.185 122.308L171.201 122.301L171.219 122.292L171.308 122.248L171.316 122.246L171.325 122.244L171.344 122.24V122.236V122.23L171.345 122.23L171.359 122.217L171.449 122.183L171.45 122.183L171.459 122.179L171.468 122.175L171.54 122.128L171.557 122.116L171.579 122.1L171.581 122.099L171.612 122.06L171.618 122.055L171.624 122.05L171.58 121.97L171.566 121.925L171.55 121.87L171.546 121.857L171.536 121.825L171.529 121.753L171.509 121.699L171.456 121.653L171.417 121.649L171.341 121.712L171.324 121.709L171.307 121.706L171.255 121.662L171.107 121.573L171.017 121.552L170.986 121.521L170.952 121.451L170.948 121.432L170.937 121.376L170.929 121.353L170.905 121.277L170.89 121.201L170.878 121.199L170.868 121.198L170.864 121.195L170.844 121.183L170.841 121.181L170.835 121.177L170.828 121.176L170.824 121.175L170.82 121.174L170.817 121.171L170.72 121.106L170.708 121.098L170.696 121.09L170.59 121.026L170.584 121.026L170.573 121.026L170.559 121.025L170.519 121.019L170.463 121.01L170.466 121.025L170.463 121.034L170.458 121.051L170.422 121.09L170.415 121.098L170.407 121.107L170.388 121.131L170.386 121.134L170.361 121.167L170.358 121.172L170.35 121.188L170.349 121.189L170.337 121.201L170.273 121.253L170.248 121.321L170.227 121.41L170.224 121.42L170.221 121.43L170.227 121.469L170.261 121.548L170.289 121.596L170.308 121.689L170.305 121.729L170.304 121.833L170.302 121.838L170.299 121.843L170.272 121.894L170.24 121.958L170.238 121.964L170.236 121.97L170.234 121.976L170.218 122.017L170.214 122.034L170.211 122.05L170.2 122.094L170.192 122.185L170.19 122.231V122.233L170.187 122.249L170.184 122.266L170.176 122.349L170.175 122.368L170.174 122.375L170.172 122.381L170.157 122.465L170.147 122.521L170.128 122.623L170.107 122.742L170.092 122.822L170.081 122.881L170.076 122.882L170.075 122.887L170.073 122.89L170.064 122.909L170.063 122.912L170.05 122.963L170.043 122.984L170.036 122.985L170.015 122.989L169.974 122.996L169.899 123.008L169.884 123.01L169.869 123.012L169.817 123.019L169.788 123.026L169.743 123.029L169.47 123.076L169.291 123.111L169.14 123.142L169.083 123.192L169.031 123.237L169.015 123.251L169.003 123.288L168.999 123.295L168.974 123.371L168.774 123.31L168.637 123.278L168.559 123.218L168.479 123.157L168.473 123.153L168.466 123.149L168.448 123.093L168.43 123.032L168.376 122.856L168.351 122.779L168.346 122.723L168.335 122.637L168.334 122.632L168.334 122.626L168.333 122.618L168.323 122.529L168.321 122.522L168.321 122.515L168.29 122.498L168.253 122.479L168.247 122.466L168.241 122.456L168.237 122.45L168.155 122.445L168.091 122.44L168.079 122.438L168.077 122.437L168.075 122.436V122.433V122.431L168.027 122.393L167.975 122.352L167.956 122.327V122.324L167.965 122.312L167.975 122.301L167.954 122.288L167.946 122.283L167.95 122.278L167.952 122.275L167.951 122.266L167.934 122.19L167.92 122.14L167.92 122.135L167.918 122.13L167.869 122.095L167.859 122.088L167.859 122.087L167.858 122.085L167.802 121.991L167.796 121.98L167.794 121.977L167.788 121.966L167.784 121.962L167.751 121.757L167.766 121.676L167.789 121.548L167.799 121.496L167.8 121.49L167.801 121.484L167.807 121.456L167.814 121.443L167.821 121.429L167.853 121.366L167.885 121.304L167.888 121.297L167.894 121.285L167.901 121.27L167.923 121.225L167.974 121.125L168.015 121.038L168.065 120.926L168.084 120.882L168.087 120.875L168.09 120.867L168.124 120.786L168.162 120.728L168.175 120.707L168.2 120.668L168.205 120.661L168.24 120.605L168.268 120.561L168.275 120.549L168.282 120.537L168.31 120.496L168.337 120.45L168.346 120.434L168.355 120.418L168.405 120.313L168.409 120.304L168.411 120.3L168.431 120.263L168.483 120.167L168.485 120.164L168.538 120.066L168.561 120.023L168.573 120L168.628 119.89L168.635 119.878L168.646 119.855L168.659 119.827L168.754 119.635L168.755 119.633V119.631L168.736 119.371L168.72 119.259V119.254L168.708 119.174L168.696 119.088L168.695 119.001V118.994L168.696 118.907L168.697 118.82L168.696 118.807L168.692 118.738L168.691 118.696V118.688L168.692 118.674L168.698 118.627L168.705 118.563L168.705 118.556L168.71 118.522L168.715 118.492L168.843 118.288L168.845 118.284L168.848 118.281L168.938 118.184L168.936 118.142L168.929 118.006L168.81 117.946L168.807 117.947L168.805 117.947L168.735 117.961L168.649 117.977L168.575 117.951L168.515 117.93L168.453 117.868L168.392 117.835L168.354 117.811L168.351 117.808L168.348 117.808L168.307 117.815L168.301 117.816L168.296 117.817L168.292 117.818L168.25 117.817L168.243 117.816L168.234 117.814L168.228 117.815L168.224 117.815L168.156 117.833L168.081 117.852L168.007 117.872L168.003 117.873L168 117.873L167.973 117.882L167.935 117.895L167.933 117.895L167.923 117.894L167.919 117.894L167.917 117.896L167.914 117.903L167.878 117.86L167.833 117.805L167.753 117.6L167.769 117.536L167.763 117.486L167.771 117.431L167.766 117.422L167.761 117.414L167.785 117.348L167.787 117.344L167.793 117.343L167.805 117.341L167.818 117.258L167.822 117.129L167.795 117.061V117.058L167.794 117.055L167.783 117.022L167.781 117.02L167.778 117.018L167.752 116.967L167.739 116.943L167.736 116.938L167.733 116.933L167.729 116.877L167.723 116.803L167.72 116.802L167.72 116.799L167.717 116.787L167.703 116.728L167.696 116.699L167.694 116.695L167.693 116.691L167.683 116.603L167.698 116.542L167.699 116.539L167.692 116.531L167.688 116.527L167.686 116.524L167.684 116.51L167.68 116.465L167.683 116.44L167.681 116.424V116.417L167.68 116.412L167.679 116.406L167.714 116.338L167.723 116.234L167.731 116.198L167.736 116.175L167.76 116.12L167.759 116.12L167.759 116.12L167.763 116.109L167.768 116.099L167.752 116.013L167.773 115.971L167.792 115.935L167.846 115.829L167.812 115.758L167.822 115.739L167.837 115.71L167.875 115.741L167.904 115.684L167.932 115.626L167.962 115.555L168.024 115.414L168.026 115.397L168.029 115.372L168.025 115.137L168.047 115.045L168.081 114.898L168.099 114.805L168.112 114.698L168.13 114.542L168.102 114.474L168.053 114.395L167.988 114.34L167.888 114.252L167.733 114.112L167.624 113.92L167.564 113.713L167.346 113.626L167.313 113.578L167.245 113.488L166.878 113.328L166.73 113.267L166.711 113.259L166.617 113.221L166.263 113.062L166.035 112.97L165.844 112.972L165.837 113L165.654 113L165.587 113.001L165.519 113.002L165.52 112.965L165.484 112.959L165.508 112.896L165.507 112.895L165.439 112.837L165.412 112.855L165.391 112.826L165.381 112.774L165.349 112.603L165.3 112.562L165.219 112.502L165.202 112.485L165.195 112.444L165.183 112.398L165.181 112.388L165.177 112.37L165.174 112.352L165.157 112.34L165.154 112.336L165.119 112.297L165.09 112.255L165.088 112.246L165.079 112.201L165.075 112.183L165.068 112.153L165.029 112.08L165.003 112.041L164.969 111.995L164.944 111.968L164.901 111.971L164.868 111.982H164.853L164.843 111.977L164.833 111.942L164.831 111.933L164.815 111.929H164.8L164.661 111.912L164.649 111.901L164.621 111.888L164.613 111.878L164.605 111.859L164.594 111.819L164.583 111.798L164.578 111.772V111.756L164.591 111.715L164.597 111.696L164.593 111.645L164.585 111.627L164.581 111.616L164.56 111.585L164.55 111.546V111.526L164.55 111.506L164.536 111.493L164.518 111.475L164.475 111.453L164.443 111.451L164.424 111.445L164.416 111.427L164.408 111.398V111.363L164.402 111.331L164.392 111.313L164.369 111.291L164.349 111.275L164.345 111.276L164.341 111.287L164.343 111.311L164.329 111.324L164.318 111.322L164.311 111.297L164.307 111.262L164.288 111.22L164.254 111.177L164.23 111.155V111.138V111.105L164.24 111.082L164.232 111.042L164.185 111.002L164.147 110.976L164.135 110.975L164.12 110.965L164.115 110.944L164.119 110.895L164.127 110.837L164.122 110.819L164.108 110.814L164.101 110.806L164.109 110.782L164.126 110.762L164.133 110.751L164.146 110.727L164.16 110.708L164.167 110.689L164.164 110.676L164.15 110.65L164.141 110.638L164.14 110.625L164.146 110.604L164.151 110.591L164.165 110.574L164.17 110.564L164.18 110.561L164.196 110.56L164.225 110.561L164.243 110.557L164.279 110.545L164.307 110.542L164.338 110.541L164.379 110.545L164.408 110.53L164.438 110.512L164.455 110.479L164.458 110.46L164.464 110.439L164.472 110.413L164.474 110.394L164.478 110.369L164.484 110.354L164.501 110.346L164.502 110.346L164.519 110.342L164.527 110.339L164.528 110.286L164.529 110.242V110.163V110.135L164.538 110.134L164.548 110.134L164.585 110.135H164.634L164.677 110.131L164.717 110.12L164.747 110.105L164.76 110.093L164.764 110.02L164.763 109.968L164.765 109.942L164.766 109.931L164.777 109.919L164.792 109.908L164.819 109.897L164.838 109.893L164.847 109.895L164.87 109.917L164.878 109.927L164.893 109.928L164.912 109.922L164.928 109.913L164.934 109.893L164.96 109.887L165.003 109.877L165.043 109.869L165.164 109.82L165.187 109.807L165.194 109.79L165.201 109.769L165.203 109.765L165.22 109.779L165.226 109.79L165.239 109.786L165.261 109.771L165.293 109.75L165.321 109.731L165.367 109.7L165.387 109.668L165.423 109.616L165.439 109.564L165.455 109.515L165.48 109.46L165.495 109.41L165.51 109.372L165.512 109.343L165.526 109.315L165.532 109.284L165.54 109.249L165.55 109.226L165.559 109.201L165.571 109.182L165.601 109.153L165.621 109.134L165.64 109.12L165.663 109.108L165.685 109.1L165.712 109.104L165.722 109.112L165.743 109.105H165.765L165.79 109.103L165.813 109.094L165.828 109.093L165.844 109.075L165.859 109.059L165.868 109.053L165.877 109.046L165.894 109.045L165.934 109.05L165.949 109.052L166.06 109.063L166.119 109.097L166.169 109.12L166.227 109.134L166.285 109.141L166.333 109.166L166.34 109.188L166.346 109.243L166.385 109.297L166.405 109.322L166.427 109.353L166.472 109.394L166.488 109.417L166.534 109.43L166.551 109.465L166.569 109.501L166.585 109.529L166.612 109.526L166.66 109.54L166.698 109.583L166.721 109.61L166.745 109.608L166.788 109.581L166.818 109.585L166.829 109.613L166.863 109.636L166.865 109.638L166.873 109.674L166.88 109.681L166.892 109.694L166.939 109.708L166.962 109.735L166.974 109.751L167.012 109.773L167.067 109.803L167.093 109.851L167.103 109.876L167.121 109.88L167.184 109.871L167.243 109.869L167.283 109.871L167.331 109.867L167.342 109.867L167.353 109.887V109.943L167.348 109.979L167.333 110.097L167.344 110.227L167.371 110.284L167.403 110.336L167.423 110.363L167.459 110.361L167.493 110.388L167.509 110.397H167.526L167.54 110.377L167.563 110.354L167.583 110.352L167.603 110.356L167.615 110.363L167.622 110.377L167.612 110.397L167.576 110.424L167.578 110.434H167.594L167.619 110.436L167.637 110.438L167.635 110.447L167.606 110.456L167.594 110.468L167.592 110.479L167.594 110.49L167.61 110.492L167.633 110.477L167.666 110.467L167.673 110.499L167.704 110.528L167.718 110.56L167.747 110.562L167.759 110.564L167.806 110.569L167.823 110.586L167.826 110.59V110.674L167.836 110.742L167.839 110.83L167.855 110.88L167.896 110.896L167.975 110.917L168.018 110.944L168.076 110.999L168.137 111.026L168.197 111.026L168.423 111.055L168.518 111.06L168.654 110.989L168.664 110.949L168.699 110.896L168.779 110.861L168.986 110.793L169.109 110.761L169.183 110.64L169.312 110.552L169.29 110.482L169.274 110.429L169.257 110.374L169.242 110.324L169.224 110.106L169.222 109.978L169.245 109.858L169.269 109.651L169.258 109.492L169.255 109.467L169.26 109.467L169.356 109.453L169.371 109.451L169.497 109.504L169.542 109.541L169.565 109.561L169.599 109.495L169.665 109.391L169.667 109.388L169.707 109.34L169.768 109.32L169.777 109.318L169.797 109.313L169.894 109.284L170.026 109.254H170.069L170.154 109.234L170.234 109.227L170.304 109.247L170.374 109.304L170.412 109.35L170.495 109.339L170.598 109.287L170.647 109.261L170.68 109.25L170.723 109.254L170.775 109.275L170.802 109.3L170.81 109.314L170.812 109.318L170.834 109.343L170.9 109.384L170.965 109.434L171.005 109.475L171.029 109.473L171.033 109.472L171.093 109.452L171.108 109.447L171.184 109.422L171.239 109.4L171.338 109.352L171.391 109.314L171.394 109.287L171.408 109.245L171.458 109.145L171.461 109.14L171.459 109.126L171.457 109.099L171.437 109.054L171.44 109.018L171.439 108.976L171.432 108.939L171.417 108.854L171.419 108.789L171.424 108.743L171.437 108.708L171.462 108.674L171.488 108.637L171.503 108.59L171.493 108.535L171.437 108.511L171.423 108.479L171.403 108.401L171.387 108.324L171.355 108.224L171.352 108.102L171.354 108.063L171.362 107.957L171.355 107.884L171.345 107.848L171.31 107.806L171.261 107.767L171.258 107.765L171.18 107.734L171.15 107.719L171.139 107.704L171.136 107.694L171.13 107.684L171.123 107.676L171.115 107.667L171.109 107.66L171.103 107.65L171.096 107.641L171.094 107.633L171.096 107.622L171.1 107.614L171.103 107.612L171.105 107.613L171.124 107.616L171.131 107.619L171.158 107.635L171.208 107.638L171.223 107.639L171.229 107.638L171.235 107.636L171.248 107.633L171.289 107.632L171.346 107.632L171.383 107.636L171.407 107.647L171.403 107.679L171.404 107.69L171.407 107.712L171.413 107.715L171.423 107.697L171.433 107.676L171.449 107.665L171.456 107.677L171.457 107.7L171.462 107.714L171.465 107.729L171.487 107.72L171.492 107.718L171.543 107.698L171.548 107.699L171.568 107.72L171.563 107.733L171.562 107.736L171.55 107.755L171.533 107.784L171.514 107.82L171.517 107.846L171.533 107.863L171.539 107.869L171.565 107.885L171.63 107.881L171.644 107.864L171.665 107.834L171.691 107.821L171.772 107.814L171.849 107.79L171.882 107.803L171.901 107.848L171.898 107.903L171.898 107.923L171.873 107.97L171.865 108.003L171.888 108.011L171.889 108.012L171.887 108.047L171.886 108.059L171.874 108.218L171.858 108.423L171.852 108.481L171.821 108.764V108.778L171.791 109.004L171.782 109.079L171.781 109.093L171.789 109.094L171.808 109.097L171.885 109.121L172.063 109.148L172.186 109.159L172.261 109.175L172.334 109.259L172.379 109.31L172.413 109.318L172.615 109.356L172.835 109.366L173.042 109.324L173.183 109.281L173.226 109.256L173.281 109.157L173.284 109.108L173.248 109.023L173.252 108.961L173.294 108.71L173.318 108.364V108.359L173.321 108.252L173.343 108.106L173.4 107.916L173.421 107.776L173.451 107.554L173.457 107.504L173.453 107.452L173.436 107.228L173.479 107.06L173.513 106.962L173.597 106.815L173.684 106.681L173.734 106.572L173.864 106.601L173.995 106.656L174.135 106.704L174.218 106.704L174.289 106.696L174.457 106.656L174.66 106.589L174.875 106.518L175.11 106.39L175.284 106.316L175.394 106.304L175.51 106.263L175.575 106.253L175.633 106.265L175.683 106.317L175.75 106.433L175.843 106.555L175.843 106.613L175.904 106.631L176.012 106.666L176.215 106.727L176.354 106.77L176.365 106.728L176.42 106.582L176.46 106.542L176.583 106.447L176.659 106.395L176.787 106.267L176.898 106.112L176.911 106.052L176.973 105.896L176.984 105.782L177.019 105.679L177.091 105.547L177.149 105.444L177.141 105.369L177.239 105.235L177.322 105.157L177.321 105.041V104.937V104.92L177.307 104.903L177.241 104.822L177.194 104.693L177.187 104.653L177.21 104.602L177.236 104.553L177.261 104.481L177.258 104.405L177.27 104.329L177.276 104.255L177.28 104.203L177.258 104.122L177.223 104.04L177.233 103.994L177.256 103.961L177.306 103.923L177.375 103.892L177.382 103.891L177.466 103.877L177.549 103.922L177.569 103.918L177.63 103.886L177.731 103.785L177.786 103.854L177.818 103.895ZM169.321 115.404L169.448 115.473L169.651 115.463L169.894 115.452L169.898 115.452L169.93 115.45L170.121 115.382L170.126 115.325L170.127 115.321L170.137 115.322L170.315 115.338L170.528 115.362L170.596 115.37L170.647 115.375L170.654 115.376L170.731 115.364L170.742 115.303L170.751 115.255L170.781 115.116L170.823 114.961L170.836 114.877L170.851 114.866L170.872 114.85L170.954 114.769L171.063 114.658L171.103 114.575L171.177 114.409L171.216 114.311L171.263 114.22L171.256 114.213L171.156 114.101L171.053 113.983L170.935 113.897L170.805 113.793L170.728 113.741L170.684 113.707L170.647 113.681L170.596 113.645L170.573 113.634L170.53 113.606L170.402 113.572L170.279 113.544L170.146 113.511L170.059 113.488L169.909 113.453L169.872 113.445L169.801 113.48L169.795 113.483L169.42 113.668L169.112 113.82L168.922 114.181L168.833 114.357L168.812 114.398L168.799 114.423L168.794 114.433L168.771 114.475L168.777 114.718L168.781 114.894L168.783 114.984L168.863 115.062L169.099 115.274L169.175 115.324L169.321 115.404Z" fill="#D2E6FC" stroke="#6D94BC" stroke-width="0.916399"/>
</g>
<mask id="mask5_11_376" style="mask-type:luminance" maskUnits="userSpaceOnUse" x="4" y="68" width="192" height="64">
<path d="M5 69H195V130.948H5V69Z" fill="white" stroke="white" stroke-width="0.916399"/>
</mask>
<g mask="url(#mask5_11_376)">
<path d="M168.483 106.061L168.497 106.065L168.516 106.07L168.621 106.086L168.68 106.096L168.733 106.108L168.783 106.105L168.854 106.101L168.957 106.09L169.023 106.084L169.084 106.077L169.091 106.077L169.103 106.08L169.103 106.128L169.105 106.178L169.106 106.228L169.113 106.339L169.122 106.422L169.129 106.459L169.153 106.519L169.194 106.597L169.239 106.717L169.269 106.792L169.345 106.963L169.358 107.016L169.355 107.067V107.077V107.101L169.348 107.136V107.148V107.159L169.345 107.177L169.334 107.186L169.29 107.228L169.252 107.265L169.205 107.305L169.17 107.335L169.138 107.364L169.122 107.379L169.109 107.392L169.108 107.393L169.071 107.427L169.062 107.449L169.059 107.457L169.042 107.48L169.041 107.483L169.019 107.514L168.999 107.561L168.987 107.601L168.97 107.642L168.961 107.669L168.935 107.688L168.885 107.713L168.793 107.769L168.778 107.778L168.737 107.804L168.722 107.818L168.694 107.845L168.662 107.905L168.641 107.939L168.647 107.975L168.667 108.05L168.678 108.102L168.689 108.155L168.694 108.183L168.689 108.2L168.673 108.214L168.668 108.217L168.645 108.245L168.621 108.266L168.607 108.3L168.609 108.32L168.611 108.356L168.613 108.399L168.598 108.475L168.596 108.512L168.581 108.569L168.573 108.625L168.528 108.726L168.505 108.778L168.505 108.781L168.492 108.869L168.448 108.863L168.399 108.856L168.369 108.836L168.339 108.813L168.312 108.785L168.269 108.725L168.208 108.628L168.166 108.52L168.124 108.416L168.063 108.314L168.022 108.256L167.972 108.213L167.883 108.138L167.783 108.069L167.709 108.025L167.704 108.02L167.68 107.997L167.584 107.942L167.471 107.885L167.436 107.865L167.374 107.816L167.342 107.793L167.284 107.735L167.198 107.6L167.156 107.516V107.501L167.17 107.482L167.177 107.474L167.211 107.432L167.246 107.398L167.29 107.341L167.348 107.242L167.375 107.196L167.418 107.09L167.442 107.014L167.454 106.901L167.458 106.856L167.466 106.785L167.472 106.751L167.486 106.736L167.503 106.727L167.547 106.692L167.604 106.648L167.642 106.604L167.694 106.482L167.697 106.471L167.733 106.367L167.753 106.249L167.767 106.102L167.773 106.065L167.797 106.063L167.811 106.063L167.91 106.061L168.037 106.069L168.153 106.062L168.271 106.062L168.321 106.06L168.349 106.055L168.398 106.046L168.437 106.051L168.476 106.059L168.483 106.061Z" fill="#D2E6FC" stroke="#6D94BC" stroke-width="0.916399"/>
</g>
</svg>
