<svg width="200" height="200" viewBox="0 0 200 200" fill="none" xmlns="http://www.w3.org/2000/svg">
<path d="M93.6357 11.4933L94.3324 12.6578L94.3332 12.659L94.7164 13.3773L95.4075 14.4232L95.5687 14.6115L96.1359 15.2737L96.8455 16.0799L97.27 16.3923L97.4791 16.5461L97.5044 16.5647L98.3578 16.8666L98.6463 16.9356L99.0794 17.0173L99.3929 17.0864L101.206 17.3181L101.89 17.5256L102.737 17.8337L103.296 18.0916L104.13 18.362L104.437 18.532L104.814 18.5884L105.222 18.5188L105.699 18.4616L105.797 18.4577L106.018 18.4487L106.18 18.4362L106.182 18.4361L106.678 19.8477L106.847 20.3622L107.156 21.3036L107.326 21.7131L108.958 25.6346L108.96 25.6391L109.033 25.8295L109.903 28.0906L110.209 28.8811L110.6 29.8867L111.097 31.2541L111.188 31.5188L111.607 32.7287L110.22 32.7739L108.79 33.0335L107.46 33.1669L106.332 33.4515L105.097 33.6478L103.554 33.9581L102.743 34.3093L102.344 34.4823L102.989 35.7318L103.343 36.4166L104.517 39.0566L105.68 41.4909L106.95 44.2971L107.016 44.4414L107.125 44.4498L107.83 44.4379L110.285 44.2312L111.095 44.1631L113.259 44.2025L115.073 44.2355L115.416 44.2417L115.623 44.3612L116.674 46.7396L116.678 46.7492L116.873 47.039L121.787 43.903L122.114 43.7956L124.86 43.6865L124.898 43.3646L124.905 43.3083L124.722 42.4766L124.666 42.3567L126.025 41.6121L126.822 41.2334L127.104 40.8614L127.242 40.6028L127.429 40.2812L127.568 40.0794L127.718 39.657L127.842 39.3202L127.974 38.9572L128.127 38.8636L128.476 38.6479L129.128 38.0425L129.209 37.8705L129.409 37.4498L130.551 36.7998L131.442 36.3644L131.993 36.0866L132.375 35.8973L133.116 35.5564L133.222 35.6257L133.354 35.6949L133.486 35.8776L133.693 35.8602L134.012 35.8332L134.483 35.6628L134.589 35.5996L134.561 35.408L134.533 35.2214L134.751 35.0834L134.802 35.0512L134.978 34.9753L135.041 34.9321L135.266 34.7787L135.292 34.7609L135.511 34.6158L135.793 34.9056L136.176 34.6469L136.352 34.4829L136.583 34.281L136.796 34.054L136.966 33.8647L137.11 33.7197L137.122 33.6858L137.505 32.5975L137.868 32.156L138.273 32.3144L138.382 32.3574L138.865 32.1555L139.498 31.8336L139.9 31.9153L140.702 32.1255L141.412 32.3115L141.807 32.0719L142.484 31.5483L142.935 31.1565L143.086 31.0247L144.241 32.2723L144.865 33.2209L145.402 34.0365L148.455 33.7999L148.513 33.7954L148.551 33.8154L148.965 34.0358L149.133 34.1252L149.247 34.1859L148.927 35.9131L148.748 36.9006L148.615 37.6341L148.655 37.6575L149.454 38.126L149.883 38.3772L150.303 38.856L150.331 39.5587L150.354 40.1293L149.876 41.0368L149.32 42.0927L148.618 43.4266L146.611 44.7513L144.468 45.9247L143.48 46.2967L143.346 46.3475L142.46 46.6812L140.949 47.2503L140.773 47.3422L140.404 47.5342L136.755 49.6289L135.683 49.932L133.308 52.2591L135.517 54.9868L138.856 59.8123L142.822 65.6081L145.28 68.9688L145.596 69.4003L146.668 68.8452L148.085 67.4644L148.285 66.979L148.409 65.8005L148.513 64.3918L148.628 62.807L148.847 62.1703L149.947 60.9816L150.288 60.6129L150.571 60.0645L151.008 58.0223L151.159 57.8647L155.925 57.8624L156.232 57.7112L156.388 56.1292L156.608 55.7572L157.636 55.2525L158.501 54.5968L160.647 56.6L161.449 57.4127L163.068 59.0381L166.92 62.6603L168.074 63.5044L169.842 65.0667L170.991 66.2194L171.831 67.3851L171.9 67.5264L172.183 68.1034L172.314 69.036L172.666 70.6742L173.25 70.8379L173.68 70.8379L173.777 70.8378L173.714 71.5122L173.538 71.7769L172.88 71.9787L172.115 71.9853L171.169 72.1179L170.522 72.3323L169.172 72.7534L168.742 72.8875L168.16 73.1074L168.01 73.1825L167.495 73.4263L167.477 75.7138L167.51 76.3698L167.473 76.6612L167.423 77.0427L167.177 77.4525L167.082 77.6106L167.027 77.8752L167.001 78L167.018 78.1347L167.045 78.3411L167.08 78.5445L167.183 79.1374L167.255 79.3941L167.36 79.7643L167.43 80.465L167.489 80.8156L167.533 81.0843L167.874 81.7265L168.108 82.329L168.231 82.936L168.581 84.1266L168.818 84.5905L168.82 84.5892L169.141 84.413L170.214 83.5988L170.749 83.0909L170.925 83.0308L170.927 83.0334L171.119 83.4373L170.929 83.5981L170.685 83.7779L170.028 84.2638L168.434 85.4791L166.924 86.5256L166.258 87.0374L166.194 87.0868L165.593 87.3852L164.683 87.8374L165.234 89.0437L165.235 89.0436L165.312 89.0318L166.542 88.8447L167.072 89.7924L168.273 91.4759L168.624 91.9678L170.021 93.9244L170.098 94.1777L170.337 94.5157L170.502 94.7641L170.962 95.4462L171.48 96.2985L171.553 96.2647L171.904 96.0975L172.244 95.965L172.315 95.9468L172.423 95.9208L172.553 95.8879L172.632 95.8923L172.885 95.9061L173.165 96.0178L173.327 96.0958L173.342 96.0499L173.38 95.9269L173.512 95.8723L173.56 95.9122L173.76 96.0785L173.9 96.1062L174.035 96.133L174.101 96.1573L174.851 96.4301L176.359 97.0287L176.73 97.1776L177.094 97.324L178.726 99.5691L178.83 99.537L180.906 98.8995L181.244 98.8259L181.601 98.748L181.63 98.741L181.651 98.7462L182.148 98.8632L183.185 99.1265L183.309 99.1308L183.799 99.149L184.743 100.677L184.764 100.71L184.557 100.846L184.466 100.906L184.305 100.993L183.788 101.272L183.333 101.536L183.031 101.594L182.569 101.573H182.567L182.741 102.038L182.814 102.233L182.954 102.632L183.119 103.101L183.728 104.538L184.025 105.24L184.122 105.494L184.668 106.926L184.934 107.482L185.419 108.495L185.82 109.584L185.905 109.82L186.179 110.354L185.886 110.413L185.808 110.43L185.71 110.471L185.296 110.642L184.665 110.879L184.142 111.076L183.476 111.282L183.134 111.387L183.052 111.437L182.913 111.522L182.172 111.901L181.645 112.352L181.083 112.923L180.965 113.05L180.701 113.331L180.998 113.992L181.036 114.312V114.314L180.65 114.477L180.489 114.596L180.467 114.613L180.479 114.675L180.484 114.702L180.496 114.839L180.511 114.998L180.501 115.027L180.478 115.092L180.431 115.108L180.332 115.14L180.209 115.15H180.207L179.845 115.518L179.182 116.191L179.181 116.192L179.543 117.049L179.921 117.685L180.121 117.998L180.361 118.372L180.926 119.011L180.928 119.013L181.064 118.94L181.168 118.884L182.242 118.347L182.975 118.032L183.864 117.718L184.931 117.264L185.151 117.188L185.952 116.91L186.231 117.506L185.981 117.698L185.666 117.938L184.775 118.729L184.603 118.804L184.592 118.808L184.539 118.829L183.968 119.05L183.196 119.371L183.021 119.444L183.142 119.556L183.193 119.604L183.897 120.321L183.947 120.378L184.543 121.045L184.698 121.321L184.884 121.654L184.896 122.011L184.904 122.243L184.914 122.537L184.921 122.827L184.835 123.03L184.772 123.177L184.446 123.518L184.263 123.716L184.038 123.959L183.824 124.346L183.691 124.779L183.656 125.439L183.574 125.873L183.395 126.221L183.302 126.404L183.248 126.466L183.154 126.571L182.805 126.993L182.623 127.212L181.884 128.019L181.614 128.285L181.463 128.434L181.316 128.589L181.176 128.738L180.973 128.923L180.864 129.022L180.689 129.264L180.537 129.477L180.294 130.178L180.168 130.567L180.108 130.841L180.033 131.188L179.911 131.444L179.851 131.569L179.728 131.723L179.601 131.88L179.386 132.021L179.039 132.111L178.638 132.123L178.479 132.197L178.417 132.227L178.416 132.227L178.359 132.28L178.112 132.511L177.82 132.66L177.751 132.694L177.352 132.952L177.202 133.022L176.922 133.153L176.497 133.467L176.124 133.734L175.584 134.12L175.244 134.24L174.761 134.325L174.754 134.327L174.731 134.336L174.533 134.417L174.186 134.518L173.694 134.674L173.329 134.814L172.98 135.06L172.86 135.141L172.726 135.232L172.351 135.585L172.349 135.586L172.012 135.982L171.687 136.355L171.381 136.653L171.116 136.833L170.955 136.941L170.523 137.3L169.913 137.708L169.77 137.804L169.548 138.026L169.546 138.027L169.428 138.328L169.391 138.699L169.352 138.909L169.33 139.031L169.333 139.075L169.345 139.24L169.497 139.557L169.527 139.767L169.531 139.791L169.506 139.915L169.421 140.349L169.318 140.606L169.218 140.856L168.747 141.321L168.399 141.604L168.27 141.71L167.884 141.945L167.593 142.121L167.39 142.348L167.249 142.504L167.248 142.506L167.201 142.633L167.052 143.032L166.82 143.418L166.199 144.368L166.166 144.419L166.164 144.422L165.604 144.974L164.4 146.411L164.204 146.645L162.812 148.606L162.343 149.249L161.96 149.777L161.196 150.495L161.621 150.907L162.016 151.289L163.14 152.175L163.143 152.177L162.768 152.503L162.545 152.696L161.425 153.327L161.383 153.356L160.861 153.714L159.997 154.084L159.74 154.243L159.737 154.244L159.533 154.857L159.521 155.071L159.498 155.474L159.644 156.066L159.733 156.424L159.811 156.656L159.924 156.999L159.945 157.277L159.853 157.427L159.797 157.52L159.266 158.002L159.122 158.132L158.844 158.388L158.468 158.732L158.467 158.733L157.717 158.973L157.068 159.439L157.064 159.441L157.72 160.403L158.332 161.628H158.333L159.374 160.779L160.028 160.245L160.79 161.158L161.542 162.336L161.892 162.795L162.438 163.175L162.901 163.587L163.078 163.775L163.43 164.156L164.396 165.311L165.148 166.445L164.8 166.66L163.13 167.582L162.84 167.742L163.047 168.136L162.637 168.351L162.491 168.429L162.399 168.279L162.258 168.047L161.942 168.225L162.373 169.082L162.368 169.088L161.873 169.622L161.844 169.653L161.197 169.755L161.177 169.732L159.815 167.976L159.723 168.051L155.79 171.21L154.326 172.386L154 172.648L153.258 173.128L152.132 174.193L152.073 174.343L152.127 176.038L151.981 176.905V178.089L151.881 178.144L150.59 178.853L148.436 180.304L148.184 180.419L147.309 180.677L147.156 180.788L146.67 182.99L144.967 183.674L144.684 183.779L143.769 184.121L143.366 184.271L142.708 184.632L142.657 184.549L142.324 184.003L142.184 184.083L141.248 184.627L140.869 184.854L140.543 185.252L139.798 185.989L139.298 186.655L138.366 187.37L138.206 187.544L138.155 187.593L138.024 187.717L137.958 187.779L137.38 188.664L137.204 188.638L136.987 188.607L136.548 188.581L136.519 188.592L136.277 188.684L135.819 189.111L135.649 189.146L135.543 189.12L135.293 189.058L134.377 188.754L134.133 188.75L134.129 188.751L133.831 188.814L132.28 189.835L131.688 189.996L131.526 189.976L131.319 189.951L131.053 189.783L130.956 189.859L130.78 190L130.678 189.899L130.415 189.634L130.303 189.633L130.243 189.681L130.112 189.787L129.967 189.816L129.91 189.764L129.69 189.56L129.459 189.128L129.556 188.929L128.868 188.016L128.717 188.046L128.669 187.963L128.891 187.444L128.861 187.305L128.128 186.128L128.238 185.525L128.007 185.533L127.987 185.534L127.979 185.521L127.419 184.631L127.412 184.637L127.265 184.746L127.171 184.815L124.996 186.839L123.813 187.954L123.323 188.406L123.146 188.497L123.015 188.432L123.01 188.431L122.923 188.387L122.681 188.2L121.896 187.52L120.835 186.515L120.028 185.601L119.903 185.221L119.497 184.321L118.952 183.544L118.167 182.473L117.446 181.681L116.678 180.743L116.53 180.173L116.169 178.782L115.939 178.324L115.514 177.877L115.202 177.349L115.056 177.139L114.786 177.103L114.745 177.107L114.366 177.147L113.62 177.526L112.669 177.844L111.549 178.166L110.99 178.201L110.306 178.247L109.665 178.407L109.051 178.8L108.683 179.046L108.432 179.021L107.282 178.904L107.277 178.905L106.646 179.077L105.631 179.501L105.181 179.746L105.136 179.606L105.11 179.525L104.915 179.225L104.58 178.949L104.465 179.042L103.99 179.424L103.896 179.532L103.728 179.723L103.44 180.083L103.719 180.315L102.908 180.912L102.697 181.149L102.515 181.196L102.35 181.306L102.31 181.413L102.353 181.496L102.644 181.772L102.666 181.922L102.602 181.991L102.401 182.013L102.37 182.043L102.378 182.334L102.107 182.776L101.623 183.26L101.22 183.373L99.9888 183.996L100.117 184.237L99.386 184.477L99.3115 184.465L99.1677 184.442L99.0863 184.429L98.6801 183.559L98.2747 183.427L97.9932 182.604L96.8518 182.252L96.1103 181.982L95.9382 180.972L95.3734 179.829L94.8393 178.725L94.4811 177.989L94.255 177.626L93.8716 177.299L93.4994 177.054L93.2895 176.855L93.0458 176.41L92.8989 176.187L93.0507 176.102L93.273 175.91L93.2752 175.772L93.1964 175.6L92.9929 175.389L92.7521 175.158L92.6188 174.873L92.3853 174.176L92.3485 174.126L91.4804 173.533L91.4218 173.274L91.5119 172.72L91.4661 172.449L91.2348 172.011L91.2325 171.759L91.047 171.202L90.7886 170.895L90.7199 170.823L90.1227 170.198L89.3012 169.43L87.554 167.745L87.5058 167.625L86.9223 166.873L86.6329 166.384L85.732 164.863L85.6828 164.781L85.1056 163.619L84.7326 163.021L84.3141 162.529L84.0017 162.071L83.7701 162.236L83.6657 162.312L83.5236 162.163L83.0861 161.704L82.8888 161.856L82.3121 162.302L82.2177 162.326L82.1622 162.268L82.0964 162.195L81.9343 162.013L81.6939 161.757L81.5257 161.691L81.3313 161.701L81.2599 161.722L81.0354 161.785L80.4738 162.028L79.9062 162.252L79.5537 162.353L79.2507 162.335L79.1405 162.328L78.7294 162.164L78.1362 161.87L77.9955 161.8L77.9639 161.818L77.8394 161.899L77.3434 162.224L77.2176 162.248L75.0654 162.415L75.0659 162.78L74.9014 162.879L74.4403 163.11L73.8465 163.41L72.8001 163.796L72.4414 163.898L71.9613 164.136L71.4973 164.154L71.0009 164.228L70.7295 164.356L70.1291 164.681L70.0638 164.509L69.7015 163.559L69.2458 162.235L68.4761 161.348L67.1282 159.355L66.8161 159.363L66.7551 159.357L66.7473 159.362L65.5516 160.206L65.4443 160.278L65.3941 160.341L65.1748 160.384L64.8551 160.51H64.8497L64.5729 160.497L64.1344 160.422L64.0282 160.163L64.0662 159.798L64.4052 159.225L64.2995 158.488L63.7996 157.184L64.176 156.812L64.0082 155.433L63.6241 151.459L63.4197 149.312L63.4136 149.313L62.6987 149.6L60.9929 150.769L58.6478 151.894L56.5978 152.592L56.5902 152.593L54.8176 153.125L54.602 153.093L53.9904 153.004L53.9302 150.737L53.7111 150.472L54.2132 149.642L54.316 147.242L54.1544 145.894L54.3552 145.731L54.2676 145.573L54.0984 145.466L54.0473 145.483L53.7536 145.584L53.7514 145.582L53.0025 144.696L52.2832 143.297L54.0388 142.568L53.6794 138.499L53.7809 137.309L54.3774 136.144L53.733 134.997L51.878 134.97L50.1481 134.918L49.0076 134.644L48.9639 134.634L48.9632 134.633L47.0027 134.007L44.6026 133.615L43.5005 133.539L42.8353 133.494L42.8355 133.491L42.9873 131.648L42.3875 129.745L41.7072 126.583L43.7073 125.973L44.4412 125.458L42.8947 123.434L42.847 123.37L41.0626 120.984L41.2443 120.847L41.2487 120.844L42.7981 119.673L44.2531 118.717L44.1982 118.484L43.9598 117.476L43.9348 117.261L43.8925 116.722L43.873 116.474L43.6118 114.231L43.719 113.583L44.0017 112.826L44.1172 110.124L43.4096 109.311L43.4078 109.312L42.2866 110.23L42.2845 110.226L40.5902 107.62L38.9248 105.357L37.7034 104.152L37.7021 104.154L37.3959 104.485L37.3927 104.481L36.607 103.408L36.1437 103.431L35.2528 103.475L34.9628 103.411L34.6511 103.343L33.3231 102.201L32.3147 101.173L31.6197 100.083L31.4507 99.7804L31.1719 99.44L31.1382 99.3985L30.947 99.1646L29.5531 97.46L29.0059 96.6276L28.9897 96.6025L28.974 96.58L28.0942 95.3041L27.8752 94.8188L27.7777 94.4831L27.1775 93.1402L27.1305 93.0352L27.1091 92.9858L27.0056 92.7472L26.4552 92.126L26.4228 92.0895L25.6526 91.0492L25.202 90.0722L24.5701 88.3264L24.0257 87.0091L23.8134 85.8621L23.8087 85.8648L22.7409 86.4725L22.7391 86.4692L22.1899 85.4198L22.1849 85.4213L21.9262 85.5061L21.8826 85.5204L21.7314 85.5705L20.8604 85.8598L20.2059 86.0514L19.6375 86.218L19.3475 86.338L18.2389 86.7966L16.7451 87.5254L16.6269 87.583L16.4462 87.6511L15.7427 87.9163L15.742 87.9144L15.6864 87.7586L14.8785 86.5231L13.7578 84.3421L13 83.0751L13.5774 82.4012L14.0417 81.8282L14.4936 81.2741L14.5879 81.0502L14.7511 80.663L14.8269 80.0329L14.2512 78.4004L13.8634 77.1336L13.8635 76.8185L14.058 76.68L15.3355 76.2367L15.3625 76.2273L15.3653 76.223L16.0405 75.1817L15.9849 74.1545L15.985 74.0229L15.985 73.9214L16.0797 73.816L16.3068 73.5635L16.2898 73.3884L16.2699 73.1825L16.0929 71.9795L15.954 71.9195L15.7762 70.7613L15.499 69.9025L15.401 68.6074L15.2626 67.8486L14.9851 67.449L14.5289 67.0493L13.2149 66.0265L13.0762 65.7269L13.0566 65.3475L13.1276 65.0038L13.1761 64.7685L13.514 64.1696L13.9112 63.8304L14.3764 63.4299L14.4673 63.3516L15.1337 62.7851L15.2418 62.6932L16.2945 61.5758L16.3575 61.5237L16.4864 61.417L17.7641 60.3589L19.1784 59.3423L19.0226 58.8841L18.9407 58.6433L18.9766 58.6052L19.6955 57.8451L20.9268 56.9474L21.0636 56.8853L21.7607 56.5686L22.8591 56.4558L23.1105 56.43L23.1132 56.4166L23.1305 56.3301L23.2894 56.0707L23.4286 55.8311L23.4889 54.8926L24.898 54.9337L24.9771 55.3332L25.6721 55.0343L25.7314 55.3937L26.408 55.0343L27.2818 54.4759L27.6058 54.3366L28.9496 53.7585L29.4059 54.0184L29.4626 54.071L29.848 54.4283L29.9018 54.4782L29.9591 54.5399L30.1992 54.7979L30.9935 54.3593L31.3305 54.8588L31.6283 54.7992L31.9262 54.6197L32.4624 54.2208L32.2051 53.6608L32.0861 53.4017L32.2686 53.3211L33.0789 52.9633L34.0913 52.1313L34.1713 52.0656L36.5337 50.7477L36.8155 50.5905L37.6098 50.2318L38.0458 50.8713L38.7606 50.6921L38.8423 51.8503L39.0084 51.9116L39.6557 52.1506L40.4096 52.4907L41.2431 52.7111L42.3989 52.7123L43.0295 52.7129L44.4201 52.3819L44.6088 52.3222L44.9464 52.1129L45.6515 51.6043L46.162 51.2985L46.2672 51.2355L46.8907 50.9121L47.4588 50.6176L47.8559 50.4083L48.7569 50.1098L48.9049 50.0608L49.8678 49.8022L50.1956 49.5928L50.3248 49.3333L50.8908 49.0244L51.6581 48.6497L52.4624 48.3311L52.732 48.1687L52.7603 48.1516L52.7655 48.1566L52.9388 48.3216L53.475 48.0126L53.8722 47.8233L54.3686 47.654L54.5676 47.5568L54.6835 47.4696L54.9252 47.2876L55.253 46.9585L55.5212 46.8189L55.7494 46.7892L56.1013 46.9076L56.1364 46.9194L56.5433 46.8899L56.8313 46.7704L57.6931 46.2708L58.2928 46.076L58.398 46.0418L58.7048 45.841L59.3118 45.4437L59.2942 43.2569L59.4331 43.1885L59.52 43.1456L59.7723 43.0213L60.1627 42.8448L60.6759 42.6129L61.411 42.0644L61.2852 41.6024L61.2814 41.5885L61.0847 40.8659L61.0183 40.7242L60.7416 40.1337L60.7814 40.004L60.9015 39.9033L60.9304 39.8791L60.8417 39.2699L60.7761 39.2116L60.5938 39.0499L60.2974 38.754L60.1592 38.0748L59.2758 38.0639L58.7807 36.9649L59.2306 36.7278L59.5751 36.5463L61.0272 35.6415L61.2853 35.5818L61.6226 35.7519L61.7815 35.6722L62.2084 35.5029L62.5659 35.4035L62.7465 35.2657L62.8142 35.214L63.2514 34.845L63.4205 34.4458L63.6888 34.2363L64.1634 33.854L64.4934 33.5881L65.7111 33.3476L66.5784 33.1762L66.8161 33.1293L67.1608 32.7204L67.4552 32.3229L67.9313 31.7866L68.157 31.6098L68.4078 31.5024L68.7337 31.3319L69.0597 31.1802L69.4296 31.0159L69.6303 30.9022L69.7051 30.5743L69.5415 30.0766L69.5345 29.4966L69.9734 29.3764L69.5401 28.4636L69.5398 28.4627L69.8469 28.2166L69.8446 28.211L69.4065 27.1267L69.4089 27.125L69.7137 26.9245L69.7095 26.9165L69.28 26.0929L68.8714 25.3369L69.4355 24.9392L71.2036 24.1997L72.9527 23.2081L74.3 22.3957L74.4781 22.2882L74.6702 22.1724L75.5354 21.6861L76.326 20.9968L77.2851 20.1606L77.3091 20.1396L77.9109 19.8114L77.59 18.9418L77.5898 18.7022L77.8657 18.4748L78.2166 18.2413L78.4298 18.0141L78.7244 17.7932L79.0942 17.5974L79.4828 17.2313L79.6143 17.0105L79.8329 16.0773L80.2278 15.7365L80.8859 15.2315L82.3846 14.5554L84.1779 13.7151L85.369 12.9448L85.9646 12.5659L86.7357 12.105L87.7639 11.3727L87.8977 11.3114L88.1777 11.1832L88.1928 11.2007L88.7115 11.8005L90.2231 11.4271L90.221 11.4216L90.1736 11.2918L90.1286 11.1687L90.5236 10.9477L91.0441 10.6824L92.2556 10.1654L92.6432 10L92.9698 10.4095L93.6357 11.4933Z" fill="#D2E6FC" stroke="#6D94BC" stroke-width="1.73231"/>
</svg>
