<svg width="200" height="200" viewBox="0 0 200 200" fill="none" xmlns="http://www.w3.org/2000/svg">
<path d="M101.869 14.8302L102.137 14.8537L102.349 14.8436L102.371 14.8426L102.528 14.8607L102.945 14.8715L103.201 14.8828L103.46 14.8994L103.57 14.9081L103.642 14.9417L103.801 15.0074L104.096 15.0858L104.35 15.143L104.594 15.1355L105.037 15.14L105.314 15.0667L105.384 15.0595L105.467 15.1273L105.513 15.1842L105.547 15.2562L105.623 15.3969L105.713 15.543L105.829 15.7218L106.04 15.9805L106.165 16.1238L106.189 16.1837L106.189 16.2483L106.206 16.3421L106.229 16.3833L106.262 16.4127L106.316 16.4205L106.454 16.4468L106.501 16.4714L106.534 16.5111L106.566 16.5491L106.585 16.5613L106.632 16.5706L106.693 16.5836L106.737 16.5963L106.749 16.6101L106.771 16.6241L106.8 16.6943L106.839 16.7868L106.872 16.8248L106.937 16.8769L106.987 16.9016L107.094 16.9273L107.23 16.9501L107.282 16.9646L107.319 16.9874L107.334 17.0183L107.348 17.0593L107.397 17.2387L107.43 17.3259L107.493 17.4511L107.509 17.5092L107.539 17.5998L107.566 17.6546L107.874 17.9236L108.187 18.2096L108.36 18.3691L108.451 18.4234L108.528 18.5284L108.578 18.6058L108.68 18.6926L108.724 18.7699L108.733 18.821L108.748 18.8467L108.784 18.8542L108.864 18.837L108.951 18.8368L108.977 18.8441L109.015 18.877L109.025 18.9146L109.032 18.9895L109.034 19.134L109.046 19.3246L109.019 19.4311L109.025 19.4703L109.046 19.4894L109.151 19.5151L109.378 19.56L109.577 19.5822L109.778 19.6028L109.849 19.7503L110.092 19.7492L110.157 19.749L110.355 19.7441L110.321 19.582L110.3 19.4338L110.289 19.3724L110.293 19.352L110.304 19.3302L110.351 19.2648L110.371 19.226L110.386 19.1804L110.395 19.1364L110.395 19.1279L110.428 19.0775L110.509 18.9566L110.548 18.9046L110.572 18.8881L110.625 18.8601L110.676 18.827L110.712 18.7971L110.851 18.7589L110.905 18.7496L111.043 18.713L111.157 18.6879L111.418 18.5787L111.517 18.5278L111.687 18.468L111.758 18.4336L111.976 18.3594L112.072 18.3135L112.161 18.2437L112.266 18.1386L112.309 18.1054L112.32 18.0631L112.332 18.0378L112.359 18.0094L112.453 17.9397L112.531 17.8783L112.611 17.8151L112.685 17.7739L112.715 17.7133L112.747 17.6459L112.756 17.5764L112.771 17.499L112.9 17.6776L112.981 17.7657L113.058 17.8215L113.149 17.8418L113.275 17.8492L113.457 17.8813L113.682 17.9109L114.025 17.9478L114.22 17.975L114.386 18.0019L114.518 18.0145L114.726 18.0522L114.903 18.0741L114.981 18.1146L115.023 18.1339L115.09 18.1148L115.199 18.0709L115.324 18.0342L115.363 18.0383L115.442 18.077L115.495 18.1562L115.519 18.2501L115.567 18.4039L115.586 18.5266L115.622 18.7482L115.635 18.7944L115.665 18.8288L115.756 18.8798L115.945 18.9257L116.152 18.9595L116.179 18.9639L116.18 19.0659L116.167 19.2985L116.162 19.3953L116.155 19.4682L116.112 19.5559L116.048 19.7093L116.016 19.8259L116.003 19.9005L115.984 19.9987L115.973 20.0749L115.981 20.2009L115.994 20.2691L116.053 20.3773L116.139 20.4943L116.354 20.7446L116.425 20.8156L116.476 20.8471L116.544 20.8518L116.647 20.8672L116.748 20.8911L116.792 20.9089L116.873 20.9716L116.962 21.0632L117.007 21.0947L117.042 21.1411L117.067 21.1892L117.089 21.2491L117.092 21.346L117.1 21.5942L117.085 21.7266L117.05 21.8041L116.977 21.9081L116.916 21.9749L116.893 22.0645L116.877 22.1357L116.844 22.1946L116.712 22.3825L116.558 22.5819L116.347 22.8237L116.346 22.8244L116.258 23.008L116.2 23.1361L116.164 23.2289L116.119 23.3352L116.08 23.4279L116.062 23.4871L116.025 23.6274L116.003 23.7307L115.993 23.7933L115.984 23.8595L115.977 24.1261L115.958 24.3687L115.95 24.445L115.919 24.5719L115.913 24.6211L115.939 24.6929L115.95 24.7441L115.937 24.8934L115.956 25.0348L115.971 25.1591L116.072 25.4447L116.104 25.6372L116.142 25.9165L116.163 26.0988L116.187 26.2895L116.184 26.371L116.161 26.5285L116.155 26.6525L116.134 26.8153L116.563 27.0201L116.601 27.0326L116.738 27.0064L116.739 27.0063L116.913 27.0775L117.021 27.1117L117.095 27.1317L117.168 27.15L117.238 27.1598L117.307 27.1712L117.379 27.1742L117.452 27.1789L117.565 27.181L117.68 27.1831L117.739 27.1825L117.799 27.1819L117.955 27.1915L118.108 27.1994L118.228 27.2067L118.43 27.2189L118.636 27.2328L118.778 27.2422L118.92 27.2533L118.994 27.2529L119.068 27.2543L119.197 27.2685L119.325 27.2793L119.406 27.2927L119.487 27.3078L119.599 27.3166L119.712 27.3271L119.803 27.3339L119.892 27.339L119.951 27.3451L120.008 27.3479L120.083 27.3661L120.155 27.3845L120.281 27.4174L120.405 27.4519L120.505 27.4775L120.604 27.5014L120.691 27.5166L120.778 27.5335L120.865 27.5419L120.979 27.6289L121.193 27.6328L120.953 27.3685L120.899 27.2774L120.854 27.1985L120.825 27.0314L120.833 26.8957L120.853 26.8195L120.874 26.7724L120.922 26.7307L121.047 26.6294L121.186 26.5283L121.255 26.4803L121.465 26.3143L121.562 26.2225L121.712 26.0587L121.833 25.9081L121.92 25.7822L121.924 25.7761L122.053 25.5825L122.185 25.4082L122.221 25.3273L122.245 25.2835L122.319 25.2102L122.362 25.1565L122.424 25.0472L122.534 24.876L122.581 24.8208L122.6 24.7922L122.659 24.6879L122.783 24.5185L122.884 24.3607L122.991 24.22L123.222 23.8843L123.301 23.7839L123.33 23.7317L123.559 23.4301L123.631 23.3277L123.685 23.2369L123.802 23.1049L123.856 23.0243L123.898 22.969L123.931 22.9357L123.971 22.9228L123.972 22.9227L124.073 22.9433L124.232 22.9904L124.309 23.0003L124.345 22.9891L124.402 22.9459L124.631 22.7514L124.79 22.6116L124.981 22.4995L125.055 22.4719L125.116 22.4629L125.287 22.4677H125.288L125.341 22.4823L125.446 22.5267L125.532 22.5623L125.599 22.5823L125.656 22.5901L125.727 22.5948L125.785 22.5975L125.85 22.6361L125.929 22.6528L125.913 22.5761L125.917 22.5286L125.946 22.4866L125.971 22.4548L125.986 22.4024L125.978 22.3327L125.984 22.1017L125.991 22.0437L126.015 21.8185L126.048 21.6134L126.076 21.235L126.129 20.7601L126.179 20.338L126.199 20.0851L126.23 19.9447L126.245 19.8956L126.424 19.7766L126.556 19.7042L126.656 19.6585L126.717 19.6358L126.761 19.6132L126.91 19.5358L127.017 19.4852L127.018 19.4851L127.085 19.5355L127.201 19.6601L127.269 19.714L127.35 19.7461L127.456 19.7328L127.537 19.7019L127.738 19.585L127.815 19.5337L127.91 19.5134L127.97 19.5128L128.04 19.5311L128.13 19.5889L128.232 19.6553L128.316 19.684L128.455 19.7104L128.774 19.7673L129.003 19.7918L129.205 19.7752L129.434 19.7387L129.661 19.7157L129.788 19.6857L129.977 19.6536L130.079 19.6266L130.176 19.5909L130.243 19.5702L130.292 19.5693L130.501 19.6259L130.553 19.6574L130.575 19.6663L130.797 19.6416L131.122 19.6085L131.551 19.557L131.973 19.4917L132.258 19.4545L132.511 19.4427L132.543 19.4412L132.677 19.4487L132.726 19.4395L132.93 19.4007L133.115 19.3447L133.414 19.2449L133.535 19.2182L133.657 19.1984L134.007 19.1693L134.187 19.1488L134.375 19.1438L134.554 19.1591L134.809 19.2148L135.001 19.2762L135.094 19.2829L135.298 19.3072L135.46 19.3306L135.651 19.346L135.884 19.3589L136.132 19.3635L136.233 19.3756L136.37 19.3969L136.481 19.4363L136.616 19.5034L136.773 19.5539L136.939 19.6046L137.072 19.6376L137.231 19.6593L137.396 19.6726L137.663 19.698L137.965 19.7104L138.237 19.7189L138.403 19.7136L138.486 19.7397L138.749 20.0011L138.94 20.1554L139.318 20.2908L139.472 20.3289L139.603 20.3614L139.681 20.3804L139.828 20.4285L140.015 20.6238L140.369 21.086L140.577 21.4923L140.643 21.6212L140.715 21.7967L140.818 22.0479L140.846 22.1171L140.85 22.3214L140.845 22.7803L140.839 23.077L140.836 23.2176L140.808 23.5051L140.761 23.6919L140.695 23.9547L140.689 23.9767L140.676 24.1993L140.661 24.4222L140.653 24.5508L140.643 24.707L140.641 24.9259L140.638 25.4721L140.624 25.8193L140.917 26.2418L141.261 26.7195L141.353 26.8591L141.514 27.1036L141.585 27.2129L141.922 27.8131L142.144 28.2779L142.4 28.6758L142.719 28.8785L142.739 29.1127L142.725 29.4241L142.62 29.7475L142.576 30.1206L142.677 30.6235L142.969 31.2552L143.128 31.5833L143.143 31.6137L143.179 31.9139L143.137 32.066L143.135 32.0763L143.094 32.2267L143.013 32.4199L142.945 32.5454L142.779 32.7498L142.629 33.0559L142.603 33.0778L142.587 33.1401L142.495 33.4981L142.353 33.7457L142.32 33.7759L141.836 34.2207L141.815 34.2408L141.789 34.7112L141.788 34.7174L141.785 34.7869L141.777 34.8473L141.733 35.1889L141.732 35.1934L141.704 35.3362L141.64 35.667L141.611 36.0403L141.592 36.2835L141.578 36.4559L141.542 36.9206L141.434 37.6137L141.424 37.7771L141.413 37.9528L141.405 38.0599L141.403 38.0936L141.403 38.1034L141.398 38.1761L141.388 38.3463L140.991 38.2854L140.285 38.1982L140.279 38.1975L139.566 38.0129L137.667 37.4286L136.978 37.2282L135.7 36.6393L135.561 36.5756L135.417 36.8368L135.413 36.9313L135.321 37.2994L135.245 37.811L135.229 37.9142L135.213 38.2153L135.212 38.2993L135.211 38.4693V38.4927L135.205 38.7822L135.196 38.8957L135.192 38.9622L135.187 39.054L135.172 39.2054L135.167 39.2975L135.172 39.3546L135.183 39.3936L135.186 39.4435L135.192 39.5434L135.182 39.7507L135.17 39.8441L135.146 40.1227L135.143 40.1636L135.141 40.2189L135.135 40.4853L135.099 40.6609L135.072 40.7438L135.024 40.8756L134.971 41.0294L134.916 41.206L134.914 41.2141L134.876 41.3361L134.858 41.4206L134.851 41.5022L134.849 41.5371L134.845 41.7392L134.855 41.867L134.865 42.063L134.884 42.2557L134.895 42.3157L134.936 42.4511L134.941 42.467L134.959 42.5239L135.02 42.6979L135.106 42.8716L135.187 43.0078L135.278 43.1437L135.461 43.4404L135.537 43.5835L135.65 43.7625L135.797 43.962L135.892 44.1275L135.998 44.2858L136.128 44.4645L136.237 44.5957L136.31 44.6471L136.345 44.6869L136.373 44.73L136.383 44.7503L136.401 44.7857L136.463 44.9043L136.519 44.9746L136.543 44.9927L136.57 45.0012L136.601 45.0053L136.622 45.0063L136.636 45.0083L136.684 45.0409L136.79 45.144L136.962 45.2972L137.171 45.4862L137.319 45.5964L137.472 45.6902L137.546 45.7385L137.596 45.7855L137.653 45.849L137.665 45.8724L137.704 45.9124L137.707 45.916L137.746 45.956L137.851 46.0295L137.986 46.1213L138.175 46.2413L138.265 46.2838L138.484 46.3617L138.801 46.4954L139.042 46.5935L139.532 46.9L139.849 47.0059L140.149 47.0407L140.419 47.0197L140.852 46.986L142.291 46.8555L143.145 46.7417L144.015 46.6276L144.546 46.5177L145.594 47.1313L145.957 47.3437L145.969 47.3503L146.086 47.4121L146.397 47.5771L146.326 47.6224L146.093 47.7711L145.807 47.9533L144.823 48.5335L142.787 49.68L142.617 49.7877L142.567 49.8191L142.54 49.8366L142.346 49.9589L143.059 50.0671L143.497 50.1553L143.949 50.4777L144.297 50.6594L144.541 50.6546L145.083 50.8987L145.507 51.079L145.645 51.3516L145.694 51.5175L145.724 51.6163L145.742 51.6758L145.732 51.9175L145.729 52.0125L145.722 52.0376L145.675 52.224L145.645 52.3459L145.621 52.4429L146.077 52.4491L146.343 52.4538L146.492 52.4563L146.777 52.4613L146.893 52.4633L146.97 52.4647L147.028 52.8789L147.035 52.9647L147.066 53.3691L147.069 53.4184L147.036 54.0359L146.998 54.4545L147.057 55.1568L146.923 55.5366L146.913 55.5727L146.842 55.8236L146.864 56.1596L146.9 56.1798L147.126 56.3061L147.233 56.3664L147.343 56.3995L147.529 56.4548L147.824 56.6415L147.955 56.7242L148.141 56.8087L148.348 56.9035L148.416 56.9343L149.184 57.3168L149.388 57.4279L149.953 57.7349L150.165 57.8292L150.944 58.1741L151.135 58.2461L151.225 58.2807L151.231 58.2811L151.266 58.2837L151.412 58.2949L151.612 58.31L151.716 58.3178L151.871 58.2876L152.313 58.2007L153.139 58.0367L153.601 57.9546L153.725 57.9327L153.727 57.9328L153.727 57.9331L153.728 57.9338V57.9349L153.729 57.9355V57.9365L153.726 57.9661L153.655 58.627L153.655 58.628V58.6292L153.73 58.7423L153.731 58.7426L154.011 58.9232L154.081 58.9683L154.5 59.2243L154.511 59.231L154.549 59.2543L154.549 59.2549L154.636 59.4211V59.4221L154.633 59.802L154.64 60.1608L154.657 60.2659L154.536 60.5478L154.429 60.7962L154.289 61.1263L153.675 62.5623L153.671 62.5716L153.382 62.5772L153.234 62.5801L153.182 62.5811L153.159 62.6293L153.157 62.634L153.154 62.6407L153.131 62.6891L153.341 64.1275L153.461 64.4011L153.484 64.4543L153.564 64.5392L154.189 65.21L154.837 65.7961L155.197 66.2256L155.505 66.2627L156.05 66.1864L156.607 66.1084L156.738 66.0901L157.094 66.0402L157.444 65.9668L158.047 65.8405L158.107 65.8328L158.466 65.7878L158.797 65.7463L158.862 65.7383L158.887 65.7263L158.998 65.6725L158.999 65.6718L159 65.6713L159.04 65.6193L159.145 65.4853L159.185 65.4335L159.525 65.4579L159.699 65.518L160.068 65.6448L160.35 65.7421L160.706 66.0648L160.871 66.2615L162.325 67.9986L163.229 69.0059L163.413 69.2162L163.583 69.7917L163.595 69.8321L163.615 69.8419L163.981 70.0161L164.563 70.4224L165.077 70.6574L164.437 71.717L164.523 72.7505L163.584 73.6105L163.788 73.8878L163.804 73.9399L163.864 74.0893L163.866 74.0912L163.813 74.4497L163.904 74.6217L163.957 74.7182L163.986 74.7729L163.999 74.7979L163.968 75.0878L163.954 75.2163L164.222 75.4233L164.32 75.4973L164.41 75.7198L164.456 76.0173L164.642 76.2277L164.933 76.4135L165.167 76.6281L165.324 76.763L165.559 76.8448L165.745 76.8946L165.925 76.9015L166.106 76.9187L166.299 76.9788L166.556 77.124L166.707 77.2279L167.061 77.4074L167.077 77.3762L167.169 77.2022L167.193 77.2119L167.238 77.23L167.239 77.2253L167.266 77.1575L167.322 77.0116L167.378 76.8858L167.408 76.8115L167.443 76.7284L167.487 76.6141L167.532 76.5381L167.542 76.5083L167.567 76.4452L167.641 76.3129L167.687 76.1871L167.695 76.1457L167.696 76.1094L167.697 76.0908L167.698 76.0744L167.737 76.0059L167.761 75.9662L167.786 75.9256L167.827 75.8611L167.837 75.8357L167.854 75.779L167.864 75.7068L167.872 75.6538V75.5696L167.87 75.5422L167.849 75.5208L167.815 75.5207L167.81 75.5129L167.804 75.4677V75.3757V75.3708L167.883 75.3445L167.959 75.3427L168.046 75.3252L168.102 75.3175L168.227 75.2688L168.281 75.2451L168.421 75.1788L168.705 75.0207L168.717 75.0135L168.864 74.9395L169.011 74.882L169.108 74.85L169.208 74.7998L169.277 74.7266L169.405 74.6169L169.479 74.5259L169.494 74.5091L169.525 74.4817L169.603 74.3857L169.622 74.3629L169.653 74.3261L169.701 74.2253L169.819 74.237L169.95 74.2739L169.981 74.2807L170.013 74.274L170.017 74.2513L170.08 74.1801L170.132 74.116L170.178 74.091L170.262 74.1369L170.346 74.1853L170.417 74.2243L170.449 74.2288L170.467 74.2153L170.487 74.1624L170.528 74.1421L170.581 74.1625L170.677 74.2085L170.774 74.2477L170.827 74.2711L170.836 74.2396L170.847 74.2214L170.896 74.2068L170.938 74.1943L170.972 74.184L171.006 74.1643L171.111 74.1463L171.186 74.1353L171.277 74.1188L171.372 74.1169L171.5 74.1171L171.539 74.1157L171.681 74.1169L171.889 74.1181L172.245 74.1492L172.443 74.1868L172.527 74.1899H172.53L172.661 74.1947L172.775 74.1843L172.899 74.1729L173.023 74.1757L173.209 74.1842L173.264 74.1934L173.463 74.2259L173.617 74.2177L173.641 74.1919L173.973 73.8175L173.982 73.821L174.049 73.8493L174.191 73.9123L174.33 73.9723L174.512 74.0623L174.635 74.1252L174.73 74.1709L174.771 74.1858L174.84 74.222L175.401 74.5253L175.447 74.4776L175.733 74.1735L175.74 74.1668L175.75 74.1721L175.759 74.1768L176.024 74.3167L176.05 74.2783L176.129 74.1626L176.189 74.0737L176.205 74.0799L176.45 74.1727L176.779 74.2971L176.816 74.2599L176.972 74.1062L177.077 74.0034L177.09 74.0053L177.519 74.0708L177.898 74.1223L178.171 74.1378L178.375 74.1493L178.303 74.229L178.268 74.2675L178.256 74.2811L178.182 74.3283L177.962 74.4678L177.895 74.517L177.622 74.7151L177.502 74.8026L177.142 75.1209L177.084 75.1729L177.066 75.1707L176.868 75.147L176.86 75.146L176.827 75.1909L176.806 75.2207L176.7 75.3682L176.51 75.7393L176.191 76.4215L176.19 76.6338L176.252 76.764L176.345 76.9568L176.507 77.1521L176.579 77.2456L176.59 77.2992L176.625 77.4682L176.631 77.4964L176.646 77.7204L176.636 77.8009L176.613 78.0039L176.516 78.2076L176.497 78.3253L176.473 78.4654L176.465 78.5953L176.461 78.6623L176.287 78.9519L176.157 79.1045L176.059 79.2237L175.8 79.6133L175.905 79.8562L176.107 80.1991L176.495 80.7384L176.575 80.8283L176.664 80.9276L176.863 81.1523L177.171 81.4396L177.491 81.775L177.749 82.2513L177.917 82.4395L178.119 82.6927L178.29 83.0793L178.371 83.3917L178.397 83.6774L178.455 83.9213L178.602 84.1703L178.714 84.3555L178.729 84.3817L178.711 84.5528L178.661 84.7511L178.637 84.8474L178.752 85.0361L178.756 85.2401L178.758 85.3454L178.76 85.485L178.799 85.605L178.931 85.7835L178.934 85.7888L178.984 85.8619L178.917 85.9597L178.225 86.9542L178.074 87.2274L178.051 87.2679L177.574 87.3667L176.906 87.407L176.526 87.4401L176.183 87.5381L176.068 87.6139L176.008 87.6535L175.909 87.8348L175.895 87.9523L175.885 88.037L175.938 88.2723L175.951 88.3339L175.996 88.5316L175.959 88.8685L175.931 89.0377L175.879 89.3513L175.83 89.6266L175.825 89.6533L175.815 89.7097L175.811 89.7355L175.821 89.937L175.879 90.2825L175.963 90.4723L175.948 90.7502L175.939 90.7849L175.853 91.078L175.714 91.4191L175.711 91.4274L175.708 91.4286L175.543 91.5047L175.401 91.5588L175.353 91.5773L175.261 91.7567L175.181 92.1738L175.063 92.5293L174.97 92.8073L174.947 93.0336L174.936 93.2263L174.91 93.6534L174.853 94.594L174.803 94.9069L174.796 94.9523L174.713 95.8369L174.685 96.5731L174.68 97.4706L174.672 97.5006L174.59 97.7706L174.148 99.0666L173.965 99.55L173.897 99.7317L173.848 99.9443L173.768 100.295L173.593 100.843L173.489 101.181L173.493 101.186L173.7 101.396L174.26 101.906L174.66 102.324L175.224 102.914L175.267 102.959L175.94 103.774L176.256 103.649L176.373 103.726L176.698 104.125L177.011 104.323L177.199 104.391L177.443 104.479L177.853 104.639L177.887 104.652L177.927 104.678L178.2 104.856L178.227 104.873L178.387 104.998L178.636 105.191L178.727 105.282L178.987 105.541L179.417 106.045L179.667 106.38L179.876 106.573L180.309 106.876L180.518 107.055L180.749 107.268L181.039 107.474L181.059 107.488L181.1 107.514L181.221 107.59L181.264 107.643L181.333 107.729L181.4 107.888L181.437 107.976L181.441 107.986L181.44 108.003L181.428 108.203L181.451 108.21L182.149 108.409L182.164 108.414L182.153 108.505L182.139 108.62L182.124 108.662L182.04 108.895L181.992 108.992L181.954 109.183L181.914 109.388L181.891 109.531L181.865 109.736L181.827 110.023L181.81 110.118L181.805 110.291L181.818 110.621L181.874 110.87L181.907 111.169L181.92 111.468L181.908 111.732L181.889 112.03L181.9 112.075L181.969 112.368L181.986 112.595L182.022 112.79V112.793L182.023 112.821L182.037 113.08L182.047 113.113L182.116 113.332L182.068 113.449L181.972 113.683L181.951 113.737L181.963 113.773L181.993 113.855L181.966 114.007L181.948 114.085L181.915 114.225L181.872 114.395L181.777 114.511L181.719 114.583L181.609 114.743L181.609 114.744L181.51 114.835L181.468 114.906L181.361 115.087L181.355 115.096L181.207 115.264L181.141 115.323L181.03 115.419L180.902 115.466L180.88 115.469L180.748 115.628L180.544 115.822L180.253 115.989L179.977 116.021L179.947 116.024L179.934 116.023L179.917 116.021L179.707 115.998L179.527 115.977L179.369 116.054L178.944 116.213L178.917 116.223L178.868 116.251L178.792 116.281L178.375 116.399L177.954 116.483L177.907 116.514L177.761 116.611L177.736 116.623L177.661 116.659L177.651 116.664L177.59 116.693L177.52 116.642L177.478 116.612L177.262 116.815L177.171 116.913L177.003 117.094L176.79 117.251L176.426 117.403L175.817 117.539L175.609 117.564L175.474 117.58L175.429 117.567L175.242 117.517L174.901 117.549L174.883 117.547L174.647 117.515L174.514 117.619L174.503 117.627L174.349 117.746L174.328 117.741L174.169 117.708L174.093 117.725L173.893 117.823L173.861 117.838L173.624 117.871L173.463 117.78L173.401 117.801L173.269 117.844L173.011 117.877L172.66 117.934L172.603 117.943L172.543 117.953H172.543L172.51 118.003H172.508L172.474 118.057L172.389 118.262L172.282 118.479L172.182 118.704L172.017 119.095L171.77 119.647L171.647 119.919L171.589 120.101L171.477 120.257L171.294 120.409L171.057 120.631L170.953 120.753L170.711 121.016L170.502 121.248L170.315 121.421L170.063 121.657L169.992 121.734L169.885 121.849L169.711 122.054L169.5 122.355L169.345 122.531L169.177 122.743L169.177 122.743L169.169 122.755L169.031 122.914L168.752 123.282L168.625 123.437L168.565 123.483L168.384 123.592L168.382 123.593L168.153 123.736L167.785 123.984L167.587 124.129L167.59 124.131L167.634 124.194L167.816 124.417L167.965 124.6L168.033 124.711L168.052 124.797L168.055 124.855L168.06 124.929L168.091 125.138L168.112 125.273L168.146 125.583L168.139 125.765L168.113 126.038L168.026 126.317L167.946 126.589L167.889 126.761L167.836 126.923L167.695 127.38L167.63 127.494L167.624 127.504L167.539 127.756L167.407 128.215L167.393 128.295L167.388 128.328L167.347 128.558L167.325 128.737L167.308 128.801L167.263 128.965L167.181 129.247L167.18 129.249L167.177 129.296L167.173 129.349L167.167 129.408L167.164 129.452V129.456L167.223 129.6L167.314 129.787L167.448 129.937L167.642 130.105L167.845 130.265L168.091 130.417L168.315 130.567L168.529 130.685L168.529 130.686L168.58 130.884L168.631 131.087L168.643 131.179V131.181L168.62 131.283L168.6 131.373V131.375L168.321 131.536L168.151 131.575L168.151 131.575L168.114 131.79L168.242 131.99L168.329 132.135L168.417 132.265L168.453 132.32L168.518 132.415L168.67 132.725L168.817 133.013L168.935 133.326L169.008 133.543L169.096 133.801L169.121 133.885L169.122 133.888L169.138 133.945L169.155 134.003L169.17 134.044L169.223 134.192L169.285 134.367L169.375 134.541L169.493 134.639L169.575 134.742L169.832 134.908L170.113 135.144L170.261 135.265L170.63 135.532L170.839 135.702L171.045 135.856L171.24 136.001L171.448 136.133L171.695 136.356L171.932 136.554L172.201 136.758L172.441 136.994L172.509 137.177L172.625 137.38L172.78 137.499L172.819 137.508L173.007 137.548L173.031 137.561L173.547 137.829L174.045 138.079L174.091 138.157L174.348 138.305L174.619 138.556L174.943 138.813L175.016 138.872L175.095 139.05L175.164 139.335L175.36 139.735L175.472 140.027L175.487 140.047L175.639 140.247L175.754 140.469L175.764 140.486L175.869 140.665L176.023 140.814L176.167 140.958L176.279 141.119L176.461 141.283L176.528 141.345L176.568 141.367L176.693 141.44L176.884 141.583L176.979 141.632L177.115 141.673L177.263 141.703L177.264 141.703L177.489 141.749L177.849 141.959L178.075 142.108L178.241 142.363L178.359 142.549L178.454 142.852L178.679 143.244L178.687 143.267L178.893 143.804L178.958 144.049L179.053 144.251L179.225 144.561L179.337 144.686L179.521 144.841L179.682 144.967L179.805 145.039L179.897 145.116L179.983 145.189L180.256 145.362L180.385 145.459L180.52 145.548L180.534 145.556L180.634 145.591L180.77 145.657L181.048 145.752L181.101 145.766L181.334 145.831L181.597 145.909L181.669 145.927L181.842 145.983L181.86 145.989L181.98 146.013L182 146.017L182.42 146.111L182.474 146.12L182.757 146.167L183.178 146.281L183.51 146.344L183.643 146.407L183.751 146.515L183.753 146.523L183.797 146.693L183.816 146.867L183.817 147.075L183.763 147.326L183.567 147.762L183.442 148.047L183.3 148.315L183.211 148.603L183.163 148.858L183.11 149.106L183.109 149.111L183.115 149.254L183.111 149.257L183.005 149.262L182.92 149.305L182.9 149.316L182.819 149.396L182.799 149.428L182.786 149.452L182.707 149.594L182.541 149.898L182.397 150.076L182.132 150.236L182.089 150.258L181.779 150.404L181.429 150.911L181.278 151.051L181.087 151.282L180.861 151.514L180.858 151.518L180.662 151.707L180.454 151.915L180.255 152.07L180.036 152.281L179.923 152.472L179.887 152.587L179.908 152.619L179.965 152.713L179.959 152.722L179.918 152.775L180.017 152.891L179.89 153.089L179.717 153.344L179.769 153.395L179.653 153.576L179.552 153.702L179.405 153.905L179.423 153.921L179.229 154.214L179.103 154.406L178.976 154.581L178.97 154.59L178.95 154.622L178.939 154.63L178.855 154.724L178.659 155.028L178.531 155.185L178.401 155.367L178.322 155.527L178.236 155.646L178.062 155.869L177.856 156.245L177.588 156.726L177.251 157.291L177.206 157.366L177.196 157.384L177.07 157.621L177.005 157.78L176.973 157.943L176.951 157.947L176.601 158.011L176.181 158.251L175.807 158.433L175.579 158.534L175.164 158.653L174.594 158.773L174.38 158.867L174.329 158.902L174.292 158.91L174.183 158.971L173.939 159.116L173.658 159.28L173.617 159.333L173.594 159.553L173.597 159.674L173.349 159.992L173.244 160.032L173.115 160.09L173.054 160.129L172.889 160.263L172.774 160.382L172.699 160.363L172.667 160.315L172.482 160.116L172.433 160.072L171.681 159.297L171.615 159.227L171.462 159.091L171.403 159.031L171.354 159.011L171.319 159.005L171.271 158.992L171.262 158.987L171.192 158.946L171.097 158.878L170.962 158.767L170.717 158.648L170.661 158.598L170.51 158.449L170.448 158.377L170.276 158.212L170.153 158.187L169.992 158.179L169.783 158.177L169.707 158.185L169.484 158.173L169.131 158.175L168.939 158.152L168.868 158.173L168.569 158.121L168.382 158.038L168.356 157.963L168.344 157.86L168.32 157.681L168.322 157.648L168.328 157.554L168.32 157.474L168.319 157.468L168.319 157.461L168.308 157.406L168.32 157.137L168.332 156.847L168.343 156.67L168.356 156.489L168.352 156.469L168.349 156.448L168.32 156.417L168.259 156.412L168.145 156.414L167.998 156.406L167.913 156.428L167.868 156.422L167.7 156.391L167.587 156.373L167.461 156.296L167.316 156.199L167.245 156.121L167.124 156.034L166.975 155.985L166.855 155.95L166.796 155.913L166.775 155.882L166.643 155.792L166.573 155.752L166.44 155.737L166.268 155.734L166.073 155.737L165.919 155.706L165.792 155.698L165.65 155.673L165.513 155.662L165.231 155.588L165.038 155.54L164.911 155.529L164.829 155.558L164.779 155.604L164.765 155.601L164.527 155.691L164.438 155.728L164.394 155.708L164.21 155.622L164.149 155.651L164.075 155.697L163.993 155.688L163.839 155.719L163.457 155.984L163.284 156.053L163.024 156.121L162.796 156.18L162.513 156.289L162.117 156.368L161.701 156.432L161.403 156.472L161.161 156.515L161.035 156.555L160.936 156.595L160.759 156.649L160.551 156.688L160.459 156.721L160.381 156.75L160.283 156.828L160.23 156.895L160.147 157.03L160.126 157.041L159.949 157.129L159.071 157.567L158.905 157.681L158.791 157.845L158.744 157.897L158.735 157.926L158.562 158.173L158.217 158.614L158.131 158.785L158.044 159.244L157.987 159.256L157.706 159.295L157.519 159.334L157.262 159.373L157.009 159.399L156.835 159.43L156.62 159.499L156.43 159.562L156.082 159.672L155.821 159.769L155.579 159.843L155.463 159.89L155.401 159.913L155.276 159.977L155.069 160.053L154.705 160.188L154.521 160.246L154.252 160.348L153.905 160.479L153.535 160.617L153.215 160.744L152.956 160.835L152.855 160.892L152.654 160.965L152.416 161.059L152.188 161.146L152.059 161.21L152.015 161.229L151.937 161.257L151.773 161.312L151.709 161.335L151.519 161.428L151.44 161.423L151.339 161.401L151.254 161.375L150.988 161.491L150.785 161.58L150.682 161.629L150.357 161.781L150.004 161.933L149.698 162.077L149.583 162.134L149.514 162.145L149.491 162.15L149.416 162.179L149.051 162.606L148.862 162.823L148.612 163.111L148.278 163.471L148.223 163.531L148.184 163.575L147.733 164.092L147.284 164.6L146.993 164.94L146.953 164.979L146.881 165.049L146.88 165.058L146.879 165.063L146.872 165.07L146.871 165.077L146.628 166.576L146.552 166.963L146.526 167.167L146.131 169.222L145.991 169.953L145.995 169.967L145.993 170.025L146.071 170.168L146.079 170.189L146.208 170.523L146.443 171.12L146.485 171.224L146.823 171.151L147.447 171.03L147.748 171.007L147.888 170.976L148.025 170.942L148.429 170.797L148.657 170.737L148.937 170.677L149.156 170.686L149.443 170.804L149.776 170.997L150.09 171.28L150.226 171.426L150.372 171.698L150.493 171.979L150.495 171.98L150.501 171.996L150.518 172.049L150.556 172.166L150.684 172.587L150.903 173.117L151.027 173.497L151.275 174.135L151.327 174.462L151.337 174.633L151.351 174.712L151.363 174.802L151.383 175.105L151.397 175.283L151.404 175.438L151.411 175.616L151.425 175.688L151.44 175.912L151.45 176.05L151.453 176.208L151.462 176.521L151.461 176.821L151.494 177.106L151.519 177.332L151.545 177.425L151.576 177.528L151.581 177.545L151.582 177.583L151.581 177.59L151.561 177.7L151.531 177.925L151.505 178.025L151.484 178.18L151.453 178.322L151.41 178.561L151.349 178.975L151.341 179.089L151.32 179.178L151.312 179.209L151.279 179.338L151.274 179.359L151.241 179.403L151.316 179.409V179.426L151.799 179.407L152.262 179.401L152.497 179.407L152.465 179.486L152.426 179.587L152.371 179.763L152.335 179.844L152.3 180.006L152.255 180.11L152.233 180.211L152.174 180.394L152.126 180.547L152.074 180.682L152.012 180.876L151.942 181.105L151.885 181.322L151.813 181.509L151.712 181.814L151.708 181.837L151.681 181.967L151.625 182.119L151.616 182.143L151.541 182.348L151.47 182.573L151.404 182.671L151.397 182.681L151.357 182.726L151.267 182.702L151.23 182.691L150.967 182.886L150.962 182.889L150.961 182.89L150.879 182.918L150.687 182.984L150.301 183.034L150.154 183.053L150.127 183.063L149.766 183.201L149.611 183.26L149.595 183.269L149.519 183.313L149.179 183.475L149.097 183.505L148.765 183.628L148.537 183.729L148.186 183.808L148.153 183.817L147.988 183.868L147.907 183.893L147.859 183.931L147.805 183.939L147.674 184.073L147.625 184.153L147.608 184.181L147.497 184.29L147.305 184.465L147.11 184.641L147.093 184.656L146.87 184.819L146.626 184.92L146.366 184.963L146.336 184.981L146.312 184.994L146.208 185.079L145.883 185.443L145.334 185.964L144.967 186.243L144.712 186.417L144.547 186.529L144.541 186.534L144.235 186.678L144.147 186.71L143.702 186.867L143.665 186.878L143.477 186.933L143.263 186.994L143.242 187L142.825 187.053L142.604 187.077L142.552 187.082H142.374L142.204 187.152L141.939 187.26L141.678 187.382L141.451 187.514L141.183 187.65L141.073 187.741L141.013 187.789L140.927 187.858L140.888 187.888L140.661 188.063L140.61 188.102L140.576 187.941L140.536 187.79L140.465 187.526L140.413 187.452L140.338 187.484L140.328 187.488L140.188 187.549L140.059 187.597L139.807 187.684L139.718 187.715L139.451 187.808L138.906 187.978L138.528 188.054L138.223 188.081L138.068 188.059L137.839 188.075L137.627 188.076L137.491 188.071L137.351 188.129L137.143 188.217L137.131 188.223L136.933 188.306L136.466 188.436L136.456 188.437L136.023 188.517L135.505 188.61L135.32 188.635L135.136 188.662H134.947L134.904 188.673L134.889 188.677L134.876 188.681L134.871 188.68L134.79 188.662L134.777 188.661L134.728 188.659L134.372 188.647L134.226 188.625L134.011 188.595L133.976 188.594L133.885 188.593L133.823 188.592L133.433 188.599L133.098 188.617L133.04 188.634L132.9 188.676L132.757 188.72L132.754 188.717L132.707 188.69L132.664 188.666L132.578 188.693L132.432 188.719L132.354 188.738L132.175 188.869L132.151 188.893L132.074 188.971L132.007 189.048L132 189.042L131.539 188.779L131.505 188.756L131.165 188.539L130.777 188.281L130.364 188.045L129.977 187.839L129.831 187.935L129.558 188.119L129.203 188.375L128.927 188.449L128.73 188.515L128.489 188.63L128.248 188.718L127.854 188.874L127.712 188.989L127.45 189.24L127.333 189.376L127.063 189.581L127.008 189.702L126.955 189.817L126.804 189.965L126.729 189.991L126.714 190L126.487 189.907L125.91 189.535L125.712 189.401L125.669 188.771L125.64 188.502L125.609 188.286L125.539 188.214L125.173 187.831V187.831L124.892 187.332L124.608 187.035L124.607 187.034L124.013 186.667L123.827 186.541L123.64 186.414L123.533 186.144L123.54 185.62L123.578 185.079L123.761 184.207L123.814 182.969L123.891 182.113L123.889 182.112L123.881 182.106L123.616 181.921L123.515 181.848L122.876 181.085L122.875 181.083L122.874 181.082L122.713 180.916L122.693 180.895L122.548 180.797L122.179 180.583L121.678 180.371L121.408 180.256L120.308 179.715L119.52 179.126L119.516 179.124L119.177 178.793L118.334 177.971L118.079 177.721L117.993 177.723L116.38 177.757L116.144 177.743L115.996 177.812L115.693 177.985L114.827 177.687L113.816 177.336L112.806 177.067L112.703 176.982L112.594 176.783L112.506 176.517L112.227 176.511L111.678 176.482L111.574 176.396L110.294 175.069L109.992 174.756L109.981 174.745L109.937 174.699L109.78 172.975L109.711 172.368L109.622 171.579L109.621 171.578L109.592 171.314L109.349 169.801L108.577 169.068L108.4 168.899L108.397 168.897L108.215 168.709L108.023 168.513L107.695 168.178V168.177L107.505 167.82L106.89 166.891L106.678 166.482L106.005 165.525L105.972 165.467L105.697 164.996L105.765 164.965L106.419 165.027L106.713 163.46L106.975 161.456L106.987 161.371L107.063 161.17L107.269 160.531L107.494 160.183L107.905 159.653L108.257 158.747L108.266 158.713L108.472 157.991L108.638 157.065L108.981 155.753L108.979 155.752L108.061 155.603L107.74 155.596L106.975 155.227L106.159 154.826L105.173 154.318L105.001 154.231L104.995 154.227L104.879 154.153L103.627 153.355L103.114 153.107L103.017 153.065L102.862 152.998L102.696 152.939L102.587 152.899L102.478 152.847L102.198 152.698L102.079 152.631L101.971 152.575L101.69 152.418L101.578 152.354L101.472 152.287L101.307 152.19L101.19 152.113L101.089 152.051L101.003 151.975L100.884 151.867L100.795 151.779L100.875 151.627L100.928 151.519L101.046 151.28L101.133 151.111L101.185 151.011L101.395 150.603L101.448 150.497L101.594 150.206L101.655 150.083L101.565 150.025L101.274 149.845L101.175 149.781L101.074 149.715L100.801 149.537L100.695 149.467L100.599 149.402L100.321 149.219L100.216 149.154L100.117 149.087L99.9796 148.992L99.8755 148.934L99.8247 148.929L99.7074 148.888L99.5969 148.849L99.2807 148.738L99.1703 148.704L99.0547 148.663L98.7385 148.555L98.6297 148.514L98.5176 148.478L98.1997 148.369L98.0994 148.33L97.6728 148.186L97.5436 148.141L97.4365 148.106L97.1154 147.998L97.0031 147.957L96.8893 147.921L96.5764 147.81L96.4609 147.769L96.347 147.733L96.0495 147.629L95.9203 147.584L95.8098 147.544L95.682 147.488L95.491 147.469L95.3692 147.453L95.2559 147.437L95.0225 147.409L94.7993 147.381L94.6825 147.366L94.3459 147.322L94.2309 147.305L94.1226 147.287L93.9515 147.255L93.8959 147.259L93.6994 147.148L93.5918 147.089L93.303 146.921L93.2101 146.864L93.1986 146.857L93.0039 146.754L92.8363 146.649L92.8255 146.694L92.8426 146.778L92.8284 146.89L92.7415 147.219L92.7172 147.335L92.6809 147.445L92.6348 147.562L92.5399 147.757L92.4883 147.863L92.4316 147.962L92.331 148.132L92.2356 148.237L92.1566 148.325L92.0863 148.417L91.8869 148.69L91.8542 148.747L91.8285 148.793L91.7652 148.898L91.5864 149.187L91.5297 149.287L91.4542 149.377L91.3294 149.522L91.257 149.624L91.2478 149.637L91.2407 149.648L91.194 149.719L91.0768 149.682L90.7655 149.563L90.6517 149.533L90.5351 149.519L90.4993 149.513L90.354 149.491L90.199 149.496L90.081 149.497L89.9618 149.521L89.6311 149.586L89.5151 149.6L89.399 149.613L89.3082 149.622L89.0649 149.604L88.9498 149.583L88.841 149.548L88.5984 149.483L88.5133 149.447L88.4077 149.404L88.2936 149.356L88.1131 149.279L87.878 149.179L87.7674 149.132L87.5018 149.027L87.3502 148.961L87.2395 148.916L86.819 148.743L86.71 148.698L86.4086 148.571L86.2912 148.525L86.1787 148.477L85.8689 148.35L85.7565 148.303L85.651 148.261L85.5846 148.233L85.4081 148.186L85.3268 148.171L85.2133 148.152L85.0897 148.131L84.8934 148.097L84.7644 148.063L84.6523 148.031L84.5368 147.995L84.5159 147.989L84.5153 147.991L84.4715 147.976L84.4061 147.957L84.475 147.801L84.5426 147.666L84.728 147.297L84.7974 147.163L84.989 146.775L85.0551 146.643L85.0841 146.583L85.155 146.443L84.9782 146.311L84.8719 146.236L84.7741 146.163L84.5113 145.961L84.4186 145.889L84.3258 145.814L84.0648 145.614L83.967 145.542L83.8722 145.456L83.6259 145.235L83.4584 145.067L83.3926 144.996L83.3703 144.978L83.3359 144.948L83.1956 144.863L83.0929 144.801L82.9903 144.739L82.6119 144.495L82.1275 144.188L82.0213 144.121L81.6413 143.878L81.5369 143.814L81.4685 143.775L81.152 143.586L81.046 143.521L80.8405 143.389L80.6724 143.268L80.5696 143.197L80.3003 143.004L80.2008 142.933L80.1031 142.867L80.0104 142.799L79.885 142.7L79.845 142.649L79.7838 142.555L79.7089 142.457L79.6295 142.375L79.5099 142.385L79.415 142.365L79.1776 142.31L79.1488 142.304L79.0669 142.261L78.8636 142.226L78.8316 142.221L78.7417 142.207L78.6198 142.183L78.3824 142.132L78.2946 142.124L78.1744 142.108L78.0611 142.094L77.8375 142.057L77.7321 142.019L77.6198 141.979L77.5076 141.941L77.1849 141.841L77.0811 141.805L76.9915 141.724L76.7482 141.416L76.6999 141.37L76.616 141.319L76.3433 141.126L76.3158 141.101L76.2265 141.036L76.1287 140.961L75.8607 140.758L75.7598 140.699L75.6605 140.634L75.4449 140.504L75.3812 140.452L75.2882 140.37L75.1939 140.299L75.0904 140.203L75.0538 140.011L75.0643 139.883L75.0096 139.779L75.0038 139.749L74.6362 139.539L74.2429 139.308L74.1389 139.262L74.0233 139.223L73.8209 139.153L73.7007 139.135L73.6193 139.121L73.5822 139.115L73.57 139.114L73.4606 139.111H73.3144H73.1283L73.0119 139.111L72.8984 139.09L72.8053 139.069L72.6102 139.026L72.5759 139.003L72.5213 138.975L72.4866 139.007L72.4176 139.08L72.4043 139.093L72.2745 139.239L72.0684 139.081L71.9722 139.01L71.8021 138.879L71.6879 138.828L71.5993 138.79L71.4698 138.736L71.3455 138.681L71.1934 138.814L71.1025 138.89L71.0079 138.959L70.729 139.148L70.7467 139.259L70.773 139.368L70.8379 139.617L70.7872 139.687L70.7254 139.781L70.6604 139.886L70.502 140.181L70.4455 140.287L70.3873 140.393L70.1874 140.784L69.9095 141.3L69.8495 141.403L69.7819 141.538L69.5911 141.535L69.509 141.557L69.4285 141.572L69.2702 141.872L69.2516 142.01L69.2341 142.124L69.2252 142.178L69.4485 142.35L69.5463 142.422L69.5791 142.449L69.6375 142.498L69.9056 142.706L69.9983 142.776L70.0911 142.848L70.3556 143.052L70.4862 143.15L70.543 143.2L70.8109 143.407L70.907 143.474L71.0064 143.54L71.2857 143.728L71.3678 143.775L71.4793 143.857L71.6935 144.001L71.8743 144.084L71.9785 144.138L72.0694 144.205L72.1567 144.26L72.357 144.386L72.4532 144.462L72.6343 144.629L72.7162 144.669L72.8251 144.71L72.9406 144.747L73.0938 144.805L73.2677 144.887L73.3614 144.925L73.4451 144.97L73.6334 145.09L73.7423 145.129L73.8666 145.179L73.9506 145.237L74.2693 145.524L74.3236 145.607L74.474 145.909L74.539 146.017L74.6017 146.102L74.7719 146.371L74.7943 146.407L74.7173 146.498L74.6299 146.585L74.403 146.831L74.3223 146.916L74.2452 147.004L74.0167 147.255L73.9394 147.34L73.8572 147.431L73.6252 147.675L73.5463 147.76L73.464 147.848L73.232 148.094L73.1531 148.182L73.0709 148.27L72.8371 148.513L72.7615 148.594L72.6742 148.684L72.6207 148.74L72.5227 148.843L72.5094 148.844L72.4548 148.819L72.3133 148.753L72.276 148.735L72.199 148.699L71.8939 148.562L71.7933 148.517L71.6809 148.469L71.3725 148.333L71.1543 148.236L70.8458 148.099L70.7281 148.041L70.6645 147.99L70.6381 147.941L70.585 147.907L70.5663 147.901L70.3571 147.828L70.2466 147.789L70.1344 147.753L70.1056 147.745L70.0618 147.746L70.015 147.766L69.9795 147.763L69.8434 147.711L69.8176 147.69L69.7657 147.638L69.7267 147.624L69.6096 147.595L69.357 147.54L69.2822 147.514L69.1479 147.452L69.1416 147.413L69.1409 147.408L69.1008 147.327L69.0936 147.241L68.7814 147.095L68.5032 147.061L68.2241 146.941L68.0521 146.836L68.0173 146.815L68.0143 146.821L67.9981 146.852L67.9406 146.965L67.5637 147.95L67.4999 147.936L67.2121 147.804L67.1521 147.865L66.5958 148.597L66.076 149.154H66.0703L66.0476 149.155L65.9815 149.159L65.9692 149.154L65.8275 149.094L65.1431 148.701L64.3997 148.308L63.6963 147.933L63.4626 147.8L63.2833 147.63L62.9568 147.201L62.4889 146.749L62.0083 146.253L61.9804 146.243L61.9262 146.223L61.9109 146.243L61.5698 146.685L61.2007 147.204L60.2488 147.903L59.5006 148.523L58.9336 148.876L58.3447 149.134L57.9158 149.313L57.8645 149.335L57.8296 149.355L57.8148 149.364L57.5683 149.512L56.8364 150.12L56.1044 150.727L55.4897 151.223L54.6426 151.924L53.9155 152.388L53.207 152.644L52.2554 152.716L51.2293 152.719L50.7919 152.698L50.7081 152.694L50.5692 152.687L50.1968 152.583L49.9248 152.528L49.9045 152.524L49.6543 152.365L49.3544 152.153L49.0612 151.945L48.3811 151.383L48.0055 151.091L47.7669 150.906L47.3978 150.695L47.2075 150.588L47.0646 150.567L46.4802 150.544L45.4921 150.47L45.3565 150.416L45.2334 150.322L45.1783 150.283L45.0671 150.392L44.7266 150.714L44.0387 151.16L43.2899 151.514L43.2634 151.523L43.0171 151.608L42.9583 151.591L42.8641 151.485L42.4212 150.829L42.3795 150.797L42.025 150.628L41.6924 150.343L41.2831 150.121L40.91 149.846L40.3452 149.654L40.1928 149.591L39.7739 149.653L39.5593 149.695L39.4807 149.654L39.3978 149.564L38.9438 149.178L38.7757 149.045L38.6893 149.185L38.3761 149.482L37.9915 149.835L37.68 150.245L37.1577 150.876L37.0222 150.919L36.9197 150.904L36.7019 150.821L36.4035 150.718L36.1744 150.717L35.9201 150.817L35.704 150.945L35.5293 151.126L35.2995 151.486L35.0861 151.771L34.6723 152.364L33.7597 153.716L33.5965 153.919L33.4698 153.937L32.8526 153.88L32.8458 153.879L32.3694 153.835L31.3588 153.802L31.3566 153.8L31.3139 153.766L31.3138 153.667L31.4466 153.365L31.4373 153.31L31.1887 153.156L30.7137 152.924L29.8052 152.182L29.6967 152.009V151.901L29.7265 151.715L29.8025 151.384L29.9359 150.822L30.0418 150.517L30.374 149.962L30.8796 149.099L31.1719 148.19L31.2841 147.829L31.2979 147.786L31.319 147.723L31.4452 147.523L31.8417 146.76L31.8758 146.694L31.8772 146.691L31.9231 146.603L31.9128 146.504L31.0483 146.067L30.9025 145.989L30.8875 145.981L30.5068 145.777L29.9228 145.611L29.2363 145.435L28.8112 145.244L28.5813 145.066L28.1267 144.5L27.7741 144.086L27.5329 143.445L27.4561 143.07L27.2701 142.675L27.2196 142.567L27.275 142.471L27.2767 142.469L27.388 142.254L27.3993 142.068L27.3568 141.98L27.3205 141.931L26.9255 141.642L26.7311 141.787L26.0581 141.385L25.4648 140.93L25.4359 140.908L25.3984 140.879L25.4652 140.828L25.494 140.806L25.517 140.73L25.5211 140.684L25.3726 140.152L25.2985 139.928L25.13 139.379L25.073 139.035L24.9681 138.734L24.7451 138.22L24.645 138.046L24.5192 137.895L24.1345 137.594L23.5688 137.215L23.0546 136.999L22.5597 136.848L21.9983 136.628L21.7118 136.518L21.1575 136.385L20.2831 136.135L19.8089 135.946L18.9088 135.715L18.6412 135.614L18.5803 135.591L18.4966 135.549L18.3521 135.408L18.1329 135.301L18.1048 135.265L18.0872 135.202L18.0967 134.917L18.0487 134.634L17.4578 133.592L17.1604 133.087L17.1513 133.019L17.1197 132.769L17.0655 131.682L17.0337 131.339L17.0729 130.981L17.1666 130.477L17.1185 130.203L17.0356 129.891L16.9768 129.69L16.9723 129.674L16.9523 129.606L16.9568 129.539L16.9631 129.446L16.8608 128.972L16.7494 128.652L16.5828 128.188L16.5622 128.1L16.6383 127.531L16.5927 127.319L16.5579 127.278L16.1641 126.932L16.0288 126.813L16 126.711L16.0062 126.637L16.0712 125.141L16.2074 123.193L16.2115 123.136L16.5879 123.111L16.6419 123.105L16.8939 122.948L17.2103 122.775L17.4984 122.68L17.9871 122.484L18.3816 122.382L19.0768 122.352L19.1731 122.345L19.4114 122.311L19.9897 122.208L20.282 122.173L20.8421 122.157L21.4597 122.134L21.7178 122.128L22.1002 122.156L22.2668 122.179L22.3655 122.227L22.6076 122.275L23.4938 122.221L24.0024 122.157L24.1012 122.096L24.1489 121.959L24.2954 121.967L24.3853 121.933L24.4735 121.687L24.5135 121.608L24.6811 121.453L24.965 121.195L25.2997 120.715L25.5642 120.193L25.6873 119.642L25.7932 119.369L25.8279 119.279L25.9306 118.968L26.264 117.915L26.3805 117.582L26.4307 117.17L26.4566 116.915L26.601 116.42L26.6565 116.213L26.7271 115.903L26.8448 115.597L26.9178 115.516L26.9667 115.461L27.4243 114.999L27.5319 114.77L27.6057 114.613L27.6092 114.601L28.0369 114.114L28.5725 113.511L28.6846 113.353L28.7658 113.016L28.8495 112.731L28.9556 112.524L29.2585 111.925L29.4097 111.643L29.6434 111.044L29.8002 110.404L30.1375 109.005L30.3021 108.295L30.3523 108.105L30.5664 107.686L30.877 107.244L30.9331 107.113L30.9224 107.037L30.9169 106.956L30.9355 106.851L30.9726 106.745L31.0676 106.492L31.2128 106.164L31.3155 105.958L31.3171 105.954L31.3771 105.795L31.4872 105.558L31.6065 105.369L31.7565 105.165L31.9233 104.967L32.1508 104.771L32.3111 104.661L32.4739 104.61L32.658 104.596L32.8418 104.599L33.0571 104.64L33.2849 104.749L33.384 104.777H33.465L33.5393 104.767L33.6545 104.739L33.7682 104.72L33.8152 104.713L33.9392 104.761L34.0726 104.863L34.1813 104.925L34.3671 105.018L34.8564 105.34L35.0997 105.529L35.3214 105.7L35.5608 105.922L35.7486 106.102L35.9688 106.261L36.1957 106.421L36.2828 106.456L36.4069 106.504L36.5425 106.574L36.6742 106.671L36.9185 106.801L37.0688 106.891L37.2337 107.028L37.3772 107.128L37.5327 107.217L37.6249 107.252L37.9132 107.479L38.1498 107.668L38.2939 107.728L38.3605 107.573L38.4401 107.339L38.5392 107.154L38.6584 106.974L38.9844 106.528L39.4966 105.928L39.9576 105.479L40.3627 105.036L40.7147 104.653L40.8523 104.533L40.8739 104.514L40.9497 104.516L41.0828 104.527L41.1872 104.542L41.337 104.565L41.6287 104.58L41.7785 104.599L42.0073 104.641L42.2865 104.689L42.485 104.726L42.6848 104.785L42.8241 104.832L42.948 104.896L43.0578 104.989L43.0777 105.007L43.2276 105.137L43.4582 105.374L43.8466 105.774L44.0791 106.002L44.1637 106.096L44.2214 106.18L44.3386 106.34L44.4343 106.471L44.6207 106.741L44.7581 107.008L44.8049 107.246L44.9474 107.509L45.2191 107.816L45.6367 108.189L46.1384 108.562L46.65 108.955L47.1561 109.369L47.2502 109.46L47.3506 109.558L47.3953 109.601L47.5646 109.773H47.627L47.7103 109.687L47.7264 109.671L47.7934 109.603L47.8388 109.538L47.8592 109.509L48.0438 109.247L48.1575 108.993L48.3099 108.639L48.4471 108.401L48.7181 108.121L49.026 107.859L49.2595 107.607L49.4113 107.397L49.5435 107.254L49.6898 107.176L50.3442 106.149L50.4176 105.676L50.5729 105.145L50.7911 104.49L50.8267 104.16L50.6518 104.13L50.1049 103.941L49.4196 103.543L48.7552 102.997L48.2005 102.453L48.0174 102.246L47.7349 101.926L47.5459 101.716L47.1005 101.189L46.6196 100.663L46.4395 100.472L46.3907 100.421L46.3571 100.37L46.3181 100.313L46.1683 100.089L45.9741 99.7814L45.8574 99.5911L45.5023 99.0083L45.1998 98.6131L45.0061 98.3817L44.8032 98.2L44.6947 98.1237L44.5731 98.0234L44.5216 97.9746L44.4279 97.8623L44.3958 97.8237L44.4493 97.7517L44.5599 97.5871L44.7918 97.2246L45.0493 96.742L45.3137 96.3529L45.4956 96.064L45.5949 95.8634L45.699 95.5874L45.7833 95.3766L45.8285 95.296L45.9127 95.1991L46.0226 95.0834L46.1395 94.9497L46.2841 94.7689L46.3343 94.6969L46.5215 94.2846L46.5963 94.1431L46.6579 93.9895L46.8012 93.6797L46.9446 93.3699L47.0177 93.1251L47.0789 92.7835L47.1698 92.271L47.2066 92.085L47.245 92.0059L47.2958 91.8862L47.5751 91.5277L47.682 91.4023L47.7092 91.3705L47.731 91.2741L47.8172 91.1635L47.9323 91.1383L48.0357 91.1129L48.2266 91.1007L48.4054 91.1087L48.5239 91.0903L48.6931 91.0591L48.8184 91.034L48.9163 91.0288L49.1218 91.0593L49.2197 91.0592L49.2826 91.0263L49.4912 90.9619L49.6551 90.9493L49.9232 90.9673L50.0011 90.9549L50.1145 90.9313L50.2141 90.9347L50.3638 90.9592L50.4698 90.9796L50.5466 90.9265L50.6937 90.8034L50.8253 90.7055L50.9089 90.6509L51.0144 90.6L51.1891 90.5452L51.5785 90.4633L51.7375 90.4405L51.8767 90.3902L52.1448 90.308L52.2768 90.2882L52.3829 90.2984L52.5763 90.3406L52.7407 90.4061L52.9571 90.4825L53.1879 90.505L53.4511 90.5077L53.5015 90.6357L53.5393 90.7958L53.6012 90.9325L53.7254 91.0805L53.9089 91.2158L53.9128 90.8664L53.9342 90.7972L54.0042 90.6457L54.0871 90.5249L54.1325 90.434L54.2597 90.2936L54.3477 90.1747L54.4514 89.9185L54.5892 89.4423L54.6168 89.302L54.6368 89.1072L54.6547 88.7343L54.6649 88.6242L54.6606 88.4782L54.6223 88.2349L54.6396 87.9061L54.6629 87.7182L54.8542 87.1632L54.8784 87.0244L54.8948 86.8465L54.8703 86.69L54.8425 86.5302L54.8456 86.4453L54.8521 86.3556L54.9067 86.1139L55.0069 85.7677L55.1184 85.3487L55.3053 84.8581L55.4757 84.4519L55.6459 84.163L55.9141 83.7568L55.9532 83.6335L56.0785 83.4083L56.2242 83.168L56.7572 82.4693L56.8787 82.266L56.9983 82.0779L57.0561 81.9482L57.038 81.7104L57.0409 81.4304L57.0644 81.3341L57.2475 80.9919L57.2543 80.9792L57.2569 80.9749L57.5461 80.475L57.8403 80.0336L57.9473 79.8928L58.3567 79.4347L58.5091 79.2512L58.5374 79.217L58.2189 79.0828L58.157 79.0461L57.6791 78.648L57.1735 78.1763L56.6419 77.7552L56.2129 77.4562L55.7996 77.1252L55.0418 76.702L54.8988 76.5707L54.6499 76.2985L54.6152 76.2554L54.375 76.0767L54.127 75.9345L54.0488 75.8897L53.7096 75.6754L53.5996 75.5853L53.2781 75.3229L52.9715 75.0727L52.4633 74.6275L52.2923 74.4777L52.2339 74.4058L52.1053 74.2472L52.0606 74.1921L52.1041 73.9711L52.1065 73.9587L52.4648 73.318L52.4826 73.2867L52.9046 72.5428L53.1745 72.0415L53.2547 71.8849L53.3257 71.7724L53.9449 71.0782L54.1595 70.7593L54.6254 70.0439L54.6899 69.9228L54.9682 69.4249L55.3555 68.7643L55.5535 68.4331L55.6944 68.1792L55.7569 68.0733L55.7916 67.9177L55.7947 67.9047L55.8259 67.7757L55.8363 67.6587L55.7944 67.4306L55.7929 67.215L55.8117 67.0965L55.8541 66.9868L55.9442 66.8424L55.9704 66.7936L55.9742 66.7631L55.93 66.6775L55.7833 66.361L55.5937 65.976L55.515 65.8321L55.4728 65.754L55.392 65.6042L55.3072 65.5213L55.1239 65.3774L54.8611 65.1287L54.7968 65.0325L54.6368 64.7666L54.6307 64.7565L54.6131 64.6968L54.8027 64.2569L54.8867 64.0766L55.1411 63.6004L55.4372 63.0433L55.4602 62.9844L55.4477 62.9214L55.3869 62.8151L55.1011 62.5353L54.9302 62.3458L54.0831 61.4728L53.2903 60.6889L52.8852 60.2662L52.8625 60.2395L52.304 59.781L52.2365 59.7129L52.1093 59.6226L51.6362 59.3454L51.5625 59.3007L51.5419 59.2882L51.4347 59.1872L51.4074 59.1701L51.3798 59.1529L50.859 58.7868L50.8579 58.7854L50.8416 58.7652L50.8375 58.7347L50.8463 58.6818L50.8861 58.5127L50.9608 58.1745L51.0209 57.9301L51.137 57.6318L51.1899 57.5133L51.2317 57.4206L51.3379 57.2005L51.4063 57.0953L51.5027 56.957L51.6565 56.7494L51.7507 56.6245L51.7974 56.5626L51.8974 56.4379L51.94 56.3808L52.0243 56.2292L52.1257 56.0892L52.2198 56.0003L52.2822 55.924L52.4168 55.7593L52.6036 55.5153L52.7445 55.3318L52.7853 55.2661L52.8259 55.2007L52.8573 55.1728L53.0152 55.135L53.1139 55.0952L53.2312 54.9803L53.4025 54.7944L53.5828 54.5623L53.6571 54.4909L53.7513 54.4003L53.9221 54.1974L54.1573 53.9929L54.311 53.8516L54.4012 53.7355L54.4482 53.6529L54.4937 53.5771L54.4834 53.2885L54.4574 53.1923L54.4359 53.1419L54.2497 52.844L53.8622 52.2656L53.8603 52.2634L53.8533 52.2553L53.7023 52.0792L53.2879 51.5745L52.9 50.9758L52.7667 50.7055L52.7638 50.6973L52.7559 50.6752L52.6733 50.3341L52.5929 50.0828L52.6207 49.6948L52.588 49.4578L52.616 49.0783L52.6598 48.7901L52.7197 48.3979L52.6761 47.9929L52.6771 47.7481L52.733 47.5463L52.8806 47.1486L53.0416 46.6009L53.1988 46.1809L53.3555 45.878L53.5765 45.5821L53.8382 45.2155L53.898 45.074L53.947 44.9581L53.9246 44.8703L53.8906 44.7913L53.7558 44.5991L53.5355 44.3847L53.4304 44.2825L53.1655 43.9974L52.8005 43.6045L52.7995 43.6043L52.54 43.5276L52.507 43.4893L51.8444 42.7244L51.841 42.7205L51.5286 42.3798L51.459 42.3121L51.4057 42.2604L51.3487 42.2125L51.2888 42.1817L51.1798 42.147L51.0963 42.1219L50.9743 42.1078L50.9235 42.1039L50.4799 42.0722L49.9799 41.9519L49.9804 41.9509L50.1854 41.5713L50.3839 41.1757L50.582 40.7715L50.7578 40.4223L50.8489 40.2739L50.9644 40.0843L51.0814 39.8179L51.1975 39.5127L51.3126 39.238L51.3804 39.1038L51.4292 38.9564L51.4537 38.8539L51.4699 38.6088L51.4486 38.2184L51.4235 38.0882L51.3216 37.8562L51.2488 37.6439L51.2448 37.6167L51.2554 37.4245L51.3073 37.2618L51.3825 37.0883L51.4699 36.9281L51.5779 36.7793L51.6328 36.6675L51.6465 36.538L51.6669 36.4729L51.7327 36.3949L51.8635 36.2796L51.9584 36.1514L52.0188 35.9886L52.0643 35.7699L52.1124 35.6617L52.1654 35.6179L52.3145 35.4885L52.4506 35.3136L52.6254 35.1292L52.7953 34.8854L52.9291 34.68L52.9897 34.602L53.2287 34.6964L53.4918 34.7359L53.7995 34.8781L54.2651 35.0452L54.5443 35.0588L54.9781 35.2352L55.3063 35.4313L55.4137 35.4955L55.4155 35.4965L55.6171 35.5868L55.868 35.6148L56.0994 35.672L56.5336 35.8722L56.547 35.8481L56.7719 35.4433L57.0505 34.9386L57.1709 34.6672L57.2659 34.4728L57.5619 33.7688L57.5333 33.705L57.3695 33.4999L57.1496 33.2146L57.1004 33.0662L57.1725 32.8996L57.5024 32.3443L57.3612 32.1625L57.3793 31.863L57.7491 31.8421L57.8148 31.4751L57.8554 31.1953L58.2397 31.2115L58.2673 30.8863L59.1287 31.0558L59.4511 31.1059L59.9997 31.2048L60.2688 31.3387L60.2701 31.3393L60.5213 31.5933L60.8348 31.9069L60.9841 32.1413L61.0251 32.4428L61.2379 32.8057L61.2384 32.8065L61.2628 32.8372L61.4557 33.0805L61.4581 33.0834L61.689 32.9095L61.6905 32.9112L62.0236 33.2601L62.2109 33.3847L62.4493 33.4538L62.5478 33.372L62.7361 33.2157L63.163 32.7534L63.4833 32.3565L63.6109 32.0322L63.7937 31.5469L64.0151 31.2542L64.2482 30.8917L64.5032 30.3808L64.5438 30.0229L64.5621 29.8695L64.5685 29.8513L64.6302 29.6772L64.7095 29.4067L64.7552 29.1327L64.7902 28.8711L64.8146 28.5864L64.8422 28.4369L64.8911 28.2903L64.9319 28.181L64.9408 28.1573L65.1178 28.0629L65.1986 28.0491L65.4581 27.9392L65.6742 27.781L65.8581 27.6219L65.9942 27.4951L66.2132 27.3433L66.2311 27.3205L66.3029 27.2293L66.3499 27.1837L66.3965 27.1386L66.6422 26.9873L66.7638 26.9005L66.8606 26.8533L67.0001 26.7889L67.2782 26.6802L67.4397 26.571L67.5299 26.596L67.7626 26.638L67.9554 26.7082L68.1917 26.8351L68.2691 26.8894L68.5241 26.9906L68.9115 27.1858L68.9883 27.1311L69.1623 27.0071L69.2235 26.8864L69.2744 26.8736L69.617 26.7044L69.8302 26.5942L70.1596 26.5081L70.5566 26.4179L70.7947 26.3353L71.1025 26.2233L71.1414 26.2273L71.3247 26.1795L71.4859 26.1415L71.6064 26.1197L71.7466 26.1238L72.0791 26.1532L72.4441 26.1628L72.6861 26.1449L72.7907 26.3607L73.3471 26.3413L73.8825 26.3675L74.104 26.3678L74.33 26.3938L74.7181 26.4395L75.1189 26.5261L75.5338 26.586L75.8271 26.6335L76.0432 26.6491L76.2888 26.6209L76.6473 26.6118L76.8482 26.6254L76.9172 26.66L76.9219 26.6623L77.1137 26.7183L77.2548 26.7717L77.4343 26.8478L77.5033 26.8729L77.5701 26.9198L77.6629 27.0268L77.7546 27.1048L77.9149 27.2248L78.2541 27.4515L78.4124 27.5833L78.4363 27.5925L78.4914 27.6136L78.642 27.7028L78.7249 27.6991L78.8713 27.7391L78.9987 27.7973L79.3749 27.9431L79.4863 27.9518L79.6747 28.0027L80.0632 28.1197L80.1185 28.153L80.1565 28.1978L80.1862 28.2442L80.2714 28.3051L80.416 28.3467L80.6605 28.4801L81.1886 28.7372L81.5436 28.9353L81.6119 28.9909L81.8943 29.1826L82.0001 29.2219L82.2366 29.3295L82.4234 29.3753L82.4826 29.276L82.6087 29.1169L82.7338 29.0153L82.87 28.8596L83.143 28.6147L83.2013 28.568L83.2067 28.5478L83.1991 28.495L83.1844 28.3673L83.1894 28.2722L83.2447 28.1033L83.2524 28.0525L83.2413 28.0047L83.2238 27.9398L83.1931 27.8594L83.0989 27.7338L83.0389 27.5832L83.0005 27.4585L82.9709 27.3136L82.9543 27.1927L83.0362 27.053L83.1241 26.9527L83.222 26.8609L83.4097 26.6585L83.5044 26.5599L83.6119 26.4955L83.7057 26.4529L83.8069 26.368L83.8295 26.3328L83.837 26.287L83.8456 26.1784L83.9101 26.1659L83.9491 26.1615L83.9781 26.1416L84.0025 26.0962L84.0391 26.0356L84.0756 25.7779L84.0975 25.3875L84.1098 24.9664L84.0922 24.7095L84.0962 24.5753L84.0879 24.5667L84.071 24.5681L84.0154 24.5552L84.0075 24.2271L84.0121 24.1609L84.0308 24.0508L84.1507 23.7607L84.2249 23.5784L84.5255 23.1061L84.8381 22.6188L84.9863 22.3562L85.2182 22.0408L85.7467 21.1969L85.9824 20.8611L86.0249 20.5508L86.0731 20.3087L86.1961 19.9387L86.4235 19.3954L86.6797 18.8544L86.8604 18.3715L87.0803 17.8773L87.1453 17.734L87.3687 17.4286L87.6499 17.0086L87.92 16.5391L88.1525 16.0962L88.2229 15.9343L88.3095 15.8185L88.5312 15.6133L88.7713 15.3116L89.0211 15.0474L89.131 14.9525L89.244 14.776L89.2447 14.7335L89.2673 14.6948L89.3163 14.699L89.3273 14.7002L89.4108 14.7092L89.5009 14.7821L89.8219 14.9934L90.1678 15.2255L90.4637 15.4244L90.6917 15.5355L90.8935 15.5951L90.9775 15.6289L91.1165 15.7078L91.4422 15.8427L91.6297 15.9479L91.8827 16.0815L91.9949 16.1464L92.0845 16.046L92.1699 15.9013L92.3375 15.9858L92.4445 15.867L92.7116 15.5726L92.7819 15.516L92.7871 15.5059L92.8213 15.4895L92.8665 15.5107L93.1172 15.6783L93.4588 15.8713L93.6479 15.9867L93.7063 16.0269L93.7452 16.031L93.7657 16.0211L93.8812 15.8923L93.9492 15.7728L94.0399 15.618L94.0784 15.5388L94.2205 15.3374L94.3638 15.1733L94.5031 15.0313L94.6015 14.9158L94.6823 14.8441L94.8219 14.6902L95.0365 14.5104L95.1102 14.4506L95.1563 14.4225L95.2196 14.3777L95.2928 14.3501L95.3044 14.075L95.2897 13.9455L95.2656 13.7802L95.2164 13.5006L95.1927 13.4033L95.1168 13.198L95.0046 12.9445L94.9081 12.6573L94.7675 12.3828L94.9116 12.263L95.2502 11.946L95.3639 11.8307L95.4865 11.6799L95.6266 11.5039L95.7235 11.373L95.8347 11.205L96.0397 10.8925L96.1474 10.7295L96.2658 10.5361L96.2874 10.3631L96.3196 10.1682L96.4206 10L96.5941 10.1306L96.754 10.2728L96.8557 10.3596L96.9055 10.4114L97.0381 10.4716L97.1523 10.5144L97.3555 10.5928L97.51 10.6584L97.6614 10.7987L97.7968 10.983L97.833 11.1383L97.8758 11.3006L97.8986 11.4471L97.9205 11.6464L97.9683 11.9107L98.0965 12.122L98.182 12.3581L98.2087 12.4725L98.1437 12.711L98.0517 12.8453L97.9831 12.992L98.0375 13.0779L98.1828 13.1791L98.1878 13.1826L98.3605 13.2655L98.6581 13.4612L98.9266 13.6749L99.1111 13.855L99.3547 14.0412L99.5336 14.1548L99.8035 14.2854L99.9961 14.3959L100.111 14.5084L100.208 14.5373L100.255 14.5551L100.349 14.5844L100.467 14.6218L100.743 14.6828L100.957 14.7392L101.209 14.793L101.299 14.8048L101.39 14.8115L101.869 14.8302Z" fill="#D2E6FC" stroke="#6D94BC" stroke-width="1.8"/>
</svg>
