<svg width="200" height="200" viewBox="0 0 200 200" fill="none" xmlns="http://www.w3.org/2000/svg">
<mask id="mask0_11_848" style="mask-type:luminance" maskUnits="userSpaceOnUse" x="5" y="19" width="190" height="163">
<path fill-rule="evenodd" clip-rule="evenodd" d="M80.2253 58.0735C80.2323 58.0966 80.2396 58.1144 80.2468 58.1265C80.2881 58.1964 80.3935 58.2758 80.4563 58.3397L81.4561 58.2258C81.5381 58.2645 81.6348 58.3067 81.7012 58.364L83.0074 59.4901C83.2356 59.6869 83.5768 59.8515 83.8463 59.9919C83.856 59.997 83.9445 60.0457 83.949 60.0457C84.2539 60.0533 84.8059 60.0267 85.0851 60.136C85.3161 60.4023 85.2578 60.6119 84.9874 60.8167L85.5244 61.2932C85.6992 61.2676 85.8749 61.2457 86.0504 61.222C86.209 61.3345 86.3724 61.4012 86.5559 61.4713C86.6697 61.5957 86.6112 62.0073 86.7225 62.1989C86.8014 62.3344 87.428 62.7252 87.5709 62.8086L87.6067 62.9563L87.9932 63.2012C88.247 63.3106 88.6508 63.0318 88.8846 62.9715C88.8922 62.9696 89.1101 62.9911 89.1319 62.993C89.1754 62.9966 89.2315 62.9965 89.2733 63.0053C89.413 63.0354 89.643 63.076 89.7696 63.1297C90.1951 63.3097 90.3048 63.987 90.51 64.3344C91.0709 64.5084 91.0981 64.6135 91.5039 65.0282C91.5091 65.0334 91.6034 65.0673 91.6162 65.0723C91.736 65.0231 91.8538 64.7693 91.8847 64.6692C91.5061 64.4052 91.622 63.9594 91.5234 63.6012C91.4997 63.5149 91.4388 63.4256 91.4066 63.3403C91.3306 63.1379 91.2946 62.515 91.2611 62.2696C91.4649 62.0766 91.7853 61.8692 92.0486 61.751C92.0617 61.7453 92.2837 61.7097 92.3311 61.7012L92.4771 61.751C92.6906 61.6396 92.9559 61.748 93.1697 61.8042C93.1787 61.8065 93.4149 61.9817 93.4637 62.0175L93.2837 62.2645L93.3467 62.5097L93.4733 62.5877L93.5421 62.741C93.6917 62.7315 93.7361 62.7342 93.777 62.7253C93.8141 62.7173 93.8486 62.6999 93.9555 62.6555L94.0314 62.8881C94.0489 62.8965 95.0264 63.0518 95.0613 63.0406L95.3036 62.9634L95.4242 63.0414L95.5629 63.4391L95.5053 63.5545C95.5143 63.6146 95.5971 63.7031 95.6466 63.7409L96.0302 63.85C96.0726 63.9597 96.0239 64.0679 95.996 64.1758C96.1572 64.3669 96.2824 64.4939 96.4841 64.6543L96.7857 64.588L97.1045 64.715L97.2864 64.5818C97.5566 64.6325 97.8357 64.7954 98.0176 64.9822C98.077 65.0434 98.1248 65.142 98.1896 65.1954C98.1995 65.2035 98.3796 65.2752 98.421 65.2928L98.4597 65.3707C98.4345 65.4442 98.412 65.6082 98.457 65.6807C98.5102 65.7483 98.765 65.7713 98.846 65.7711L98.9865 65.8692C99.0288 66.066 99.163 66.085 99.3764 66.1066L99.4512 66.2427L99.706 66.2979L99.9338 66.6099L99.9941 66.5942L100.095 66.4409L100.308 66.5335L100.374 66.5113L100.437 66.2953L100.696 66.1876C100.814 66.2432 100.944 66.319 101.068 66.3629C101.176 66.4014 101.321 66.3747 101.402 66.47C101.467 66.5589 101.366 66.9507 101.337 67.0477L101.422 67.1202L101.468 67.3874L101.684 67.2963C101.746 67.2841 101.884 67.3855 101.921 67.4199C102.01 67.4209 102.099 67.418 102.189 67.4171C102.294 67.4894 102.454 67.5631 102.588 67.5814L102.669 67.712C102.74 67.7338 102.862 67.7233 102.929 67.694L103.119 67.4344L103.179 67.4185L103.278 67.538L103.248 67.6175C103.146 67.6627 102.961 67.8039 103.004 67.924L103.103 68.044L103.218 68.0641L103.277 68.0213L103.336 67.8424L103.39 67.81L103.518 67.9031L103.59 67.8763L103.684 67.6974L103.858 67.6117L104.107 67.6409L104.192 67.7242L104.212 67.8237L104.111 68.0293C104.111 68.1158 104.304 68.2355 104.398 68.2261L104.464 68.1889L104.498 68.026L104.56 68.0355L104.64 68.1922L104.623 68.2868L104.299 68.5415L104.289 68.6313L104.538 68.8336L104.601 69.0428L104.733 68.9842L104.796 68.7053C104.914 68.8253 105.25 68.8698 105.414 68.8571L105.399 68.9476C105.597 69.0206 105.876 68.9927 106.088 69.0353C106.436 69.1051 106.96 69.3366 107.29 69.4958L107.57 69.4268L107.736 69.4924L107.899 69.4261C108.25 69.5213 108.639 69.5878 108.977 69.7118C108.987 69.7156 109.229 69.9165 109.252 69.9348C109.232 70.0376 109.507 70.4543 109.57 70.5451C109.596 70.5828 109.748 70.7339 109.76 70.7583C109.865 70.9817 109.829 71.6511 109.807 71.8837C110.217 72.3425 110.618 72.8498 111.06 73.2838C111.319 73.5384 111.681 73.7792 111.971 74.0108C112.428 74.3746 112.452 74.3133 113.141 74.4458C113.283 74.4731 113.441 74.5161 113.584 74.5307C114.238 74.5974 114.547 74.4283 115.145 74.8552C115.173 74.904 115.229 74.9758 115.241 75.0251C115.273 75.1662 115.234 75.4055 115.383 75.5077C115.597 75.6537 115.904 75.736 116.069 75.9344C115.993 76.2553 116.013 76.5448 116.04 76.8657C116.231 77.043 117.196 77.3149 117.466 77.4049C117.662 77.5189 119.809 78.8407 120.133 78.9361C120.356 79.0018 121.32 79.0686 121.594 79.099L124.093 81.0548C124.269 81.1925 124.696 81.1458 125.208 81.6008C125.243 81.5967 125.279 81.5946 125.314 81.5877C125.495 81.7015 125.71 81.8149 125.877 81.9425C126.072 82.0909 126.128 82.2597 126.402 82.3574C126.656 82.355 126.879 82.3541 127.127 82.291L127.316 82.108L127.341 81.8223L127.621 81.5647C127.602 81.4954 128.247 80.6845 128.33 80.5741C129.195 80.5862 130.027 80.6035 130.887 80.7204C131.001 80.8079 131.183 80.915 131.27 81.0167C131.532 81.3217 131.777 81.6205 132.082 81.8927L132.127 82.0866L132.893 82.336L133.056 82.1246C133.161 82.1689 133.697 82.3655 133.724 82.4485C133.966 82.4878 134.378 82.7006 134.562 82.8288C134.622 82.8707 134.748 83.0852 134.902 83.1767C135.346 83.4396 135.835 83.6895 136.256 83.979C136.449 84.1114 136.616 84.2847 136.812 84.4118C137.016 84.5445 137.282 84.6781 137.504 84.7881C137.667 84.8687 138.273 85.0544 138.341 85.1065C138.555 85.2702 138.868 85.6618 139.06 85.8653C139.088 85.8944 139.855 86.4045 139.869 86.4128C140.167 86.5754 140.764 86.7749 141.136 86.7151C141.318 86.6857 141.496 86.6058 141.678 86.5722C141.879 86.5351 142.415 86.5072 142.546 86.3616L142.663 86.5328C142.74 86.5313 142.858 86.5411 142.931 86.5273C143.205 86.4757 143.475 86.3879 143.747 86.3278C143.888 86.2964 144.101 86.3042 144.23 86.254C144.245 86.2482 144.39 86.1491 144.413 86.1345L144.798 86.1463C144.891 86.1014 145.02 86.0212 145.118 85.9923C145.145 85.9843 145.334 85.9827 145.379 85.9758C145.596 85.9423 145.856 85.8553 146.071 85.8451C146.082 85.8448 146.406 85.919 146.437 85.926L146.92 85.7499L147.083 85.8126C147.122 86.1882 147.128 86.2309 147.448 86.5396V86.6136L147.34 86.6812C147.391 86.8202 147.349 87.0677 147.249 87.1851L147.303 87.2424L147.41 87.2375C147.445 87.2877 147.548 87.333 147.614 87.3328L147.703 87.564L147.853 87.6593L147.871 87.7117L147.774 87.8692L147.893 87.9583L147.778 88.1051L147.88 88.1425L147.867 88.4732C147.973 88.5888 148.054 88.7501 148.111 88.888L148.249 88.9309L148.333 89.1415C148.216 89.1991 148.092 89.5472 148.174 89.6345L148.307 89.7027L148.312 89.7974C148.214 89.7955 148.037 89.6993 147.964 89.6487L147.917 89.7228C148.253 89.9076 148.201 90.2042 148.28 90.4954C148.324 90.6635 148.407 90.8345 148.469 91L148.441 91.0986C148.458 91.0973 148.642 91.1127 148.661 91.1167C148.705 91.1252 148.751 91.1785 148.796 91.1871L149.363 91.2989L149.402 91.3071C149.426 91.3158 149.501 91.3542 149.52 91.3575C149.836 91.4152 150.039 91.2388 150.326 91.2305C150.606 91.2226 150.9 91.2891 151.18 91.2803C151.518 91.2696 152.497 91.0887 152.742 91.216C153.043 91.3718 153.03 91.7007 153.139 91.8064L153.404 92.0611C154.468 92.435 155.256 92.3856 156.343 92.3613C156.387 92.3604 156.443 92.3649 156.486 92.3578C156.522 92.3518 156.677 92.3132 156.701 92.3129C157.171 92.3076 157.084 92.388 157.548 92.288C157.628 92.3518 157.79 92.3236 157.886 92.3198C158.067 92.3129 158.266 92.2918 158.447 92.2984C158.711 92.308 159.015 92.379 159.281 92.4164C159.408 92.5547 159.545 92.6916 159.654 92.8412C159.717 92.9268 159.744 93.0297 159.816 93.1104C159.962 93.2777 161.033 93.9547 161.247 93.9969L161.356 94.1806C161.329 94.6469 161.298 94.9873 161.889 95.1989L161.934 95.3652C162.128 95.3914 162.321 95.4203 162.516 95.4384L162.62 95.2975L162.727 95.288C162.952 95.4288 163.094 95.3697 163.319 95.2761L163.404 95.1615L163.512 95.131C163.546 94.7526 163.826 94.8648 163.906 94.7085L163.87 94.5663L163.913 94.5193C164.02 94.5062 164.187 94.4667 164.261 94.3964L164.27 94.0498C164.469 93.953 164.716 93.5884 164.822 93.4086C164.686 93.3186 164.22 92.9955 164.187 92.868L164.268 92.6851L164.598 92.4509C164.615 92.3461 164.632 92.2361 164.608 92.1312L164.512 92.125L164.447 92.0138L164.268 91.9862C164.29 91.9097 164.311 91.8327 164.336 91.7569C164.916 91.7872 170.274 92.0726 170.284 92.0772C172.02 92.8489 173.759 93.5741 175.458 94.4032C175.748 94.5449 176.008 94.7326 176.279 94.9017L176.127 95.0603L175.881 95.4123C175.841 95.4888 175.864 95.7691 175.892 95.8537C176.132 95.9286 176.465 95.9714 176.719 95.9367C176.911 95.8115 177.111 95.6902 177.316 95.5822C177.481 95.5718 177.762 95.65 177.87 95.7681C177.943 95.8506 177.925 96.0757 177.88 96.1606C177.806 96.2997 177.562 96.5854 177.397 96.6602C177.412 96.9884 177.578 97.3221 177.913 97.4848C178.087 97.5695 178.302 97.6255 178.468 97.7198C178.563 97.7736 178.664 97.8917 178.749 97.9601C178.933 98.1065 179.124 98.2478 179.31 98.3913C179.336 98.7205 179.324 99.3531 179.231 99.6685C179.148 99.9505 178.999 100.243 178.866 100.51C178.818 100.608 178.751 100.706 178.709 100.807C178.643 100.963 178.608 101.184 178.556 101.349L178.73 101.69C178.841 101.616 178.989 101.491 179.109 101.438C179.121 101.432 179.757 101.23 179.765 101.229C179.921 101.202 180.202 101.221 180.369 101.218L180.429 101.413C180.347 101.547 180.26 101.684 180.164 101.811L180.338 102.2C180.364 102.215 180.668 102.386 180.672 102.39C180.788 102.508 181.134 103.257 181.193 103.411C181.226 103.499 181.232 103.612 181.255 103.704C181.324 103.982 181.41 104.25 181.441 104.535L181.28 104.734L181.062 104.787L181.125 105.179C181.221 105.264 181.431 105.495 181.467 105.614C181.474 105.638 181.465 105.8 181.471 105.81L181.93 106.538C182.11 106.561 182.421 106.481 182.587 106.428L182.747 106.228L183.361 106.61C183.345 106.949 183.393 107.396 183.608 107.684L184.048 107.725L184.193 107.641L184.483 107.472C184.621 107.361 184.728 107.194 184.858 107.072C185.074 106.871 185.441 106.712 185.728 106.615L186.004 106.659C186.03 106.689 186.339 107.037 186.343 107.045C186.345 107.048 186.464 107.564 186.466 107.583C186.47 107.61 186.498 108.472 186.489 108.514C186.431 108.807 186.132 109.48 185.969 109.75L186.312 110.284L186.478 110.33C186.773 110.205 187.097 110.111 187.405 110.019L187.904 110.156L187.999 110.269L188.188 110.495C188.226 110.58 188.224 110.634 188.248 110.723C188.344 111.08 188.334 111.119 188.522 111.437L188.599 111.566C188.775 111.61 188.974 111.677 189.152 111.703C189.25 111.718 189.381 111.693 189.483 111.697C189.684 111.704 189.887 111.722 190.089 111.736L190.315 111.976C190.326 112.461 190.328 112.877 190.264 113.366C189.837 113.141 189.671 113.209 189.215 113.19C189.073 113.185 188.92 113.147 188.779 113.149C188.739 113.149 187.902 113.292 187.854 113.308C187.744 113.345 187.639 113.427 187.529 113.458C187.419 113.49 187.263 113.495 187.148 113.512C187.049 113.528 186.919 113.565 186.821 113.566L186.602 113.537C186.462 113.519 186.302 113.511 186.165 113.479C185.88 113.415 185.577 113.293 185.289 113.25L184.889 113.257L184.69 113.259C184.323 113.036 183.992 112.874 183.539 112.938C183.418 112.956 183.278 113.032 183.159 113.041L182.795 113.014L182.612 113.001L182.397 113.198C182.474 113.363 182.54 113.551 182.569 113.729C182.56 113.746 182.468 113.919 182.463 113.924C182.37 114.009 182.067 114.169 181.921 114.174C181.807 114.296 181.713 114.517 181.656 114.663C181.709 114.852 181.745 115.05 181.774 115.242L181.449 115.393C181.169 115.258 180.606 115.284 180.303 115.362C180.201 115.244 180.013 115.138 179.862 115.077L179.59 115.082C179.481 115.259 179.386 115.511 179.381 115.715C179.215 115.647 179.017 115.425 178.938 115.285C178.673 115.222 178.392 115.245 178.12 115.249C177.88 115.684 177.971 116.235 177.978 116.705L178.313 117.185C178.621 117.252 178.935 117.301 179.243 117.364C179.591 117.436 179.934 117.522 180.283 117.591C180.475 117.512 180.679 117.445 180.88 117.387L181.103 117.674L181.106 117.868L180.944 118.016L181.002 118.209C181.234 118.328 181.7 118.536 181.882 118.68C181.998 118.772 182.111 118.909 182.214 119.014C182.536 119.009 182.88 118.977 183.196 118.999C183.463 119.017 183.678 119.166 183.909 119.23C184.007 119.257 184.134 119.255 184.237 119.274C184.364 119.298 184.493 119.335 184.62 119.365C184.715 119.946 184.746 120.52 184.755 121.107C184.759 121.282 184.792 121.729 184.768 121.881C184.766 121.89 184.572 122.287 184.555 122.321C184.527 122.308 184.236 122.187 184.227 122.18C184.134 122.116 184.029 121.976 183.949 121.894C183.677 121.919 183.393 121.979 183.134 122.053C183.086 122.221 182.861 122.583 182.708 122.688C182.664 122.718 182.63 122.719 182.581 122.739L182.328 122.84C182.106 122.88 181.669 122.831 181.453 122.756C181.273 122.694 181.088 122.57 180.904 122.522C180.749 122.481 180.365 122.485 180.139 122.437C180.154 122.47 180.302 122.813 180.31 122.822C180.384 122.923 180.549 123.013 180.641 123.108C180.714 123.183 180.808 123.309 180.863 123.395C181.019 123.64 181.034 123.957 181.076 124.232C181.084 124.282 181.077 124.313 181.097 124.36C181.132 124.444 181.355 124.726 181.376 124.792C181.377 124.794 181.385 125.265 181.383 125.276C181.361 125.41 181.273 125.584 181.226 125.715L181.505 126.098C181.76 126.219 182.096 126.297 182.382 126.327C182.706 126.541 182.872 126.858 183.103 127.139C183.183 127.237 183.309 127.325 183.38 127.426C183.471 127.556 183.522 127.722 183.604 127.858C183.774 128.133 183.99 128.374 184.109 128.674C184.413 128.818 184.812 128.899 185.149 128.949L185.316 129.189C185.51 129.217 185.729 129.233 185.918 129.276C186.298 129.364 186.961 129.736 187.238 129.983C187.332 129.981 188.122 129.962 188.164 129.969C188.236 129.979 188.264 130.016 188.329 130.047C188.532 130.143 189.126 130.393 189.263 130.485C189.323 130.525 189.342 130.562 189.393 130.612L189.651 130.866C189.738 130.968 189.79 131.1 189.874 131.202C189.884 131.215 190.2 131.532 190.207 131.536C190.489 131.743 190.997 131.892 191.358 131.922C191.552 131.938 191.771 131.97 191.958 131.897C192.213 132.088 192.504 132.257 192.784 132.417C192.833 132.595 192.894 132.773 192.956 132.947C193.098 132.995 193.731 133.198 193.778 133.226C193.811 133.245 194.055 133.516 194.11 133.56C194.219 133.646 194.398 133.704 194.496 133.796C194.498 133.798 194.924 134.381 194.941 134.419C194.972 134.483 194.983 134.59 195 134.66L194.459 134.91C194.566 135.041 194.786 135.369 194.741 135.536L194.67 135.619C194.413 135.669 194.325 135.562 194.123 135.53C193.929 135.498 193.54 135.586 193.36 135.638C193.295 135.784 193.233 135.939 193.149 136.077C192.924 136.136 192.718 136.156 192.494 136.086L192.387 136.233L192.5 136.475L192.284 136.623C192.14 136.625 191.933 136.656 191.793 136.63C191.665 136.607 191.537 136.567 191.41 136.539C191.271 136.508 191.104 136.491 190.971 136.448C190.783 136.386 190.572 136.22 190.473 136.068C190.324 136.04 190.131 135.985 189.981 135.978C189.972 135.977 189.733 136.024 189.708 136.03L189.655 136.078L189.616 135.966L189.54 135.741C189.427 135.547 189.003 135.251 188.82 135.121C188.693 135.109 188.506 135.071 188.382 135.079C188.235 135.089 188.039 135.152 187.893 135.182C187.76 135.355 187.582 135.675 187.522 135.867C187.473 136.024 187.445 136.507 187.426 136.693L187.354 136.742L187.21 136.841C186.996 136.908 186.752 136.852 186.557 136.997C186.29 136.945 186.01 136.955 185.738 136.96C185.653 136.961 185.604 136.974 185.52 136.963L185.117 136.839L184.916 136.777C184.863 136.645 184.816 136.466 184.745 136.343C184.742 136.339 184.593 136.213 184.579 136.2C184.583 136.006 184.43 135.72 184.295 135.574L183.697 135.728C183.431 135.63 183.167 135.491 182.926 135.351C182.798 135.399 182.263 135.616 182.168 135.702L181.882 136.029L181.74 136.193L181.753 137.017C181.631 137.185 181.467 137.459 181.325 137.605L180.947 137.853C180.89 137.876 180.628 137.884 180.566 137.907C180.326 137.996 180.097 138.153 179.862 138.257C179.552 138.394 179.171 138.485 178.834 138.553L178.781 138.855C178.553 138.981 178.3 139.077 178.076 139.204C177.945 139.278 177.829 139.377 177.698 139.452C177.555 139.534 177.335 139.605 177.211 139.701C177.205 139.706 177.014 139.972 176.997 139.995C176.818 140.05 176.423 140.226 176.293 140.345C176.202 140.429 176.098 140.588 176.025 140.688C176.005 140.716 175.877 140.923 175.866 140.933C175.805 140.989 175.657 141.027 175.596 141.082C175.585 141.091 175.456 141.299 175.435 141.327C175.338 141.461 175.22 141.59 175.115 141.72L174.516 141.874L174.683 142.065C174.847 142.14 175.204 142.242 175.395 142.201L175.02 142.642C174.564 142.766 174.172 142.968 173.774 143.194C173.569 143.222 173.226 143.103 173.061 143.01C172.827 143.045 172.588 143.09 172.353 143.117C172.265 143.127 172.167 143.108 172.08 143.121C171.919 143.144 171.75 143.191 171.59 143.225C171.511 143.442 171.391 143.659 171.273 143.859C170.882 144.003 170.6 144.293 170.19 144.409L170.083 144.555C169.827 144.661 169.626 144.653 169.376 144.711C169.285 144.733 169.196 144.787 169.105 144.812C168.77 144.907 168.293 144.962 167.962 145.071C167.723 145.151 167.596 145.26 167.422 145.419C167.38 145.457 167.364 145.487 167.315 145.517C167.122 145.635 166.572 145.638 166.334 145.677C166.257 145.832 166.17 145.999 166.123 146.165L165.853 146.314L165.633 146.172L165.305 146.176C165.054 146.275 164.974 146.539 164.822 146.717C164.673 146.891 164.432 147.08 164.23 147.21L163.957 147.215C163.905 147.455 163.732 147.743 163.587 147.947L163.315 148C163.306 148.03 163.211 148.329 163.211 148.34C163.209 148.38 163.312 149.045 163.333 149.115C163.356 149.191 163.411 149.281 163.446 149.355C163.368 149.532 163.436 149.734 163.4 149.841C163.397 149.849 163.148 150.309 163.135 150.329C163.063 150.443 162.925 150.556 162.867 150.673C162.86 150.688 162.828 150.928 162.818 150.965C162.775 151.127 162.715 151.292 162.662 151.452C162.63 151.549 162.596 151.65 162.558 151.745C162.513 151.85 162.425 151.979 162.399 152.086C162.396 152.097 162.404 152.35 162.404 152.377C162.458 152.508 162.775 152.697 162.902 152.758C162.95 152.868 163.049 153.031 163.072 153.143C163.104 153.3 163.083 153.814 163.086 154.016C163.193 154.204 163.366 154.393 163.532 154.543C163.496 154.77 163.617 154.957 163.651 155.172C163.664 155.257 163.644 155.707 163.661 155.754C163.665 155.766 163.868 156.167 163.87 156.17C164.018 156.348 164.255 156.51 164.424 156.678C164.536 156.788 164.817 157.066 164.897 157.184L165.104 157.617L165.207 157.832L165.037 158.476L165.349 158.98C165.55 159.059 166.805 159.589 166.942 159.714C167.085 159.847 167.27 160.203 167.412 160.364C167.568 160.54 167.789 160.71 167.966 160.872C168.073 161.515 168.389 162.427 168.653 163.03L168.542 163.267L168.321 163.743L168.094 164.552L167.98 164.958C167.905 165.001 167.775 165.083 167.642 165.163C167.49 165.256 167.334 165.348 167.251 165.38C166.928 165.506 166.533 165.539 166.204 165.655C165.891 165.765 165.232 166.139 164.98 166.356C165.008 166.645 165.038 166.935 165.073 167.224L165.118 167.61C165.12 167.623 165.343 168.135 165.345 168.137C165.447 168.276 165.674 168.379 165.784 168.515C165.808 168.545 165.921 168.84 165.954 168.898C166.049 169.059 166.179 169.22 166.287 169.374C166.01 169.555 165.702 169.751 165.386 169.877C165.219 170.089 165.004 170.444 164.976 170.708L165.252 170.993C165.255 171.135 165.286 171.338 165.263 171.475C165.248 171.56 165.222 171.604 165.196 171.687C165.072 172.08 164.928 172.46 164.758 172.84C164.662 173.054 164.545 173.261 164.451 173.475C164.41 173.569 164.387 173.672 164.35 173.767C164.207 174.133 164.04 174.498 163.838 174.842C163.655 175.154 163.439 175.303 163.331 175.672C163.174 175.635 162.848 175.588 162.71 175.533C162.495 175.447 162.144 175.227 161.933 175.111L161.469 175.821L161.004 176.53L160.229 176.816L159.455 177.243L159.302 178.233L159.149 179.083L158.687 180.075L158.378 180.5L157.602 180.786L156.36 180.792L154.652 180.799L153.566 181.086L152.168 180.809L151.391 180.388L149.991 179.687L149.368 179.124L148.746 178.844L147.968 178.281L147.656 177.717L147.189 177.294L146.721 176.589L146.408 176.025L145.474 175.181L145.161 174.475L144.85 174.052L145.315 173.908L145.937 174.331L146.403 174.187L146.558 174.044L146.555 173.337L146.708 172.631L146.551 171.924L146.859 171.215L146.857 170.508L146.854 169.66L146.697 169.094L146.074 168.673L146.072 167.825L146.07 167.118L146.067 166.27L145.909 165.28L145.595 164.433L146.525 163.864L147.146 163.578L147.144 163.013L146.832 162.448L146.055 162.168L145.587 161.746L145.585 161.18L145.43 161.04L144.808 160.901L144.188 161.186L143.008 161.467L141.395 161.905L140.773 161.484L139.841 161.204L139.064 161.067L138.13 160.505L137.979 161.637L138.293 162.767L138.14 163.616L137.054 163.762L136.121 163.341L136.274 162.775L136.273 162.068L135.649 161.504L134.717 161.509L134.095 160.945L134.092 159.814L133.469 159.393L133.161 159.959L132.695 160.103L132.694 159.82L133.003 159.112L132.691 158.547L132.069 158.55L131.14 159.119L130.05 158.275L129.428 157.995L128.185 157.859L126.942 157.44L126.163 156.595L125.851 156.172L125.693 155.324L125.687 153.344L125.222 153.629L124.29 153.492L123.824 153.211L123.049 153.78L122.428 153.783L121.494 153.079L120.872 152.799L120.251 152.943L119.784 152.52L119.472 151.957L118.386 152.102L118.384 151.537L118.693 151.252L118.382 150.971L117.915 150.549L117.914 150.124L117.912 149.559L117.91 148.993L116.667 148.857L115.581 149.003L115.739 149.709V149.992L114.498 150.28L114.345 150.988L115.122 151.125L115.434 151.549L114.503 151.835L113.726 151.697L113.104 151.276L113.413 150.708L113.412 150.426L112.79 150.146L112.013 149.866L111.392 149.868L111.239 150.717L110.775 151.002L110.46 150.014L110.149 149.591L109.683 149.734L109.531 150.725L109.691 151.997L109.072 152.707L108.613 154.83L108.615 155.678L108.149 155.68L107.682 155.399L107.216 155.259L106.753 156.11L106.133 156.396L105.977 156.113L105.51 155.691L104.731 154.988L103.954 154.99L103.024 155.418L102.091 155.14L102.09 154.716L101.469 154.718L101.004 155.003L99.6087 155.574L98.6777 155.578L98.2103 155.156L98.5192 154.447L99.2936 154.02L99.1369 153.455L99.1351 152.889L99.7546 152.463L100.063 151.895L100.062 151.33L100.06 150.623L100.524 150.055L100.677 149.489L100.054 149.208L99.2783 149.212L98.9685 149.355L99.1252 149.778L99.1261 150.202L99.1279 150.768L98.819 151.335L98.3526 151.054L98.1959 150.489L97.8852 150.349L97.4188 150.351L96.0221 150.499H95.8673L96.3355 151.345L97.2684 151.766L97.7358 152.329L96.494 152.335L95.8718 152.196L95.2513 152.199L94.9399 151.917L94.4731 151.636L93.8514 151.356L93.6939 150.649L93.5366 149.943L93.0703 149.803L92.9165 150.228L93.0737 150.935L93.0748 151.36L93.0768 151.925L92.6116 152.068L92.1453 151.929L91.8356 152.213L91.0574 151.65L90.4358 151.37L90.1253 151.371L90.2823 151.937L90.5963 153.067L91.6844 153.486L91.3756 153.911L89.9783 154.059L89.3561 153.638L89.3547 153.214L89.8197 152.928L89.3516 152.223L88.5756 152.368L87.9564 152.936L87.8034 153.785L87.4927 153.645L87.0271 153.788L86.2514 153.933L85.6298 153.794L85.1622 153.231L84.9882 152.682L84.7735 152.351C85.684 151.811 84.8305 151.83 85.942 151.152C86.2393 150.97 85.7457 150.685 86.6397 150.244C87.2744 149.93 86.4884 149.672 87.6841 149.365C88.0511 149.124 88.1098 149.061 88.5846 148.95C88.7185 148.919 88.7603 148.894 88.7766 148.879L88.7991 148.84C88.694 148.455 88.4276 148.428 88.4273 147.841C88.4273 147.733 88.4083 147.669 88.3293 147.585C87.8111 148.211 87.4379 147.159 87.3157 147.026C86.9032 146.62 85.5508 146.858 86.0671 145.463C86.1044 145.362 86.1682 145.237 86.1682 145.13C86.104 144.914 86.1477 144.455 86.0307 144.151C85.9349 143.902 85.6775 143.792 85.6148 143.722L85.4436 143.755L84.3572 143.901L83.426 144.047L82.9614 144.473L82.0317 145.043L81.2562 145.328L80.635 145.332L79.7038 145.477L79.0842 146.045L78.0001 146.898L77.6902 147.181L77.2274 148.032L77.0752 149.023L76.4532 148.743L76.2957 148.036L75.829 147.755L75.0548 148.324L74.901 148.89L75.2155 150.162L74.4414 150.872L74.4442 151.862L73.8232 151.865L72.8891 151.161L71.8017 150.883L71.0251 150.745L70.0932 150.749L68.6944 150.33L68.6734 150.163C68.1913 149.787 68.0842 150.257 67.7628 150.586C67.4414 150.915 67.3878 151.337 67.3878 151.572C67.3878 151.807 66.9592 152.229 66.2629 152.229C65.5664 152.229 65.6736 151.525 65.995 151.243C66.3164 150.961 65.5664 150.915 65.4057 150.539C65.2451 150.163 64.8701 150.491 64.6022 150.82C64.3344 151.15 64.0665 150.773 63.9058 150.539C63.7451 150.304 64.2808 149.364 64.6022 149.224C64.9236 149.083 65.1379 148.848 65.2451 148.613C65.3522 148.378 65.4593 148.238 65.7807 148.049C66.1021 147.861 66.2093 147.627 65.995 147.345C65.7807 147.063 65.4593 147.063 65.2451 147.392C65.0307 147.721 64.1201 147.063 63.8523 146.64C63.5844 146.218 63.4237 146.546 63.2094 146.734C62.9951 146.922 62.5666 146.687 62.5666 146.171C62.5666 145.654 61.8702 145.607 61.4416 145.513C61.0131 145.419 60.9595 145.748 60.9059 145.936C60.8523 146.123 60.7988 146.546 60.6917 146.969C60.5845 147.392 61.2274 147.297 61.4952 146.969C61.7631 146.64 62.0309 146.922 62.0845 147.11C62.138 147.297 62.9415 148.003 62.9415 148.331C62.9415 148.66 62.9415 149.035 62.5666 149.035C62.1916 149.035 61.9237 148.472 61.6024 148.19C61.281 147.908 61.1738 148.613 61.1738 148.613C61.1738 148.613 61.7631 149.459 61.9237 149.646C62.0845 149.834 62.138 150.163 61.9237 150.445C61.7095 150.726 61.4952 150.726 60.9059 150.398C60.3167 150.069 60.531 150.491 60.6917 150.773C60.8523 151.055 60.6381 151.102 60.2632 151.102C59.8881 151.102 59.2286 150.935 59.2286 150.935L58.7585 150.654L58.2911 150.232L57.9811 150.375L57.9834 151.224L57.2071 151.086L56.8957 150.804L56.5666 149.74L55.4946 149.678L54.8758 150.389L54.6917 149.787L54.6381 148.942L55.1807 148.549L54.7132 147.985L54.4016 147.704L54.0877 146.573L53.1573 147.001L53.6267 148.131L53.3189 148.98L52.5408 148.419L51.1448 148.848L50.682 149.84L50.3702 149.417L50.6792 148.992L50.5211 148.003L50.9852 147.435L51.916 147.148L52.6901 146.437L52.7099 145.701L51.4457 145.736L50.6955 146.13C50.6955 146.13 50.5136 146.452 50.6207 146.734C50.7278 147.016 50.2457 147.486 50.2457 147.486C50.2457 147.486 49.5493 148.143 49.3886 147.814C49.2279 147.486 48.9065 147.439 49.2815 147.251C49.6564 147.062 49.7636 146.452 49.1743 146.687C48.585 146.922 48.2101 146.265 48.7994 146.03C49.3886 145.795 49.7762 145.513 49.7762 145.513L50.0456 144.893L50.3546 144.327L51.9061 144.037L51.9074 144.461L51.5982 144.887L52.3752 145.025L52.8397 144.74L53.1491 144.314L52.8367 143.75L52.0587 143.188L51.9027 142.906L51.7456 142.34L52.2087 141.49L51.7403 140.644L52.3615 140.641L51.5832 140.079L50.8062 139.941L50.4975 140.508L50.3443 141.216L50.1898 141.357L50.3471 141.922L50.349 142.629L50.0394 142.914L49.7297 143.198L49.4169 142.492L49.2609 142.21L48.7938 141.787L48.0175 141.791L47.3971 142.076L47.71 142.782L48.332 143.062L48.6425 143.061L48.7994 143.626L48.1786 143.628L47.8687 143.771L47.8707 144.478L47.5621 145.187L46.6302 145.049L46.3191 144.767L45.2308 144.347L45.2295 143.923L46.1594 143.354L46.1584 143.071L45.5366 142.791L44.7611 143.077L43.6764 143.788C43.6764 143.788 43.2818 143.915 42.9603 143.915C42.6389 143.915 42.4246 144.432 42.7996 144.761C43.1746 145.089 42.7996 145.513 42.5318 145.371C42.2639 145.231 41.6211 144.996 41.7283 145.324C41.8353 145.653 42.0496 146.123 41.8353 146.17C41.6211 146.217 40.9247 146.311 40.6033 146.076C40.2818 145.841 39.9604 146.123 39.4783 146.311C38.9962 146.499 38.9426 146.593 39.1034 146.827C39.264 147.062 39.9069 146.969 40.1212 146.827C40.3354 146.687 40.7104 146.593 40.9782 146.827C41.2461 147.062 41.3532 146.969 41.6747 147.016C41.9961 147.062 42.5853 147.626 42.5853 147.626C42.5853 147.626 42.7996 148.002 43.0139 149.317C43.2282 150.632 43.2282 150.867 43.1746 151.243C43.121 151.619 43.9781 151.572 44.2996 151.759C44.621 151.948 44.5674 153.544 44.5674 153.779C44.5674 154.014 44.5138 154.202 44.246 154.39C43.9781 154.578 43.7639 154.86 43.7639 155.095C43.7639 155.329 44.2996 155.47 44.621 155.517C44.9423 155.564 45.3174 156.081 45.5316 156.785C45.7459 157.49 46.228 157.161 46.4423 157.302C46.6566 157.443 47.0315 157.443 47.2994 157.302C47.5672 157.161 47.8887 157.584 48.1565 158.007C48.4244 158.429 48.4244 158.476 48.3172 158.852C48.2101 159.228 47.5136 159.745 47.5136 160.12C47.5136 160.496 47.7815 161.248 47.7815 161.248C47.7815 161.248 47.6744 161.765 47.6744 161.952C47.6744 162.14 47.6208 162.609 47.1387 162.797C46.6566 162.986 46.9245 164.065 47.0315 164.442C47.1387 164.817 47.5136 164.817 47.728 164.535C47.9423 164.253 48.1565 164.253 48.5315 164.253C48.9065 164.253 49.0672 164.3 49.2815 163.972C49.4958 163.643 50.6742 163.267 50.6742 163.267C50.6742 163.267 50.9957 163.972 50.9957 164.395C50.9957 164.817 51.3707 164.77 52.067 165.099C52.7634 165.428 52.3885 165.521 52.3349 165.851C52.2813 166.18 52.3885 166.508 52.6563 166.79C52.9242 167.072 52.9778 167.166 52.6563 167.447C52.3349 167.729 52.0135 167.588 51.692 167.166C51.3707 166.743 51.1028 166.884 50.8886 167.166C50.6742 167.447 51.4242 167.87 51.692 168.058C51.9599 168.246 52.067 168.433 52.1206 168.81C52.1742 169.185 52.6563 169.139 52.8706 168.857C53.0849 168.575 53.1384 169.467 53.1384 169.655C53.1384 169.843 52.9778 171.112 51.6385 171.674C50.2993 172.238 51.4778 172.286 51.4778 172.568C51.4778 172.849 51.3171 173.037 50.835 173.037C50.3529 173.037 50.5671 173.365 50.5671 173.835C50.5671 174.305 49.7636 174.493 49.5493 174.258C49.335 174.023 48.9065 174.258 48.8529 174.728C48.7994 175.198 48.4779 175.15 48.2637 175.15C48.0493 175.15 47.728 174.775 47.4066 174.446C47.0851 174.117 47.2458 174.023 47.4601 173.6C47.6744 173.178 47.0315 173.13 46.7637 173.412C46.4958 173.694 46.228 173.742 45.7995 173.835C45.371 173.929 44.8353 173.882 44.5138 173.647C44.1924 173.412 44.0317 173.272 44.3531 172.849C44.6745 172.426 43.4424 172.379 43.4424 172.379C43.4424 172.379 43.2282 171.862 42.8531 171.627C42.4782 171.392 42.4782 171.158 42.5318 170.688C42.5853 170.218 41.7818 170.36 41.4604 170.36C41.139 170.36 40.5497 170.218 40.2818 169.89C40.014 169.561 39.8533 169.514 39.5319 169.655C39.2105 169.796 39.5319 170.218 39.7997 170.735C40.0676 171.252 39.7997 171.252 39.1034 171.112C38.4069 170.97 38.7819 171.534 38.4605 171.722C38.1391 171.909 38.2998 172.144 37.9784 172.708C37.657 173.272 37.3355 172.802 37.282 172.52C37.2284 172.238 36.907 172.191 36.3713 172.098C35.8356 172.004 36.3177 171.158 36.4249 170.97C36.532 170.782 36.6392 170.406 36.4785 169.89C36.3177 169.374 36.4785 169.232 35.9428 169.232C35.4071 169.232 35.4607 168.997 35.4607 168.715C35.4607 168.433 35.4071 168.293 35.1393 168.199C34.8714 168.105 34.4428 168.011 34.4428 168.011L34.1223 167.352L33.8469 167.014C33.9755 166.922 34.0863 166.821 34.1782 166.706C33.7481 166.652 33.6322 166.349 33.6543 166.012C32.5807 165.537 33.4111 164.921 33.863 164.376C34.145 164.036 34.1859 163.362 34.3349 162.941C33.9772 162.402 33.9884 162.409 34.1426 161.854C34.4801 160.638 32.6474 160.628 33.1786 159.19C33.2461 159.007 33.2646 158.917 33.211 158.8L32.8476 158.213L32.5904 157.802L32.5049 157.666C32.1409 157.435 31.7342 157.506 31.6746 156.907C31.5846 156.001 33.4801 154.931 34.2382 154.498C34.671 154.25 34.9088 153.837 35.3122 153.553L35.5046 153.421C36.7761 152.55 35.0899 151.911 36.1315 150.889C36.5502 150.477 36.8402 150.72 37.2096 150.265C37.7995 149.538 38.2249 149.918 38.8578 149.948C39.006 149.822 39.1646 149.724 39.3236 149.629L38.8827 149.041L38.2561 148.478L37.6336 147.915L37.4761 147.208L37.3182 146.36L37.1618 145.937L36.6931 145.09L36.2247 144.244L36.997 142.968L38.0847 143.105L38.5479 142.396L39.3221 141.686L38.8537 140.839L38.852 140.274L38.696 139.991L39.006 139.849L39.6255 139.422L40.2476 139.702L40.7151 140.266L41.8002 139.696L42.5759 139.551L43.8184 139.687L43.865 139.653L45.1565 139.688C45.4778 139.453 45.585 139.36 45.7992 139.218C46.0135 139.078 46.2279 138.608 46.5492 138.796C46.8706 138.983 47.1385 139.03 47.2992 138.796C47.4599 138.561 47.6206 138.326 47.942 138.42C48.2635 138.514 48.8527 138.467 49.067 138.091C49.2813 137.715 49.2277 137.245 49.2277 137.245C49.2277 137.245 48.1563 135.837 47.8348 135.507C47.5135 135.179 46.9242 134.756 47.6206 134.756C48.317 134.756 48.6395 134.589 48.8799 134.132L48.9247 134.009L49.2324 133.159L50.4765 133.72L50.4733 132.73L50.4694 131.457L51.553 130.463L53.0846 129.919C53.0846 129.919 52.7633 129.778 52.4954 129.543C52.2276 129.309 52.1204 129.261 52.4418 128.979C52.7633 128.698 52.8704 128.604 52.9239 128.368C52.9775 128.134 53.0846 127.664 53.4596 127.711C53.8346 127.758 53.9953 127.711 54.156 127.476C54.3168 127.242 54.3703 127.054 54.1024 126.866C53.8346 126.678 51.9351 125.794 52.9385 125.508L54.0215 125.362L53.5535 124.657L53.8629 124.231L54.7935 123.944L55.8777 123.092L55.1004 122.812L55.4098 122.528L56.1863 122.524L56.0295 122.101L55.7166 121.395L56.6472 120.967L56.4897 120.261L55.7117 119.699L56.6399 118.563L56.1708 117.575L55.2369 116.872L54.6137 116.168L53.9887 114.897L53.4024 113.428L52.8605 112.565L53.1346 111.874L51.6302 111.957L51.6936 111.308L51.2646 110.991L50.0767 111.232L49.3811 111.074L48.3191 109.775L47.3283 109.589L46.9065 109.058L46.1965 109.251L45.9293 108.747L45.6405 108.671L45.135 108.803L44.7133 109.32L43.7289 109.196L42.9485 109.79L42.3092 109.762L41.4936 109.562L41.0651 109.244L39.4901 108.996L38.8432 108.271L37.6833 108.092L36.9522 107.242L35.3426 107.229L34.8718 107.387L34.2596 108.354L33.5217 108.05L33.0232 107.735L33.3543 107.242L34.0061 106.959L34.5823 106.325L34.4304 105.692L33.701 105.763L32.2468 105.624L31.1957 105.555L30.7802 106.26L29.6388 106.825L28.9803 107.53L28.3263 107.953L28.4159 107.389L28.0201 106.827L26.4824 106.829L25.8461 106.126L25.275 106.408L25.3528 106.619L24.9459 106.761L23.9836 106.199L22.6911 106.06L21.477 106.061L21.147 106.484L20.4917 106.978L19.2674 107.684L17.8838 108.178L16.6645 108.532L15.9395 108.322L15.131 108.253L15.1978 109.168L15.0221 110.083L14.1254 110.507L13.8856 110.296L13.9732 109.874L13.57 109.803L13.5826 108.959L14.1764 107.198L15.6428 106.562L17.6792 105.714L20.0368 105.007L21.7448 104.442L21.6779 103.526L21.1913 103.597L20.5421 103.739L20.3066 103.247L19.7373 103.458L19.247 103.741L18.2783 103.601L17.2317 103.251L17.2418 102.617L16.8428 102.265L16.2728 102.477L15.4704 102.056L16.206 101.562L17.7455 101.419L18.1546 101.137L18.0015 100.574L18.9005 100.01L19.5522 99.7273L19.482 99.0232L19.328 98.5305L19.739 98.1076L19.5018 97.7559L18.9331 97.8976L18.8444 98.3904L18.28 98.2504L18.3817 96.9125L18.6355 96.2082L18.2363 95.8565L17.3459 95.8576L16.5457 95.2955L15.9855 94.8739L14.7783 94.453L14.1363 94.1019L13.8333 92.7646L13.2798 91.9204L12.8039 91.2874L12.2809 90.3522L11.865 90.0271L11.6822 89.5041L11.7379 88.9134L11.8633 88.0602L11.5971 87.472L11.0788 86.6231L10.9657 85.8371L10.6194 85.2494L10.6858 84.921L10.4975 84.2666L10.9329 82.7923L11.286 82.794L11.5901 82.6264L11.8442 82.4919L12.4645 81.8546L12.9559 81.5017L14.0043 81.7117L14.3433 80.7254L14.8364 80.2321L14.988 80.2704L15.0568 80.1663C15.1886 80.032 15.3442 79.9196 15.5434 79.8749C15.3609 79.439 15.2407 78.9166 14.9417 78.5342C14.477 78.4194 13.9792 78.1337 13.9799 77.6628C13.9801 77.5698 14.0007 77.4785 14.0386 77.3908L14.0791 77.3204C14.1123 77.2753 14.1519 77.2319 14.1952 77.1919L14.1847 77.1541C14.0767 76.7896 13.6201 75.8403 14.4826 75.8299C14.5567 75.829 14.6227 75.8333 14.6825 75.842L14.6876 75.7991L14.7078 75.6684C14.7718 75.1772 14.1226 74.7835 15.1877 74.3806C14.918 74.3205 14.728 74.2144 14.6628 73.873C14.5921 73.5031 15.0913 73.3584 15.4021 73.2987C15.4027 73.1196 15.4464 72.9781 15.5334 72.8627C15.1925 72.8413 14.6572 72.9535 14.3532 72.4669C14.3463 72.4558 14.3009 72.3004 14.3009 72.2876V72.1418C14.3009 72.0194 14.4731 71.8644 14.5312 71.7387C14.3176 71.7214 14.1138 71.6859 13.9531 71.5476L13.867 71.4418C13.5642 70.8844 13.9788 70.5526 14.39 70.1785L14.438 70.1321C14.4239 69.9322 14.3742 69.8452 14.4678 69.6419L14.5036 69.5717C13.915 69.6652 13.6259 69.2235 13.8676 68.7771C13.9152 68.6896 13.9812 68.6071 14.0163 68.5147C12.8667 68.8613 12.8644 68.3458 12.8314 67.7158C12.3977 67.9236 11.8941 68.4397 11.5493 67.7137C11.4495 67.5039 11.6014 67.2855 11.7178 67.1105C11.3642 66.9641 11.1167 66.7598 10.8964 66.5326L11.6614 66.3035L11.9623 66.0082L11.0068 65.5L10.538 64.995L10.3505 64.443L10.578 64.0437L11.2342 63.8205L11.1806 63.3392L10.6852 62.9518L11.0066 62.0593L11.1806 62.0007L10.9796 61.2139L9.98857 61.1669L9.734 60.6738L9.2116 60.5915L8.94375 60.0632L8.56877 59.4172L8.0198 59.0768L8.39478 58.0904L8.05472 57.8604L7.30861 57.8526L7.45882 57.2344L7.87859 57.027C8.04808 56.8527 8.63112 56.9034 8.63112 56.4444V56.2986C8.63112 56.1192 8.27285 55.7235 8.15822 55.5986C8.04293 54.9859 7.8053 54.9842 7.46032 54.817C8.29771 54.5222 8.32042 53.8958 7.55931 53.4447C6.81256 53.0021 7.52353 52.1059 6.3763 51.305L6.41765 51.264C6.59979 51.0683 6.60621 50.8041 6.52908 50.5691C6.36815 50.0796 6.62357 49.6442 6.52693 49.1522C6.46286 48.8257 6.49758 48.5037 6.4995 48.1743C6.50272 47.659 5.95846 47.2983 6.37201 46.892C6.98699 46.2878 6.71228 46.2005 6.40458 45.6121C5.75082 44.362 6.83335 44.7193 6.68828 43.8885L6.65485 43.7927C6.60408 43.6987 6.50958 43.5781 6.37051 43.4546L6.27216 43.3066L5.6814 41.3397L5 40.5873L5.11935 40.2284L5.74482 39.9938L5.05614 39.0271L5.52712 38.4265L5.59055 37.8121L6.1181 37.1978L6.37115 36.4796L6.33601 36.2242L5.75918 35.672L6.1183 34.8091L5.69618 34.2636L6.0056 34.022L6.91542 33.9958L7.45989 34.0112C7.56532 33.7162 7.60517 33.4388 7.68703 33.0974C7.78452 32.6907 8.05922 32.3441 8.05922 31.8841C8.05922 31.3021 8.26449 30.9864 8.48713 30.4536C8.66284 30.0332 9.01682 29.8216 9.2596 29.4525L9.31253 29.3698C9.48073 29.1108 9.79079 29.1035 9.96092 28.7107L10.0136 28.5852L10.0513 28.5593C10.1051 28.5484 10.1491 28.5433 10.2035 28.5495L10.317 28.5642C10.9035 28.6348 11.1204 28.3596 11.0289 27.8884C11.1658 27.7256 11.5866 27.7503 11.9625 27.2821C12.2942 26.8685 12.7041 27.2297 13.1866 26.6452C13.5168 26.2452 14.1643 26.3126 14.6351 25.9534L14.7457 25.8696C14.7926 25.8356 14.8402 25.8059 14.8951 25.7826L15.0013 25.74C15.7966 25.4266 15.5299 24.9623 16.0513 24.7814C16.338 24.6818 16.4149 24.2309 16.537 24.0058C16.744 23.765 16.8186 23.706 16.8242 23.353C17.2465 22.9815 16.9481 22.8171 17.1628 22.5246L17.2596 22.3968C17.5231 22.0457 17.5058 21.9204 17.463 21.5352C17.4644 21.5253 17.4717 21.5009 17.5121 21.4398C17.7595 21.0659 17.8594 20.6528 17.8052 20.2158C17.7518 19.7866 17.7542 19.6046 17.7303 19.4941L18.238 19C18.238 19 18.9076 19.0939 19.0951 19.1879C19.2826 19.2818 19.8986 19.4932 20.0861 19.5167C20.2736 19.5402 20.595 19.822 20.7825 20.0333C20.97 20.2447 21.1307 20.597 21.2379 20.7379C21.345 20.8788 21.4254 21.0667 21.9342 21.1371C22.4432 21.2076 22.7645 21.4894 22.7645 21.4894C22.7645 21.4894 23.1663 22.2644 23.4877 22.2644C23.8092 22.2644 24.2377 22.2174 24.4788 22.4288C24.7198 22.6401 25.4966 22.6636 25.4966 22.6636C25.4966 22.6636 25.8984 22.828 26.059 22.922C26.2198 23.0159 26.3001 23.1098 26.5144 23.2742C26.7287 23.4386 26.8358 23.697 26.7287 23.8144C26.6216 23.9318 26.2733 24.3076 26.1662 24.378C26.059 24.4485 25.3627 24.8947 25.2823 25.1295C25.202 25.3644 24.8806 26.0689 24.6931 26.5151C24.5055 26.9614 24.318 27.0788 24.1306 27.0788C23.9431 27.0788 23.702 27.0788 23.6485 27.1962C23.5949 27.3136 23.1396 27.8068 23.1396 27.9242C23.1396 28.0417 23.2735 28.4174 23.086 28.5583C22.8985 28.6992 22.3896 28.6288 22.3628 28.8167C22.336 29.0045 22.2557 29.2863 22.1485 29.4273C22.0414 29.5682 22.0414 29.897 22.1753 30.0379C22.3093 30.1788 22.1485 30.5076 22.0682 30.6015C21.9878 30.6954 21.3985 31.1182 21.2915 31.2121C21.1843 31.306 21.104 31.4705 21.5057 31.7288C21.9075 31.9871 22.1753 31.9871 22.1753 32.4568C22.1753 32.9265 22.4967 33.1144 22.4967 33.3023C22.4967 33.4901 22.5503 33.772 22.6574 33.9129C22.7645 34.0537 22.845 34.3591 22.7914 34.4765C22.7378 34.5939 22.5235 34.6174 22.7645 35.0401C23.0056 35.4629 23.086 35.8386 23.086 35.8386C23.086 35.8386 23.9163 36.0969 24.0502 36.2379C24.1841 36.3788 24.5859 36.4258 24.5859 36.4258C24.5859 36.4258 25.5233 36.3553 25.7109 36.2144C25.8984 36.0734 25.8984 35.9795 26.2198 35.9795C26.5412 35.9795 27.3715 35.5803 27.5055 35.5098C27.6394 35.4394 27.8269 35.275 27.934 35.5333C28.0411 35.7917 28.1482 36.1204 28.1482 36.1204C28.1482 36.1204 28.4697 36.6606 28.3893 36.9189C28.309 37.1772 28.7643 37.4356 28.1751 37.4356C27.5858 37.4356 27.6394 37.9758 27.8269 38.1166C28.0143 38.2575 28.6839 38.7272 28.8714 38.7742C29.0589 38.8212 29.3268 38.9387 29.4607 39.3378C29.5946 39.7371 29.9964 39.925 30.05 39.5492C30.1035 39.1735 30.2107 38.6803 30.2107 38.6803C30.7189 38.5636 30.7944 38.0075 31.2754 37.8087C31.8133 37.8014 32.3262 37.5624 32.7151 37.2464C33.2435 36.8171 33.2249 36.4073 33.1876 35.956C33.1876 35.956 33.6121 35.275 34.0674 35.2985C34.5227 35.322 34.737 35.2281 34.8174 35.0401C34.8978 34.8523 35.3799 34.5 35.6477 34.6644C35.9156 34.8288 36.3173 34.8288 36.4513 34.7349C36.5852 34.6409 36.9334 34.3826 36.9334 34.3826L38.8083 35.275L39.4243 35.3689L40.1743 36.0265C40.4421 36.2614 40.6832 36.4023 40.7367 36.731C40.7903 37.0598 40.8172 37.6235 40.8172 37.6235C40.8172 37.6235 40.8707 38.3045 41.085 38.3985C41.2993 38.4924 42.0224 38.8917 42.1296 39.0795C42.2367 39.2674 42.3707 39.6666 42.6117 39.8075C42.8528 39.9485 43.3616 40.1364 43.5224 40.1833C43.6831 40.2303 44.1384 40.6765 44.3259 40.7939C44.5133 40.9113 46.2276 41.522 46.3883 41.5924C46.549 41.6629 47.4329 42.0386 47.4329 42.0386C47.4329 42.0386 48.1025 41.9681 48.3168 42.1561C48.5311 42.3439 49.0935 42.5553 49.0935 42.5553L50.0042 42.7197C50.0042 42.7197 50.6738 42.8606 50.7809 42.8606C50.8881 42.8606 51.3166 42.978 51.156 43.4007C50.9953 43.8235 50.7274 44.1287 50.7274 44.1287L49.5221 45.4204C49.5221 45.4204 48.6382 45.1621 48.5311 45.1621C48.4239 45.1621 48.2096 45.4909 48.2096 45.6083C48.2096 45.7257 48.1561 46.2894 47.8347 46.2189C47.5133 46.1484 47.0312 45.8902 47.0312 45.8902C47.0312 45.8902 46.6561 46.1015 46.6025 46.2424C46.549 46.3833 46.4151 46.853 46.7901 47.0409C47.1651 47.2287 47.8614 46.8765 48.2096 47.4636C48.5578 48.0507 48.8792 48.1682 48.8792 48.1682C48.8792 48.1682 49.1471 48.1447 49.6828 48.1447C50.2185 48.1447 50.4596 48.4735 50.4596 48.4735C50.4596 48.4735 50.7006 48.6144 50.6738 48.8492C50.647 49.0841 50.7006 49.178 50.9148 49.3189C51.1292 49.4598 51.531 50.3757 51.531 50.3757L51.3702 50.9628C51.3702 50.9628 51.9059 50.8689 52.3344 50.8689C52.763 50.8689 52.9773 50.3757 53.2987 50.5871C53.6202 50.7985 54.0219 50.8689 54.129 50.6106C54.2362 50.3522 54.2362 50.0705 54.504 50.1644C54.7719 50.2583 54.879 50.3522 54.879 50.3522C54.879 50.3522 55.3343 50.7045 55.6022 50.7045C55.87 50.7045 56.245 50.9159 56.2985 51.1038C56.3521 51.2916 57.0753 51.2212 57.0218 51.5499C56.9682 51.8788 56.9682 52.3719 57.1289 52.4893C57.2896 52.6068 57.5575 52.8417 57.3699 53.006C57.1824 53.1705 56.7539 53.6166 57.3163 53.6871C57.8789 53.7576 58.0396 53.006 58.3877 53.3818C58.7359 53.7576 58.7359 53.8515 59.0842 53.8515C59.4324 53.8515 59.8342 54.1568 60.0484 54.3917C60.2627 54.6265 60.7448 55.1431 60.7448 55.1431C60.7448 55.1431 61.3608 55.3311 61.6019 55.0257C61.843 54.7204 61.9769 54.6265 62.4322 54.7204C62.8876 54.8144 63.3161 54.6969 63.3965 54.9788C63.4769 55.2606 63.6911 55.5189 63.7447 55.7772C63.7983 56.0356 63.8518 56.6462 63.825 56.7636C63.7983 56.8811 63.5036 56.9046 63.3965 56.928C63.2893 56.9515 63.0215 57.0924 63.0215 57.0924C63.0215 57.0924 63.3161 57.6795 63.8786 57.5856C64.4411 57.4917 64.7892 57.4212 64.9232 57.2802C65.0571 57.1394 65.191 57.0689 65.566 57.0924C65.941 57.1159 66.1285 57.0924 66.2624 57.2802C66.3963 57.4682 66.8249 57.2568 67.1195 57.1863C67.4141 57.1159 67.682 57.1394 67.682 57.4447C67.682 57.75 67.7088 58.1492 67.9767 57.9849C68.2445 57.8204 68.4052 57.656 68.5659 57.6795C68.7266 57.703 68.9676 57.6091 69.1551 57.7734C69.3427 57.9379 69.6105 58.1257 69.8515 57.7265C70.0926 57.3272 71.1907 56.9046 71.2711 56.7871C71.3515 56.6697 72.4497 56.5523 72.9318 56.7166C73.4139 56.8811 74.0299 56.975 73.8692 57.2098C73.7086 57.4447 73.655 58.2197 73.655 58.3136C73.655 58.4075 73.5746 58.7598 73.8692 58.8772C74.1638 58.9947 74.646 58.5485 74.7264 58.384C74.8067 58.2197 74.9674 58.1727 75.1281 58.2197C75.2888 58.2666 75.9852 58.3605 75.4495 58.6189C74.9139 58.8772 75.1549 59.2295 75.2621 59.2295H75.7977C75.9317 59.2295 76.4674 59.2765 76.4674 59.6053C76.4674 59.934 76.7352 60.4742 76.8423 60.6152C76.9495 60.756 77.4852 60.7795 77.9404 60.7795C78.3958 60.7795 78.7708 60.7326 78.8512 60.4507C78.9315 60.1689 79.0118 60.028 79.1726 59.8871C79.3333 59.7462 79.3601 59.6523 79.3601 59.4878C79.3601 59.3234 79.4404 58.8068 79.4404 58.8068L80.1636 58.1023L80.2253 58.0735Z" fill="white"/>
</mask>
<g mask="url(#mask0_11_848)">
<path fill-rule="evenodd" clip-rule="evenodd" d="M80.2253 58.0735C80.2323 58.0966 80.2396 58.1144 80.2468 58.1265C80.2881 58.1964 80.3935 58.2758 80.4563 58.3397L81.4561 58.2258C81.5381 58.2645 81.6348 58.3067 81.7012 58.364L83.0074 59.4901C83.2356 59.6869 83.5768 59.8515 83.8463 59.9919C83.856 59.997 83.9445 60.0457 83.949 60.0457C84.2539 60.0533 84.8059 60.0267 85.0851 60.136C85.3161 60.4023 85.2578 60.6119 84.9874 60.8167L85.5244 61.2932C85.6992 61.2676 85.8749 61.2457 86.0504 61.222C86.209 61.3345 86.3724 61.4012 86.5559 61.4713C86.6697 61.5957 86.6112 62.0073 86.7225 62.1989C86.8014 62.3344 87.428 62.7252 87.5709 62.8086L87.6067 62.9563L87.9932 63.2012C88.247 63.3106 88.6508 63.0318 88.8846 62.9715C88.8922 62.9696 89.1101 62.9911 89.1319 62.993C89.1754 62.9966 89.2315 62.9965 89.2733 63.0053C89.413 63.0354 89.643 63.076 89.7696 63.1297C90.1951 63.3097 90.3048 63.987 90.51 64.3344C91.0709 64.5084 91.0981 64.6135 91.5039 65.0282C91.5091 65.0334 91.6034 65.0673 91.6162 65.0723C91.736 65.0231 91.8538 64.7693 91.8847 64.6692C91.5061 64.4052 91.622 63.9594 91.5234 63.6012C91.4997 63.5149 91.4388 63.4256 91.4066 63.3403C91.3306 63.1379 91.2946 62.515 91.2611 62.2696C91.4649 62.0766 91.7853 61.8692 92.0486 61.751C92.0617 61.7453 92.2837 61.7097 92.3311 61.7012L92.4771 61.751C92.6906 61.6396 92.9559 61.748 93.1697 61.8042C93.1787 61.8065 93.4149 61.9817 93.4637 62.0175L93.2837 62.2645L93.3467 62.5097L93.4733 62.5877L93.5421 62.741C93.6917 62.7315 93.7361 62.7342 93.777 62.7253C93.8141 62.7173 93.8486 62.6999 93.9555 62.6555L94.0314 62.8881C94.0489 62.8965 95.0264 63.0518 95.0613 63.0406L95.3036 62.9634L95.4242 63.0414L95.5629 63.4391L95.5053 63.5545C95.5143 63.6146 95.5971 63.7031 95.6466 63.7409L96.0302 63.85C96.0726 63.9597 96.0239 64.0679 95.996 64.1758C96.1572 64.3669 96.2824 64.4939 96.4841 64.6543L96.7857 64.588L97.1045 64.715L97.2864 64.5818C97.5566 64.6325 97.8357 64.7954 98.0176 64.9822C98.077 65.0434 98.1248 65.142 98.1896 65.1954C98.1995 65.2035 98.3796 65.2752 98.421 65.2928L98.4597 65.3707C98.4345 65.4442 98.412 65.6082 98.457 65.6807C98.5102 65.7483 98.765 65.7713 98.846 65.7711L98.9865 65.8692C99.0288 66.066 99.163 66.085 99.3764 66.1066L99.4512 66.2427L99.706 66.2979L99.9338 66.6099L99.9941 66.5942L100.095 66.4409L100.308 66.5335L100.374 66.5113L100.437 66.2953L100.696 66.1876C100.814 66.2432 100.944 66.319 101.068 66.3629C101.176 66.4014 101.321 66.3747 101.402 66.47C101.467 66.5589 101.366 66.9507 101.337 67.0477L101.422 67.1202L101.468 67.3874L101.684 67.2963C101.746 67.2841 101.884 67.3855 101.921 67.4199C102.01 67.4209 102.099 67.418 102.189 67.4171C102.294 67.4894 102.454 67.5631 102.588 67.5814L102.669 67.712C102.74 67.7338 102.862 67.7233 102.929 67.694L103.119 67.4344L103.179 67.4185L103.278 67.538L103.248 67.6175C103.146 67.6627 102.961 67.8039 103.004 67.924L103.103 68.044L103.218 68.0641L103.277 68.0213L103.336 67.8424L103.39 67.81L103.518 67.9031L103.59 67.8763L103.684 67.6974L103.858 67.6117L104.107 67.6409L104.192 67.7242L104.212 67.8237L104.111 68.0293C104.111 68.1158 104.304 68.2355 104.398 68.2261L104.464 68.1889L104.498 68.026L104.56 68.0355L104.64 68.1922L104.623 68.2868L104.299 68.5415L104.289 68.6313L104.538 68.8336L104.601 69.0428L104.733 68.9842L104.796 68.7053C104.914 68.8253 105.25 68.8698 105.414 68.8571L105.399 68.9476C105.597 69.0206 105.876 68.9927 106.088 69.0353C106.436 69.1051 106.96 69.3366 107.29 69.4958L107.57 69.4268L107.736 69.4924L107.899 69.4261C108.25 69.5213 108.639 69.5878 108.977 69.7118C108.987 69.7156 109.229 69.9165 109.252 69.9348C109.232 70.0376 109.507 70.4543 109.57 70.5451C109.596 70.5828 109.748 70.7339 109.76 70.7583C109.865 70.9817 109.829 71.6511 109.807 71.8837C110.217 72.3425 110.618 72.8498 111.06 73.2838C111.319 73.5384 111.681 73.7792 111.971 74.0108C112.428 74.3746 112.452 74.3133 113.141 74.4458C113.283 74.4731 113.441 74.5161 113.584 74.5307C114.238 74.5974 114.547 74.4283 115.145 74.8552C115.173 74.904 115.229 74.9758 115.241 75.0251C115.273 75.1662 115.234 75.4055 115.383 75.5077C115.597 75.6537 115.904 75.736 116.069 75.9344C115.993 76.2553 116.013 76.5448 116.04 76.8657C116.231 77.043 117.196 77.3149 117.466 77.4049C117.662 77.5189 119.809 78.8407 120.133 78.9361C120.356 79.0018 121.32 79.0686 121.594 79.099L124.093 81.0548C124.269 81.1925 124.696 81.1458 125.208 81.6008C125.243 81.5967 125.279 81.5946 125.314 81.5877C125.495 81.7015 125.71 81.8149 125.877 81.9425C126.072 82.0909 126.128 82.2597 126.402 82.3574C126.656 82.355 126.879 82.3541 127.127 82.291L127.316 82.108L127.341 81.8223L127.621 81.5647C127.602 81.4954 128.247 80.6845 128.33 80.5741C129.195 80.5862 130.027 80.6035 130.887 80.7204C131.001 80.8079 131.183 80.915 131.27 81.0167C131.532 81.3217 131.777 81.6205 132.082 81.8927L132.127 82.0866L132.893 82.336L133.056 82.1246C133.161 82.1689 133.697 82.3655 133.724 82.4485C133.966 82.4878 134.378 82.7006 134.562 82.8288C134.622 82.8707 134.748 83.0852 134.902 83.1767C135.346 83.4396 135.835 83.6895 136.256 83.979C136.449 84.1114 136.616 84.2847 136.812 84.4118C137.016 84.5445 137.282 84.6781 137.504 84.7881C137.667 84.8687 138.273 85.0544 138.341 85.1065C138.555 85.2702 138.868 85.6618 139.06 85.8653C139.088 85.8944 139.855 86.4045 139.869 86.4128C140.167 86.5754 140.764 86.7749 141.136 86.7151C141.318 86.6857 141.496 86.6058 141.678 86.5722C141.879 86.5351 142.415 86.5072 142.546 86.3616L142.663 86.5328C142.74 86.5313 142.858 86.5411 142.931 86.5273C143.205 86.4757 143.475 86.3879 143.747 86.3278C143.888 86.2964 144.101 86.3042 144.23 86.254C144.245 86.2482 144.39 86.1491 144.413 86.1345L144.798 86.1463C144.891 86.1014 145.02 86.0212 145.118 85.9923C145.145 85.9843 145.334 85.9827 145.379 85.9758C145.596 85.9423 145.856 85.8553 146.071 85.8451C146.082 85.8448 146.406 85.919 146.437 85.926L146.92 85.7499L147.083 85.8126C147.122 86.1882 147.128 86.2309 147.448 86.5396V86.6136L147.34 86.6812C147.391 86.8202 147.349 87.0677 147.249 87.1851L147.303 87.2424L147.41 87.2375C147.445 87.2877 147.548 87.333 147.614 87.3328L147.703 87.564L147.853 87.6593L147.871 87.7117L147.774 87.8692L147.893 87.9583L147.778 88.1051L147.88 88.1425L147.867 88.4732C147.973 88.5888 148.054 88.7501 148.111 88.888L148.249 88.9309L148.333 89.1415C148.216 89.1991 148.092 89.5472 148.174 89.6345L148.307 89.7027L148.312 89.7974C148.214 89.7955 148.037 89.6993 147.964 89.6487L147.917 89.7228C148.253 89.9076 148.201 90.2042 148.28 90.4954C148.324 90.6635 148.407 90.8345 148.469 91L148.441 91.0986C148.458 91.0973 148.642 91.1127 148.661 91.1167C148.705 91.1252 148.751 91.1785 148.796 91.1871L149.363 91.2989L149.402 91.3071C149.426 91.3158 149.501 91.3542 149.52 91.3575C149.836 91.4152 150.039 91.2388 150.326 91.2305C150.606 91.2226 150.9 91.2891 151.18 91.2803C151.518 91.2696 152.497 91.0887 152.742 91.216C153.043 91.3718 153.03 91.7007 153.139 91.8064L153.404 92.0611C154.468 92.435 155.256 92.3856 156.343 92.3613C156.387 92.3604 156.443 92.3649 156.486 92.3578C156.522 92.3518 156.677 92.3132 156.701 92.3129C157.171 92.3076 157.084 92.388 157.548 92.288C157.628 92.3518 157.79 92.3236 157.886 92.3198C158.067 92.3129 158.266 92.2918 158.447 92.2984C158.711 92.308 159.015 92.379 159.281 92.4164C159.408 92.5547 159.545 92.6916 159.654 92.8412C159.717 92.9268 159.744 93.0297 159.816 93.1104C159.962 93.2777 161.033 93.9547 161.247 93.9969L161.356 94.1806C161.329 94.6469 161.298 94.9873 161.889 95.1989L161.934 95.3652C162.128 95.3914 162.321 95.4203 162.516 95.4384L162.62 95.2975L162.727 95.288C162.952 95.4288 163.094 95.3697 163.319 95.2761L163.404 95.1615L163.512 95.131C163.546 94.7526 163.826 94.8648 163.906 94.7085L163.87 94.5663L163.913 94.5193C164.02 94.5062 164.187 94.4667 164.261 94.3964L164.27 94.0498C164.469 93.953 164.716 93.5884 164.822 93.4086C164.686 93.3186 164.22 92.9955 164.187 92.868L164.268 92.6851L164.598 92.4509C164.615 92.3461 164.632 92.2361 164.608 92.1312L164.512 92.125L164.447 92.0138L164.268 91.9862C164.29 91.9097 164.311 91.8327 164.336 91.7569C164.916 91.7872 170.274 92.0726 170.284 92.0772C172.02 92.8489 173.759 93.5741 175.458 94.4032C175.748 94.5449 176.008 94.7326 176.279 94.9017L176.127 95.0603L175.881 95.4123C175.841 95.4888 175.864 95.7691 175.892 95.8537C176.132 95.9286 176.465 95.9714 176.719 95.9367C176.911 95.8115 177.111 95.6902 177.316 95.5822C177.481 95.5718 177.762 95.65 177.87 95.7681C177.943 95.8506 177.925 96.0757 177.88 96.1606C177.806 96.2997 177.562 96.5854 177.397 96.6602C177.412 96.9884 177.578 97.3221 177.913 97.4848C178.087 97.5695 178.302 97.6255 178.468 97.7198C178.563 97.7736 178.664 97.8917 178.749 97.9601C178.933 98.1065 179.124 98.2478 179.31 98.3913C179.336 98.7205 179.324 99.3531 179.231 99.6685C179.148 99.9505 178.999 100.243 178.866 100.51C178.818 100.608 178.751 100.706 178.709 100.807C178.643 100.963 178.608 101.184 178.556 101.349L178.73 101.69C178.841 101.616 178.989 101.491 179.109 101.438C179.121 101.432 179.757 101.23 179.765 101.229C179.921 101.202 180.202 101.221 180.369 101.218L180.429 101.413C180.347 101.547 180.26 101.684 180.164 101.811L180.338 102.2C180.364 102.215 180.668 102.386 180.672 102.39C180.788 102.508 181.134 103.257 181.193 103.411C181.226 103.499 181.232 103.612 181.255 103.704C181.324 103.982 181.41 104.25 181.441 104.535L181.28 104.734L181.062 104.787L181.125 105.179C181.221 105.264 181.431 105.495 181.467 105.614C181.474 105.638 181.465 105.8 181.471 105.81L181.93 106.538C182.11 106.561 182.421 106.481 182.587 106.428L182.747 106.228L183.361 106.61C183.345 106.949 183.393 107.396 183.608 107.684L184.048 107.725L184.193 107.641L184.483 107.472C184.621 107.361 184.728 107.194 184.858 107.072C185.074 106.871 185.441 106.712 185.728 106.615L186.004 106.659C186.03 106.689 186.339 107.037 186.343 107.045C186.345 107.048 186.464 107.564 186.466 107.583C186.47 107.61 186.498 108.472 186.489 108.514C186.431 108.807 186.132 109.48 185.969 109.75L186.312 110.284L186.478 110.33C186.773 110.205 187.097 110.111 187.405 110.019L187.904 110.156L187.999 110.269L188.188 110.495C188.226 110.58 188.224 110.634 188.248 110.723C188.344 111.08 188.334 111.119 188.522 111.437L188.599 111.566C188.775 111.61 188.974 111.677 189.152 111.703C189.25 111.718 189.381 111.693 189.483 111.697C189.684 111.704 189.887 111.722 190.089 111.736L190.315 111.976C190.326 112.461 190.328 112.877 190.264 113.366C189.837 113.141 189.671 113.209 189.215 113.19C189.073 113.185 188.92 113.147 188.779 113.149C188.739 113.149 187.902 113.292 187.854 113.308C187.744 113.345 187.639 113.427 187.529 113.458C187.419 113.49 187.263 113.495 187.148 113.512C187.049 113.528 186.919 113.565 186.821 113.566L186.602 113.537C186.462 113.519 186.302 113.511 186.165 113.479C185.88 113.415 185.577 113.293 185.289 113.25L184.889 113.257L184.69 113.259C184.323 113.036 183.992 112.874 183.539 112.938C183.418 112.956 183.278 113.032 183.159 113.041L182.795 113.014L182.612 113.001L182.397 113.198C182.474 113.363 182.54 113.551 182.569 113.729C182.56 113.746 182.468 113.919 182.463 113.924C182.37 114.009 182.067 114.169 181.921 114.174C181.807 114.296 181.713 114.517 181.656 114.663C181.709 114.852 181.745 115.05 181.774 115.242L181.449 115.393C181.169 115.258 180.606 115.284 180.303 115.362C180.201 115.244 180.013 115.138 179.862 115.077L179.59 115.082C179.481 115.259 179.386 115.511 179.381 115.715C179.215 115.647 179.017 115.425 178.938 115.285C178.673 115.222 178.392 115.245 178.12 115.249C177.88 115.684 177.971 116.235 177.978 116.705L178.313 117.185C178.621 117.252 178.935 117.301 179.243 117.364C179.591 117.436 179.934 117.522 180.283 117.591C180.475 117.512 180.679 117.445 180.88 117.387L181.103 117.674L181.106 117.868L180.944 118.016L181.002 118.209C181.234 118.328 181.7 118.536 181.882 118.68C181.998 118.772 182.111 118.909 182.214 119.014C182.536 119.009 182.88 118.977 183.196 118.999C183.463 119.017 183.678 119.166 183.909 119.23C184.007 119.257 184.134 119.255 184.237 119.274C184.364 119.298 184.493 119.335 184.62 119.365C184.715 119.946 184.746 120.52 184.755 121.107C184.759 121.282 184.792 121.729 184.768 121.881C184.766 121.89 184.572 122.287 184.555 122.321C184.527 122.308 184.236 122.187 184.227 122.18C184.134 122.116 184.029 121.976 183.949 121.894C183.677 121.919 183.393 121.979 183.134 122.053C183.086 122.221 182.861 122.583 182.708 122.688C182.664 122.718 182.63 122.719 182.581 122.739L182.328 122.84C182.106 122.88 181.669 122.831 181.453 122.756C181.273 122.694 181.088 122.57 180.904 122.522C180.749 122.481 180.365 122.485 180.139 122.437C180.154 122.47 180.302 122.813 180.31 122.822C180.384 122.923 180.549 123.013 180.641 123.108C180.714 123.183 180.808 123.309 180.863 123.395C181.019 123.64 181.034 123.957 181.076 124.232C181.084 124.282 181.077 124.313 181.097 124.36C181.132 124.444 181.355 124.726 181.376 124.792C181.377 124.794 181.385 125.265 181.383 125.276C181.361 125.41 181.273 125.584 181.226 125.715L181.505 126.098C181.76 126.219 182.096 126.297 182.382 126.327C182.706 126.541 182.872 126.858 183.103 127.139C183.183 127.237 183.309 127.325 183.38 127.426C183.471 127.556 183.522 127.722 183.604 127.858C183.774 128.133 183.99 128.374 184.109 128.674C184.413 128.818 184.812 128.899 185.149 128.949L185.316 129.189C185.51 129.217 185.729 129.233 185.918 129.276C186.298 129.364 186.961 129.736 187.238 129.983C187.332 129.981 188.122 129.962 188.164 129.969C188.236 129.979 188.264 130.016 188.329 130.047C188.532 130.143 189.126 130.393 189.263 130.485C189.323 130.525 189.342 130.562 189.393 130.612L189.651 130.866C189.738 130.968 189.79 131.1 189.874 131.202C189.884 131.215 190.2 131.532 190.207 131.536C190.489 131.743 190.997 131.892 191.358 131.922C191.552 131.938 191.771 131.97 191.958 131.897C192.213 132.088 192.504 132.257 192.784 132.417C192.833 132.595 192.894 132.773 192.956 132.947C193.098 132.995 193.731 133.198 193.778 133.226C193.811 133.245 194.055 133.516 194.11 133.56C194.219 133.646 194.398 133.704 194.496 133.796C194.498 133.798 194.924 134.381 194.941 134.419C194.972 134.483 194.983 134.59 195 134.66L194.459 134.91C194.566 135.041 194.786 135.369 194.741 135.536L194.67 135.619C194.413 135.669 194.325 135.562 194.123 135.53C193.929 135.498 193.54 135.586 193.36 135.638C193.295 135.784 193.233 135.939 193.149 136.077C192.924 136.136 192.718 136.156 192.494 136.086L192.387 136.233L192.5 136.475L192.284 136.623C192.14 136.625 191.933 136.656 191.793 136.63C191.665 136.607 191.537 136.567 191.41 136.539C191.271 136.508 191.104 136.491 190.971 136.448C190.783 136.386 190.572 136.22 190.473 136.068C190.324 136.04 190.131 135.985 189.981 135.978C189.972 135.977 189.733 136.024 189.708 136.03L189.655 136.078L189.616 135.966L189.54 135.741C189.427 135.547 189.003 135.251 188.82 135.121C188.693 135.109 188.506 135.071 188.382 135.079C188.235 135.089 188.039 135.152 187.893 135.182C187.76 135.355 187.582 135.675 187.522 135.867C187.473 136.024 187.445 136.507 187.426 136.693L187.354 136.742L187.21 136.841C186.996 136.908 186.752 136.852 186.557 136.997C186.29 136.945 186.01 136.955 185.738 136.96C185.653 136.961 185.604 136.974 185.52 136.963L185.117 136.839L184.916 136.777C184.863 136.645 184.816 136.466 184.745 136.343C184.742 136.339 184.593 136.213 184.579 136.2C184.583 136.006 184.43 135.72 184.295 135.574L183.697 135.728C183.431 135.63 183.167 135.491 182.926 135.351C182.798 135.399 182.263 135.616 182.168 135.702L181.882 136.029L181.74 136.193L181.753 137.017C181.631 137.185 181.467 137.459 181.325 137.605L180.947 137.853C180.89 137.876 180.628 137.884 180.566 137.907C180.326 137.996 180.097 138.153 179.862 138.257C179.552 138.394 179.171 138.485 178.834 138.553L178.781 138.855C178.553 138.981 178.3 139.077 178.076 139.204C177.945 139.278 177.829 139.377 177.698 139.452C177.555 139.534 177.335 139.605 177.211 139.701C177.205 139.706 177.014 139.972 176.997 139.995C176.818 140.05 176.423 140.226 176.293 140.345C176.202 140.429 176.098 140.588 176.025 140.688C176.005 140.716 175.877 140.923 175.866 140.933C175.805 140.989 175.657 141.027 175.596 141.082C175.585 141.091 175.456 141.299 175.435 141.327C175.338 141.461 175.22 141.59 175.115 141.72L174.516 141.874L174.683 142.065C174.847 142.14 175.204 142.242 175.395 142.201L175.02 142.642C174.564 142.766 174.172 142.968 173.774 143.194C173.569 143.222 173.226 143.103 173.061 143.01C172.827 143.045 172.588 143.09 172.353 143.117C172.265 143.127 172.167 143.108 172.08 143.121C171.919 143.144 171.75 143.191 171.59 143.225C171.511 143.442 171.391 143.659 171.273 143.859C170.882 144.003 170.6 144.293 170.19 144.409L170.083 144.555C169.827 144.661 169.626 144.653 169.376 144.711C169.285 144.733 169.196 144.787 169.105 144.812C168.77 144.907 168.293 144.962 167.962 145.071C167.723 145.151 167.596 145.26 167.422 145.419C167.38 145.457 167.364 145.487 167.315 145.517C167.122 145.635 166.572 145.638 166.334 145.677C166.257 145.832 166.17 145.999 166.123 146.165L165.853 146.314L165.633 146.172L165.305 146.176C165.054 146.275 164.974 146.539 164.822 146.717C164.673 146.891 164.432 147.08 164.23 147.21L163.957 147.215C163.905 147.455 163.732 147.743 163.587 147.947L163.315 148C163.306 148.03 163.211 148.329 163.211 148.34C163.209 148.38 163.312 149.045 163.333 149.115C163.356 149.191 163.411 149.281 163.446 149.355C163.368 149.532 163.436 149.734 163.4 149.841C163.397 149.849 163.148 150.309 163.135 150.329C163.063 150.443 162.925 150.556 162.867 150.673C162.86 150.688 162.828 150.928 162.818 150.965C162.775 151.127 162.715 151.292 162.662 151.452C162.63 151.549 162.596 151.65 162.558 151.745C162.513 151.85 162.425 151.979 162.399 152.086C162.396 152.097 162.404 152.35 162.404 152.377C162.458 152.508 162.775 152.697 162.902 152.758C162.95 152.868 163.049 153.031 163.072 153.143C163.104 153.3 163.083 153.814 163.086 154.016C163.193 154.204 163.366 154.393 163.532 154.543C163.496 154.77 163.617 154.957 163.651 155.172C163.664 155.257 163.644 155.707 163.661 155.754C163.665 155.766 163.868 156.167 163.87 156.17C164.018 156.348 164.255 156.51 164.424 156.678C164.536 156.788 164.817 157.066 164.897 157.184L165.104 157.617L165.207 157.832L165.037 158.476L165.349 158.98C165.55 159.059 166.805 159.589 166.942 159.714C167.085 159.847 167.27 160.203 167.412 160.364C167.568 160.54 167.789 160.71 167.966 160.872C168.073 161.515 168.389 162.427 168.653 163.03L168.542 163.267L168.321 163.743L168.094 164.552L167.98 164.958C167.905 165.001 167.775 165.083 167.642 165.163C167.49 165.256 167.334 165.348 167.251 165.38C166.928 165.506 166.533 165.539 166.204 165.655C165.891 165.765 165.232 166.139 164.98 166.356C165.008 166.645 165.038 166.935 165.073 167.224L165.118 167.61C165.12 167.623 165.343 168.135 165.345 168.137C165.447 168.276 165.674 168.379 165.784 168.515C165.808 168.545 165.921 168.84 165.954 168.898C166.049 169.059 166.179 169.22 166.287 169.374C166.01 169.555 165.702 169.751 165.386 169.877C165.219 170.089 165.004 170.444 164.976 170.708L165.252 170.993C165.255 171.135 165.286 171.338 165.263 171.475C165.248 171.56 165.222 171.604 165.196 171.687C165.072 172.08 164.928 172.46 164.758 172.84C164.662 173.054 164.545 173.261 164.451 173.475C164.41 173.569 164.387 173.672 164.35 173.767C164.207 174.133 164.04 174.498 163.838 174.842C163.655 175.154 163.439 175.303 163.331 175.672C163.174 175.635 162.848 175.588 162.71 175.533C162.495 175.447 162.144 175.227 161.933 175.111L161.469 175.821L161.004 176.53L160.229 176.816L159.455 177.243L159.302 178.233L159.149 179.083L158.687 180.075L158.378 180.5L157.602 180.786L156.36 180.792L154.652 180.799L153.566 181.086L152.168 180.809L151.391 180.388L149.991 179.687L149.368 179.124L148.746 178.844L147.968 178.281L147.656 177.717L147.189 177.294L146.721 176.589L146.408 176.025L145.474 175.181L145.161 174.475L144.85 174.052L145.315 173.908L145.937 174.331L146.403 174.187L146.558 174.044L146.555 173.337L146.708 172.631L146.551 171.924L146.859 171.215L146.857 170.508L146.854 169.66L146.697 169.094L146.074 168.673L146.072 167.825L146.07 167.118L146.067 166.27L145.909 165.28L145.595 164.433L146.525 163.864L147.146 163.578L147.144 163.013L146.832 162.448L146.055 162.168L145.587 161.746L145.585 161.18L145.43 161.04L144.808 160.901L144.188 161.186L143.008 161.467L141.395 161.905L140.773 161.484L139.841 161.204L139.064 161.067L138.13 160.505L137.979 161.637L138.293 162.767L138.14 163.616L137.054 163.762L136.121 163.341L136.274 162.775L136.273 162.068L135.649 161.504L134.717 161.509L134.095 160.945L134.092 159.814L133.469 159.393L133.161 159.959L132.695 160.103L132.694 159.82L133.003 159.112L132.691 158.547L132.069 158.55L131.14 159.119L130.05 158.275L129.428 157.995L128.185 157.859L126.942 157.44L126.163 156.595L125.851 156.172L125.693 155.324L125.687 153.344L125.222 153.629L124.29 153.492L123.824 153.211L123.049 153.78L122.428 153.783L121.494 153.079L120.872 152.799L120.251 152.943L119.784 152.52L119.472 151.957L118.386 152.102L118.384 151.537L118.693 151.252L118.382 150.971L117.915 150.549L117.914 150.124L117.912 149.559L117.91 148.993L116.667 148.857L115.581 149.003L115.739 149.709V149.992L114.498 150.28L114.345 150.988L115.122 151.125L115.434 151.549L114.503 151.835L113.726 151.697L113.104 151.276L113.413 150.708L113.412 150.426L112.79 150.146L112.013 149.866L111.392 149.868L111.239 150.717L110.775 151.002L110.46 150.014L110.149 149.591L109.683 149.734L109.531 150.725L109.691 151.997L109.072 152.707L108.613 154.83L108.615 155.678L108.149 155.68L107.682 155.399L107.216 155.259L106.753 156.11L106.133 156.396L105.977 156.113L105.51 155.691L104.731 154.988L103.954 154.99L103.024 155.418L102.091 155.14L102.09 154.716L101.469 154.718L101.004 155.003L99.6087 155.574L98.6777 155.578L98.2103 155.156L98.5192 154.447L99.2936 154.02L99.1369 153.455L99.1351 152.889L99.7546 152.463L100.063 151.895L100.062 151.33L100.06 150.623L100.524 150.055L100.677 149.489L100.054 149.208L99.2783 149.212L98.9685 149.355L99.1252 149.778L99.1261 150.202L99.1279 150.768L98.819 151.335L98.3526 151.054L98.1959 150.489L97.8852 150.349L97.4188 150.351L96.0221 150.499H95.8673L96.3355 151.345L97.2684 151.766L97.7358 152.329L96.494 152.335L95.8718 152.196L95.2513 152.199L94.9399 151.917L94.4731 151.636L93.8514 151.356L93.6939 150.649L93.5366 149.943L93.0703 149.803L92.9165 150.228L93.0737 150.935L93.0748 151.36L93.0768 151.925L92.6116 152.068L92.1453 151.929L91.8356 152.213L91.0574 151.65L90.4358 151.37L90.1253 151.371L90.2823 151.937L90.5963 153.067L91.6844 153.486L91.3756 153.911L89.9783 154.059L89.3561 153.638L89.3547 153.214L89.8197 152.928L89.3516 152.223L88.5756 152.368L87.9564 152.936L87.8034 153.785L87.4927 153.645L87.0271 153.788L86.2514 153.933L85.6298 153.794L85.1622 153.231L84.9882 152.682L84.7735 152.351C85.684 151.811 84.8305 151.83 85.942 151.152C86.2393 150.97 85.7457 150.685 86.6397 150.244C87.2744 149.93 86.4884 149.672 87.6841 149.365C88.0511 149.124 88.1098 149.061 88.5846 148.95C88.7185 148.919 88.7603 148.894 88.7766 148.879L88.7991 148.84C88.694 148.455 88.4276 148.428 88.4273 147.841C88.4273 147.733 88.4083 147.669 88.3293 147.585C87.8111 148.211 87.4379 147.159 87.3157 147.026C86.9032 146.62 85.5508 146.858 86.0671 145.463C86.1044 145.362 86.1682 145.237 86.1682 145.13C86.104 144.914 86.1477 144.455 86.0307 144.151C85.9349 143.902 85.6775 143.792 85.6148 143.722L85.4436 143.755L84.3572 143.901L83.426 144.047L82.9614 144.473L82.0317 145.043L81.2562 145.328L80.635 145.332L79.7038 145.477L79.0842 146.045L78.0001 146.898L77.6902 147.181L77.2274 148.032L77.0752 149.023L76.4532 148.743L76.2957 148.036L75.829 147.755L75.0548 148.324L74.901 148.89L75.2155 150.162L74.4414 150.872L74.4442 151.862L73.8232 151.865L72.8891 151.161L71.8017 150.883L71.0251 150.745L70.0932 150.749L68.6944 150.33L68.6734 150.163C68.1913 149.787 68.0842 150.257 67.7628 150.586C67.4414 150.915 67.3878 151.337 67.3878 151.572C67.3878 151.807 66.9592 152.229 66.2629 152.229C65.5664 152.229 65.6736 151.525 65.995 151.243C66.3164 150.961 65.5664 150.915 65.4057 150.539C65.2451 150.163 64.8701 150.491 64.6022 150.82C64.3344 151.15 64.0665 150.773 63.9058 150.539C63.7451 150.304 64.2808 149.364 64.6022 149.224C64.9236 149.083 65.1379 148.848 65.2451 148.613C65.3522 148.378 65.4593 148.238 65.7807 148.049C66.1021 147.861 66.2093 147.627 65.995 147.345C65.7807 147.063 65.4593 147.063 65.2451 147.392C65.0307 147.721 64.1201 147.063 63.8523 146.64C63.5844 146.218 63.4237 146.546 63.2094 146.734C62.9951 146.922 62.5666 146.687 62.5666 146.171C62.5666 145.654 61.8702 145.607 61.4416 145.513C61.0131 145.419 60.9595 145.748 60.9059 145.936C60.8523 146.123 60.7988 146.546 60.6917 146.969C60.5845 147.392 61.2274 147.297 61.4952 146.969C61.7631 146.64 62.0309 146.922 62.0845 147.11C62.138 147.297 62.9415 148.003 62.9415 148.331C62.9415 148.66 62.9415 149.035 62.5666 149.035C62.1916 149.035 61.9237 148.472 61.6024 148.19C61.281 147.908 61.1738 148.613 61.1738 148.613C61.1738 148.613 61.7631 149.459 61.9237 149.646C62.0845 149.834 62.138 150.163 61.9237 150.445C61.7095 150.726 61.4952 150.726 60.9059 150.398C60.3167 150.069 60.531 150.491 60.6917 150.773C60.8523 151.055 60.6381 151.102 60.2632 151.102C59.8881 151.102 59.2286 150.935 59.2286 150.935L58.7585 150.654L58.2911 150.232L57.9811 150.375L57.9834 151.224L57.2071 151.086L56.8957 150.804L56.5666 149.74L55.4946 149.678L54.8758 150.389L54.6917 149.787L54.6381 148.942L55.1807 148.549L54.7132 147.985L54.4016 147.704L54.0877 146.573L53.1573 147.001L53.6267 148.131L53.3189 148.98L52.5408 148.419L51.1448 148.848L50.682 149.84L50.3702 149.417L50.6792 148.992L50.5211 148.003L50.9852 147.435L51.916 147.148L52.6901 146.437L52.7099 145.701L51.4457 145.736L50.6955 146.13C50.6955 146.13 50.5136 146.452 50.6207 146.734C50.7278 147.016 50.2457 147.486 50.2457 147.486C50.2457 147.486 49.5493 148.143 49.3886 147.814C49.2279 147.486 48.9065 147.439 49.2815 147.251C49.6564 147.062 49.7636 146.452 49.1743 146.687C48.585 146.922 48.2101 146.265 48.7994 146.03C49.3886 145.795 49.7762 145.513 49.7762 145.513L50.0456 144.893L50.3546 144.327L51.9061 144.037L51.9074 144.461L51.5982 144.887L52.3752 145.025L52.8397 144.74L53.1491 144.314L52.8367 143.75L52.0587 143.188L51.9027 142.906L51.7456 142.34L52.2087 141.49L51.7403 140.644L52.3615 140.641L51.5832 140.079L50.8062 139.941L50.4975 140.508L50.3443 141.216L50.1898 141.357L50.3471 141.922L50.349 142.629L50.0394 142.914L49.7297 143.198L49.4169 142.492L49.2609 142.21L48.7938 141.787L48.0175 141.791L47.3971 142.076L47.71 142.782L48.332 143.062L48.6425 143.061L48.7994 143.626L48.1786 143.628L47.8687 143.771L47.8707 144.478L47.5621 145.187L46.6302 145.049L46.3191 144.767L45.2308 144.347L45.2295 143.923L46.1594 143.354L46.1584 143.071L45.5366 142.791L44.7611 143.077L43.6764 143.788C43.6764 143.788 43.2818 143.915 42.9603 143.915C42.6389 143.915 42.4246 144.432 42.7996 144.761C43.1746 145.089 42.7996 145.513 42.5318 145.371C42.2639 145.231 41.6211 144.996 41.7283 145.324C41.8353 145.653 42.0496 146.123 41.8353 146.17C41.6211 146.217 40.9247 146.311 40.6033 146.076C40.2818 145.841 39.9604 146.123 39.4783 146.311C38.9962 146.499 38.9426 146.593 39.1034 146.827C39.264 147.062 39.9069 146.969 40.1212 146.827C40.3354 146.687 40.7104 146.593 40.9782 146.827C41.2461 147.062 41.3532 146.969 41.6747 147.016C41.9961 147.062 42.5853 147.626 42.5853 147.626C42.5853 147.626 42.7996 148.002 43.0139 149.317C43.2282 150.632 43.2282 150.867 43.1746 151.243C43.121 151.619 43.9781 151.572 44.2996 151.759C44.621 151.948 44.5674 153.544 44.5674 153.779C44.5674 154.014 44.5138 154.202 44.246 154.39C43.9781 154.578 43.7639 154.86 43.7639 155.095C43.7639 155.329 44.2996 155.47 44.621 155.517C44.9423 155.564 45.3174 156.081 45.5316 156.785C45.7459 157.49 46.228 157.161 46.4423 157.302C46.6566 157.443 47.0315 157.443 47.2994 157.302C47.5672 157.161 47.8887 157.584 48.1565 158.007C48.4244 158.429 48.4244 158.476 48.3172 158.852C48.2101 159.228 47.5136 159.745 47.5136 160.12C47.5136 160.496 47.7815 161.248 47.7815 161.248C47.7815 161.248 47.6744 161.765 47.6744 161.952C47.6744 162.14 47.6208 162.609 47.1387 162.797C46.6566 162.986 46.9245 164.065 47.0315 164.442C47.1387 164.817 47.5136 164.817 47.728 164.535C47.9423 164.253 48.1565 164.253 48.5315 164.253C48.9065 164.253 49.0672 164.3 49.2815 163.972C49.4958 163.643 50.6742 163.267 50.6742 163.267C50.6742 163.267 50.9957 163.972 50.9957 164.395C50.9957 164.817 51.3707 164.77 52.067 165.099C52.7634 165.428 52.3885 165.521 52.3349 165.851C52.2813 166.18 52.3885 166.508 52.6563 166.79C52.9242 167.072 52.9778 167.166 52.6563 167.447C52.3349 167.729 52.0135 167.588 51.692 167.166C51.3707 166.743 51.1028 166.884 50.8886 167.166C50.6742 167.447 51.4242 167.87 51.692 168.058C51.9599 168.246 52.067 168.433 52.1206 168.81C52.1742 169.185 52.6563 169.139 52.8706 168.857C53.0849 168.575 53.1384 169.467 53.1384 169.655C53.1384 169.843 52.9778 171.112 51.6385 171.674C50.2993 172.238 51.4778 172.286 51.4778 172.568C51.4778 172.849 51.3171 173.037 50.835 173.037C50.3529 173.037 50.5671 173.365 50.5671 173.835C50.5671 174.305 49.7636 174.493 49.5493 174.258C49.335 174.023 48.9065 174.258 48.8529 174.728C48.7994 175.198 48.4779 175.15 48.2637 175.15C48.0493 175.15 47.728 174.775 47.4066 174.446C47.0851 174.117 47.2458 174.023 47.4601 173.6C47.6744 173.178 47.0315 173.13 46.7637 173.412C46.4958 173.694 46.228 173.742 45.7995 173.835C45.371 173.929 44.8353 173.882 44.5138 173.647C44.1924 173.412 44.0317 173.272 44.3531 172.849C44.6745 172.426 43.4424 172.379 43.4424 172.379C43.4424 172.379 43.2282 171.862 42.8531 171.627C42.4782 171.392 42.4782 171.158 42.5318 170.688C42.5853 170.218 41.7818 170.36 41.4604 170.36C41.139 170.36 40.5497 170.218 40.2818 169.89C40.014 169.561 39.8533 169.514 39.5319 169.655C39.2105 169.796 39.5319 170.218 39.7997 170.735C40.0676 171.252 39.7997 171.252 39.1034 171.112C38.4069 170.97 38.7819 171.534 38.4605 171.722C38.1391 171.909 38.2998 172.144 37.9784 172.708C37.657 173.272 37.3355 172.802 37.282 172.52C37.2284 172.238 36.907 172.191 36.3713 172.098C35.8356 172.004 36.3177 171.158 36.4249 170.97C36.532 170.782 36.6392 170.406 36.4785 169.89C36.3177 169.374 36.4785 169.232 35.9428 169.232C35.4071 169.232 35.4607 168.997 35.4607 168.715C35.4607 168.433 35.4071 168.293 35.1393 168.199C34.8714 168.105 34.4428 168.011 34.4428 168.011L34.1223 167.352L33.8469 167.014C33.9755 166.922 34.0863 166.821 34.1782 166.706C33.7481 166.652 33.6322 166.349 33.6543 166.012C32.5807 165.537 33.4111 164.921 33.863 164.376C34.145 164.036 34.1859 163.362 34.3349 162.941C33.9772 162.402 33.9884 162.409 34.1426 161.854C34.4801 160.638 32.6474 160.628 33.1786 159.19C33.2461 159.007 33.2646 158.917 33.211 158.8L32.8476 158.213L32.5904 157.802L32.5049 157.666C32.1409 157.435 31.7342 157.506 31.6746 156.907C31.5846 156.001 33.4801 154.931 34.2382 154.498C34.671 154.25 34.9088 153.837 35.3122 153.553L35.5046 153.421C36.7761 152.55 35.0899 151.911 36.1315 150.889C36.5502 150.477 36.8402 150.72 37.2096 150.265C37.7995 149.538 38.2249 149.918 38.8578 149.948C39.006 149.822 39.1646 149.724 39.3236 149.629L38.8827 149.041L38.2561 148.478L37.6336 147.915L37.4761 147.208L37.3182 146.36L37.1618 145.937L36.6931 145.09L36.2247 144.244L36.997 142.968L38.0847 143.105L38.5479 142.396L39.3221 141.686L38.8537 140.839L38.852 140.274L38.696 139.991L39.006 139.849L39.6255 139.422L40.2476 139.702L40.7151 140.266L41.8002 139.696L42.5759 139.551L43.8184 139.687L43.865 139.653L45.1565 139.688C45.4778 139.453 45.585 139.36 45.7992 139.218C46.0135 139.078 46.2279 138.608 46.5492 138.796C46.8706 138.983 47.1385 139.03 47.2992 138.796C47.4599 138.561 47.6206 138.326 47.942 138.42C48.2635 138.514 48.8527 138.467 49.067 138.091C49.2813 137.715 49.2277 137.245 49.2277 137.245C49.2277 137.245 48.1563 135.837 47.8348 135.507C47.5135 135.179 46.9242 134.756 47.6206 134.756C48.317 134.756 48.6395 134.589 48.8799 134.132L48.9247 134.009L49.2324 133.159L50.4765 133.72L50.4733 132.73L50.4694 131.457L51.553 130.463L53.0846 129.919C53.0846 129.919 52.7633 129.778 52.4954 129.543C52.2276 129.309 52.1204 129.261 52.4418 128.979C52.7633 128.698 52.8704 128.604 52.9239 128.368C52.9775 128.134 53.0846 127.664 53.4596 127.711C53.8346 127.758 53.9953 127.711 54.156 127.476C54.3168 127.242 54.3703 127.054 54.1024 126.866C53.8346 126.678 51.9351 125.794 52.9385 125.508L54.0215 125.362L53.5535 124.657L53.8629 124.231L54.7935 123.944L55.8777 123.092L55.1004 122.812L55.4098 122.528L56.1863 122.524L56.0295 122.101L55.7166 121.395L56.6472 120.967L56.4897 120.261L55.7117 119.699L56.6399 118.563L56.1708 117.575L55.2369 116.872L54.6137 116.168L53.9887 114.897L53.4024 113.428L52.8605 112.565L53.1346 111.874L51.6302 111.957L51.6936 111.308L51.2646 110.991L50.0767 111.232L49.3811 111.074L48.3191 109.775L47.3283 109.589L46.9065 109.058L46.1965 109.251L45.9293 108.747L45.6405 108.671L45.135 108.803L44.7133 109.32L43.7289 109.196L42.9485 109.79L42.3092 109.762L41.4936 109.562L41.0651 109.244L39.4901 108.996L38.8432 108.271L37.6833 108.092L36.9522 107.242L35.3426 107.229L34.8718 107.387L34.2596 108.354L33.5217 108.05L33.0232 107.735L33.3543 107.242L34.0061 106.959L34.5823 106.325L34.4304 105.692L33.701 105.763L32.2468 105.624L31.1957 105.555L30.7802 106.26L29.6388 106.825L28.9803 107.53L28.3263 107.953L28.4159 107.389L28.0201 106.827L26.4824 106.829L25.8461 106.126L25.275 106.408L25.3528 106.619L24.9459 106.761L23.9836 106.199L22.6911 106.06L21.477 106.061L21.147 106.484L20.4917 106.978L19.2674 107.684L17.8838 108.178L16.6645 108.532L15.9395 108.322L15.131 108.253L15.1978 109.168L15.0221 110.083L14.1254 110.507L13.8856 110.296L13.9732 109.874L13.57 109.803L13.5826 108.959L14.1764 107.198L15.6428 106.562L17.6792 105.714L20.0368 105.007L21.7448 104.442L21.6779 103.526L21.1913 103.597L20.5421 103.739L20.3066 103.247L19.7373 103.458L19.247 103.741L18.2783 103.601L17.2317 103.251L17.2418 102.617L16.8428 102.265L16.2728 102.477L15.4704 102.056L16.206 101.562L17.7455 101.419L18.1546 101.137L18.0015 100.574L18.9005 100.01L19.5522 99.7273L19.482 99.0232L19.328 98.5305L19.739 98.1076L19.5018 97.7559L18.9331 97.8976L18.8444 98.3904L18.28 98.2504L18.3817 96.9125L18.6355 96.2082L18.2363 95.8565L17.3459 95.8576L16.5457 95.2955L15.9855 94.8739L14.7783 94.453L14.1363 94.1019L13.8333 92.7646L13.2798 91.9204L12.8039 91.2874L12.2809 90.3522L11.865 90.0271L11.6822 89.5041L11.7379 88.9134L11.8633 88.0602L11.5971 87.472L11.0788 86.6231L10.9657 85.8371L10.6194 85.2494L10.6858 84.921L10.4975 84.2666L10.9329 82.7923L11.286 82.794L11.5901 82.6264L11.8442 82.4919L12.4645 81.8546L12.9559 81.5017L14.0043 81.7117L14.3433 80.7254L14.8364 80.2321L14.988 80.2704L15.0568 80.1663C15.1886 80.032 15.3442 79.9196 15.5434 79.8749C15.3609 79.439 15.2407 78.9166 14.9417 78.5342C14.477 78.4194 13.9792 78.1337 13.9799 77.6628C13.9801 77.5698 14.0007 77.4785 14.0386 77.3908L14.0791 77.3204C14.1123 77.2753 14.1519 77.2319 14.1952 77.1919L14.1847 77.1541C14.0767 76.7896 13.6201 75.8403 14.4826 75.8299C14.5567 75.829 14.6227 75.8333 14.6825 75.842L14.6876 75.7991L14.7078 75.6684C14.7718 75.1772 14.1226 74.7835 15.1877 74.3806C14.918 74.3205 14.728 74.2144 14.6628 73.873C14.5921 73.5031 15.0913 73.3584 15.4021 73.2987C15.4027 73.1196 15.4464 72.9781 15.5334 72.8627C15.1925 72.8413 14.6572 72.9535 14.3532 72.4669C14.3463 72.4558 14.3009 72.3004 14.3009 72.2876V72.1418C14.3009 72.0194 14.4731 71.8644 14.5312 71.7387C14.3176 71.7214 14.1138 71.6859 13.9531 71.5476L13.867 71.4418C13.5642 70.8844 13.9788 70.5526 14.39 70.1785L14.438 70.1321C14.4239 69.9322 14.3742 69.8452 14.4678 69.6419L14.5036 69.5717C13.915 69.6652 13.6259 69.2235 13.8676 68.7771C13.9152 68.6896 13.9812 68.6071 14.0163 68.5147C12.8667 68.8613 12.8644 68.3458 12.8314 67.7158C12.3977 67.9236 11.8941 68.4397 11.5493 67.7137C11.4495 67.5039 11.6014 67.2855 11.7178 67.1105C11.3642 66.9641 11.1167 66.7598 10.8964 66.5326L11.6614 66.3035L11.9623 66.0082L11.0068 65.5L10.538 64.995L10.3505 64.443L10.578 64.0437L11.2342 63.8205L11.1806 63.3392L10.6852 62.9518L11.0066 62.0593L11.1806 62.0007L10.9796 61.2139L9.98857 61.1669L9.734 60.6738L9.2116 60.5915L8.94375 60.0632L8.56877 59.4172L8.0198 59.0768L8.39478 58.0904L8.05472 57.8604L7.30861 57.8526L7.45882 57.2344L7.87859 57.027C8.04808 56.8527 8.63112 56.9034 8.63112 56.4444V56.2986C8.63112 56.1192 8.27285 55.7235 8.15822 55.5986C8.04293 54.9859 7.8053 54.9842 7.46032 54.817C8.29771 54.5222 8.32042 53.8958 7.55931 53.4447C6.81256 53.0021 7.52353 52.1059 6.3763 51.305L6.41765 51.264C6.59979 51.0683 6.60621 50.8041 6.52908 50.5691C6.36815 50.0796 6.62357 49.6442 6.52693 49.1522C6.46286 48.8257 6.49758 48.5037 6.4995 48.1743C6.50272 47.659 5.95846 47.2983 6.37201 46.892C6.98699 46.2878 6.71228 46.2005 6.40458 45.6121C5.75082 44.362 6.83335 44.7193 6.68828 43.8885L6.65485 43.7927C6.60408 43.6987 6.50958 43.5781 6.37051 43.4546L6.27216 43.3066L5.6814 41.3397L5 40.5873L5.11935 40.2284L5.74482 39.9938L5.05614 39.0271L5.52712 38.4265L5.59055 37.8121L6.1181 37.1978L6.37115 36.4796L6.33601 36.2242L5.75918 35.672L6.1183 34.8091L5.69618 34.2636L6.0056 34.022L6.91542 33.9958L7.45989 34.0112C7.56532 33.7162 7.60517 33.4388 7.68703 33.0974C7.78452 32.6907 8.05922 32.3441 8.05922 31.8841C8.05922 31.3021 8.26449 30.9864 8.48713 30.4536C8.66284 30.0332 9.01682 29.8216 9.2596 29.4525L9.31253 29.3698C9.48073 29.1108 9.79079 29.1035 9.96092 28.7107L10.0136 28.5852L10.0513 28.5593C10.1051 28.5484 10.1491 28.5433 10.2035 28.5495L10.317 28.5642C10.9035 28.6348 11.1204 28.3596 11.0289 27.8884C11.1658 27.7256 11.5866 27.7503 11.9625 27.2821C12.2942 26.8685 12.7041 27.2297 13.1866 26.6452C13.5168 26.2452 14.1643 26.3126 14.6351 25.9534L14.7457 25.8696C14.7926 25.8356 14.8402 25.8059 14.8951 25.7826L15.0013 25.74C15.7966 25.4266 15.5299 24.9623 16.0513 24.7814C16.338 24.6818 16.4149 24.2309 16.537 24.0058C16.744 23.765 16.8186 23.706 16.8242 23.353C17.2465 22.9815 16.9481 22.8171 17.1628 22.5246L17.2596 22.3968C17.5231 22.0457 17.5058 21.9204 17.463 21.5352C17.4644 21.5253 17.4717 21.5009 17.5121 21.4398C17.7595 21.0659 17.8594 20.6528 17.8052 20.2158C17.7518 19.7866 17.7542 19.6046 17.7303 19.4941L18.238 19C18.238 19 18.9076 19.0939 19.0951 19.1879C19.2826 19.2818 19.8986 19.4932 20.0861 19.5167C20.2736 19.5402 20.595 19.822 20.7825 20.0333C20.97 20.2447 21.1307 20.597 21.2379 20.7379C21.345 20.8788 21.4254 21.0667 21.9342 21.1371C22.4432 21.2076 22.7645 21.4894 22.7645 21.4894C22.7645 21.4894 23.1663 22.2644 23.4877 22.2644C23.8092 22.2644 24.2377 22.2174 24.4788 22.4288C24.7198 22.6401 25.4966 22.6636 25.4966 22.6636C25.4966 22.6636 25.8984 22.828 26.059 22.922C26.2198 23.0159 26.3001 23.1098 26.5144 23.2742C26.7287 23.4386 26.8358 23.697 26.7287 23.8144C26.6216 23.9318 26.2733 24.3076 26.1662 24.378C26.059 24.4485 25.3627 24.8947 25.2823 25.1295C25.202 25.3644 24.8806 26.0689 24.6931 26.5151C24.5055 26.9614 24.318 27.0788 24.1306 27.0788C23.9431 27.0788 23.702 27.0788 23.6485 27.1962C23.5949 27.3136 23.1396 27.8068 23.1396 27.9242C23.1396 28.0417 23.2735 28.4174 23.086 28.5583C22.8985 28.6992 22.3896 28.6288 22.3628 28.8167C22.336 29.0045 22.2557 29.2863 22.1485 29.4273C22.0414 29.5682 22.0414 29.897 22.1753 30.0379C22.3093 30.1788 22.1485 30.5076 22.0682 30.6015C21.9878 30.6954 21.3985 31.1182 21.2915 31.2121C21.1843 31.306 21.104 31.4705 21.5057 31.7288C21.9075 31.9871 22.1753 31.9871 22.1753 32.4568C22.1753 32.9265 22.4967 33.1144 22.4967 33.3023C22.4967 33.4901 22.5503 33.772 22.6574 33.9129C22.7645 34.0537 22.845 34.3591 22.7914 34.4765C22.7378 34.5939 22.5235 34.6174 22.7645 35.0401C23.0056 35.4629 23.086 35.8386 23.086 35.8386C23.086 35.8386 23.9163 36.0969 24.0502 36.2379C24.1841 36.3788 24.5859 36.4258 24.5859 36.4258C24.5859 36.4258 25.5233 36.3553 25.7109 36.2144C25.8984 36.0734 25.8984 35.9795 26.2198 35.9795C26.5412 35.9795 27.3715 35.5803 27.5055 35.5098C27.6394 35.4394 27.8269 35.275 27.934 35.5333C28.0411 35.7917 28.1482 36.1204 28.1482 36.1204C28.1482 36.1204 28.4697 36.6606 28.3893 36.9189C28.309 37.1772 28.7643 37.4356 28.1751 37.4356C27.5858 37.4356 27.6394 37.9758 27.8269 38.1166C28.0143 38.2575 28.6839 38.7272 28.8714 38.7742C29.0589 38.8212 29.3268 38.9387 29.4607 39.3378C29.5946 39.7371 29.9964 39.925 30.05 39.5492C30.1035 39.1735 30.2107 38.6803 30.2107 38.6803C30.7189 38.5636 30.7944 38.0075 31.2754 37.8087C31.8133 37.8014 32.3262 37.5624 32.7151 37.2464C33.2435 36.8171 33.2249 36.4073 33.1876 35.956C33.1876 35.956 33.6121 35.275 34.0674 35.2985C34.5227 35.322 34.737 35.2281 34.8174 35.0401C34.8978 34.8523 35.3799 34.5 35.6477 34.6644C35.9156 34.8288 36.3173 34.8288 36.4513 34.7349C36.5852 34.6409 36.9334 34.3826 36.9334 34.3826L38.8083 35.275L39.4243 35.3689L40.1743 36.0265C40.4421 36.2614 40.6832 36.4023 40.7367 36.731C40.7903 37.0598 40.8172 37.6235 40.8172 37.6235C40.8172 37.6235 40.8707 38.3045 41.085 38.3985C41.2993 38.4924 42.0224 38.8917 42.1296 39.0795C42.2367 39.2674 42.3707 39.6666 42.6117 39.8075C42.8528 39.9485 43.3616 40.1364 43.5224 40.1833C43.6831 40.2303 44.1384 40.6765 44.3259 40.7939C44.5133 40.9113 46.2276 41.522 46.3883 41.5924C46.549 41.6629 47.4329 42.0386 47.4329 42.0386C47.4329 42.0386 48.1025 41.9681 48.3168 42.1561C48.5311 42.3439 49.0935 42.5553 49.0935 42.5553L50.0042 42.7197C50.0042 42.7197 50.6738 42.8606 50.7809 42.8606C50.8881 42.8606 51.3166 42.978 51.156 43.4007C50.9953 43.8235 50.7274 44.1287 50.7274 44.1287L49.5221 45.4204C49.5221 45.4204 48.6382 45.1621 48.5311 45.1621C48.4239 45.1621 48.2096 45.4909 48.2096 45.6083C48.2096 45.7257 48.1561 46.2894 47.8347 46.2189C47.5133 46.1484 47.0312 45.8902 47.0312 45.8902C47.0312 45.8902 46.6561 46.1015 46.6025 46.2424C46.549 46.3833 46.4151 46.853 46.7901 47.0409C47.1651 47.2287 47.8614 46.8765 48.2096 47.4636C48.5578 48.0507 48.8792 48.1682 48.8792 48.1682C48.8792 48.1682 49.1471 48.1447 49.6828 48.1447C50.2185 48.1447 50.4596 48.4735 50.4596 48.4735C50.4596 48.4735 50.7006 48.6144 50.6738 48.8492C50.647 49.0841 50.7006 49.178 50.9148 49.3189C51.1292 49.4598 51.531 50.3757 51.531 50.3757L51.3702 50.9628C51.3702 50.9628 51.9059 50.8689 52.3344 50.8689C52.763 50.8689 52.9773 50.3757 53.2987 50.5871C53.6202 50.7985 54.0219 50.8689 54.129 50.6106C54.2362 50.3522 54.2362 50.0705 54.504 50.1644C54.7719 50.2583 54.879 50.3522 54.879 50.3522C54.879 50.3522 55.3343 50.7045 55.6022 50.7045C55.87 50.7045 56.245 50.9159 56.2985 51.1038C56.3521 51.2916 57.0753 51.2212 57.0218 51.5499C56.9682 51.8788 56.9682 52.3719 57.1289 52.4893C57.2896 52.6068 57.5575 52.8417 57.3699 53.006C57.1824 53.1705 56.7539 53.6166 57.3163 53.6871C57.8789 53.7576 58.0396 53.006 58.3877 53.3818C58.7359 53.7576 58.7359 53.8515 59.0842 53.8515C59.4324 53.8515 59.8342 54.1568 60.0484 54.3917C60.2627 54.6265 60.7448 55.1431 60.7448 55.1431C60.7448 55.1431 61.3608 55.3311 61.6019 55.0257C61.843 54.7204 61.9769 54.6265 62.4322 54.7204C62.8876 54.8144 63.3161 54.6969 63.3965 54.9788C63.4769 55.2606 63.6911 55.5189 63.7447 55.7772C63.7983 56.0356 63.8518 56.6462 63.825 56.7636C63.7983 56.8811 63.5036 56.9046 63.3965 56.928C63.2893 56.9515 63.0215 57.0924 63.0215 57.0924C63.0215 57.0924 63.3161 57.6795 63.8786 57.5856C64.4411 57.4917 64.7892 57.4212 64.9232 57.2802C65.0571 57.1394 65.191 57.0689 65.566 57.0924C65.941 57.1159 66.1285 57.0924 66.2624 57.2802C66.3963 57.4682 66.8249 57.2568 67.1195 57.1863C67.4141 57.1159 67.682 57.1394 67.682 57.4447C67.682 57.75 67.7088 58.1492 67.9767 57.9849C68.2445 57.8204 68.4052 57.656 68.5659 57.6795C68.7266 57.703 68.9676 57.6091 69.1551 57.7734C69.3427 57.9379 69.6105 58.1257 69.8515 57.7265C70.0926 57.3272 71.1907 56.9046 71.2711 56.7871C71.3515 56.6697 72.4497 56.5523 72.9318 56.7166C73.4139 56.8811 74.0299 56.975 73.8692 57.2098C73.7086 57.4447 73.655 58.2197 73.655 58.3136C73.655 58.4075 73.5746 58.7598 73.8692 58.8772C74.1638 58.9947 74.646 58.5485 74.7264 58.384C74.8067 58.2197 74.9674 58.1727 75.1281 58.2197C75.2888 58.2666 75.9852 58.3605 75.4495 58.6189C74.9139 58.8772 75.1549 59.2295 75.2621 59.2295H75.7977C75.9317 59.2295 76.4674 59.2765 76.4674 59.6053C76.4674 59.934 76.7352 60.4742 76.8423 60.6152C76.9495 60.756 77.4852 60.7795 77.9404 60.7795C78.3958 60.7795 78.7708 60.7326 78.8512 60.4507C78.9315 60.1689 79.0118 60.028 79.1726 59.8871C79.3333 59.7462 79.3601 59.6523 79.3601 59.4878C79.3601 59.3234 79.4404 58.8068 79.4404 58.8068L80.1636 58.1023L80.2253 58.0735Z" fill="#D2E6FC" stroke="#6D94BC" stroke-width="3.60191"/>
</g>
</svg>
